<svg xmlns="http://www.w3.org/2000/svg" viewBox="0 0 74.43 74.68"><defs><style>.cls-1{fill:#f12827;}.cls-2{fill:#fbcca3;}</style></defs><g id="Layer_2" data-name="Layer 2"><g id="Layer_1-2" data-name="Layer 1"><circle class="cls-1" cx="37.67" cy="37.36" r="36.42"/><path class="cls-1" d="M74.32,32.74a35.78,35.78,0,0,0-8.87-20c-.53-.57-1.06-1.15-1.61-1.7L62.08,9.49l-.88-.76-.94-.68L58.37,6.7A52.84,52.84,0,0,0,50.2,2.44a2,2,0,0,1-.27-.08,51.33,51.33,0,0,0-7.8-2A11.83,11.83,0,0,0,40.57.17L39,.07C38.49.05,38,0,37.44,0L35.88.09h-.22L34.12.18c-.57,0-1.19.17-1.91.27-.89.14-1.65.22-2.3.36l-1.72.41-1.48.38c-.5.14-1,.33-1.45.49l-1.45.49-.73.23-.7.3-1.67.79-1,.46-.8.48-1.36.82a18.26,18.26,0,0,0-2,1.38c-.6.46-1.22.89-2,1.49S12.05,9.91,11,11,9.15,12.88,8.53,13.6L7,15.54a16.54,16.54,0,0,0-1.39,2A24.56,24.56,0,0,0,3.85,20.7L3,22.52c-.24.54-.4,1-.57,1.48-.32.89-.61,1.6-.84,2.32A39,39,0,0,0,.28,32.26,21.37,21.37,0,0,0,0,35.85,14.77,14.77,0,0,0,.09,38.3c.07.75.14,1.5.23,2.44s.34,2,.55,3.53a45.57,45.57,0,0,0,1.52,5.82c.25.71.44,1.45.82,2.31s.85,1.9,1.58,3.22,1.36,2.26,1.91,3l1.49,1.94a20.53,20.53,0,0,0,1.62,1.83,26,26,0,0,0,2.53,2.52c.56.5,1.05.94,1.48,1.34l1.26.94c.76.55,1.34,1,2,1.43a36.69,36.69,0,0,0,5.28,2.88,12.31,12.31,0,0,0,1.84.75l1.49.53a16.93,16.93,0,0,0,2.35.65c.73.16,1.45.37,2.37.54l3.52.5,3.56.18c.93,0,1.68-.06,2.43-.08a30.47,30.47,0,0,0,5.93-.78c1.45-.4,2.55-.63,3.42-1l2.26-.9c.7-.26,1.35-.65,2.18-1.06l1.4-.7c.52-.26,1-.64,1.69-1l1.5-.92a51,51,0,0,0,8.16-7.92,35.7,35.7,0,0,0,5.69-9.86,23.48,23.48,0,0,0,1-3.24l.41-1.65.21-.82.12-.84c.11-.83.38-2,.46-3.17a12.13,12.13,0,0,0-.16-3,.71.71,0,0,0-.19-.39h-.11a3.18,3.18,0,0,0-.52,1.39A33.34,33.34,0,0,1,66.86,58L66,59.17a11.53,11.53,0,0,1-1.17,1.47,38.51,38.51,0,0,1-4.1,4c-.52.49-1.14.86-1.85,1.41L57.66,67l-1.63,1a16.61,16.61,0,0,1-1.65.94L53,69.5a14.69,14.69,0,0,1-2.15.87l-2.2.72c-.84.29-1.9.47-3.27.84a37.4,37.4,0,0,1-5.62.78c-.71,0-1.42.11-2.31.11l-3.38-.17-3.33-.54c-.87-.2-1.54-.43-2.23-.61a17.25,17.25,0,0,1-2.18-.72L25,70.25a12.28,12.28,0,0,1-1.73-.73,40.79,40.79,0,0,1-4.95-2.72c-.61-.36-1.15-.83-1.86-1.35l-1.19-.89-1.38-1.27a24.45,24.45,0,0,1-2.36-2.39A18.9,18.9,0,0,1,10,59.16L8.61,57.32c-.5-.72-1-1.66-1.76-2.86s-1.07-2.23-1.47-3S4.83,50,4.57,49.29a33.15,33.15,0,0,1-1.46-5.44c-.18-1.4-.39-2.44-.43-3.32s-.05-1.59-.07-2.29A15,15,0,0,1,2.66,36,27.41,27.41,0,0,1,3,32.63c.35-2.81.81-4.15,1.06-5.55.18-.69.42-1.35.69-2.2.14-.42.28-.89.49-1.4s.5-1.07.8-1.71a24.19,24.19,0,0,1,1.63-3,15.79,15.79,0,0,1,1.26-1.93L10.28,15c.56-.68,1.3-1.46,2.25-2.52s1.83-1.69,2.47-2.3,1.28-1,1.84-1.41a14.19,14.19,0,0,1,1.9-1.32L20,6.69l.76-.47.9-.44A30.24,30.24,0,0,1,27,3.66c.68-.2,1.39-.33,2.25-.54.43-.1.9-.23,1.44-.35l1.87-.29c.7-.09,1.31-.24,1.87-.26l1.48-.07a20.81,20.81,0,0,1,2.31-.06,42.46,42.46,0,0,1,5.65.55l1,.15.86.22,1.44.35c.43.11.83.19,1.19.3l1,.36,2.18.77,3.06,1.45,2.75,1.65c.71.48,1.25.91,1.79,1.3l.26.19a34.22,34.22,0,0,1,8.74,9,28.85,28.85,0,0,1,2.54,5.36c.49,1.4.86,2.37,1.09,3.26s.38,1.68.6,2.68l.07.26c.23,1,.41,2.27.68,3.48a21.44,21.44,0,0,0,.64,3.28c.39,1.21.57.46.65-.74A16.26,16.26,0,0,0,74.32,32.74Z"/><path class="cls-2" d="M45.19,41.35a4.08,4.08,0,0,0,2.52-.14c.81-.41,1.23-.6,1.66-.8a7.59,7.59,0,0,0,1.12-.58l.44-.8.28-.5a8.56,8.56,0,0,1,.93-1.33,2.84,2.84,0,0,1,1-.79,6.38,6.38,0,0,1,1.3-.4A2.43,2.43,0,0,1,55,36a2.58,2.58,0,0,1,.36,0l.16,0c.15.07.2.17.11.22a.67.67,0,0,1-.19.11s0,0,0,0l-.16.25-.38.63c-1,1.61-1,1.58-2,3.16-.52.79-.76,1.19-1,1.59-.12.2-.24.41-.39.62a4.91,4.91,0,0,1-.64.75c-1.33,1.34-1.39,1.29-2.75,2.61s-1.43,1.26-2.83,2.44c-.35.28-.6.5-.78.66l-.24.22c-.06.06,0,.07,0,.1s0,.06,0,.07,0,0-.06,0l-.22,0a11.31,11.31,0,0,1-1.14.05c-1.93,0-1.93-.16-3.85-.16S37,49.6,35,49.6l-3.86.06-.83,0a5.57,5.57,0,0,0-.85.06A2.23,2.23,0,0,0,28.14,51c-.36,1.31,1.54.74,1.74,1.1l.37.16h.94c1.93,0,1.93-.09,3.85-.09l3.85,0c1.93,0,1.93-.1,3.85-.1.48,0,.85,0,1.15,0l.21,0a1.93,1.93,0,0,0,.33,0l.61-.18a4.56,4.56,0,0,0,.51-.31l.38-.29,1-.78c1.52-1.27,1.86-.88,3.3-2.22s1.29-1.47,2.67-2.86l.47-.5c.13-.14.31-.36.4-.47l.49-.67c.29-.41.58-.81,1.12-1.63,1.07-1.65.82-1.79,1.83-3.48.15-.26.27-.49.38-.69l.34-.7c.24-.53.41-1,.62-1.49a3,3,0,0,0-.53-.64,4.21,4.21,0,0,0-1.12-.81,8.53,8.53,0,0,0-1-.38l-.63-.2h-.08a5.86,5.86,0,0,0-2.65.37,5.49,5.49,0,0,0-2.16,1.58,14.71,14.71,0,0,0-1.39,2c-.1.16-.22.37-.24.38a.2.2,0,0,1-.17.12,2.18,2.18,0,0,0-.41.15l-.53.19h0a11.69,11.69,0,0,1-1.09.63c-.44.23-.78.38-1.06.5a7.06,7.06,0,0,0-.79.86C44.53,40.8,44.65,41.12,45.19,41.35Z"/><path class="cls-2" d="M20.77,43.88a3,3,0,0,0,2-.56c1-1,1.13-1,2.19-2l.36-.36.24-.22.4-.33a7,7,0,0,1,1.09-.7l1-.5.16-.07a1.24,1.24,0,0,1,.23,0,7.56,7.56,0,0,1,.91,0c1.54,0,1.54.28,3.09.28h.88l.1,0a6.24,6.24,0,0,1,.92.61c.29.22.52.39.76.55a7.79,7.79,0,0,0,.75.42,3.09,3.09,0,0,0,1.16.28l1,0c1.54,0,1.54.07,3.08.07H42.4l.19,0a1.63,1.63,0,0,1,.37.08l.21.06a1,1,0,0,0,.21.11c.28.17.36.24.54.34a.64.64,0,0,1,.21.67.82.82,0,0,1-.48.56,1.27,1.27,0,0,1-.3.11,3.31,3.31,0,0,1-.52.14l-1.32.12A10.81,10.81,0,0,1,40,43.6c-1.54,0-1.54.06-3.08.06-.52,0-.86,0-1.15,0a3.24,3.24,0,0,0-1,.46c-.89.62.2,1.66.77,1.93a3.18,3.18,0,0,0,.58.23l.83,0c1.54,0,1.54-.09,3.08-.09h1.55a13.74,13.74,0,0,0,1.76-.08,4.58,4.58,0,0,0,1.22-.4,3,3,0,0,0,.77-.52,3.77,3.77,0,0,0,1.23-2,3,3,0,0,0-.28-2.27,4.34,4.34,0,0,0-1.54-1.55L44.06,39l-.49-.21a8.08,8.08,0,0,0-.78-.3l-.38-.13-.34-.09a4.48,4.48,0,0,0-.92-.08c-1.54,0-1.54.17-3.08.17h-.79l-.07,0a3,3,0,0,1-.34-.24l-.72-.54a4.37,4.37,0,0,0-1.72-.84,3.73,3.73,0,0,0-1-.11c-.28,0-.54,0-.94,0-1.54,0-1.54.19-3.08.19a3.57,3.57,0,0,1-1-.12h-.07c-3.24.35-4.64,2.83-6.61,4.11h0a7.57,7.57,0,0,1-.68.76c-.28.28-.5.48-.69.64a4.64,4.64,0,0,0-.34.9C20,43.5,20.24,43.77,20.77,43.88Z"/><path class="cls-2" d="M25.43,58.37a3.62,3.62,0,0,0-.77-2.24c-1.19-1.2-1.14-1.3-2.38-2.54l-2.54-2.52C18.47,49.81,18.3,50,17,48.72a10.45,10.45,0,0,1-1.16-1.36l-.21-.28c-.05-.08-.2-.24-.15-.22s0,0,0-.06h0a.11.11,0,0,1,.07,0c.26-.24.61-.57,1.17-1.13a16,16,0,0,0,1.2-1.32l.22-.26.12-.14v0a.18.18,0,0,1,.06-.1l0,0a.77.77,0,0,1,.1.15c.29.32.59.64,1.17,1.22,1.26,1.26,1.22,1.31,2.48,2.57s1.51,1,2.77,2.29S26,51.39,27.3,52.65l.66.64.27.23.11.09h0a1.23,1.23,0,0,1,.3.17l-.09.1-.71.76c-.31.33-.62.65-1.25,1.29a12.44,12.44,0,0,1-1,.9A4.88,4.88,0,0,0,25.13,58c-.28,1.16,1.35,1,2,.73a6.14,6.14,0,0,0,.63-.31c.19-.18.42-.39.7-.67.63-.63.93-1,1.23-1.29l.49-.54,1.35-1.37.76-.77-3.09-3.07c-1.26-1.27-1.33-1.19-2.6-2.46s-1.42-1.1-2.69-2.36S23,44.25,21.78,43a14,14,0,0,0-1.24-1.14c-.6-.55-1.18-1.07-2.17-2l-.42.43-3.32,3.31a10.93,10.93,0,0,0-1.12,1.3c-.49.58-.9,1.09-1.72,1.94l.49.48c.54.54,1,.94,1.3,1.26l.35.3.27.22a16,16,0,0,1,1.32,1.2,4.86,4.86,0,0,1,.73.89l.05,0a53.52,53.52,0,0,1,5.82,5.94l0,0c.23.19.5.43.86.79s.56.58.74.8a7,7,0,0,0,1,.44C25.09,59.15,25.36,58.93,25.43,58.37Z"/><path class="cls-2" d="M20.6,48.54a4.76,4.76,0,0,0,.65-.83c-.07-.07,0-.14-.07-.22s-.08-.06-.16-.13-.25.1-.32,0,.12-.27,0-.34,0-.12-.1-.19-.19,0-.26,0,0-.12-.1-.2,0-.12-.1-.19-.32.17-.39.09,0-.19,0-.26-.19,0-.27,0-.11,0-.19-.11a.09.09,0,0,1,0-.09,3.16,3.16,0,0,0-.38.28,10.65,10.65,0,0,0-1.33,1.4l-.14.19s0,0,0,.06.14,0,.21.08a1.07,1.07,0,0,1,.16.14c.08.07.15,0,.22.07s.24-.08.32,0-.32.46-.24.53.19,0,.27,0l.14.16c.08.07.28-.14.36-.06s.2-.06.28,0,0,.07,0,.13h0c.13.1.47,0,.29.4h0s.07,0,.09,0a.1.1,0,0,1,0,.07,3,3,0,0,0,.32-.23C20.05,49.11,20.3,48.87,20.6,48.54Z"/><path class="cls-2" d="M43.71,39.58a2.75,2.75,0,0,0,1-1.72c0-1.38.11-1.41.11-2.83v-2.9c0-1.45-.25-1.45-.25-2.9s.28-1.45.28-2.89.06-1.45.06-2.9v-.08h0s0,0,0,0a.29.29,0,0,1-.07-.08s0-.06.06-.06h.59l.58,0c.37,0,.73,0,1.45,0h1.29s0,0,0,0h0a.19.19,0,0,1,.17,0,4.32,4.32,0,0,1,.17,1.39c0,1.45-.16,1.45-.16,2.9s.17,1.45.17,2.9.06,1.45.06,2.9c0,.48,0,.81-.05,1.08a3.14,3.14,0,0,0,.46,1c.62.83,1.66-.19,1.93-.73a3.13,3.13,0,0,0,.23-.54c0-.21,0-.46,0-.78,0-1.45-.09-1.45-.09-2.9l0-2.9c0-1.45-.1-1.45-.1-2.9a9.47,9.47,0,0,0-.11-1.51,20.7,20.7,0,0,1-.12-2.38v-.07a9.51,9.51,0,0,1-2.32-.28l-.25,0-.14,0a1.58,1.58,0,0,0-.31-.09,4,4,0,0,0-.86-.08,11.5,11.5,0,0,0-1.45.08l-.59.06a11.23,11.23,0,0,1-1.14,0H42v3.06c0,1.45.29,1.45.29,2.9s.19,1.45.19,2.89a3.23,3.23,0,0,1-.12.93v0c0,2.25.34,4.5-.08,6.74v0a7.75,7.75,0,0,1,0,.95,7,7,0,0,1,0,.88,5.74,5.74,0,0,0,.4.83A.88.88,0,0,0,43.71,39.58Z"/><path class="cls-2" d="M43.71,21.59a2.68,2.68,0,0,0,1-1.68c0-1.34.11-1.37.11-2.76,0-1.92,0-2.23,0-3.83H44c-.69,0-1.21,0-1.64,0-.19,0-.43,0-.54,0l-.27,0a7.17,7.17,0,0,1-1.42.13,6.3,6.3,0,0,1-1.41-.14c-.17,0-.35-.07-.57-.1l-.19,0h-1.3l-1.76,0c0,1.19,0,1.73,0,3.46,0,1.41.16,1.41.16,2.82s-.08,1.41-.08,2.83-.06,1.41-.06,2.82.34,1.41.34,2.82S35,29.44,35,30.85s.17,1.41.17,2.82.06,1.41.06,2.83c0,.47,0,.79-.05,1a2.79,2.79,0,0,0,.46.93c.62.82,1.66-.18,1.93-.7a3,3,0,0,0,.23-.53c0-.21,0-.45,0-.76,0-1.42-.09-1.42-.09-2.83l0-2.82c0-1.41-.1-1.41-.1-2.83s-.23-1.41-.23-2.82.55-1.41.55-2.82-.17-1.42-.17-2.83V16.37l0-.05-.06-.08a1.39,1.39,0,0,1-.16-.28s.1-.06.21-.06h.37l.57-.06a8.74,8.74,0,0,1,1.41-.1,3.13,3.13,0,0,1,.91.12h0a8.68,8.68,0,0,0,1.39-.09c0,.13,0,.27,0,.41v.77A12.59,12.59,0,0,1,42.26,19v0a7.39,7.39,0,0,1,0,.93,6.78,6.78,0,0,1,0,.86,5.43,5.43,0,0,0,.4.8A.91.91,0,0,0,43.71,21.59Z"/><path class="cls-2" d="M29.71,37.71a1.6,1.6,0,0,0,1-.71c0-.57.11-.58.11-1.16V34.65c0-.6-.25-.6-.25-1.19s.28-.59.28-1.19.06-.59.06-1.19a1.92,1.92,0,0,0-.08-.59l0-.12s0,0,0,0,0,0,0,0,.07,0,.08,0h0s.08.06.08.06h0s0,0,.07,0a.9.9,0,0,0,.24-.12,1.1,1.1,0,0,1,.6-.17c.59,0,.59.17,1.19.17s.59-.18,1.19-.18.59-.05,1.19-.05a1.61,1.61,0,0,1,.44.05,1.46,1.46,0,0,0,.39-.47,2.19,2.19,0,0,0-.3-1.93,1.61,1.61,0,0,0-.22-.23l-.32,0c-.59,0-.59.09-1.19.09l-1.19,0c-.59,0-.59.1-1.19.1a1.58,1.58,0,0,0-.59.11,1.61,1.61,0,0,1-.79.12c-.95,0-1.26-.54-2.48-.54h-.16c0,1.05.17,1.22.17,2.26v1.6c0,.59.29.59.29,1.19s.19.59.19,1.18a.59.59,0,0,1-.12.38v0c0,.93.34,1.85-.08,2.77h0a1.32,1.32,0,0,1,.05.39,1.19,1.19,0,0,1,0,.36,2.3,2.3,0,0,0,.4.34A2,2,0,0,0,29.71,37.71Z"/></g></g></svg>