<svg xmlns="http://www.w3.org/2000/svg" viewBox="0 0 74.43 74.68"><defs><style>.cls-1{fill:#f12827;}.cls-2{fill:#fbcca3;}</style></defs><g id="Layer_2" data-name="Layer 2"><g id="Layer_1-2" data-name="Layer 1"><circle class="cls-1" cx="37.67" cy="37.36" r="36.42"/><path class="cls-1" d="M74.32,32.74a35.78,35.78,0,0,0-8.87-20c-.53-.57-1.06-1.15-1.61-1.7L62.08,9.49l-.88-.76-.94-.68L58.37,6.7A52.84,52.84,0,0,0,50.2,2.44a2,2,0,0,1-.27-.08,51.33,51.33,0,0,0-7.8-2A11.83,11.83,0,0,0,40.57.17L39,.07C38.49.05,38,0,37.44,0L35.88.09h-.22L34.12.18c-.57,0-1.19.17-1.91.27-.89.14-1.65.22-2.3.36l-1.72.41-1.48.38c-.5.14-1,.33-1.45.49l-1.45.49-.73.23-.7.3-1.67.79-1,.46-.8.48-1.36.82a18.26,18.26,0,0,0-2,1.38c-.6.46-1.22.89-2,1.49S12.05,9.91,11,11,9.15,12.88,8.53,13.6L7,15.54a16.54,16.54,0,0,0-1.39,2A24.56,24.56,0,0,0,3.85,20.7L3,22.52c-.24.54-.4,1-.57,1.48-.32.89-.61,1.6-.84,2.32A39,39,0,0,0,.28,32.26,21.37,21.37,0,0,0,0,35.85,14.77,14.77,0,0,0,.09,38.3c.07.75.14,1.5.23,2.44s.34,2,.55,3.53a45.57,45.57,0,0,0,1.52,5.82c.25.71.44,1.45.82,2.31s.85,1.9,1.58,3.22,1.36,2.26,1.91,3l1.49,1.94a20.53,20.53,0,0,0,1.62,1.83,26,26,0,0,0,2.53,2.52c.56.5,1.05.94,1.48,1.34l1.26.94c.76.55,1.34,1,2,1.43a36.69,36.69,0,0,0,5.28,2.88,12.31,12.31,0,0,0,1.84.75l1.49.53a16.93,16.93,0,0,0,2.35.65c.73.16,1.45.37,2.37.54l3.52.5,3.56.18c.93,0,1.68-.06,2.43-.08a30.47,30.47,0,0,0,5.93-.78c1.45-.4,2.55-.63,3.42-1l2.26-.9c.7-.26,1.35-.65,2.18-1.06l1.4-.7c.52-.26,1-.64,1.69-1l1.5-.92a51,51,0,0,0,8.16-7.92,35.7,35.7,0,0,0,5.69-9.86,23.06,23.06,0,0,0,1-3.24l.41-1.65.21-.82.12-.84c.11-.83.38-2,.46-3.17a12.13,12.13,0,0,0-.16-3,.71.71,0,0,0-.19-.39h-.11a3.18,3.18,0,0,0-.52,1.39A33.34,33.34,0,0,1,66.86,58L66,59.17a11.53,11.53,0,0,1-1.17,1.47,38.51,38.51,0,0,1-4.1,4c-.52.48-1.14.86-1.85,1.41L57.66,67l-1.63,1a16.61,16.61,0,0,1-1.65.94L53,69.5a14.69,14.69,0,0,1-2.15.87l-2.2.72c-.84.29-1.9.47-3.27.84a37.4,37.4,0,0,1-5.62.78c-.71,0-1.42.11-2.31.11l-3.38-.17-3.33-.54c-.87-.2-1.54-.43-2.23-.61a17.25,17.25,0,0,1-2.18-.72L25,70.25a12.28,12.28,0,0,1-1.73-.73,40.79,40.79,0,0,1-4.95-2.72c-.61-.36-1.15-.83-1.86-1.35l-1.19-.89-1.38-1.27a24.45,24.45,0,0,1-2.36-2.39A18.9,18.9,0,0,1,10,59.16L8.61,57.32c-.5-.72-1-1.66-1.76-2.86s-1.07-2.23-1.47-3S4.83,50,4.57,49.29a33.15,33.15,0,0,1-1.46-5.44c-.18-1.4-.39-2.44-.43-3.32s-.05-1.59-.07-2.29A15,15,0,0,1,2.66,36,27.41,27.41,0,0,1,3,32.63c.35-2.81.81-4.15,1.06-5.55.18-.69.42-1.35.69-2.2.14-.42.28-.89.49-1.4L6,21.77a24.19,24.19,0,0,1,1.63-3,15.79,15.79,0,0,1,1.26-1.93L10.28,15c.56-.68,1.3-1.45,2.25-2.52s1.83-1.69,2.47-2.3,1.28-1,1.84-1.41a14.19,14.19,0,0,1,1.9-1.32L20,6.69l.76-.47.9-.44A30.24,30.24,0,0,1,27,3.66c.68-.2,1.39-.33,2.25-.54.43-.1.9-.23,1.44-.35l1.87-.29c.7-.09,1.31-.24,1.87-.26l1.48-.07a20.81,20.81,0,0,1,2.31-.06,42.46,42.46,0,0,1,5.65.55l1,.15.86.22,1.44.35c.43.11.83.19,1.19.3l1,.36,2.18.77,3.06,1.45,2.75,1.65c.71.48,1.25.91,1.79,1.3l.26.19a34.22,34.22,0,0,1,8.74,9,28.85,28.85,0,0,1,2.54,5.36c.49,1.4.86,2.37,1.09,3.26s.38,1.68.6,2.68l.07.26c.23,1,.41,2.27.68,3.48a21.44,21.44,0,0,0,.64,3.28c.39,1.21.57.46.65-.74A16.26,16.26,0,0,0,74.32,32.74Z"/><path class="cls-2" d="M43.2,18.74a6.61,6.61,0,0,0-1,3.11c0,2.47-.11,2.52-.11,5.09l0,5.22a21.39,21.39,0,0,0,.13,2.61c0,.33.06.65.08,1.06l0,1.09c0,.11,0,.19,0,.19a.68.68,0,0,1-.24-.07L42,37l-.4,0-.45,0-.39,0H39.68c-.2,0-.31.09-.48.13s-.69.16-1,.55l-1,1-.22.22c-.06.08-.2.14-.12.22l.18.44c.12.28.22.54.32.77a6.27,6.27,0,0,0,.57.76l2,2.48c1.65,2,1.78,1.92,3.43,3.94.78,1,1.18,1.47,1.57,2l.92,1.16,1.73,2.13.34-.41c.8-1,1.41-1.71,1.91-2.33.29-.33.52-.6.74-.87.43-.49.86-1,1.68-2,1.65-2,1.39-2.23,3-4.25,1.1-1.34,1.52-1.75,2.31-2.63l.73-.82-.82-1c-.19-.22-.33-.38-1.37-1.43h-2l-.88,0h-.12l-.08,0-.21,0a1,1,0,0,1,0-.33l-.06-5.2c0-.88,0-1.46,0-1.95a7.85,7.85,0,0,0-.46-1.73c-.62-1.5-1.66.35-1.94,1.31-.09.32-.16.65-.22,1s0,.82,0,1.41c0,2.63.1,2.56.1,5.26v2.84H55l.62.58-.09-1.78c-.73.94-1.07,1.42-2.17,2.77-1.65,2-1.47,2.17-3.13,4.19a10.28,10.28,0,0,1-1.86,1.84l-.75.63c-.06,0-.06-.06-.06-.06h0c.23.32-.63-.49-2.07-2.25l-3.3-4c-.41-.5-.74-.87-1-1.17l-.2-.21c-.06-.06-.14-.15-.14-.13l-.1,0c-.11-.06-.58-.24-.17-.51.12-.09.26,0,.36-.07h.23l.45,0,.45,0,.73,0,1.71-.05c0-.16,0-.81,0-1.6v-.8l0-.48c0-.27,0-.51.08-.72v-.09c0-4.06-.34-8.11.09-12.15v-.05c0-.44-.06-1-.06-1.71s0-1.17,0-1.59a10.54,10.54,0,0,0-.4-1.49C44,18.29,43.65,18.23,43.2,18.74Z"/><path class="cls-2" d="M27.2,37.65a4.41,4.41,0,0,0-1,2.41c0,1.91-.11,1.95-.11,3.93,0,.84,0,1.33,0,1.79v.11H26s0,0-.06,0l-.25,0-.43,0-.2,0-.32,0-.7.05-.37,0-.3.13c-.21.09-.44.16-.69.28l-.74.75c-.28.27-.53.52-.76.73s-.05.12,0,.18l.08.17.12.31a3.29,3.29,0,0,0,.55,1.11l.84,1.18c.18.26.41.56.72.95L26,55c1.28,1.56,1.4,1.46,2.68,3l2.89,3.62L33,59.91l1.2-1.45.53-.62c.34-.38.67-.76,1.31-1.54,1.27-1.56,1-1.78,2.28-3.34s1.41-1.46,2.68-3c.26-.31.46-.56.58-.72l.75-1-.84-.77-1.43-1.3-1.19,0-1,0H37l-.26,0v-.57c0-.68,0-1.13,0-1.5a5.06,5.06,0,0,0-.46-1.34c-.62-1.16-1.66.27-1.94,1a6.61,6.61,0,0,0-.22.76c0,.29,0,.64,0,1.09,0,.76,0,1.37,0,1.86l0,1.27,1.88,0,1.87,0H39l.06.05.55.54-.09-1.81-.6.73c-1.28,1.56-1.2,1.62-2.47,3.18s-1.1,1.71-2.38,3.27a6.74,6.74,0,0,1-1.49,1.39,7.94,7.94,0,0,0-.66.51l-.34.32v0a.09.09,0,0,1-.07.06s0,0-.08,0l-.58-.69c-1.28-1.56-1.28-1.56-2.55-3.13s-1.51-1.37-2.78-2.93c-.32-.39-.57-.68-.78-.91a1.73,1.73,0,0,0-.27-.22l-.27-.23c0-.05-.15-.11-.13-.17l.18-.2c.09-.07.16-.15.25-.16l.27.08h0l3.73-.08,0-2.44c0-.56,0-1,0-1.54a23.73,23.73,0,0,1,.21-3v0c0-.34-.06-.75-.06-1.32s0-.9,0-1.23a6.81,6.81,0,0,0-.4-1.15C28,37.31,27.65,37.26,27.2,37.65Z"/><path class="cls-2" d="M29.2,13.59a3.2,3.2,0,0,0-1,1.9c0,1.51-.11,1.54-.11,3.1l0,3.19c0,1.59.25,1.59.25,3.18,0,.3,0,.55,0,.76s0,.08,0,.12l0,0a.17.17,0,0,1-.15,0l-.07,0h-.19l-.65,0-1.15,0h-.4c-.14,0-.21.07-.34.11l-.77.3c-.5.44-.84.84-1.13,1.14l-.39.43-.17.19c0,.06.07.13.1.2a8,8,0,0,0,1.48,2.24l.75.93.39.51c.24.32.48.64,1,1.26,1,1.23,1,1.27,2,2.51s1.27,1,2.28,2.24c.23.28.4.51.54.7s.41.55.59.8c.41.56.83,1.13,1.62,2.12l.32-.37c1-1.13,1.44-1.74,1.88-2.31a12.61,12.61,0,0,1,1-1.28c1-1.21,1-1.24,2-2.45.35-.41.6-.66.81-.87a3.52,3.52,0,0,0,.34-1.1c.12-1.1-1.4-.92-2-.66a5,5,0,0,0-.56.31c-.16.17-.35.37-.58.64-1,1.2-1,1.27-2,2.48l-1,1.19-.14.17,0,0a.76.76,0,0,0-.16-.11l0,0,0,0L33.23,37l-.57-.68c-1-1.23-1.19-1.09-2.2-2.32s-.59-1.57-1.59-2.81A15.36,15.36,0,0,0,27.79,30l-.45-.46L26.88,29l-.1-.13s0-.06.1-.11a.09.09,0,0,0,.08-.05l.05,0,0,0,.15,0,.65-.1a5,5,0,0,1,.6,0h.91c.66,0,1.15,0,1.29,0,0-.79-.07-1.32-.1-1.88l-.05-.85c0-.21,0-.46,0-.76a3.82,3.82,0,0,1,.11-1v-.06c0-2.47-.34-4.94.09-7.41v0a8.83,8.83,0,0,1-.06-1c0-.41,0-.72,0-1a4.58,4.58,0,0,0-.4-.91A.82.82,0,0,0,29.2,13.59Z"/></g></g></svg>