<svg xmlns="http://www.w3.org/2000/svg" viewBox="0 0 74.43 74.68"><defs><style>.cls-1{fill:#f12827;}.cls-2{fill:#fbcca3;}</style></defs><g id="Layer_2" data-name="Layer 2"><g id="Layer_1-2" data-name="Layer 1"><circle class="cls-1" cx="37.67" cy="37.36" r="36.42"/><path class="cls-1" d="M74.32,32.74a35.78,35.78,0,0,0-8.87-20c-.53-.57-1.06-1.15-1.61-1.7L62.08,9.49l-.88-.76-.94-.68L58.37,6.7A52.84,52.84,0,0,0,50.2,2.44a2,2,0,0,1-.27-.08,51.33,51.33,0,0,0-7.8-2A11.83,11.83,0,0,0,40.57.17L39,.07C38.49.05,38,0,37.44,0L35.88.09h-.22L34.12.18c-.57,0-1.19.17-1.91.27-.89.14-1.65.22-2.3.36l-1.72.41-1.48.38c-.5.14-1,.33-1.45.49l-1.45.49-.73.23-.7.3-1.67.79-1,.46-.8.48-1.36.82a18.26,18.26,0,0,0-2,1.38c-.6.46-1.22.89-2,1.49S12.05,9.91,11,11,9.15,12.88,8.53,13.6L7,15.54a16.54,16.54,0,0,0-1.39,2A24.56,24.56,0,0,0,3.85,20.7L3,22.52c-.24.54-.4,1-.57,1.48-.32.89-.61,1.6-.84,2.32A39,39,0,0,0,.28,32.26,21.37,21.37,0,0,0,0,35.85,14.77,14.77,0,0,0,.09,38.3c.07.75.14,1.5.23,2.44s.34,2,.55,3.53a45.57,45.57,0,0,0,1.52,5.82c.25.71.44,1.45.82,2.31s.85,1.9,1.58,3.22,1.36,2.26,1.91,3l1.49,1.94a20.53,20.53,0,0,0,1.62,1.83,26,26,0,0,0,2.53,2.52c.56.5,1.05.94,1.48,1.34l1.26.94c.76.55,1.34,1,2,1.43a36.69,36.69,0,0,0,5.28,2.88,12.31,12.31,0,0,0,1.84.75l1.49.53a16.93,16.93,0,0,0,2.35.65c.73.16,1.45.37,2.37.54l3.52.5,3.56.18c.93,0,1.68-.06,2.43-.08a30.47,30.47,0,0,0,5.93-.78c1.45-.4,2.55-.63,3.42-1l2.26-.9c.7-.26,1.35-.65,2.18-1.06l1.4-.7c.52-.26,1-.64,1.69-1l1.5-.92a51,51,0,0,0,8.16-7.92,35.7,35.7,0,0,0,5.69-9.86,23.48,23.48,0,0,0,1-3.24l.41-1.65.21-.82.12-.84c.11-.83.38-2,.46-3.17a12.13,12.13,0,0,0-.16-3,.71.71,0,0,0-.19-.39h-.11a3.18,3.18,0,0,0-.52,1.39A33.34,33.34,0,0,1,66.86,58L66,59.17a11.53,11.53,0,0,1-1.17,1.47,38.51,38.51,0,0,1-4.1,4c-.52.49-1.14.86-1.85,1.41L57.66,67l-1.63,1a16.61,16.61,0,0,1-1.65.94L53,69.5a14.69,14.69,0,0,1-2.15.87l-2.2.72c-.84.29-1.9.47-3.27.84a37.4,37.4,0,0,1-5.62.78c-.71,0-1.42.11-2.31.11l-3.38-.17-3.33-.54c-.87-.2-1.54-.43-2.23-.61a17.25,17.25,0,0,1-2.18-.72L25,70.25a12.28,12.28,0,0,1-1.73-.73,40.79,40.79,0,0,1-4.95-2.72c-.61-.36-1.15-.83-1.86-1.35l-1.19-.89-1.38-1.27a24.45,24.45,0,0,1-2.36-2.39A18.9,18.9,0,0,1,10,59.16L8.61,57.32c-.5-.72-1-1.66-1.76-2.86s-1.07-2.23-1.47-3S4.83,50,4.57,49.29a33.15,33.15,0,0,1-1.46-5.44c-.18-1.4-.39-2.44-.43-3.32s-.05-1.59-.07-2.29A15,15,0,0,1,2.66,36,27.41,27.41,0,0,1,3,32.63c.35-2.81.81-4.15,1.06-5.55.18-.69.42-1.35.69-2.2.14-.42.28-.89.49-1.4L6,21.77a24.19,24.19,0,0,1,1.63-3,15.79,15.79,0,0,1,1.26-1.93L10.28,15c.56-.68,1.3-1.46,2.25-2.52s1.83-1.69,2.47-2.3,1.28-1,1.84-1.41a14.19,14.19,0,0,1,1.9-1.32L20,6.69l.76-.47.9-.44A30.24,30.24,0,0,1,27,3.66c.68-.2,1.39-.33,2.25-.54.43-.1.9-.23,1.44-.35l1.87-.29c.7-.09,1.31-.24,1.87-.26l1.48-.07a20.81,20.81,0,0,1,2.31-.06,42.46,42.46,0,0,1,5.65.55l1,.15.86.22,1.44.35c.43.11.83.19,1.19.3l1,.36,2.18.77,3.06,1.45,2.75,1.65c.71.48,1.25.91,1.79,1.3l.26.19a34.22,34.22,0,0,1,8.74,9,28.55,28.55,0,0,1,2.54,5.36c.49,1.4.86,2.37,1.09,3.26s.38,1.68.6,2.68l.07.26c.23,1,.41,2.27.68,3.48a21.44,21.44,0,0,0,.64,3.28c.39,1.21.57.46.65-.74A16.26,16.26,0,0,0,74.32,32.74Z"/><path class="cls-2" d="M58.57,55A2.1,2.1,0,0,0,60,54.25a2.78,2.78,0,0,0,.5-1c.1-.44.11-.67.16-1,.16-1.16.27-2.44.36-3.69,0-5.23.11-5.34.11-10.76v-11c0-.69,0-1.29,0-1.83,0-.1,0-.38,0-.58a3.22,3.22,0,0,0-.15-.63,3.35,3.35,0,0,0-.56-1,3.4,3.4,0,0,0-1.65-1.13,3.11,3.11,0,0,0-.89-.14c-.17,0-.25,0-.33,0h-.26c-1.38.07-2.76.13-5.52.13-5.52,0-5.52-.28-11.05-.28l-11-.06c-5.52,0-5.52.16-11,.16h-1a3.56,3.56,0,0,0-1.41.33,3.46,3.46,0,0,0-1.67,1.74,4.2,4.2,0,0,0-.29,1.72c0,.37,0,.71,0,1.06l0,5.52-.06,11c0,2.76.08,4.14.17,5.52,0,.69.07,1.38.12,2.24,0,.43,0,.91,0,1.45,0,.28,0,.58,0,.9A3.22,3.22,0,0,0,17.25,56a9.21,9.21,0,0,0,.92,0h.68l2.25,0c1.38,0,2.76.09,5.52.09,5.52,0,5.52-.17,11-.17l11-.06c1.86,0,3.09,0,4.11,0a34.79,34.79,0,0,0,3.66-.46c3.18-.62-.73-1.66-2.76-1.94-.68-.09-1.38-.16-2.07-.23l-3,0-11,.1h-11c-2.77,0-4.15,0-5.53.05l-2.24,0H17.56a.73.73,0,0,1-.54-.38.88.88,0,0,1-.1-.35V52c0-.54,0-1,0-1.44,0-.86-.06-1.55-.08-2.24-.06-1.38-.12-2.76-.12-5.53,0-5.52.55-5.52.55-11,0-2.76,0-4.14-.09-5.52a10.16,10.16,0,0,1,0-1.63.49.49,0,0,1,.28-.31.57.57,0,0,1,.25-.06h12c5.52,0,5.52-.3,11-.3s5.52-.18,11-.18c1.52,0,2.62,0,3.53.11h2.48a1,1,0,0,1,.38.11,1,1,0,0,1,.48.61A9.12,9.12,0,0,1,58.7,26l.07,6.42c0,4.28,0,8.56-.21,12.83v.12c0,.93.05,2,.05,3.61,0,1.42,0,2.48,0,3.35.06.66.13.79,0,1.1a1.32,1.32,0,0,1-.58.71c-.18.18-.36.32-.35.5S57.9,55,58.57,55Z"/><path class="cls-2" d="M44,22.75a1.69,1.69,0,0,0,1-.94c0-.74.11-.76.11-1.53,0-.39,0-.59,0-.78A4.85,4.85,0,0,0,45,18.09,1.75,1.75,0,0,0,44.13,17a3.19,3.19,0,0,0-1.29-.38,5.91,5.91,0,0,1-.79-.06,2.45,2.45,0,0,1-.32-.09,2,2,0,0,0-.78-.14c-.79,0-.79-.06-1.57-.06s-.79.16-1.58.16-.78-.07-1.57-.07-.78-.07-1.57-.07a1.73,1.73,0,0,0-.78.17,1.52,1.52,0,0,1-.32.12l-.21,0H33a3.41,3.41,0,0,0-1.34.16,1.9,1.9,0,0,0-1,.87,2.11,2.11,0,0,0-.22,1.37,6.22,6.22,0,0,1,.09.95c0,.78.06.78.06,1.57a3.66,3.66,0,0,1-.05.58,1.57,1.57,0,0,0,.46.52c.62.45,1.66-.1,1.93-.39a1.5,1.5,0,0,0,.23-.3c0-.11,0-.24,0-.42,0-.78-.09-.78-.09-1.57,0-.38,0-.66,0-.61a.19.19,0,0,1,0-.1c.05-.08,0-.18.17-.18h.15l.2,0a2.13,2.13,0,0,0,.32-.08,2.37,2.37,0,0,1,.79-.12c.78,0,.78.55,1.57.55s.79-.17,1.57-.17h1.57c.79,0,.79-.3,1.57-.3a2.83,2.83,0,0,0,.79-.09l.32-.07.22,0c.09,0,.13.05.13.13h0a.47.47,0,0,1,.25.19,1.06,1.06,0,0,1,.09.39,4.79,4.79,0,0,1-.21,1.83v0a2.24,2.24,0,0,1,.05.51,2.15,2.15,0,0,1,0,.48,3.23,3.23,0,0,0,.4.45A1.53,1.53,0,0,0,44,22.75Z"/><path class="cls-2" d="M39.85,45.19a.94.94,0,0,0,1,.31,1.72,1.72,0,0,0,1.08-.88,2.68,2.68,0,0,0,.13-.69v-.27l0-.37a6.55,6.55,0,0,0,0-.92V40.5a3.22,3.22,0,0,0-.13-.94,3,3,0,0,1-.08-.58,8.66,8.66,0,0,1,0-1,8.35,8.35,0,0,1,.1-1.46,9.73,9.73,0,0,0-2-.18H39l-.38,0c-.23,0-.46,0-.93,0a4.85,4.85,0,0,0-.94.08,5.47,5.47,0,0,1-1.29.08c-1.1,0-1.54,0-2.25-.05,0,.25,0,.67,0,1.36,0,.45,0,.79,0,1.07s0,.46,0,.67,0,.46,0,.93c0,.94.34.94.34,1.87a4.65,4.65,0,0,1-.08.93,2.85,2.85,0,0,0,.14,1.62,2,2,0,0,0,1.18,1.07,4.47,4.47,0,0,0,1.57.13c.94,0,.94-.06,1.87-.06a4,4,0,0,1,.7,0,1.89,1.89,0,0,0,.62-.46c.54-.62-.13-1.66-.47-1.94a2.64,2.64,0,0,0-.35-.23l-.5,0c-.94,0-.94.1-1.87.1-.18,0-.17,0-.25-.08s0,0-.06-.18a8.88,8.88,0,0,1,0-.94c0-.93-.23-.93-.23-1.87A1.66,1.66,0,0,1,36,39.5a.23.23,0,0,1,.28-.07l-.06,0c0-.05,0-.12,0-.12h1.52a2.74,2.74,0,0,0,.93-.15L39,39a.36.36,0,0,0,.13,0h.09a1.26,1.26,0,0,0,.44-.12s.07.09.07.25a.34.34,0,0,1-.12.26h0l0,.44,0,.54.07,1.09a6.68,6.68,0,0,1-.21,2.17v0l0,.12v.11h.1s0,0,0,0a.53.53,0,0,1,0,.29A1.47,1.47,0,0,0,39.85,45.19Z"/><path class="cls-2" d="M15.34,37a1.47,1.47,0,0,0-.9,1.25c.11.48.17.72.24,1a3.5,3.5,0,0,0,.41.95,5.93,5.93,0,0,0,1.35,1.6,2.25,2.25,0,0,0,.91.51c.26.09.51.16,1,.36.94.33.9.6,1.95.72l.9,0c.2,0,.41,0,.81,0,.82,0,.82-.16,1.63-.16s.81.07,1.62.07.81.07,1.63.07.81-.35,1.62-.35.81.17,1.62.17.82-.17,1.63-.17.81-.06,1.62-.06a3,3,0,0,1,.61,0,1.75,1.75,0,0,0,.54-.46c.46-.62-.11-1.66-.41-1.94a2.26,2.26,0,0,0-.31-.23l-.43,0c-.82,0-.82.1-1.63.1H30.1c-.81,0-.81.1-1.63.1s-.81.23-1.62.23-.81-.54-1.62-.54-.82.17-1.63.17H22a1.9,1.9,0,0,0-.81.15,1.83,1.83,0,0,1-.75.13c-.62-.07-.67.12-1.29-.1a.67.67,0,0,1-.33-.28h0a4.46,4.46,0,0,1-1.25-.87,1.8,1.8,0,0,1-.55-1.4v0a1,1,0,0,1-.16-.38,2,2,0,0,1,0-.39,3.34,3.34,0,0,0-.42-.36A1.47,1.47,0,0,0,15.34,37Z"/><path class="cls-2" d="M40.79,42.2a1.75,1.75,0,0,0,1,1c.76,0,.78.11,1.58.11l1.62,0c.81,0,.81-.25,1.63-.25s.81.28,1.62.28.81.06,1.62.06.82-.16,1.63-.16.81.07,1.62.07.8.07,1.64.06a2,2,0,0,0,1-.26,4.88,4.88,0,0,1,.94-.42,6,6,0,0,0,1.87-.82,3,3,0,0,0,.7-.75c.14-.22.27-.44.56-.85a4.2,4.2,0,0,0,.46-.89,8.13,8.13,0,0,0,.31-.95c.09-.32.15-.53.2-.72a1.36,1.36,0,0,0-.41-.68A1.1,1.1,0,0,0,59.29,37a3.55,3.55,0,0,0-.86.36,2,2,0,0,0-.26.18l-.09.3a3.93,3.93,0,0,1-2.19,2.61c-.58.16-.54.41-1.19.44-.8,0-.81-.54-1.62-.54s-.81.17-1.63.17H49.83c-.81,0-.81.3-1.63.3s-.81.18-1.62.18a1.25,1.25,0,0,1-.52-.11h0c-1.26,0-2.52.34-3.77-.08h0a2.44,2.44,0,0,1-.53,0,3.1,3.1,0,0,1-.49,0,2.37,2.37,0,0,0-.47.39A1.48,1.48,0,0,0,40.79,42.2Z"/></g></g></svg>