<svg xmlns="http://www.w3.org/2000/svg" viewBox="0 0 74.43 74.68"><defs><style>.cls-1{fill:#f12827;}.cls-2{fill:none;}.cls-3{fill:#fbcca3;}.cls-4{fill:#fccea7;}.cls-5{fill:#fcd5b5;}</style></defs><g id="Layer_2" data-name="Layer 2"><g id="Layer_1-2" data-name="Layer 1"><circle class="cls-1" cx="37.67" cy="37.36" r="36.42"/><path class="cls-1" d="M74.32,32.74a35.78,35.78,0,0,0-8.87-20c-.53-.57-1.06-1.15-1.61-1.7L62.08,9.49l-.88-.76-.94-.68L58.37,6.7A52.84,52.84,0,0,0,50.2,2.44a2,2,0,0,1-.27-.08,51.33,51.33,0,0,0-7.8-2A11.83,11.83,0,0,0,40.57.17L39,.07C38.49.05,38,0,37.44,0L35.88.09h-.22L34.12.18c-.57,0-1.19.17-1.91.27-.89.14-1.65.22-2.3.36l-1.72.41-1.48.38c-.5.14-1,.33-1.45.49l-1.45.49-.73.23-.7.3-1.67.79-1,.46-.8.48-1.36.82a18.26,18.26,0,0,0-2,1.38c-.6.46-1.22.89-2,1.49S12.05,9.91,11,11,9.15,12.88,8.53,13.6L7,15.54a16.54,16.54,0,0,0-1.39,2A24.56,24.56,0,0,0,3.85,20.7L3,22.52c-.24.54-.4,1-.57,1.48-.32.89-.61,1.6-.84,2.32A39,39,0,0,0,.28,32.26,21.37,21.37,0,0,0,0,35.85,14.77,14.77,0,0,0,.09,38.3c.07.75.14,1.5.23,2.44s.34,2,.55,3.53a45.57,45.57,0,0,0,1.52,5.82c.25.71.44,1.45.82,2.31s.85,1.9,1.58,3.22,1.36,2.26,1.91,3l1.49,1.94a20.53,20.53,0,0,0,1.62,1.83,26,26,0,0,0,2.53,2.52c.56.5,1.05.94,1.48,1.34l1.26.94c.76.55,1.34,1,2,1.43a36.69,36.69,0,0,0,5.28,2.88,12.31,12.31,0,0,0,1.84.75l1.49.53a16.93,16.93,0,0,0,2.35.65c.73.16,1.45.37,2.37.54l3.52.5,3.56.18c.93,0,1.68-.06,2.43-.08a30.47,30.47,0,0,0,5.93-.78c1.45-.4,2.55-.63,3.42-1l2.26-.9c.7-.26,1.35-.65,2.18-1.06l1.4-.7c.52-.26,1-.64,1.69-1l1.5-.92a51,51,0,0,0,8.16-7.92,35.7,35.7,0,0,0,5.69-9.86,23.48,23.48,0,0,0,1-3.24l.41-1.65.21-.82.12-.84c.11-.83.38-2,.46-3.17a12.13,12.13,0,0,0-.16-3,.71.71,0,0,0-.19-.39h-.11a3.18,3.18,0,0,0-.52,1.39A33.34,33.34,0,0,1,66.86,58L66,59.17a11.53,11.53,0,0,1-1.17,1.47,38.51,38.51,0,0,1-4.1,4c-.52.49-1.14.86-1.85,1.41L57.66,67l-1.63,1a16.61,16.61,0,0,1-1.65.94L53,69.5a14.69,14.69,0,0,1-2.15.87l-2.2.72c-.84.29-1.9.47-3.27.84a37.4,37.4,0,0,1-5.62.78c-.71,0-1.42.11-2.31.11l-3.38-.17-3.33-.54c-.87-.2-1.54-.43-2.23-.61a17.25,17.25,0,0,1-2.18-.72L25,70.25a12.28,12.28,0,0,1-1.73-.73,40.79,40.79,0,0,1-4.95-2.72c-.61-.36-1.15-.83-1.86-1.35l-1.19-.89-1.38-1.27a24.45,24.45,0,0,1-2.36-2.39A18.9,18.9,0,0,1,10,59.16L8.61,57.32c-.5-.72-1-1.66-1.76-2.86s-1.07-2.23-1.47-3S4.83,50,4.57,49.29a33.15,33.15,0,0,1-1.46-5.44c-.18-1.4-.39-2.44-.43-3.32s-.05-1.59-.07-2.29A15,15,0,0,1,2.66,36,27.41,27.41,0,0,1,3,32.63c.35-2.81.81-4.15,1.06-5.55.18-.69.42-1.35.69-2.2.14-.42.28-.89.49-1.4L6,21.77a24.19,24.19,0,0,1,1.63-3,15.79,15.79,0,0,1,1.26-1.93L10.28,15c.56-.68,1.3-1.46,2.25-2.52s1.83-1.69,2.47-2.3,1.28-1,1.84-1.41a14.19,14.19,0,0,1,1.9-1.32L20,6.69l.76-.47.9-.44A30.24,30.24,0,0,1,27,3.66c.68-.2,1.39-.33,2.25-.54.43-.1.9-.23,1.44-.35l1.87-.29c.7-.09,1.31-.24,1.87-.26l1.48-.07a20.81,20.81,0,0,1,2.31-.06,42.46,42.46,0,0,1,5.65.55l1,.15.86.22,1.44.35c.43.11.83.19,1.19.3l1,.36,2.18.77,3.06,1.45,2.75,1.65c.71.48,1.25.91,1.79,1.3l.26.19a34.22,34.22,0,0,1,8.74,9,28.55,28.55,0,0,1,2.54,5.36c.49,1.4.86,2.37,1.09,3.26s.38,1.68.6,2.68l.07.26c.23,1,.41,2.27.68,3.48a21.44,21.44,0,0,0,.64,3.28c.39,1.21.57.46.65-.74A16.26,16.26,0,0,0,74.32,32.74Z"/><path class="cls-2" d="M42.76,30.36a13.17,13.17,0,0,0,.15-2,13,13,0,1,0-13,13c.34,0,.67,0,1,0m15.5-9a13.5,13.5,0,1,0,13.5,13.5A13.51,13.51,0,0,0,46.41,32.36Zm-26.86,9A9,9,0,0,0,32.28,54.09M20.54,46l-.66-4.45-4.45.66M55.64,30.73A9,9,0,0,0,42.91,18m11.74,8.08.66,4.45,4.45-.66"/><path class="cls-3" d="M59.68,29.63a1.32,1.32,0,0,0-.51-.72c-.32.05-.33,0-.66,0l-.66.11c-.33.05-.3.23-.63.28s-.36-.16-.7-.11l-.19,0s0,0,0,0v0s-.06.13-.1.14h0s0-.08,0-.1l0,0h0v-.1c-.05-.33-.31-.3-.36-.63s.08-.35,0-.68-.18-.31-.23-.64-.09-.32-.14-.65a.74.74,0,0,1,0-.26,1.05,1.05,0,0,0-.38-.16,2,2,0,0,0-1.41.38l-.15.14a1.42,1.42,0,0,0,0,.19c0,.33.12.32.17.65s.06.33.11.66.12.32.17.65.23.3.27.63-.31.63-.22,1.28a10.62,10.62,0,0,0,.29,1.07l.11,0,1.25-.18a1.62,1.62,0,0,0,.62-.21,1.28,1.28,0,0,1,.41-.17c.33,0,.31-.19.64-.24a.32.32,0,0,1,.22.06h0c.51-.09,1-.41,1.55-.17h0a.47.47,0,0,1,.21-.07.44.44,0,0,1,.2,0,1.26,1.26,0,0,0,.15-.33A2.08,2.08,0,0,0,59.68,29.63Z"/><path class="cls-3" d="M43.2,18.08a2.44,2.44,0,0,0,1.4-.15,3.57,3.57,0,0,1,.77-.45c.2-.1.42-.18.83-.37A7.51,7.51,0,0,1,48,16.59c.46-.07.68-.14.91-.19a2.4,2.4,0,0,1,.94-.09,7.71,7.71,0,0,1,1.79.53,7.38,7.38,0,0,1,1.65.79l.8.46a3.23,3.23,0,0,1,.74.55,7.6,7.6,0,0,1,1.13,1.46,7.33,7.33,0,0,1,.76,1.66c.28.87.52.82.66,1.76a7.83,7.83,0,0,1-.15,1.87c-.06.46-.08.69-.11.93a3.26,3.26,0,0,1-.22.91,7.44,7.44,0,0,1-.83,1.7,5.85,5.85,0,0,1-.45.55,2.18,2.18,0,0,0-.17.71c-.06.76,1,.77,1.44.57a2.1,2.1,0,0,0,.41-.24c.11-.13.23-.29.39-.5a10,10,0,0,0,1-2.11A7.93,7.93,0,0,0,59,26.79a8.46,8.46,0,0,0,.21-1.15,9.47,9.47,0,0,0,0-2.32,4.22,4.22,0,0,0-.28-1.13c-.12-.27-.2-.54-.4-1.07-.41-1.06,0-1.24-.65-2.27a10.53,10.53,0,0,0-1.6-1.73,8.56,8.56,0,0,0-.89-.76,8.42,8.42,0,0,0-1-.66,11.52,11.52,0,0,0-4.47-1,3.66,3.66,0,0,1-.72-.11h0a9.41,9.41,0,0,0-2.59.48c-.83.29-1.64.59-2.47.94h0l-.59.46c-.24.17-.42.29-.56.41a2.66,2.66,0,0,0-.28.65C42.65,17.78,42.82,18,43.2,18.08Z"/><path class="cls-3" d="M15.51,42.47a1.29,1.29,0,0,0,.51.71c.32,0,.34,0,.66,0l.66-.12c.33,0,.3-.23.63-.28s.37.16.7.11l.19,0c.05,0,0,0,0,0v0s.06-.13.1-.14h0s0,.08,0,.1l0,0h0V43c0,.34.31.3.36.63s-.07.35,0,.68.17.31.22.64.09.32.14.66a.69.69,0,0,1,0,.25A1.24,1.24,0,0,0,20,46a2.14,2.14,0,0,0,1.41-.38l.15-.15a1.21,1.21,0,0,0,0-.18c-.05-.33-.12-.32-.17-.66s-.06-.33-.11-.66-.12-.31-.17-.65-.22-.3-.27-.63.32-.63.22-1.28a10.62,10.62,0,0,0-.29-1.07l-.11,0-1.25.19a1.48,1.48,0,0,0-.62.2,1.33,1.33,0,0,1-.4.17c-.34.05-.31.19-.65.24a.28.28,0,0,1-.22-.06h0c-.51.09-1,.41-1.55.17h0a.78.78,0,0,1-.41.08,2,2,0,0,0-.15.32A2.13,2.13,0,0,0,15.51,42.47Z"/><path class="cls-3" d="M32,54a2.44,2.44,0,0,0-1.4.15,3.82,3.82,0,0,1-.76.45c-.2.11-.43.18-.83.37a7.26,7.26,0,0,1-1.76.52c-.46.08-.68.15-.91.19a2.2,2.2,0,0,1-.94.09,7.71,7.71,0,0,1-1.79-.53A7.38,7.38,0,0,1,22,54.46l-.8-.45a3.71,3.71,0,0,1-.74-.56,7.84,7.84,0,0,1-1.89-3.12c-.27-.87-.52-.82-.66-1.76A7.83,7.83,0,0,1,18,46.7c.06-.46.08-.69.11-.93a3.26,3.26,0,0,1,.22-.91,7.65,7.65,0,0,1,.83-1.7,5.85,5.85,0,0,1,.45-.55,2.18,2.18,0,0,0,.17-.7c.06-.76-1-.78-1.44-.57a1.66,1.66,0,0,0-.41.23c-.11.13-.23.29-.39.5a9.82,9.82,0,0,0-1,2.12,7.9,7.9,0,0,0-.34,1.11A8.46,8.46,0,0,0,16,46.45a10.09,10.09,0,0,0,0,2.33,4.23,4.23,0,0,0,.28,1.12c.12.27.2.54.4,1.07.41,1.06.05,1.24.65,2.27A10.14,10.14,0,0,0,19,55a8.35,8.35,0,0,0,.89.76,7.9,7.9,0,0,0,1,.66,9.17,9.17,0,0,0,2.2.73,9.63,9.63,0,0,0,2.26.27,3.66,3.66,0,0,1,.72.11h0A9.41,9.41,0,0,0,28.64,57c.83-.29,1.64-.59,2.47-.94h0l.59-.46c.24-.17.42-.29.57-.41a2.87,2.87,0,0,0,.27-.65C32.54,54.31,32.37,54.12,32,54Z"/><path class="cls-3" d="M46.86,32.64c.8.46,2.16.84,3.38,1.36a12.17,12.17,0,0,1,1.51.63,6.14,6.14,0,0,1,1,.57,8.34,8.34,0,0,1,1,.66l.59.46c.21.18.44.4.7.64a12.64,12.64,0,0,1,1.83,2.22,11.61,11.61,0,0,1,1.27,2.59c.26.67.35,1.21.49,1.65l.24,1.15L59,45.76a11.46,11.46,0,0,1-.08,1.74c-.06.36-.1.68-.17,1s-.15.51-.21.73a6.11,6.11,0,0,1-.44,1.11,10.36,10.36,0,0,1-.53,1.05c-.2.41-.51.85-.89,1.47a12.41,12.41,0,0,1-1.07,1.33,7.08,7.08,0,0,1-.84.82,9.62,9.62,0,0,1-.91.74,13.33,13.33,0,0,1-1.43.93,15.34,15.34,0,0,1-2.64,1.14,9.24,9.24,0,0,1-2.84.5,12.93,12.93,0,0,1-1.73,0L44,58.05a14.09,14.09,0,0,1-2.74-.92,11,11,0,0,1-2.45-1.51,13.37,13.37,0,0,1-2-2l-.58-.76-.42-.63a9.39,9.39,0,0,1-.63-1,5.5,5.5,0,0,1-.54-1.06,8.93,8.93,0,0,1-.53-1.65,11.13,11.13,0,0,1-.2-2.93,14.77,14.77,0,0,1,.47-2.87c.15-.71.4-1.21.52-1.65s.33-.75.47-1.09A10.58,10.58,0,0,1,37,37.52a13.19,13.19,0,0,1,2.18-2,11.78,11.78,0,0,1,2.57-1.42,12,12,0,0,1,2.11-.6l1.92-.58c.86-.28.78-.58.29-.84a4.56,4.56,0,0,0-1-.33,5.92,5.92,0,0,0-1.07-.1,6,6,0,0,0-1.27.1,10.22,10.22,0,0,0-1.75.55A13.31,13.31,0,0,0,38,34a15.34,15.34,0,0,0-2.49,2.29A14.61,14.61,0,0,0,33.6,39a14.2,14.2,0,0,0-1.22,3.16A12.44,12.44,0,0,0,32,45.54a17.08,17.08,0,0,0,.35,3.35,11,11,0,0,0,.59,1.91A7.46,7.46,0,0,0,33.47,52a13,13,0,0,0,.69,1.17,17.58,17.58,0,0,0,1.15,1.61c1.08,1.27,1.65,1.89,2.25,2.48a7,7,0,0,0,1,.91l.74.5c.28.17.62.33,1,.52a12.24,12.24,0,0,0,3.27,1l1.37.16a18.34,18.34,0,0,0,2,0,14.07,14.07,0,0,0,3.34-.52,15.31,15.31,0,0,0,3.14-1.29,10.35,10.35,0,0,0,1.66-1.14,8.4,8.4,0,0,0,1-.93,12.22,12.22,0,0,0,.91-1c.35-.39.71-.91,1.21-1.58a11.52,11.52,0,0,0,1-1.73,8,8,0,0,0,.5-1.26,12.31,12.31,0,0,0,.37-1.3c.06-.25.13-.53.2-.84l.17-1.09c.08-.45.07-.84.12-1.19s.08-.64.08-.92v-.11A14.5,14.5,0,0,0,60,41.65a15.16,15.16,0,0,0-4.17-6.38c-.45-.46-1-.82-1.48-1.23s-1.06-.74-1.64-1l-.06,0a19.64,19.64,0,0,0-2-.78,20.34,20.34,0,0,0-2-.47,8.47,8.47,0,0,0-1.9.13C46.31,32,46.26,32.27,46.86,32.64Z"/><path class="cls-3" d="M30.56,41.08a5.5,5.5,0,0,0-1.21-.51l-.71-.2-.73-.23a8.26,8.26,0,0,1-2-.57A13.18,13.18,0,0,1,24,38.63a9.65,9.65,0,0,1-1.08-.71,7.81,7.81,0,0,1-.7-.55l-.66-.59c-.23-.26-.52-.55-.86-1-.68-.86-1-1.32-1.3-1.77a9,9,0,0,1-.94-2,10.53,10.53,0,0,1-.3-1.28c0-.34-.05-.62-.07-.89a9,9,0,0,1,0-.9,10.19,10.19,0,0,1,0-1.29,7.52,7.52,0,0,1,.15-1.29,4.59,4.59,0,0,1,.19-.86,11.88,11.88,0,0,1,.73-2,17.9,17.9,0,0,1,1-1.92l.5-.74a11.62,11.62,0,0,1,.86-1,13.06,13.06,0,0,1,1.71-1.37,17.92,17.92,0,0,1,1.93-1c.5-.21.9-.33,1.21-.45l.87-.2a6,6,0,0,1,.87-.15l.56-.08.72,0c.55-.05,1,0,1.3,0a8.78,8.78,0,0,1,.89,0,6.67,6.67,0,0,1,2.18.38,9.19,9.19,0,0,1,2,1l.74.5c.28.2.6.46,1,.79.83.72,1.21,1.12,1.61,1.51a10.15,10.15,0,0,1,1.3,1.79c.28.49.44.87.6,1.18s.23.58.33.84a6.75,6.75,0,0,1,.27.86,8,8,0,0,1,.26,1.3,10,10,0,0,1,.1,1.66,10.8,10.8,0,0,0,.24,1.51c.18.68.49.67.8.34a4.37,4.37,0,0,0,.74-1.46,3.86,3.86,0,0,0,.16-1,8.67,8.67,0,0,0-.11-1.39,8.49,8.49,0,0,0-.32-1.5,6.55,6.55,0,0,0-.32-1l-.39-1c-.19-.36-.37-.81-.69-1.37a15.47,15.47,0,0,0-1.47-2.11,16.92,16.92,0,0,0-1.82-1.81,13.1,13.1,0,0,0-2.14-1.41,17.05,17.05,0,0,0-2.37-1,9,9,0,0,0-2.5-.49,8,8,0,0,0-1-.05c-.39,0-.87,0-1.5,0s-1.1,0-1.5.08-.72,0-1,0-.65.06-1.05.13a10.41,10.41,0,0,0-1.47.49A11.73,11.73,0,0,0,22,16.68c-.5.42-1,.8-2,1.69-.44.47-.77.83-1,1.14l-.62.83a14.54,14.54,0,0,0-1.28,2.24,9,9,0,0,0-.73,2.47,8.73,8.73,0,0,0-.13,1,15,15,0,0,0-.13,1.5,8.06,8.06,0,0,0,0,1.51,7.07,7.07,0,0,0,.13,1c.07.3.13.61.21,1s.23.83.4,1.44.35,1.14.51,1.53l0,.07a15.19,15.19,0,0,0,8.64,7.5l.05,0c.42.07.91.22,1.63.31a12.5,12.5,0,0,0,1.53.18,6,6,0,0,0,1.43-.29C31,41.66,31,41.4,30.56,41.08Z"/><path class="cls-4" d="M54.49,47.85a2.61,2.61,0,0,0-.85-1.79,4.16,4.16,0,0,0-1.59-.88c-.84-.26-1.17-.32-1.54-.41s-.92-.18-1-.45a.72.72,0,0,1,0-.53.31.31,0,0,1,.21-.16A3.86,3.86,0,0,1,51,43.46a5.45,5.45,0,0,1,1.18.11l.22,0,.44.12,1.17.43V41.41l-.11,0-.2,0-.38-.08-.49-.11-.33-.06c-.42-.05-.84-.05-1.68-.11a6.73,6.73,0,0,0-1.73.2,3,3,0,0,0-1.63,1A2.88,2.88,0,0,0,46.79,44c0,.06,0,.12,0,.18a3.63,3.63,0,0,0-.39-1.55,2.74,2.74,0,0,0-1.23-1.22,3.62,3.62,0,0,0-1.57-.38c-1.43,0-1.39.14-2.78.14h-.91l-1.19,0c0,.37,0,.86,0,1.71,0,1.37.07,1.37.07,2.75s0,1.37,0,2.74c0,.46,0,.77,0,1a5.44,5.44,0,0,0,.19.91c.08.26.19.32.3.27v0h0a.51.51,0,0,0,.15.14A1.72,1.72,0,0,0,40,51a11.33,11.33,0,0,0,1.26.14l0-.57c0-.44,0-.78,0-1.06l0-.54,0-.88h1.17l.22,0c.07,0,0,0,.06,0a.64.64,0,0,1,.14.22l.15.32.26.5c.16.31.32.61.6,1.24.14.32.25.59.3.71h.79l.58,0,1.43,0c-.07-.17-.27-.66-.57-1.35s-.46-1.09-.61-1.45l-.21-.52-.18-.37a2.09,2.09,0,0,1-.1-.21l0,0a2.23,2.23,0,0,0,.24-.19,3.06,3.06,0,0,0,.89-1.25,3.92,3.92,0,0,0,.23-1.54,3.61,3.61,0,0,0,.06.52,2.62,2.62,0,0,0,.53,1.11,2.51,2.51,0,0,0,1,.7,4.46,4.46,0,0,0,.68.25c.41.12.85.18,1.55.4s1.06.37,1.17.54a.56.56,0,0,1,.08.29.9.9,0,0,1-.1.51c0,.08-.28.17-.48.22l-.55.09a6.07,6.07,0,0,1-1.47-.06,1.41,1.41,0,0,1-.48-.09l-.54-.15-1.07-.29c0,.35,0,.7,0,1.13v1.12c.08.1.27.12.41.19a6.42,6.42,0,0,0,.85.26l.52.1A4,4,0,0,0,50,51c.31-.08.37-.18.32-.29h.08a.75.75,0,0,0,.18.14,2.89,2.89,0,0,0,2.06,0,3,3,0,0,0,1.43-1.19A2.89,2.89,0,0,0,54.49,47.85ZM41.38,43.61c0-.12,0-.09,0-.1l0,0a.35.35,0,0,1-.06-.09h0a2,2,0,0,0,.68.11l1,0c.42,0,.41-.06.71,0s.19.15.31.41a2.14,2.14,0,0,1,0,.73c0,.35.09.4-.07.66s-.26.16-.58.26a3.19,3.19,0,0,1-.85.11l-1,0-.32,0a1.3,1.3,0,0,0,.08-.17c0-.47,0-.48,0-1S41.38,44.11,41.38,43.61Zm-.61,2.59h0v0h0Zm4.65,1.11h0s0,0,0,0,0,0,0,0Z"/><path class="cls-5" d="M25.62,28.24h0a1.63,1.63,0,0,0,.28-.61,2,2,0,0,0,0-.94,2.13,2.13,0,0,0-.37-.88,1.72,1.72,0,0,0-.81-.59,2.5,2.5,0,0,0-.91-.13l-1.6.08c-.38,0-.58.06-.77.09l-.31.05-.74.06v.12c.05.79,0,.8,0,1s0,.4,0,.8c.05.79.1.79.15,1.58s.06.8.11,1.59c0,.27,0,.44,0,.59a2.63,2.63,0,0,0,.15.52c.06.15.12.18.19.15h0a.29.29,0,0,0,.1.08,2.21,2.21,0,0,0,1,.2L23.73,32c.39,0,.6,0,.82-.07a2.41,2.41,0,0,0,.88-.29,1.46,1.46,0,0,0,.67-.73,2.48,2.48,0,0,0,.18-.91,3.53,3.53,0,0,0-.07-.9A1.33,1.33,0,0,0,25.62,28.24Zm-1.18,2.13c-.19.1-.22.06-.49.1s-.33.06-.67.08l-.67.06a1,1,0,0,1-.25,0h0a1,1,0,0,0,0-.16c0-.32,0-.33,0-.66l0-.5s0,0,0,0,0,0,.11-.05c.34,0,.34.05.68,0l.66,0c.29,0,.31,0,.53,0s.13.08.21.26a1.42,1.42,0,0,1,0,.51C24.49,30.22,24.59,30.24,24.44,30.37Zm-.22-3.05c0,.17,0,.23-.1.34s-.2,0-.46.07-.31.06-.63.08l-.63.06h-.22a.69.69,0,0,0,.05-.13c0-.3,0-.31,0-.61l0-.43,0,0s-.06,0,.1-.05c.32,0,.32.05.64,0l.62,0c.27,0,.29-.05.49,0s.09.06.17.23A1,1,0,0,1,24.22,27.32Zm-2.3.84v0h0v0Zm.17,2.74s0,0,0,0h0v0Z"/><path class="cls-5" d="M32.41,27.81,32.19,25l0-.42-1.73.1c0,.48.05.9.1,1.8l.08,1.34,0,.5h0v0s0,0,0,0-.15-.15-.26-.28l-.47-.56-1.66-2.12-.44-.54-1.4.11.12,1.56.18,2.69,0,1c.05.31.1.61.17.88s.14.31.2.26v0h.05a.5.5,0,0,0,.15.08,2.78,2.78,0,0,0,.38.08,5,5,0,0,0,.75,0v-1c-.06-1.22-.06-1.25-.13-2.52V28l.26.31c.84,1.05.89,1,1.74,2.05l.44.57.43.56,1.46-.06,0-.89Z"/><path class="cls-5" d="M38.54,28.28a1.3,1.3,0,0,0-.59-.82s0,0,0,0h0a1,1,0,0,0,.13-.21,1.51,1.51,0,0,0,.16-.4,2.15,2.15,0,0,0,0-.94,2,2,0,0,0-.37-.88,1.67,1.67,0,0,0-.81-.59,2.25,2.25,0,0,0-.9-.13l-1.61.08c-.38,0-.58.06-.77.09l-.31.05-.74.06v.12c.05.79,0,.8.05,1s0,.4,0,.8c0,.79.09.79.14,1.58l.11,1.59,0,.59a2.63,2.63,0,0,0,.15.52c.06.15.13.18.19.15h0a.24.24,0,0,0,.09.08,2.21,2.21,0,0,0,1,.2l1.55-.07c.39,0,.6,0,.83-.07a2.53,2.53,0,0,0,.88-.29,1.48,1.48,0,0,0,.66-.73,2.44,2.44,0,0,0,.19-.91A3.44,3.44,0,0,0,38.54,28.28Zm-1.76,1.31c-.2.1-.23.06-.5.1s-.33.06-.66.08l-.68.06a2.06,2.06,0,0,1-.25,0h0a1,1,0,0,0,0-.16c0-.32,0-.33,0-.66l0-.5a0,0,0,0,0,0,0s-.06,0,.1,0c.34,0,.34,0,.68,0l.66,0c.29,0,.31-.05.53,0s.13.07.21.26a1.42,1.42,0,0,1,0,.51C36.82,29.44,36.92,29.46,36.78,29.59Zm-.23-3.05c0,.16,0,.23-.1.33s-.2.05-.46.08-.31.06-.62.08l-.63.06h-.22c0-.05,0-.09,0-.13,0-.3,0-.31,0-.62l0-.42a0,0,0,0,1,0,0s-.07,0,.1-.06.32.05.63,0l.63,0c.26,0,.28-.05.48,0s.1.07.18.24A1,1,0,0,1,36.55,26.54Zm-2.3.84s0,0,0,0h0v0Zm.17,2.74v0h0v0Z"/></g></g></svg>