<svg xmlns="http://www.w3.org/2000/svg" viewBox="0 0 407.05 407.32"><defs><style>.cls-1{fill:#f12827;}.cls-2{fill:#f3e9dc;}</style></defs><g id="Layer_2" data-name="Layer 2"><g id="Layer_1-2" data-name="Layer 1"><path class="cls-1" d="M322.21,41.51l-.46.45c-4.9-3.09-10.15-5.07-14.83-8.14h0L305.63,33l0,0c-.71-.36-1.24-.45-1.72-.05-8.47-3.17-22-8.45-29.35-8.68-5.89-1.73-12-3.3-18.14-4.69a3.73,3.73,0,0,0,2.46-2.79,152.61,152.61,0,0,1,28.06,9.42c2.57-6.74-2-7.24-20.38-11.46-8.49-2.59-15.75-4.6-22.48-6.21.28-2.14.53-2-10.89-4.4-9.7-2.43-54.15-8.94-52.79,1.92l3,.42a1.08,1.08,0,0,1-.48.8c.41-.21,2.07-.59,8.78-.53-.92.34-1.81.71-2.66,1.11h0l.63,1.33c-6.81,1.13-14,2.37-20.53,2.83l0,.62c-3.27.62-7.51,2.57-11.28,2.88q3-1.48,6.06-3.07h0l-1.42-2.71c-26.79,12.14-55.47,14.9-79.2,34.94-.86-.06-2.16.84-3.1,1.43l0,0c-78.76,55.34-102.6,166-57.76,251.59a211,211,0,0,0,30.88,43.87c10,10.9,21.82,20.38,31.73,31.45h0l.21.19L87,371.05c30.81,22.22,75.83,36.55,116.08,36.27,8.05-.46,19.22-.61,27-1.9l-.33-.09C406.87,383.21,475.49,141.52,322.21,41.51ZM75.35,362.24l.77-1.05c.06.08.11.17.2.28l-.68.89A1.1,1.1,0,0,1,75.35,362.24Z"/><path class="cls-2" d="M253.75,398A6.19,6.19,0,0,0,253,397a13.38,13.38,0,0,0-1.57-1.34,2.13,2.13,0,0,0-.2-2.53,9.63,9.63,0,0,0-2.9-2.24,5.52,5.52,0,0,0-3.09-5.82c.51-1.85-1.19-3.4-2.81-4.57.53-.83,0-1.6-.73-2.67a19.14,19.14,0,0,0-2.23-2.75c1.27-2.1-.76-3.69-2.43-5.06.49-1.63-1.65-4.53-2.95-6.17.94-1.81-1.23-5.16-2.64-6.36.41-1.71-.76-3.08-2.4-4-.31-.73-.61-1.45-.91-2.18a31,31,0,0,0-4.07-7.7c-1-1.24-1.59-2.25-3.23-1.84-1,.24-1.87.66-2.81,1-.22-.56-.43-1.13-.66-1.66s-.57-1.18-.86-1.81a10.42,10.42,0,0,0,1.05-2.34c.39-1.17,1-2.54.59-3.78a14.82,14.82,0,0,0-1.64-2.71c-1-1.75-2.25-3.74-3.17-5.66A3.43,3.43,0,0,0,215,323.5c.81-1.25.48-2.63.47-4.06,0-2.18.1-4.36.13-6.53a6.46,6.46,0,0,0,2.78-2.45,12,12,0,0,0,1.11-3.49c1-.19,1.52-1.17,2.26-2a16,16,0,0,1,3.11-2.7c1.93-1.35,5.38-2.61,5.87-5.22a5.62,5.62,0,0,0-.36-2.91c.9-1,1.79-2,2.62-3.05,1.75-2.26,3.92-3.85,5.34-6.4s1.47-5.36,1.48-8.4.51-6.34.51-9.53a25.06,25.06,0,0,0-1.48-8c.05-.31.09-.6.13-.93a10.26,10.26,0,0,0,0-3,6.1,6.1,0,0,0-2.77-3.5c.11-2.76.76-6-2.34-7.27a5.31,5.31,0,0,0-.21-3.15,6.39,6.39,0,0,0-2.12-2.42,4.19,4.19,0,0,0-.57-2.6c-.62-.93-1.95-1.33-2.88-1.83.05-1.37-.12-2.62-1.34-3.45a25.38,25.38,0,0,0-3.47-2.35,5.86,5.86,0,0,0-.67-5.91c-1.1-1.18-3.56-3.46-5.58-3.86,0-1.78-.11-3.82-1-5.08a2.32,2.32,0,0,0,.32-2.87,9.92,9.92,0,0,0-2.72-2.91c.56-1.05.86-2-.51-3a11.79,11.79,0,0,0-3.76-1.85,2.39,2.39,0,0,0-.43-2.92,21,21,0,0,0-2.56-2.1c.33-1.16.59-2.09-.6-3.35-.74-.78-2.12-2.64-3.36-3.13A11.83,11.83,0,0,0,204,184c5.26-1,10-3.23,14.89-5.48,5.42-2.52,10.08-5.5,13.51-10.68,3.23-4.89,6-9.36,7.43-15.15,1.54-6.4.55-14.21-.05-20.65-.48-5-2.14-11.68-4.34-14.19a94.07,94.07,0,0,1,.08,13.43c-.78,9.06-3.1,19.63-9.2,26.48s-14.58,10.24-22.86,13a10.34,10.34,0,0,0-1.07-3.51c-.53-1.13-1.05-2.48-2.09-3.16a18.68,18.68,0,0,0-4-1.46,21.24,21.24,0,0,0-7.08-1.41,9.49,9.49,0,0,0-3.35-3.31c-6.11-3.83-17.92-3.64-21.81,3.48a18.9,18.9,0,0,1-7.46-7c-4.55-7.81-4.55-16.46-3.4-25.23a52.64,52.64,0,0,1,2.76-12.43,54.09,54.09,0,0,1,5.25-9.48,22.45,22.45,0,0,0-9.05,7.83,64.88,64.88,0,0,0-6.41,13.06A53.71,53.71,0,0,0,143,142.8a34.58,34.58,0,0,0,2.2,15c1.82,4.87,3.85,9.3,8,12.49l.17.12c-3.95.35-4.9,3.77-4.74,7.85.13,3.56-.22,8.56,1.66,11.69a4.24,4.24,0,0,0,3.15,2c-.31.85-.62,2-.87,2.46-.64,1.22-1.33,2.32-2,3.47-1.46,2.38-3.8,4.11-4.49,6.95a9.47,9.47,0,0,0-.16,1.86,11.71,11.71,0,0,0-3.42,1.85,12.1,12.1,0,0,0-1.51,1.56c-2-.5-4-1.1-6-1.77-2.71-.9-5.44-1.65-8.21-2.34s-5.52-1.75-8.34-2c-5.95-.65-6.88,6.13-7.79,10.9a8.2,8.2,0,0,0-1.58-.42c.08-2.13-.22-4.33-2.13-5.49a33.91,33.91,0,0,0-6.33-2.69c-2.28-.8-4.54-1.78-6.75-2.77s-4.62-2.32-7-3.28c-2-.81-3.92-1.82-5.92-2.61a4.13,4.13,0,0,0,0-1.14c-.13-.93-.6-1.2-1.41-1.4a20,20,0,0,0-4.14-.62c0-1.36-.37-2.84-1.69-3.36a4.36,4.36,0,0,0-3.82.38,9.32,9.32,0,0,0-1.17-2.26,16,16,0,0,0-2.06-2.64,6.48,6.48,0,0,0,1.24-2.17c.47-1.56-.43-2.32-1.41-3.2a1.64,1.64,0,0,0,.41-2.23,12.75,12.75,0,0,0-1.46-1.91c6.72-9.53,69.18-91.56,99.31-113.57,0,0-5.41-3.32-12.06,1.83,0,0-64.37,65.74-93.51,106.73a2,2,0,0,0-.83-.14,2.14,2.14,0,0,0-1.19.65c-.77-1.07-2.78-.93-3.78-.44a8.41,8.41,0,0,0-2.47,2c-1.9.59-3.1,2.17-4.55,3.65s-3.29,3-3.75,4.92a4,4,0,0,0,.73,3A6.57,6.57,0,0,0,42,188.17a3.31,3.31,0,0,0,1,2.48,3.61,3.61,0,0,0-.1,2.77,4.08,4.08,0,0,0,1.56,2.35c-.94,2.06-1.7,4.19-2.62,6.26s-3,4.47-3,6.95,2.55,4.49,4.84,4.55c2.63.08,3.53-2.57,4.29-4.72a57.06,57.06,0,0,1,3.11-7.17,3.5,3.5,0,0,1,.32,2.81c-.19.67-.63,1.19-.15,1.87a3.22,3.22,0,0,0,1.78,1,9.92,9.92,0,0,1,.9-4.34c.6-1.06,1.54-1.86,2-3a9.35,9.35,0,0,0,1.16.82c.67.38,1.3.81,2,1.12a9.45,9.45,0,0,0,3.24.72,5.48,5.48,0,0,0,1.7,4.19c1.41,1.35,2.81,2.86,4.33,4.06.53.42,1.1.87,1.66,1.28a2,2,0,0,0-.24,1.38,1.86,1.86,0,0,0,1.13,1.26,2.8,2.8,0,0,0,2.23.06c.48.48,1.22,1.06,1.48,1.29a26,26,0,0,1,2.25,2.32c1.29,1.43,2.26,3.16,3.66,4.47.47.44,1.27.87,1.9,1.34a1.49,1.49,0,0,0-.17,1.47,5,5,0,0,0,1.34,1.92,3.18,3.18,0,0,0,3,.77c.72,1.4,1.43,2.82,2.19,4.19.87,1.54,2.09,3,3.88,2.06a8.1,8.1,0,0,0,1.37-.9,19.49,19.49,0,0,0,2,1.41c.85.59,1.73,1.13,2.62,1.65a12.32,12.32,0,0,0,5.74,1.57,13.82,13.82,0,0,0,2.4,0c-1,4.35-1.49,9.14,3.33,11.11,2.45,1,5.14,1.27,7.7,1.86s4.94,1.37,7.43,1.94c.73.17,1.47.31,2.2.44a34.39,34.39,0,0,1-2.46,10c-.82,1.94-1.66,3.87-2.61,5.75-.78,1.57-2.09,3.48-1.82,5.33a6.16,6.16,0,0,0,2.3,3.58c-1.23.35-2.62.83-3.18,1.68-.89,1.35-.66,3.85-.84,5.39-.23,2-.62,4-.85,6-.2,1.75-1,3.95-.4,5.68a4,4,0,0,0,2.12,2.1c-1.63,3-3.86,5.58-5.37,8.63-.87,1.78-1.65,3.08-.73,5a6.78,6.78,0,0,0,1.64,2,28.86,28.86,0,0,1-3.68,3.77c-2.08,1.8-6,2.77-5.69,6.38a3.88,3.88,0,0,0,.8,1.87,9.78,9.78,0,0,0-4.15,1.65c-1,.82-2.52,2.67-2.61,4.28-2.58.61-5.3,2.12-4.87,4.8-2.33,1-4.58,3.29-4.36,5.6-2.24.91-4.85,2.48-4.12,4.71-2.3.57-4.24,1.32-4.79,3.93-2.79.17-4.59,1.45-5,4.53-2.21.27-4.48,1.38-4.71,3.52,4.5,4.26,9,8.58,13.07,13.17h0l.21.19L87,371.05c30.81,22.22,75.83,36.55,116.08,36.27,8.05-.46,19.22-.61,27-1.9l-.33-.09a200,200,0,0,0,26.94-5.25C256.16,398.71,255.06,397.58,253.75,398ZM75.64,362.36a1.1,1.1,0,0,1-.29-.12l.77-1.05c.06.08.11.17.2.28ZM170.51,164.6a13.35,13.35,0,0,1-2.68-.95c1.68-4,7.38-6.09,11.11-4.32l.64.32C176.54,159.52,172.28,162.48,170.51,164.6Z"/></g></g></svg>