<svg xmlns="http://www.w3.org/2000/svg" viewBox="0 0 74.43 74.68"><defs><style>.cls-1{fill:#f12827;}.cls-2{fill:#fbcca3;}</style></defs><g id="Layer_2" data-name="Layer 2"><g id="Layer_1-2" data-name="Layer 1"><circle class="cls-1" cx="37.67" cy="37.36" r="36.42"/><path class="cls-1" d="M74.32,32.74a35.78,35.78,0,0,0-8.87-20c-.53-.57-1.06-1.15-1.61-1.7L62.08,9.49l-.88-.76-.94-.68L58.37,6.7A52.84,52.84,0,0,0,50.2,2.44a2,2,0,0,1-.27-.08,51.33,51.33,0,0,0-7.8-2A11.83,11.83,0,0,0,40.57.17L39,.07C38.49.05,38,0,37.44,0L35.88.09h-.22L34.12.18c-.57,0-1.19.17-1.91.27-.89.14-1.65.22-2.3.36l-1.72.41-1.48.38c-.5.14-1,.33-1.45.49l-1.45.49-.73.23-.7.3-1.67.79-1,.46-.8.48-1.36.82a18.26,18.26,0,0,0-2,1.38c-.6.46-1.22.89-2,1.49S12.05,9.91,11,11,9.15,12.88,8.53,13.6L7,15.54a16.54,16.54,0,0,0-1.39,2A24.56,24.56,0,0,0,3.85,20.7L3,22.52c-.24.54-.4,1-.57,1.48-.32.89-.61,1.6-.84,2.32A39,39,0,0,0,.28,32.26,21.37,21.37,0,0,0,0,35.85,14.77,14.77,0,0,0,.09,38.3c.07.75.14,1.5.23,2.44s.34,2,.55,3.53a45.57,45.57,0,0,0,1.52,5.82c.25.71.44,1.45.82,2.31s.85,1.9,1.58,3.22,1.36,2.26,1.91,3l1.49,1.94a20.53,20.53,0,0,0,1.62,1.83,26,26,0,0,0,2.53,2.52c.56.5,1.05.94,1.48,1.34l1.26.94c.76.55,1.34,1,2,1.43a36.69,36.69,0,0,0,5.28,2.88,12.31,12.31,0,0,0,1.84.75l1.49.53a16.93,16.93,0,0,0,2.35.65c.73.16,1.45.37,2.37.54l3.52.5,3.56.18c.93,0,1.68-.06,2.43-.08a30.47,30.47,0,0,0,5.93-.78c1.45-.4,2.55-.63,3.42-1l2.26-.9c.7-.26,1.35-.65,2.18-1.06l1.4-.7c.52-.26,1-.64,1.69-1l1.5-.92a51,51,0,0,0,8.16-7.92,35.7,35.7,0,0,0,5.69-9.86,23.48,23.48,0,0,0,1-3.24l.41-1.65.21-.82.12-.84c.11-.83.38-2,.46-3.17a12.13,12.13,0,0,0-.16-3,.71.71,0,0,0-.19-.39h-.11a3.18,3.18,0,0,0-.52,1.39A33.34,33.34,0,0,1,66.86,58L66,59.17a11.53,11.53,0,0,1-1.17,1.47,38.51,38.51,0,0,1-4.1,4c-.52.49-1.14.86-1.85,1.41L57.66,67l-1.63,1a16.61,16.61,0,0,1-1.65.94L53,69.5a14.69,14.69,0,0,1-2.15.87l-2.2.72c-.84.29-1.9.47-3.27.84a37.4,37.4,0,0,1-5.62.78c-.71,0-1.42.11-2.31.11l-3.38-.17-3.33-.54c-.87-.2-1.54-.43-2.23-.61a17.25,17.25,0,0,1-2.18-.72L25,70.25a12.28,12.28,0,0,1-1.73-.73,40.79,40.79,0,0,1-4.95-2.72c-.61-.36-1.15-.83-1.86-1.35l-1.19-.89-1.38-1.27a24.45,24.45,0,0,1-2.36-2.39A18.9,18.9,0,0,1,10,59.16L8.61,57.32c-.5-.72-1-1.66-1.76-2.86s-1.07-2.23-1.47-3S4.83,50,4.57,49.29a33.15,33.15,0,0,1-1.46-5.44c-.18-1.4-.39-2.44-.43-3.32s-.05-1.59-.07-2.29A15,15,0,0,1,2.66,36,27.41,27.41,0,0,1,3,32.63c.35-2.81.81-4.15,1.06-5.55.18-.69.42-1.35.69-2.2.14-.42.28-.89.49-1.4L6,21.77a24.19,24.19,0,0,1,1.63-3,15.79,15.79,0,0,1,1.26-1.93L10.28,15c.56-.68,1.3-1.46,2.25-2.52s1.83-1.69,2.47-2.3,1.28-1,1.84-1.41a14.19,14.19,0,0,1,1.9-1.32L20,6.69l.76-.47.9-.44A30.24,30.24,0,0,1,27,3.66c.68-.2,1.39-.33,2.25-.54.43-.1.9-.23,1.44-.35l1.87-.29c.7-.09,1.31-.24,1.87-.26l1.48-.07a20.81,20.81,0,0,1,2.31-.06,42.46,42.46,0,0,1,5.65.55l1,.15.86.22,1.44.35c.43.11.83.19,1.19.3l1,.36,2.18.77,3.06,1.45,2.75,1.65c.71.48,1.25.91,1.79,1.3l.26.19a34.22,34.22,0,0,1,8.74,9,28.55,28.55,0,0,1,2.54,5.36c.49,1.4.86,2.37,1.09,3.26s.38,1.68.6,2.68l.07.26c.23,1,.41,2.27.68,3.48a21.44,21.44,0,0,0,.64,3.28c.39,1.21.57.46.65-.74A16.26,16.26,0,0,0,74.32,32.74Z"/><path class="cls-2" d="M31.4,12.64a11.85,11.85,0,0,0-1.15,4.59c0,3.65-.12,3.73-.12,7.51l0,7.7c0,1.93.07,2.89.13,3.85,0,.48.06,1,.1,1.57l0,1c0,.32,0,.67,0,1.07a.67.67,0,0,1,0,.28,1.31,1.31,0,0,1-.31-.07H29.9l-.31,0L29,40.05,27.65,40l-.81,0-1.65,0s-.25.25-.49.49L22.15,43l4.69,5.83c2.44,3,2.58,2.86,5,5.85,1.15,1.41,1.75,2.16,2.32,2.9l.94,1.19,2.55,3.14.51-.62c2.69-3.28,2.74-3.32,3.48-4.19s1.24-1.47,2.46-3c2.44-3,2.15-3.22,4.59-6.2.8-1,1.36-1.64,1.86-2.2.33-.37,1.33-1.54,2.33-2.72l-1-1.06-1.8-1.82H47.28l-1.29,0-.57,0h-.21l-.29.05a.54.54,0,0,1,0-.17,6.5,6.5,0,0,1,0-.75c0-3.85,0-3.85-.07-7.7,0-1.29,0-2.15.06-2.87a16.44,16.44,0,0,0-.51-2.55c-.69-2.21-1.83.51-2.14,1.93-.1.48-.18,1-.25,1.44s0,1.23,0,2.08c0,3.85.1,3.85.1,7.7,0,1.87,0,3.2,0,3.74h6.78l0,0L48.8,43l.11.12,0,0,.11.07a3.89,3.89,0,0,1-.57.78L46.6,46.2c-2.44,3-2.24,3.14-4.68,6.12a21.91,21.91,0,0,1-2.67,2.79c-.62.51-1.92,1.88-1.58,1.45h0a0,0,0,0,1,0,0l-1-1.11c-.62-.7-1.26-1.41-2.42-2.83l-4.87-6c-1-1.2-1.62-1.88-2.18-2.48-.15-.14-.28-.29-.42-.43l-.21-.22-.15-.14a2.62,2.62,0,0,1-.32-.26l.13-.16,0,0,.08-.09h0l.07-.07,1.27,0L29,42.73l1.37-.06,2.46-.05c0-.26,0-1.2,0-2.36v-.89l0-.64c0-.4.06-.75.09-1.07v-.14c0-6-.38-12,.09-17.91v-.08C33,18.88,33,18.11,33,17s0-1.72,0-2.34a19.46,19.46,0,0,0-.44-2.2C32.27,12,31.89,11.89,31.4,12.64Z"/></g></g></svg>