<svg xmlns="http://www.w3.org/2000/svg" viewBox="0 0 74.43 74.68"><defs><style>.cls-1{fill:#f12827;}.cls-2{fill:#fbcca3;}</style></defs><g id="Layer_2" data-name="Layer 2"><g id="Layer_1-2" data-name="Layer 1"><circle class="cls-1" cx="37.67" cy="37.36" r="36.42"/><path class="cls-1" d="M74.32,32.74a35.78,35.78,0,0,0-8.87-20c-.53-.57-1.06-1.15-1.61-1.7L62.08,9.49l-.88-.76-.94-.68L58.37,6.7A52.84,52.84,0,0,0,50.2,2.44a2,2,0,0,1-.27-.08,51.33,51.33,0,0,0-7.8-2A11.83,11.83,0,0,0,40.57.17L39,.07C38.49.05,38,0,37.44,0L35.88.09h-.22L34.12.18c-.57,0-1.19.17-1.91.27-.89.14-1.65.22-2.3.36l-1.72.41-1.48.38c-.5.14-1,.33-1.45.49l-1.45.49-.73.23-.7.3-1.67.79-1,.46-.8.48-1.36.82a18.26,18.26,0,0,0-2,1.38c-.6.46-1.22.89-2,1.49S12.05,9.91,11,11,9.15,12.88,8.53,13.6L7,15.54a16.54,16.54,0,0,0-1.39,2A24.56,24.56,0,0,0,3.85,20.7L3,22.52c-.24.54-.4,1-.57,1.48-.32.89-.61,1.6-.84,2.32A39,39,0,0,0,.28,32.26,21.37,21.37,0,0,0,0,35.85,14.77,14.77,0,0,0,.09,38.3c.07.75.14,1.5.23,2.44s.34,2,.55,3.53a45.57,45.57,0,0,0,1.52,5.82c.25.71.44,1.45.82,2.31s.85,1.9,1.58,3.22,1.36,2.26,1.91,3l1.49,1.94a20.53,20.53,0,0,0,1.62,1.83,26,26,0,0,0,2.53,2.52c.56.5,1.05.94,1.48,1.34l1.26.94c.76.55,1.34,1,2,1.43a36.69,36.69,0,0,0,5.28,2.88,12.31,12.31,0,0,0,1.84.75l1.49.53a16.93,16.93,0,0,0,2.35.65c.73.16,1.45.37,2.37.54l3.52.5,3.56.18c.93,0,1.68-.06,2.43-.08a30.47,30.47,0,0,0,5.93-.78c1.45-.4,2.55-.63,3.42-1l2.26-.9c.7-.26,1.35-.65,2.18-1.06l1.4-.7c.52-.26,1-.64,1.69-1l1.5-.92a51,51,0,0,0,8.16-7.92,35.7,35.7,0,0,0,5.69-9.86,23.06,23.06,0,0,0,1-3.24l.41-1.65.21-.82.12-.84c.11-.83.38-2,.46-3.17a12.13,12.13,0,0,0-.16-3,.71.71,0,0,0-.19-.39h-.11a3.18,3.18,0,0,0-.52,1.39A33.26,33.26,0,0,1,66.86,58L66,59.17a11.53,11.53,0,0,1-1.17,1.47,38.51,38.51,0,0,1-4.1,4c-.52.48-1.14.86-1.85,1.41L57.66,67l-1.63,1a16.61,16.61,0,0,1-1.65.94L53,69.5a14.69,14.69,0,0,1-2.15.87l-2.2.72c-.84.29-1.9.47-3.27.84a37.4,37.4,0,0,1-5.62.78c-.71,0-1.42.11-2.31.11l-3.38-.17-3.33-.54c-.87-.2-1.54-.43-2.23-.61a17.25,17.25,0,0,1-2.18-.72L25,70.25a12.28,12.28,0,0,1-1.73-.73,40.79,40.79,0,0,1-4.95-2.72c-.61-.36-1.15-.83-1.86-1.35l-1.19-.89-1.38-1.27a24.45,24.45,0,0,1-2.36-2.39A18.9,18.9,0,0,1,10,59.16L8.61,57.32c-.5-.72-1-1.66-1.76-2.86s-1.07-2.23-1.47-3S4.83,50,4.57,49.29a33.15,33.15,0,0,1-1.46-5.44c-.18-1.4-.39-2.44-.43-3.32s-.05-1.59-.08-2.29A16.55,16.55,0,0,1,2.66,36,27.41,27.41,0,0,1,3,32.63c.35-2.81.81-4.15,1.06-5.55.18-.69.42-1.35.69-2.2.14-.42.28-.89.49-1.4L6,21.77a24.19,24.19,0,0,1,1.63-3,15.79,15.79,0,0,1,1.26-1.93L10.28,15c.56-.68,1.3-1.45,2.25-2.52s1.82-1.69,2.47-2.3,1.28-1,1.84-1.41a14.19,14.19,0,0,1,1.9-1.32L20,6.69l.76-.47.9-.44A30.24,30.24,0,0,1,27,3.66c.68-.2,1.39-.33,2.25-.54.43-.1.9-.23,1.44-.35l1.87-.29c.7-.09,1.31-.24,1.87-.26l1.48-.07a20.81,20.81,0,0,1,2.31-.06,42.46,42.46,0,0,1,5.65.55l1,.15.86.22,1.44.35c.43.11.83.19,1.19.3l1,.36,2.18.77,3.06,1.45,2.75,1.65c.71.48,1.25.91,1.79,1.3l.26.19a34.22,34.22,0,0,1,8.74,9,28.85,28.85,0,0,1,2.54,5.36c.49,1.4.86,2.37,1.09,3.26s.38,1.68.6,2.68l.07.26c.23,1,.41,2.27.68,3.48a21.44,21.44,0,0,0,.64,3.28c.39,1.21.57.46.65-.74A16.26,16.26,0,0,0,74.32,32.74Z"/><path class="cls-2" d="M35.5,55.54a2.65,2.65,0,0,0-1,.22c0,.17-.1.18-.1.36s0,.18,0,.37.25.19.25.37-.28.19-.28.37-.06.19-.06.37.16.19.16.38-.07.18-.07.37-.07.18-.07.37.35.18.35.37-.17.19-.17.37.17.19.17.37.06.19.06.37a.18.18,0,0,1-.05.14,1.88,1.88,0,0,0,.46.13,6.62,6.62,0,0,0,1.94-.1l.23-.07a.25.25,0,0,0,0-.1c0-.18-.1-.18-.1-.37s0-.18,0-.37-.1-.19-.1-.37-.23-.19-.23-.37.54-.19.54-.37-.17-.19-.17-.38,0-.18,0-.37-.29-.18-.29-.37-.19-.18-.19-.37.05-.09.11-.12h0c0-.29-.34-.58.08-.87h0a.17.17,0,0,1-.05-.12.21.21,0,0,1,0-.12,3.59,3.59,0,0,0-.39-.1A5.3,5.3,0,0,0,35.5,55.54Z"/><path class="cls-2" d="M22.18,52.58a35.32,35.32,0,0,0,1-7.74c.05-6.24.06-7,.11-12.82H17l.08-.11L19,29.6c4.16-5,4-5.14,8.12-10.13l.92-1.09.58-.69a.61.61,0,0,1,.21-.16l.1.17,0,.08s0,0,.11.16l1.14,1.48c.79,1,1.7,2.15,3.12,3.85l7.14,8.67h0a0,0,0,0,1,0,0s0,0,0,0l-.89,0-1.76,0-3.43,0c0,.63,0,2.41,0,4.83v3.18c.65,0-2.4-.05-8.72-.06L27.4,42.1l9.45,11.43c1.55,1.86,2.55,3,3.42,3.94l1.26,1.36c.7.81,1.44,1.65,2.31,2.64l3.43-4.21c4.16-5,4.28-4.88,8.44-9.87l5.85-7.16-9.16.09H52c0-4.52,0-5.13-.06-10.26,0-2.19,0-3.63.05-4.84-.1-1.51-.24-3-.46-4.3-.62-3.73-1.66.86-1.94,3.25-.09.8-.16,1.62-.22,2.44s0,2.05,0,3.5c0,6.38,0,7.16.09,12.77h6.46l-2.34,2.82-8.24,10-.85,1-.37.45-.1.13a3.43,3.43,0,0,0-.19.29l-.18-.17-.09-.09,0,0-.17-.18L42.08,55.7c-.87-1-1.83-2.1-3.29-3.85a63.5,63.5,0,0,1-3.95-5.16c-.47-.66-.93-1.33-1.54-2.14l-1-1.35c-.15-.18-.08-.09-.09-.12h0C32,43.05,32,43,37.28,43c0-1.24,0-3.16-.05-6.09v-2h9.6l-2-2.38L42.48,29.7l-1.12-1.28-1.76-2c-1.1-1.2-2.2-2.4-4.27-4.9-1.41-1.69-2.36-2.79-3.2-3.75l-1.22-1.4L28.84,14c-.55.66-1.69,2.06-3.39,4.13-1.14,1.37-2,2.33-2.74,3.11l-.13.17-10.68,13,5.94,0h2l1.08,0-.07,2.74-.13,3.66V41c0,1.1.06,2.41.06,4.25,0,1.67,0,2.91,0,3.95.1,1.27.23,2.52.4,3.71C21.38,53.69,21.73,53.84,22.18,52.58Z"/><path class="cls-2" d="M36.5,14.54a2.65,2.65,0,0,0-1,.22c0,.17-.1.18-.1.36s0,.18,0,.37.25.19.25.37-.28.19-.28.37-.06.19-.06.37.16.19.16.38-.07.18-.07.37-.07.18-.07.37.35.18.35.37-.17.19-.17.37.17.19.17.37.06.19.06.37a.18.18,0,0,1-.05.14,1.88,1.88,0,0,0,.46.13,6.62,6.62,0,0,0,1.94-.1l.23-.07a.25.25,0,0,0,0-.1c0-.18-.1-.18-.1-.37s0-.18,0-.37-.1-.19-.1-.37-.23-.19-.23-.37.54-.19.54-.37-.17-.19-.17-.38,0-.18,0-.37-.29-.18-.29-.37-.19-.18-.19-.37.05-.09.11-.12h0c0-.29-.34-.58.08-.87h0a.17.17,0,0,1-.05-.12.21.21,0,0,1,0-.12,3.59,3.59,0,0,0-.39-.1A5.3,5.3,0,0,0,36.5,14.54Z"/><path class="cls-2" d="M27.18,58.45a1.75,1.75,0,0,0,1-.49c0-.38.11-.39.11-.79s0-.41,0-.82-.25-.41-.25-.82.28-.41.28-.82.06-.41.06-.81-.16-.41-.16-.82.07-.41.07-.82.07-.41.07-.82S28,51,28,50.63s.16-.41.16-.82S28,49.4,28,49s-.06-.41-.06-.82a.78.78,0,0,1,.05-.3,1.21,1.21,0,0,0-.46-.27,3,3,0,0,0-1.94.2,1,1,0,0,0-.22.16.72.72,0,0,0,0,.22c0,.4.09.4.09.81s0,.41,0,.82.1.41.1.82.24.41.24.82-.55.4-.55.81.17.41.17.82,0,.41,0,.82.3.41.3.82.19.41.19.81a.32.32,0,0,1-.12.26s0,0,0,0c0,.63.34,1.27-.09,1.9h0a.51.51,0,0,1,.06.27.75.75,0,0,1,0,.24,2,2,0,0,0,.4.24A2.88,2.88,0,0,0,27.18,58.45Z"/><path class="cls-2" d="M46.18,25.44a1.69,1.69,0,0,0,1-.58c0-.45.11-.46.11-.94s0-.48,0-1-.25-.49-.25-1,.28-.48.28-1,.06-.48.06-1-.16-.49-.16-1,.07-.48.07-1,.07-.48.07-1-.34-.48-.34-1,.16-.48.16-1-.17-.49-.17-1-.06-.48-.06-1a1.11,1.11,0,0,1,.05-.36,1.36,1.36,0,0,0-.46-.32,2.67,2.67,0,0,0-1.94.25,1.42,1.42,0,0,0-.22.18,1,1,0,0,0,0,.26c0,.48.09.48.09,1s0,.49,0,1,.1.48.1,1,.24.48.24,1-.55.49-.55,1,.17.48.17,1,0,.49,0,1,.3.48.3,1,.19.48.19,1a.44.44,0,0,1-.12.31s0,0,0,0c0,.75.34,1.5-.09,2.25h0a.66.66,0,0,1,.06.31,1,1,0,0,1,0,.29,1.64,1.64,0,0,0,.4.28A2.49,2.49,0,0,0,46.18,25.44Z"/></g></g></svg>