<svg xmlns="http://www.w3.org/2000/svg" viewBox="0 0 74.43 74.68"><defs><style>.cls-1{fill:#f12827;}.cls-2{fill:#fbcca3;}</style></defs><g id="Layer_2" data-name="Layer 2"><g id="Layer_1-2" data-name="Layer 1"><circle class="cls-1" cx="37.67" cy="37.36" r="36.42"/><path class="cls-1" d="M74.32,32.74a35.78,35.78,0,0,0-8.87-20c-.53-.57-1.06-1.15-1.61-1.7L62.08,9.49l-.88-.76-.94-.68L58.37,6.7A52.84,52.84,0,0,0,50.2,2.44a2,2,0,0,1-.27-.08,51.33,51.33,0,0,0-7.8-2A11.83,11.83,0,0,0,40.57.17L39,.07C38.49.05,38,0,37.44,0L35.88.09h-.22L34.12.18c-.57,0-1.19.17-1.91.27-.89.14-1.65.22-2.3.36l-1.72.41-1.48.38c-.5.14-1,.33-1.45.49l-1.45.49-.73.23-.7.3-1.67.79-1,.46-.8.48-1.36.82a18.26,18.26,0,0,0-2,1.38c-.6.46-1.22.89-2,1.49S12.05,9.91,11,11,9.15,12.88,8.53,13.6L7,15.54a16.54,16.54,0,0,0-1.39,2A24.56,24.56,0,0,0,3.85,20.7L3,22.52c-.24.54-.4,1-.57,1.48-.32.89-.61,1.6-.84,2.32A39,39,0,0,0,.28,32.26,21.37,21.37,0,0,0,0,35.85,14.77,14.77,0,0,0,.09,38.3c.07.75.14,1.5.23,2.44s.34,2,.55,3.53a45.57,45.57,0,0,0,1.52,5.82c.25.71.44,1.45.82,2.31s.85,1.9,1.58,3.22,1.36,2.26,1.91,3l1.49,1.94a20.53,20.53,0,0,0,1.62,1.83,26,26,0,0,0,2.53,2.52l1.48,1.34,1.26.94c.76.55,1.34,1,2,1.43a36.69,36.69,0,0,0,5.28,2.88,12.31,12.31,0,0,0,1.84.75l1.49.53a16.93,16.93,0,0,0,2.35.65c.73.16,1.45.37,2.37.54l3.52.5,3.56.18c.93,0,1.68-.06,2.43-.08a30.47,30.47,0,0,0,5.93-.78c1.45-.4,2.55-.63,3.42-1l2.26-.9c.7-.26,1.35-.65,2.18-1.06l1.4-.7c.52-.26,1-.64,1.69-1l1.5-.92a51,51,0,0,0,8.16-7.92,35.7,35.7,0,0,0,5.69-9.86,23.06,23.06,0,0,0,1-3.24l.41-1.65.21-.82.12-.84c.11-.83.38-2,.46-3.17a12.13,12.13,0,0,0-.16-3,.71.71,0,0,0-.19-.39h-.11a3.18,3.18,0,0,0-.52,1.39A33.34,33.34,0,0,1,66.86,58L66,59.17a11.53,11.53,0,0,1-1.17,1.47,38.51,38.51,0,0,1-4.1,4c-.52.48-1.14.86-1.85,1.41L57.66,67l-1.63,1a16.61,16.61,0,0,1-1.65.94L53,69.5a14.69,14.69,0,0,1-2.15.87l-2.2.72c-.84.29-1.9.47-3.27.84a37.4,37.4,0,0,1-5.62.78c-.71,0-1.42.11-2.31.11l-3.38-.17-3.33-.54c-.87-.2-1.54-.43-2.23-.61a17.25,17.25,0,0,1-2.18-.72L25,70.25a12.28,12.28,0,0,1-1.73-.73,40.79,40.79,0,0,1-4.95-2.72c-.61-.36-1.15-.83-1.86-1.35l-1.19-.89-1.38-1.27a24.45,24.45,0,0,1-2.36-2.39A18.9,18.9,0,0,1,10,59.16L8.61,57.32c-.5-.72-1-1.66-1.76-2.86s-1.07-2.23-1.47-3S4.83,50,4.57,49.29a33.15,33.15,0,0,1-1.46-5.44c-.18-1.4-.39-2.44-.43-3.32s-.05-1.59-.07-2.29A15,15,0,0,1,2.66,36,27.41,27.41,0,0,1,3,32.63c.35-2.81.81-4.15,1.06-5.55.18-.69.42-1.35.69-2.2.14-.42.28-.89.49-1.4L6,21.77a24.19,24.19,0,0,1,1.63-3,15.79,15.79,0,0,1,1.26-1.93L10.28,15c.56-.68,1.3-1.45,2.25-2.52s1.83-1.69,2.47-2.3,1.28-1,1.84-1.41a14.19,14.19,0,0,1,1.9-1.32L20,6.69l.76-.47.9-.44A30.24,30.24,0,0,1,27,3.66c.68-.2,1.39-.33,2.25-.54.43-.1.9-.23,1.44-.35l1.87-.29c.7-.09,1.31-.24,1.87-.26l1.48-.07a20.81,20.81,0,0,1,2.31-.06,42.46,42.46,0,0,1,5.65.55l1,.15.86.22,1.44.35c.43.11.83.19,1.19.3l1,.36,2.18.77,3.06,1.45,2.75,1.65c.71.48,1.25.91,1.79,1.3l.26.19a34.22,34.22,0,0,1,8.74,9,28.85,28.85,0,0,1,2.54,5.36c.49,1.4.86,2.37,1.09,3.26s.38,1.68.6,2.68l.07.26c.23,1,.41,2.27.68,3.48a21.44,21.44,0,0,0,.64,3.28c.39,1.21.57.46.65-.74A16.26,16.26,0,0,0,74.32,32.74Z"/><path class="cls-2" d="M47.49,43.56A4,4,0,0,0,50,43.43c.81-.42,1.23-.61,1.67-.8a11.75,11.75,0,0,0,1.11-.58l.44-.8.28-.51a8.31,8.31,0,0,1,.93-1.32,3,3,0,0,1,1-.8,8,8,0,0,1,1.3-.4,2.36,2.36,0,0,1,.93,0,.43.43,0,0,1,.16,0c.15.06.2.17.11.22a.58.58,0,0,1-.19.1s0,0,0,0l-.16.25-.38.63c-1,1.61-1,1.58-2.05,3.16-.52.78-.76,1.19-1,1.59-.12.2-.24.4-.39.62a5.54,5.54,0,0,1-.64.74c-1.33,1.35-1.39,1.3-2.75,2.61S49,49.47,47.55,50.64c-.35.29-.6.5-.78.67l-.24.22c-.06,0,0,.07,0,.1a.25.25,0,0,1,0,.07s0,0-.06,0l-.22,0a11.31,11.31,0,0,1-1.14.05c-1.93,0-1.93-.17-3.85-.17s-1.93.17-3.85.17l-3.86.06h-.83a4.57,4.57,0,0,0-.85,0,2.27,2.27,0,0,0-1.35,1.29c-.36,1.3,1.54.74,1.74,1.09l.37.16h.94c1.93,0,1.93-.1,3.85-.1h3.85c1.93,0,1.93-.1,3.85-.1.48,0,.85,0,1.15,0h.21c.09,0,.23,0,.33,0l.61-.19a3.43,3.43,0,0,0,.51-.3l.38-.3,1-.77c1.52-1.28,1.86-.88,3.3-2.22s1.29-1.47,2.67-2.87l.47-.49c.13-.14.31-.36.4-.47l.49-.68c.29-.4.58-.81,1.12-1.62,1.07-1.65.82-1.8,1.83-3.49.15-.25.27-.48.38-.68l.34-.7c.24-.54.41-1,.62-1.49a3,3,0,0,0-.53-.64,4,4,0,0,0-1.12-.81,8.89,8.89,0,0,0-1-.39l-.63-.19h-.08a5.73,5.73,0,0,0-2.65.38,5.49,5.49,0,0,0-2.16,1.58,14.71,14.71,0,0,0-1.39,2c-.1.16-.22.36-.24.38a.19.19,0,0,1-.17.11s-.24.09-.41.15l-.53.2h0c-.27.17-.61.37-1.09.62s-.78.39-1.06.51a6.39,6.39,0,0,0-.79.86C46.83,43,47,43.34,47.49,43.56Z"/><path class="cls-2" d="M23.07,46.09a3,3,0,0,0,2-.55c1-1,1.13-1,2.19-2l.36-.36a2.19,2.19,0,0,1,.24-.22c.15-.13.27-.24.4-.34a7.08,7.08,0,0,1,1.09-.69l1-.5.16-.07a.66.66,0,0,1,.23,0c.24,0,.53,0,.91,0,1.54,0,1.54.28,3.09.28h.88s0,0,.1.06a6.24,6.24,0,0,1,.92.61c.29.22.52.39.76.54a5,5,0,0,0,.75.42,2.75,2.75,0,0,0,1.16.28l1,0c1.54,0,1.54.07,3.08.07h.92l.32,0,.19,0a1.23,1.23,0,0,1,.37.08l.21.06a1,1,0,0,0,.21.1c.28.17.36.25.54.35a.63.63,0,0,1,.21.67.8.8,0,0,1-.48.55.94.94,0,0,1-.3.12,5,5,0,0,1-.52.14l-1.32.12a13.05,13.05,0,0,1-1.55.08c-1.54,0-1.54.06-3.08.06a10.81,10.81,0,0,1-1.15,0,3.26,3.26,0,0,0-1,.47c-.89.62.2,1.66.77,1.93a5.83,5.83,0,0,0,.58.23l.83,0c1.54,0,1.54-.1,3.08-.1h1.55a16.06,16.06,0,0,0,1.76-.08,4.58,4.58,0,0,0,1.22-.4,3.24,3.24,0,0,0,.77-.52,3.77,3.77,0,0,0,1.23-2,3,3,0,0,0-.28-2.27A4.43,4.43,0,0,0,47,41.57l-.62-.32-.49-.2a8.36,8.36,0,0,0-.78-.31l-.38-.12a2.14,2.14,0,0,0-.34-.09,4.38,4.38,0,0,0-.92-.09c-1.54,0-1.54.17-3.08.17h-.79l-.07,0-.34-.24-.72-.54A4.55,4.55,0,0,0,36.73,39a3.41,3.41,0,0,0-1-.1c-.28,0-.54,0-.94,0-1.54,0-1.54.19-3.08.19a3.57,3.57,0,0,1-1-.12h-.07c-3.24.35-4.64,2.83-6.61,4.1l0,0a7.65,7.65,0,0,1-.68.75,8.53,8.53,0,0,1-.69.64,4.73,4.73,0,0,0-.34.91C22.32,45.72,22.54,46,23.07,46.09Z"/><path class="cls-2" d="M27.73,60.59A3.67,3.67,0,0,0,27,58.34c-1.19-1.2-1.14-1.3-2.38-2.54L22,53.29C20.77,52,20.6,52.2,19.33,50.94a10.45,10.45,0,0,1-1.16-1.36L18,49.3c-.05-.08-.2-.25-.15-.22s0,0,0-.06h0s.05,0,.07,0c.26-.24.61-.58,1.17-1.13s.92-1,1.2-1.32l.22-.27.12-.14v0s0-.06.06-.1l0,0a.59.59,0,0,1,.1.16c.29.31.59.64,1.17,1.21,1.26,1.27,1.22,1.31,2.48,2.58s1.51,1,2.77,2.28,1.15,1.38,2.41,2.64c.26.27.48.47.66.64l.27.23.11.1h0A1.23,1.23,0,0,1,31,56a.51.51,0,0,1-.09.1l-.71.76c-.31.32-.62.65-1.25,1.28a13,13,0,0,1-1,.91,5,5,0,0,0-.51,1.16c-.28,1.17,1.35,1,2,.74a4.65,4.65,0,0,0,.63-.32c.19-.17.42-.38.7-.66.63-.63.93-1,1.23-1.3l.49-.54,1.35-1.36L34.6,56l-3.09-3.08c-1.26-1.26-1.33-1.19-2.6-2.45s-1.42-1.1-2.69-2.37-.88-1.64-2.14-2.91a15.18,15.18,0,0,0-1.24-1.13c-.6-.55-1.18-1.07-2.17-2l-.42.43-3.32,3.31a9.54,9.54,0,0,0-1.12,1.3c-.49.58-.9,1.09-1.72,1.94l.49.47c.54.54,1,.94,1.3,1.26s.24.21.35.31l.27.22a15.44,15.44,0,0,1,1.32,1.19,5.22,5.22,0,0,1,.73.89l.05,0c2,2,4.16,3.68,5.82,5.94l0,0c.23.19.5.43.86.79s.56.58.74.79a5.33,5.33,0,0,0,1,.44C27.39,61.36,27.66,61.15,27.73,60.59Z"/><path class="cls-2" d="M22.9,50.76a5.19,5.19,0,0,0,.65-.83c-.07-.07,0-.15-.07-.22s-.08-.06-.16-.14-.25.1-.32,0,.12-.27,0-.35,0-.11-.1-.19-.19,0-.26,0,0-.13-.1-.2,0-.12-.1-.2-.32.17-.39.1,0-.19,0-.27-.19,0-.27,0-.11,0-.19-.1a.11.11,0,0,1,0-.1,3.16,3.16,0,0,0-.38.28,11.27,11.27,0,0,0-1.33,1.41,1.82,1.82,0,0,0-.14.19s0,0,0,0,.14,0,.22.08a1.92,1.92,0,0,0,.15.14c.08.08.15,0,.22.08s.24-.09.32,0-.32.45-.24.53.19,0,.27,0l.14.15c.08.08.28-.13.36-.06s.2-.06.28,0,0,.07,0,.13h0c.13.11.47,0,.29.41h0s.07,0,.09,0a.08.08,0,0,1,0,.07,3.29,3.29,0,0,0,.32-.24A10.14,10.14,0,0,0,22.9,50.76Z"/><path class="cls-2" d="M46,41.8a2.74,2.74,0,0,0,1-1.73c0-1.37.11-1.4.11-2.82v-2.9c0-1.45-.25-1.45-.25-2.9s.28-1.45.28-2.9.06-1.45.06-2.9v-.07h0l-.07-.08s0-.07.06-.07h.59l.58,0c.37,0,.73,0,1.45,0h1.29s0,0,0,0h0a.22.22,0,0,1,.17,0A4.28,4.28,0,0,1,51.47,27c0,1.45-.16,1.45-.16,2.9s.17,1.44.17,2.89.06,1.45.06,2.9c0,.49,0,.81,0,1.08a2.93,2.93,0,0,0,.46,1c.62.84,1.66-.19,1.93-.72a2.91,2.91,0,0,0,.23-.55c0-.21,0-.46,0-.78,0-1.45-.09-1.45-.09-2.9l0-2.9c0-1.44-.1-1.44-.1-2.89a9.37,9.37,0,0,0-.11-1.51,20.91,20.91,0,0,1-.12-2.39V23a10,10,0,0,1-2.32-.28l-.25-.05L51,22.61l-.31-.08a3.91,3.91,0,0,0-.86-.09,9.53,9.53,0,0,0-1.45.09l-.59.06c-.27,0-.34,0-1.14,0H44.27v3.05c0,1.45.29,1.45.29,2.9s.19,1.45.19,2.9a3.23,3.23,0,0,1-.12.93v0a34.5,34.5,0,0,1-.08,6.74v0a7.45,7.45,0,0,1,.05.94,7.1,7.1,0,0,1,0,.89,5.18,5.18,0,0,0,.4.82A.87.87,0,0,0,46,41.8Z"/><path class="cls-2" d="M46,23.81a2.71,2.71,0,0,0,1-1.69c0-1.34.11-1.36.11-2.75,0-1.92,0-2.23,0-3.84h-.9c-.69,0-1.21,0-1.64,0l-.54,0-.27.05a7.35,7.35,0,0,1-1.42.12A6.3,6.3,0,0,1,41,15.64c-.17,0-.35-.07-.57-.09l-.19,0h-.38l-.92,0H37.15c0,1.18,0,1.73,0,3.45,0,1.42.16,1.42.16,2.83s-.08,1.41-.08,2.82-.06,1.41-.06,2.83.34,1.41.34,2.82-.16,1.41-.16,2.82.17,1.42.17,2.83.06,1.41.06,2.82c0,.48,0,.79,0,1.06a3,3,0,0,0,.46.93c.62.81,1.66-.19,1.93-.71a2.74,2.74,0,0,0,.23-.53c0-.2,0-.44,0-.76,0-1.41-.09-1.41-.09-2.82l0-2.83c0-1.41-.1-1.41-.1-2.82s-.23-1.41-.23-2.82.55-1.42.55-2.83-.17-1.41-.17-2.82V18.58s0,0,0,0L40,18.45a1.39,1.39,0,0,1-.16-.28.32.32,0,0,1,.21-.05h.37L41,18a10.47,10.47,0,0,1,1.41-.09,3.58,3.58,0,0,1,.91.11h0A8.68,8.68,0,0,0,44.73,18c0,.12,0,.26,0,.41v.77a12.69,12.69,0,0,1-.21,2.12v0a7.21,7.21,0,0,1,.05.92,6.58,6.58,0,0,1,0,.86,5.08,5.08,0,0,0,.4.81A.91.91,0,0,0,46,23.81Z"/><path class="cls-2" d="M32,39.92a1.57,1.57,0,0,0,1-.71c0-.56.11-.57.11-1.16V36.87c0-.6-.25-.6-.25-1.19s.28-.6.28-1.19.06-.6.06-1.19a2,2,0,0,0-.08-.6l0-.11s0,0,0,0l0,0c0-.07.06,0,.07-.05h0s.08.07.08.07h0s0,0,.07,0l.24-.12a1,1,0,0,1,.6-.17c.59,0,.59.16,1.19.16s.59-.17,1.19-.17.59-.06,1.19-.06a1.61,1.61,0,0,1,.44,0,1.31,1.31,0,0,0,.39-.46,2.19,2.19,0,0,0-.3-1.93,1,1,0,0,0-.22-.23,1.52,1.52,0,0,0-.32,0c-.59,0-.59.09-1.19.09H35.32c-.59,0-.59.1-1.19.1a1.38,1.38,0,0,0-.59.12,1.61,1.61,0,0,1-.79.12c-.95,0-1.26-.55-2.48-.55h-.16c0,1.06.17,1.23.17,2.26v1.6c0,.6.29.6.29,1.19s.19.6.19,1.19a.64.64,0,0,1-.12.38v0a5.9,5.9,0,0,1-.08,2.77h0a1.32,1.32,0,0,1,.05.39,1.23,1.23,0,0,1,0,.36A2.3,2.3,0,0,0,31,40,2,2,0,0,0,32,39.92Z"/></g></g></svg>