<svg xmlns="http://www.w3.org/2000/svg" width="1673" height="1676" viewBox="0 0 1673.7 1676.14">
  <defs>
    <style>
      .cls-1 {
        opacity: 1;
      }

      .cls-2 {
        fill: #ffefe1;
      }
    </style>
  </defs>
  <g id="Layer_2" data-name="Layer 2">
    <g id="BG">
      <g class="cls-1">
        <path class="cls-2" d="M860.37,1543.16Z" />
        <path class="cls-2"
          d="M1673.61,844.4a131.52,131.52,0,0,0-1.84-19.59,62.4,62.4,0,0,0-2.82-10.7c-.37-.92-.74-1.84-1.14-2.76s-.86-1.84-1.42-2.75a23.92,23.92,0,0,0-1.78-2.72,11.92,11.92,0,0,0-1-1.32c-.4-.42-1-1.13-1.49-1.57a19.6,19.6,0,0,0-7.28-4.16,21.22,21.22,0,0,0-4-.6c-.68,0-1.35-.08-2.06-.07l-1,0h-.92l0,.11c-.48,1.22-1,2.44-1.45,3.67l-.37.92-.18.47c0,.16-.09.37-.13.56-.16.77-.32,1.53-.49,2.31q-.66,3.11-1.33,6.29l-2.29,1-.22.1-.56.23-.08,0h0v0l.06.21c0,.13,0,.26.08.41a28.57,28.57,0,0,1,.3,2.89c.17,3,.14,6.19.07,9.18,0,2-.13,3.85-.22,5.68l-2.23.85-.41.16c-1.39-15.65-2.56-29.21-3.31-41.46-.86-13.66-1.25-25.69-1.14-37.09l0-4.67-3.17-.05c-.42-2.65-.94-5.22-1.48-7.76-.29-1.33-.59-2.64-.89-3.95l1.22-.13,2-.19.5,0c.23-.08.62-.27.93-.4l2-.85,10-4.35,1.23-.53.61-.27.31-.14c0-.07,0-.2-.07-.29l-.9-2.54c-.61-1.71-1.22-3.42-1.83-5.16l-2.71-7.63c-.7-2.12-1.42-4.27-2.15-6.47-1.51-4.38-2.9-9-4.43-13.78-2.94-9.62-6-20.06-9.11-31.52-4.69-17.31-8.46-32.61-11.85-46.29s-6.34-25.77-9.15-36.75c-5.6-22-10.46-39.55-15.91-57-1.42-4.33-2.74-8.69-4.27-13.06q-1.11-3.3-2.25-6.64l-2.42-6.74c-1.59-4.57-3.45-9.2-5.29-14.06l-3-7.37c-1-2.52-2.1-5.07-3.25-7.67-2.21-5.24-4.76-10.64-7.44-16.37l-4.35-8.75c-1.51-3-3.18-6-4.83-9.15-3.4-6.23-7.15-12.77-11.39-19.58l-1.58-2.59c-.56-.85-1.13-1.71-1.69-2.58l-3.46-5.27c-1.14-1.8-2.4-3.57-3.67-5.37l-3.38-4.81-.07-.1-.08-.12a.15.15,0,0,1,0-.16v-.33l0,.15,0-.27-.08-.64c0-.25-.06-.3-.09-.47l-.18-.81c-.14-.49-.27-1-.43-1.45-.3-.93-.62-1.74-1-2.51-.6-1.39-1.19-2.57-1.71-3.58l.27-.23-2.36-3.9a784,784,0,0,0-44.66-66.4l-4.75-6.29-2.31-3.05-2.32-2.94-8.95-11.27c-6-7.15-11.56-14.05-17.5-20.7s-11.93-13.33-18.37-20.35l-10.26-10.64-2.69-2.77-2.82-2.78-5.81-5.74c-3.93-4-8.25-7.91-12.74-12.14s-9.36-8.55-14.49-13.16c-1.29-1.14-2.57-2.33-3.92-3.48l-4.11-3.51-8.59-7.32-9.29-7.56-4.86-3.94-5.1-4A767.67,767.67,0,0,0,1265,122c-4.91-2.94-9.52-5.81-14-8.43L1237.88,106c-8.53-4.67-16.53-9.12-24.69-13.25-16.27-8.37-32.74-16.39-53.77-25.37-5.25-2.29-10.83-4.5-16.7-6.94s-12.19-4.75-18.84-7.35c-13.43-4.89-28.48-10.37-46-15.7-4.35-1.41-8.61-2.63-12.73-3.83s-8.11-2.42-12-3.44c-7.81-2.08-15.1-4.12-22.06-5.75L1021,21.92l-9.58-2.13c-3.11-.68-6.12-1.38-9.07-2l-8.63-1.73-8.21-1.63-7.87-1.39c-5.14-.91-10.06-1.82-14.87-2.52S953.29,9,948.69,8.39L935,6.57c-18.16-2.2-36.38-4-59.21-5.31A860.9,860.9,0,0,0,788.94.93a841.07,841.07,0,0,0-86.42,8.71c-22.6,3.52-40.54,7.14-58.4,11.14C626.3,25,608.57,29.53,586.69,36.23a810.57,810.57,0,0,0-81.55,30.09c-16.8,7.34-31.2,14.3-44,20.73-6.4,3.18-12.32,6.35-18,9.29l-8.16,4.42c-2.65,1.44-5.23,2.82-7.71,4.24-20,11.17-35.58,20.7-51,30.64s-30.46,20.34-48.72,34.2c-2.3,1.71-4.59,3.54-7,5.4l-7.3,5.75-7.66,6.16-8,6.67c-10.94,9.24-22.9,19.87-36.31,32.17-19.48,17.9-35.21,32.58-48.82,44.67s-25,21.65-35.34,29.8l-6.37,5,1.18,1.2-1,1.25,4.94,4.43,3,2.65.25.18s.14.07.09.11l-.07.12a3.2,3.2,0,0,1-.21.32c-1.88,2.37-3.79,4.68-5.6,7.05l-5.42,7.11-2.71,3.56-2.65,3.63-5.37,7.37c-1.8,2.49-3.55,5.08-5.38,7.68s-3.71,5.25-5.53,8a831.84,831.84,0,0,0-52.93,90.29C77,483.25,66.31,508.64,58,530c-4.16,10.68-7.7,20.37-10.94,29.55L42.43,573l-4.25,13.16c-5.48,17.49-10.57,35.12-16,57.39-.67,2.79-1.39,5.63-2.06,8.58s-1.33,6-2,9.08c-1.44,6.21-2.68,12.83-4.13,19.85C11.29,695.15,8.52,711,6.12,729.16c-.59,5-1.16,9.72-1.72,14.34s-.91,9.11-1.35,13.44-.72,8.58-1,12.68q-.22,3.07-.45,6.06c-.1,1-.09,2-.11,3s0,2-.05,2.91c-.3,15.17-.75,28.39-1,40.58s-.44,23.23-.34,34c.1,9.77.38,19.27,1.15,29.13l-.06.17H1.2c.07.93.14,1.86.23,2.8l2.19,24.94.2-.52c.12,1.55.24,3.12.35,4.73.09,1.13.17,2.27.26,3.43s.27,2.33.4,3.51c.55,4.73,1.12,9.7,1.72,15,.3,2.63.61,5.32.93,8.09.16,1.39.33,2.79.49,4.22s.31,2.87.56,4.32q1.37,8.75,2.9,18.51c.51,3.27,1,6.62,1.58,10.08.13.86.27,1.73.41,2.61l.51,2.63q.52,2.64,1.07,5.37c1.44,7.27,3,14.95,4.58,23.09,2,8.93,4.13,17.27,6,25.15s4,15.17,5.91,22.07q1.46,5.17,2.83,10,.69,2.44,1.35,4.81c.23.79.45,1.57.67,2.35l.75,2.29,5.6,17.24c3.36,11,7.14,20.59,10.46,29.76.84,2.29,1.66,4.55,2.48,6.78s1.6,4.44,2.52,6.58l5.28,12.81c1.74,4.24,3.49,8.49,5.27,12.8s3.89,8.55,5.91,13,4.14,9,6.34,13.75c.55,1.19,1.08,2.41,1.68,3.6l1.84,3.61,3.82,7.48,8.27,16.16,10,17.68,5.45,9.65q3,4.86,6.19,10l6.6,10.66,3.45,5.59c1.24,1.84,2.5,3.72,3.79,5.62l7.44,11.07c1.21,1.78,2.39,3.54,3.56,5.28s2.27,3.46,3.5,5.08L160,1327.59q1.59,2.16,3.12,4.28c1,1.41,2.12,2.72,3.15,4.06l6.09,7.74c4,5,7.62,9.78,11.25,14.22s7.22,8.53,10.61,12.53l5,5.87c1.64,1.91,3.19,3.84,4.86,5.62l18.92,20.77,19.64,20.09c1.68,1.77,3.49,3.46,5.32,5.19l5.57,5.3,11.9,11.31c17.1,15.26,37.57,33.73,67,55.59,1.83,1.38,3.6,2.78,5.39,4.09l5.35,3.81,10.21,7.26c3.31,2.33,6.47,4.65,9.62,6.79l9.24,6.1q4.47,3,8.7,5.75c1.41.93,2.8,1.84,4.16,2.75s2.72,1.79,4.09,2.61l15.45,9.45,7.16,4.38c1.15.72,2.32,1.39,3.49,2l3.45,2,13.15,7.43c8.41,4.92,16.64,9,24.74,13.24l6.1,3.17c2,1.06,4.07,2.16,6.19,3.13l12.84,6.15c4.4,2.09,8.89,4.32,13.64,6.48l15,6.59c10.42,4.77,22.18,9.28,35.46,14.62,3.31,1.38,6.78,2.61,10.36,3.9l11.06,4c3.81,1.37,7.71,2.83,11.78,4.23l12.67,4.11c8.15,2.64,15.78,5.22,23.14,7.21l20.75,6,18.71,4.7,8.63,2.16,2.08.52,2.08.45,4.08.87,15.39,3.3,7.22,1.54c2.37.47,4.71.86,7,1.27l13.39,2.39,6.47,1.15,3.2.57,3.19.46,8,1.12c6.68.92,13.35,1.91,20,2.74l20.1,2c3.35.31,6.69.73,10,.95l10.07.64,10.06.64,5,.31c1.68.11,3.35.23,5,.25l20.14.52,5,.13c1.68,0,3.35.09,5,0l10.07-.11,10.06-.12,5-.05,2.51,0,2.51-.12,20.1-1,5-.24,2.51-.13,2.5-.22,10-.85,10-.86c3.33-.31,6.68-.49,10-1,13.3-1.7,26.66-3,39.89-5.39,26.57-3.94,52.85-9.85,79-16.43l18.27-5,4.56-1.25,2.28-.62,2.26-.72,9-2.84,18-5.67,17.77-6.34,8.88-3.17c3-1.06,5.84-2.31,8.77-3.46l17.48-7c1.45-.6,2.94-1.13,4.36-1.79l4.29-1.94,8.59-3.86,8.59-3.87c2.87-1.29,5.75-2.53,8.54-4l23.4-12c7.14-3.94,13.7-7.74,19.92-11.23,3.09-1.77,6.13-3.42,9-5.14l8.33-5.17,15.58-9.65,1.87-1.16c.61-.4,1.21-.81,1.81-1.22l3.58-2.43,7.06-4.78,14-9.52,14-10.4,7.34-5.46,3.79-2.82c1.26-1,2.49-2,3.77-3l5.42-4.52,16.07-13.41,16.66-15.15c2.83-2.61,5.75-5.17,8.56-7.88l8.36-8.32q4.19-4.18,8.38-8.38l4.19-4.19c.69-.7,1.4-1.38,2.07-2.11l2-2.18,15.66-17.23,3.8-4.21c1.28-1.38,2.41-2.87,3.61-4.29l6.92-8.46c4.5-5.56,8.87-10.85,12.8-16s7.34-10.18,10.52-14.74c6.71-9.63,8.91-13.41,8-13.15l0-.07-1.25-1.48a9.1,9.1,0,0,0,1.57,1.21c.12-.18.24-.35.35-.53a8.65,8.65,0,0,0-.55-1,102.73,102.73,0,0,0,7.8-9.55c3.52-4.75,7.39-10.55,11.11-16.24,6.21-10.44,12.34-20.82,19.55-30.34l3.91-5.15-.66-.05-.17-.14-2-1.66,1.92-2.71.78,4.31a14.28,14.28,0,0,0,1.93-4.57,8.24,8.24,0,0,0,0-3.28,7,7,0,0,0-.32-1c7-15.25,14-30.53,20.62-46q3.78-8.85,7.33-17.84c1,.42,1.93.82,2.89,1.23l2.58.92c.85.31,1.78.49,2.66.75a18.83,18.83,0,0,0,2.53.49,19.28,19.28,0,0,0,2.31.19,19.06,19.06,0,0,0,2.38-.08c.8-.07,1.61-.26,2.41-.41a23.7,23.7,0,0,0,2.33-.8l1.11-.53.55-.27.51-.33a23.63,23.63,0,0,0,6.54-6.31,51.32,51.32,0,0,0,4.31-7.22,144,144,0,0,0,6.21-14.89c1.82-5,3.48-10,5.11-15,3.24-10,6.32-20.06,9.44-30.07l2.34-7.5.56-1.79.65-1.68,1.44-3.66,5.66-14.69c3.38-9.22,7-19.24,11-30.73,2-5.74,4.12-11.85,6.32-18.42l3.38-10.2,1.65-5.07c.15-.49.31-1,.47-1.47l.23-.74.12-.37c0-.06,0-.15.07-.17l.2,0,1,.2.65.08h.39l.23,0,.28,0,.34-.06a7.08,7.08,0,0,0,2.69-1.2,9.1,9.1,0,0,0,1.9-1.86,18.25,18.25,0,0,0,2.12-3.66,68.16,68.16,0,0,0,2.47-6.43c.69-2.07,1.33-4.1,2-6.1,1.22-4,2.34-7.86,3.43-11.61s2.14-7.38,3.16-10.91c.51-1.74,1-3.45,1.51-5.13s1.07-3.42,1.57-5.09c3.93-13.44,6.78-25.39,9.3-36.32,5-21.87,8.3-39.63,11.15-57.35,1.4-8.87,2.67-17.72,3.76-27.12s2-19.31,2.51-30.33C1673.67,856.33,1673.78,850.54,1673.61,844.4ZM1329.92,317.32a.15.15,0,0,1,.09-.11l0,.42A.58.58,0,0,1,1329.92,317.32Zm.16-1a.91.91,0,0,1-.23-.51.38.38,0,0,0,0-.1c-.23-.27-.42-.49-.56-.68l.81.9Zm-3-3.79.14.16-.17.2-.15-.38ZM795.2,120.83l-.29.09v0l0,0,.06,0v-.08l.23,0Zm-.53,0h0Zm35.74,1414.64-11,6h0l-2,0h-.66l9-4.06,4.36-2Zm29.5.22Zm361.27-113.15.34,0ZM936.11,1523.64c-.09-.22-.18-.43-.28-.65.09.21.19.43.29.64Zm409.6-195.07-5.35,5.22c-1.83,1.79-3.78,3.54-5.75,5.39l-6.11,5.67-6.61,5.87c-9.06,8.08-19.54,16.74-31.79,26.28-14.79,11.51-27.94,20.5-38.46,27.5-9.71,6.45-17.31,11-22.19,14l-.94.51c-1.91,1-3.51,1.91-4.86,2.53a16.83,16.83,0,0,1-1.71.71l-.57.18-.2,0-.08,0h0a.56.56,0,0,0-.36.11l-.36.19-.35.08-1.15.26c-.92.2-2,.53-2.59.69l-4.73,3.33c-1.29.9-2.54,1.82-3.82,2.67l-7.52,4.95-7.39,4.54c-2.42,1.49-4.9,2.83-7.31,4.24-9.74,5.46-19.48,10.33-30.2,15.08s-22.47,9.34-36.32,14l-5.29,1.78-5.52,1.75c-3.73,1.22-7.66,2.35-11.71,3.58-8.15,2.38-17,4.84-26.58,7.35-21.59,5.61-39.52,9.83-55.09,13.72s-28.83,7.34-41.25,10.88c-2.8.8-5.56,1.61-8.3,2.42l19.85-8.28-35,.22a86.42,86.42,0,0,0-16.53,2c-3.5.72-7.35,1.64-11.5,2.62a124.25,124.25,0,0,1-13.17,2.6l-6.11.75,0,1.44c-6.27.11-13.83.4-21.85.91-11.33.71-21.56,1.61-29.46,2.31L836,1520.18l-9.41.83,3.42,8.86,1.16,3c.16.44.31.82.43,1.14l.13.34,0,.13c-1,.31-1.95.63-2.95.92h0l-15.09,6h.31l.36,0,.71.06,2.82.22c7.47.56,14.37,1.16,21,1.54,1.65.1,3.25.2,4.85.27l3,.11c1.62,0,3.17.08,4.65.08s2.91,0,4.3-.09c.7,0,1.38-.08,2.08-.15.37,0,.69-.06,1.07-.11l.56-.09.28,0,.26,0,.35-.08h.06l0,0s-.05.08,0,.1l.21.06c.13,0,.29,0,.21.19a.2.2,0,0,1,0,.08c0,.06,0,0-.17.24a1.11,1.11,0,0,1-.28.35c-.11.12-.19.25-.31.37a5,5,0,0,0-.42.37l-.2.2-.27.18a19.79,19.79,0,0,1-5.53,2.69,65.64,65.64,0,0,1-14.92,2.63A164.46,164.46,0,0,1,822,1551a368,368,0,0,1-38.25-3.31c-14.31-1.91-30.52-4.61-49.6-8.54-10.9-2.26-20.79-4.52-29.78-6.77q-6.75-1.68-12.79-3.37c-2-.58-3.94-1.14-5.85-1.73s-4.07-1.19-6-1.74c-7.54-2.13-14.46-4-20.61-5.91-1.53-.46-3-.93-4.38-1.4-1-.34-2-.7-2.75-1l.36-1.8c.3-1.51.6-3,.9-4.47L632,1504.17c-5-1.6-9.87-3.21-14.74-4.85-9.75-3.28-19.51-6.69-30.28-10.6-5.38-2-11-4-17-6.31l-.32-.12c-.19-.07-.35-.14-.53-.19l-.73-.22-1.17-.35-2.38-.71-4.87-1.45-10.25-3.07c-7.08-2.13-14.67-4.41-22.72-7.09-4-1.34-8.15-2.8-12.23-4.49a64.49,64.49,0,0,1-5.93-2.78,25.71,25.71,0,0,1-5-3.3c-2.1-1.91-2.54-3.3-2.52-5.14,0,0,0-.1,0-.18s0-.18,0-.27a5.36,5.36,0,0,1,.14-.54c.11-.34.25-.68.39-1l2.59,1.35c3,1.54,5.87,3,8.69,4.38,11.31,5.54,21.44,10,30.75,13.81s17.78,7,25.86,9.88c4,1.44,8,2.8,11.87,4.11l2.92,1,4,1.31,4.85,1.58,2.43.79,1.21.39c.2.06.41.14.6.19l.57.1c.76-1.81,1.51-3.62,2.28-5.47l.6-1.36c.23-.43.48-.83.71-1.25l.09-.15.16-.24.07-.09.15-.19a3.44,3.44,0,0,1,.3-.35,4.29,4.29,0,0,1,2.53-1.55l24.2-4.61L605.89,1468l-2.91-.89V1467l-.28.06c-11.6-3.54-24.23-7.58-39.47-12.89-4.16-1.45-8.52-3-13.09-4.66l-3.48-1.27-1.77-.65-1.09-.41-.8-.29a8.41,8.41,0,0,0-.85-.15l-4.08-.58c-1.2-.14-2.45-.48-3.71-.71-2.5-.45-5.11-1.22-7.77-1.87l-4.05-1.2-2.07-.61-2.09-.69c-5.63-1.77-11.52-4-17.72-6.35-14.64-5.75-27.28-11.4-37.21-15.88l-20.84-9.51-9.46-4.32,1.92,2.6-1.85-1.4-8.53-6.45,0,.41c-14.11-9.44-27.39-15.94-41.75-26.36l-3.66-2.66-1.6,1.35-12.51-9.9-4.45-3.51c-1.52-1.2-3.08-2.41-4.6-3.76q-4.61-4-9.72-8.36l-10.81-9.32-11.65-10.9-6.34-5.94c-1.08-1-2.21-2-3.3-3.12l-3.26-3.32L297,1300l-2-2.07-1.92-2.12q-1.89-2.11-3.74-4.15l-7.13-7.93c-2.29-2.58-4.57-5-6.67-7.49l-6-7.28-11-13.34-9.26-12.34L245,1237.6c-1.39-1.87-2.8-3.66-4-5.52-2.51-3.68-4.92-7.21-7.25-10.64l-6.82-10-6.19-10-6.2-10-1.57-2.53-1.47-2.63-3-5.35c-4-7.25-8.53-14.79-12.82-23.55l-7-13.72c-2.37-4.87-4.7-10.11-7.28-15.62l-4-8.55c-1.29-3-2.52-6.06-3.85-9.23l-4.08-9.84-2.14-5.15c-.69-1.76-1.33-3.57-2-5.39-2.66-7.33-5.26-14.16-7.53-20.65q-3.17-9.83-5.95-18.49l-1.37-4.29c-.43-1.41-.8-2.82-1.19-4.2-.76-2.77-1.51-5.46-2.23-8.07s-1.42-5.15-2.11-7.62-1.41-4.87-1.92-7.25c-1.11-4.75-2.16-9.25-3.17-13.59-.5-2.16-1-4.28-1.48-6.37-.25-1-.48-2.07-.72-3.1s-.4-2-.59-3.07c-.78-4.07-1.54-8-2.28-11.91l-1.11-5.8c-.35-1.92-.78-3.83-1-5.76-1.17-7.71-2.33-15.42-3.57-23.62-.91-8.23-2-16.95-3-26.64-.37-4.86-.75-10-1.16-15.37q-.3-4.07-.63-8.35c-.11-2.87-.23-5.82-.35-8.87s-.24-6.18-.36-9.41c-.06-1.62-.13-3.26-.19-4.93,0-.83-.07-1.67-.1-2.52s0-1.7,0-2.56c0-6.89,0-14.2,0-22,.18-7.8.49-15.11.71-22,.06-1.72.1-3.42.19-5.08s.23-3.31.34-4.92q.35-4.85.66-9.41c.21-3,.42-6,.62-8.85.08-1.43.22-2.84.38-4.23s.29-2.75.43-4.1c.57-5.4,1.1-10.49,1.61-15.34.13-1.21.25-2.41.38-3.59s.33-2.35.49-3.5q.48-3.45.95-6.75c.61-4.41,1.21-8.64,1.78-12.74.26-2.06.63-4.07,1-6.06s.7-3.95,1-5.9c.68-3.91,1.36-7.75,2-11.6s1.49-7.66,2.3-11.54l2.51-11.87c.44-2,.85-4.09,1.33-6.18s1-4.2,1.58-6.36c1.07-4.32,2.19-8.82,3.37-13.55s2.62-9.66,4.08-14.89c.75-2.61,1.52-5.29,2.31-8.06.39-1.38.79-2.78,1.2-4.21.2-.71.41-1.43.62-2.15s.46-1.43.7-2.16q2.82-8.7,6-18.52c1-3.3,2.26-6.63,3.51-10.08l3.87-10.68c10.24-27.34,19.2-47.88,27.4-64.74l5.81-12.1c1.91-3.83,3.87-7.44,5.7-11,3.69-7.05,7.06-13.69,10.77-20l3.38-6A790,790,0,0,1,300,373.68c14.75-17.57,30-34.81,46.41-50.92l6.11-6.1c1-1,2-2,3.08-3l3.17-2.94q6.34-5.85,12.7-11.73l3.19-2.92,3.29-2.81,6.59-5.62L391.1,282l3.3-2.81,3.41-2.68c8.56-6.65,16.94-13.5,25.82-19.65l13.17-9.41,13.5-8.88,6.75-4.43c1.12-.75,2.27-1.45,3.43-2.14l3.45-2.08,13.83-8.29,3.45-2.08,3.53-1.93,7.07-3.88,7.06-3.87,3.53-1.93c1.18-.65,2.35-1.3,3.56-1.88l20-10.26,2.3-1.18,2.31-1.07,4.5-2.08,8.57-4,8.06-3.7c2.62-1.17,5.22-2.18,7.73-3.23l14.48-5.93,3.46-1.41,3.46-1.27,6.85-2.48,13.59-4.92c2.26-.87,4.62-1.52,7-2.29l7.17-2.29,7.43-2.37,3.84-1.22c1.29-.41,2.59-.85,3.94-1.2l5.78-1.67,17.14-5,2.25-.65,2.29-.56,4.63-1.15,9.45-2.34,9.64-2.4c3.25-.75,6.55-1.38,9.85-2.08,6.59-1.36,13.21-2.83,19.8-4.13l19.61-3.43,4.78-.86,2.37-.43,2.36-.33,9.27-1.34c6.06-.88,11.88-1.81,17.37-2.66,5.51-.67,10.68-1.35,15.42-2A104,104,0,0,0,794.77,122l0,.13a104.47,104.47,0,0,0,11.19.57c5.28.16,11.7.36,18,.62,18.62-.12,37.32.56,56.11,1l7,.14c1.16,0,2.32,0,3.48.07l3.47.3,13.9,1.18c9.27.6,18.52,2,27.79,3.18a707.52,707.52,0,0,1,109.41,24.18,754.85,754.85,0,0,1,104.5,40.44,673.91,673.91,0,0,1,96.64,55.92c6.69,4.67,13.84,9.87,22,15.77,4,3.13,8.16,6.47,12.67,10.05,1.46,1.15,2.93,2.32,4.43,3.52,1.74,1.36,3.49,2.82,5.26,4.14l6-6.59,4.53,5.73c8.58,10.62,16.55,19.79,23.86,28a1.58,1.58,0,0,1-.6-.2.46.46,0,0,1,.06.18l-.25-.14c-.28-.11-.5-.16-.47,0l0,0c0,.08,0,.15,0,.18a.56.56,0,0,1-.33,0s-.07,0-.16,0c-.36-.2-.79-.49-1-.43s-.08.27-.1.42l-.1.05c-.21.08-.48-.07-.73-.13a.74.74,0,0,0-.49-.11c-.27.08-.18.21-.38.32l-.62,7.85s0,0,0,.06c0,.25.24.07.19.31s-.12.29-.17.52l0,0-8,5,19.55-3.86c.3-.05.63.2.79,0s-.85-1.08-.79-1.4.14-.24.19-.56l.09-.65,0,0c6.91,7.65,13.19,14.45,18.93,20.71,13.27,14.44,23.75,26,33.87,37.93,2.55,3,5,6,7.54,9s5,6.21,7.58,9.47c5.14,6.52,10.5,13.46,16.21,21.36s11.86,16.7,18.59,26.87,13.95,21.76,21.81,35.25a730.93,730.93,0,0,1,34,65.84c2,4.46,3.88,8.66,5.58,12.76s3.3,8,4.88,11.87,2.92,7.61,4.34,11.29,2.73,7.36,4,11c2.68,7.31,5.06,14.72,7.66,22.56,2.44,7.9,5.06,16.26,7.64,25.64,1.37,4.66,2.6,9.62,4,14.85s2.67,10.8,4.1,16.71c.73,2.95,1.38,6,2,9.17s1.39,6.41,2.11,9.77,1.32,6.85,2,10.44c.34,1.8.72,3.61,1,5.47s.64,3.75,1,5.67a702.76,702.76,0,0,1,8.82,73.39c1.34,19.42,1.7,35,1.68,50.59s-.44,31.17-1.89,50.59a684.42,684.42,0,0,1-9.39,73.36q-.51,2.87-1,5.66t-1.1,5.46q-1.1,5.39-2.12,10.43t-2.19,9.76l-1.06,4.65q-.57,2.28-1.11,4.5c-.74,2.95-1.45,5.81-2.14,8.6s-1.46,5.45-2.16,8.07-1.4,5.14-2.07,7.62-1.43,4.85-2.11,7.18-1.37,4.6-2,6.83-1.39,4.36-2.06,6.48c-1.38,4.22-2.59,8.3-4,12.19l-4,11.43-4.07,11c-5.54,14.53-11.38,29-19.46,46.63a727.86,727.86,0,0,1-34.16,65.43,688.3,688.3,0,0,1-40.91,61.42c-11.65,15.54-21.56,27.53-31.73,39.29l-7.78,8.75c-2.63,2.94-5.41,5.83-8.21,8.87s-5.77,6.07-8.87,9.24l-4.75,4.85C1349.16,1325.24,1347.45,1326.88,1345.71,1328.57Zm200.23-126.33c.66-2.1,1.14-4.27,1.71-6.41s1-4.33,1.44-6.51.77-4.42,1.09-6.65l.17-1.26c0-.16.11-.3.15-.45l.27-.72,1.13-3.06q4.49-12.29,8.72-24.64t8.19-24.81l3-9.58,1.13-3.71c0-.15,0,0,.06.09l0,.24a4,4,0,0,0,.13.46,6.94,6.94,0,0,0,.34.9,7.28,7.28,0,0,0,1.07,1.61,9.55,9.55,0,0,0,2.18,1.82c.22.15,1,.62,1.75,1-6.16,19.09-12.94,38-20.67,56.42q-6,14.38-12.84,28.42C1545.32,1204.33,1545.65,1203.29,1545.94,1202.24ZM1635.15,838l.13.39A2.23,2.23,0,0,1,1635.15,838Z" />
      </g>
    </g>
  </g>
</svg>