<svg xmlns="http://www.w3.org/2000/svg" width="647" height="641" viewBox="0 0 647.87 641.11">
  <defs>
    <style>
      .cls-1 {
        fill: #ffefe1;
        opacity: 1;
      }
    </style>
  </defs>
  <g id="Layer_2" data-name="Layer 2">
    <g id="BG">
      <path class="cls-1"
        d="M647.47,303.78c-.27-3.52-.53-7-.81-10.78-.07-.94-.15-1.89-.22-2.85s-.22-1.95-.34-2.95c-.24-2-.49-4.08-.76-6.27-.13-1.09-.27-2.22-.41-3.37l-.21-1.75q-.15-.88-.3-1.8c-.41-2.42-.84-5-1.29-7.7-.23-1.36-.47-2.76-.71-4.2s-.62-2.92-.94-4.44c-.66-3.05-1.37-6.29-2.12-9.74-1.66-6.87-3.36-12.81-5-18.09s-3.13-9.88-4.58-14c-2.92-8.33-5.51-14.9-8.26-21.4s-5.72-12.93-9.78-20.79c-2.06-3.91-4.33-8.2-7.13-13s-6-10-9.82-15.94c-5.51-8.58-10-15.53-13.73-21.51s-6.57-11-9-15.4L570.62,105l-.53.37-.41-.45-2,1.58-1.23,1-.08.09s-.06,0-.09,0,0,0-.11-.1l-4.64-5.14-1.16-1.28-1.22-1.23-2.47-2.5c-1.69-1.68-3.36-3.46-5.22-5.23-3.77-3.47-7.79-7.42-12.85-11.64l-3.87-3.35c-1.36-1.14-2.82-2.27-4.3-3.47s-3-2.44-4.66-3.73-3.37-2.54-5.16-3.89c-5.62-4.3-10.79-7.71-15.33-10.86-2.3-1.53-4.52-2.89-6.59-4.22s-4-2.6-5.92-3.71c-3.82-2.22-7.23-4.27-10.51-6.11L472.72,36c-3.15-1.62-6.34-3.15-9.71-4.82-.84-.41-1.69-.85-2.57-1.25l-2.71-1.22L452,26.11c-1-.45-2-.93-3.11-1.37l-3.33-1.34-7.26-2.92c-2.59-1-5.36-1.93-8.3-3-1.48-.51-3-1.1-4.57-1.59l-4.91-1.54-5.32-1.65c-1.72-.52-3.42-.93-5-1.37l-4.74-1.25-2.25-.6c-.74-.2-1.49-.3-2.22-.45L385.54,6a242,242,0,0,0-24-3.86l-.08-.05,0,0L360.35,2l-9.71-.87.27.16c-3.13-.33-6.52-.51-10.3-.73-2-.1-4.18-.27-6.46-.35L326.92.07c-5.1-.19-10.78.08-17.18.19C302.68.7,296.49,1,291,1.66c-2.75.3-5.34.5-7.78.83l-6.93,1c-4.39.55-8.29,1.35-12,2-1.85.35-3.66.62-5.41,1l-5.22,1.15-5.22,1.16c-1.74.42-3.5.91-5.33,1.39l-5.64,1.49c-2,.5-3.95,1.19-6.07,1.82l-6.69,2.07-7.38,2.62-4,1.43-4.23,1.69-4.49,1.8c-.77.31-1.55.63-2.35.94l-2.39,1.07a329.82,329.82,0,0,0-30.1,15c-3.81,2.25-7.27,4.22-10.49,6.18l-9.15,5.81-8.94,6.14c-3.06,2.17-6.23,4.59-9.79,7.21-6.94,5.49-15.31,12-25.58,21.8-1.31,1.18-2.54,2.38-3.71,3.56l-3.44,3.4c-1.1,1.1-2.19,2.15-3.22,3.2l-2.93,3.11c-1.89,2-3.7,3.88-5.34,5.71s-3.16,3.59-4.62,5.25c-3,3.27-5.41,6.42-7.81,9.31s-4.51,5.73-6.67,8.52c-1.07,1.41-2.18,2.79-3.22,4.26L61.64,138c-1.08,1.53-2.22,3.09-3.36,4.76S56,146.19,54.78,148A334.9,334.9,0,0,0,37.66,176.9c-3.17,5.8-5.6,11.11-7.92,15.81-1.06,2.4-2.07,4.66-3,6.8s-1.88,4.17-2.64,6.15-1.55,3.84-2.28,5.63c-.36.9-.72,1.78-1.06,2.64s-.64,1.73-.95,2.58c-1.21,3.39-2.42,6.53-3.48,9.68l-1,3c-.79,2.48-1.61,5-2.36,7.43l-2.11,7.51c-.34,1.25-.72,2.49-1,3.75l-.91,3.79c-.59,2.52-1.23,5-1.79,7.57-1,5.09-2.14,10.14-2.89,15.26-.4,2.56-.86,5.11-1.21,7.67l-1,7.7c-.37,2.56-.56,5.15-.79,7.72s-.49,5.15-.63,7.74c-.24,5.17-.62,10.33-.6,15.52-.26,10.36.24,20.74,1,31.12a307.16,307.16,0,0,0,10.2,57.26l3,9.7c1,3,2,5.72,2.94,8.31.47,1.29.89,2.56,1.36,3.77L20,434.49c.92,2.29,1.79,4.46,2.64,6.56,1.79,4.17,3.59,8,5.38,12l3,6c.52,1,1,2.08,1.59,3.15s1.09,2.17,1.72,3.26l1.36,2.36,4,7,4.66,7.34c.8,1.24,1.58,2.53,2.43,3.78l2.6,3.72c1.77,2.48,3.47,5,5.31,7.44,3.72,4.8,7.3,9.57,11,13.67,1.82,2.08,3.54,4.09,5.23,5.92s3.38,3.47,4.91,5c3.21,3.19,4.5,4.27,4.46,3.91l0,0,.64-.38a3.37,3.37,0,0,0-.56.52l.18.17a4,4,0,0,0,.43-.14,39.86,39.86,0,0,0,3.11,3.6c1.57,1.65,3.52,3.5,5.44,5.29a126.19,126.19,0,0,1,10.23,9.45l1.7,1.82.06-.24.07-.06.76-.63.9.91h-1.69a5.67,5.67,0,0,0,1.61,1,3,3,0,0,0,1.65.15c5.34,3.66,10.69,7.36,16.15,10.9,2.08,1.35,4.19,2.66,6.31,4l-.67,1a12,12,0,0,0-1.56,3.68,6.33,6.33,0,0,0,.3,3.69,9.17,9.17,0,0,0,2,2.9,18.67,18.67,0,0,0,2.46,2.12,90.69,90.69,0,0,0,10.61,6.29c3.6,1.89,7.21,3.73,10.81,5.58L154,588.7l.65.33.59.36,1.3.78,5.21,3.13c3.28,1.9,6.85,4,10.95,6.24l6.59,3.62,3.66,2,1.83,1,.52.28.27.14c.07,0,.25.06.15.18l-.13.36a1,1,0,0,0-.07.24c0,.14-.05,0-.05.49a3.06,3.06,0,0,0,.86,1.91l.31.33c.1.1.21.17.31.26s.42.35.62.47a45.11,45.11,0,0,0,4.47,2.51l4.19,2.08c2.73,1.34,5.2,2.51,7.62,3.77,4.85,2.39,9.2,4.26,13.19,5.94,8,3.33,14.51,5.79,21.06,8a198.73,198.73,0,0,0,21.42,6.2,68.42,68.42,0,0,0,14.18,1.82,23.6,23.6,0,0,0,4.26-.37,14.41,14.41,0,0,0,2.27-.6,10.28,10.28,0,0,0,1.15-.5,5.33,5.33,0,0,0,.57-.31,8.26,8.26,0,0,0,.69-.46,7.61,7.61,0,0,0,2.07-2.49,9,9,0,0,0,.49-1.49,8.54,8.54,0,0,0,.27-1.55l-1.3-.8a4.48,4.48,0,0,0-.7-.39l-.84-.33-2.3-.93-.22-.93-.06-.26,0-.09h0s0,0,0,0h-.25c-.26,0-.68,0-1.11-.07-2-.25-3.9-.66-5.64-1l-.18-.9,0-.17c12.77,1.06,21.94,2,30.15,3.52l1.77.33.23-1.22c1.58,0,3.11,0,4.61-.11l0,.47-.06.76v.2a3.6,3.6,0,0,0,.08.37l.19.78c.33,1.34.66,2.7,1,4.1l.13.5.06.25,0,.12s.08,0,.11,0l1-.16,2.09-.34,5.68-.91c1.76-.31,3.61-.49,5.53-.75,3.84-.54,8-.94,12.58-1.4,13.79-1.24,24.24-1.78,33-2.48s15.72-1.33,22.69-2.3a219.19,219.19,0,0,0,22.47-4.09l6.72-1.73,7.41-2.31c2.6-.86,5.29-2,8.19-3l1.1-.41,1.08-.49,2.22-1,4.34-2a.38.38,0,0,1,.16,0h.17c.38,0,.54,0,.76,0l.59-.07c.37,0,.71-.12,1-.19.58-.14,1.06-.29,1.49-.42l.09.15,1.62-.67,8.38-3.45c2.64-1.09,5.14-2.08,7.41-3.21l6.54-3.07c2.07-1,4-1.86,5.85-2.87l10.18-5.38,9-5.32c3-1.69,5.86-3.65,8.93-5.66l4.76-3.14c.83-.53,1.65-1.11,2.48-1.73l2.54-1.86c3.46-2.56,7.34-5.25,11.42-8.67l6.58-5.33,7.11-6.33c1.31-1.18,2.62-2.29,3.82-3.43s2.33-2.29,3.45-3.37c2.22-2.19,4.33-4.21,6.27-6.17s3.66-3.91,5.33-5.71l2.45-2.62c.79-.84,1.56-1.67,2.27-2.52l7.87-9.24,6.65-8.53c2.22-2.74,4.17-5.69,6.37-8.73,1.08-1.53,2.2-3.1,3.37-4.74s2.24-3.45,3.44-5.3,2.46-3.79,3.79-5.86,2.57-4.33,4-6.7l2.16-3.68c.74-1.26,1.52-2.56,2.23-3.94,1.46-2.76,3-5.68,4.67-8.79.85-1.55,1.57-3.1,2.29-4.59s1.4-3,2.08-4.36c1.33-2.81,2.64-5.43,3.67-8l3.06-7.19c.47-1.13,1-2.22,1.38-3.3S625.66,438,626,437c.78-2.06,1.52-4,2.22-5.91s1.41-3.68,2-5.48c1.16-3.56,2.26-6.92,3.36-10.28s1.92-6.79,2.95-10.39,1.92-7.48,2.94-11.77c.48-2.15,1.08-4.39,1.55-6.8s.94-5,1.46-7.67c.26-1.35.53-2.75.8-4.19s.45-2.94.69-4.48l1.44-9.84c.37-3.51.71-6.8,1-9.9.15-1.55.33-3.05.45-4.51s.17-2.88.25-4.26c.16-2.75.31-5.34.46-7.79.09-1.22.12-2.42.12-3.58s0-2.29,0-3.39C648,317.89,647.66,310.84,647.47,303.78ZM77.32,433.54l-.11-.32c-.26-.8-.49-1.47-.64-2-.08-.27-.12-.51-.16-.69s0-.17,0-.23v-.11s0-.05,0,0a.18.18,0,0,0,0-.14.76.76,0,0,1,0-.31l0-.45c0-.37-.07-.78-.09-1-1.09-2.39-2.11-4.66-3.1-6.84-.81-2.12-1.58-4.16-2.35-6.18-1.38-4.08-2.66-8.08-3.71-12.48a209,209,0,0,1-5.18-34.35c-.72-8.58-1.12-15.67-1.58-21.85s-.88-11.44-1.41-16.39c-.1-1.14-.23-2.26-.37-3.37L60.33,335l2.24-13.34a34.39,34.39,0,0,0,.32-6.42c0-1.38-.14-2.9-.24-4.54a49.11,49.11,0,0,1-.11-5.18l.12-2.37-.55-.11c.38-2.39.77-5.28,1.11-8.38.93-8.69,1.41-15.77,1.58-17.31l.4-3.65-3.68.73-1.22.24-.46.09-.1,0c-.05-.22-.13-.64-.24-1.16h0c-.51-2.38-1.47-7-1.3-6.14v.05l0,.07,0,.14-.06.26L57.8,269c-.71,2.8-1.4,5.38-2,7.87-.14.62-.29,1.22-.42,1.82-.09.39-.17.77-.25,1.14-.12.61-.24,1.19-.34,1.76s-.18,1.1-.25,1.64c0,.26-.06.53-.08.8l0,.41v.22c0,.07,0,.12,0,.35-.08-.11-.07.22-.17.13l0,0s0,0-.08-.09a2.5,2.5,0,0,1-.46-.66,7.75,7.75,0,0,1-.65-2.28,25.38,25.38,0,0,1,0-5.85,62.34,62.34,0,0,1,1-6.32,138.37,138.37,0,0,1,3.79-14.33c1.67-5.31,3.77-11.29,6.54-18.29,1.58-4,3.09-7.59,4.54-10.86Q70,224,71,221.82c.35-.73.69-1.41,1-2.1s.71-1.44,1.05-2.13c1.33-2.76,2.5-5.23,3.62-7.45.48-.95,1-1.89,1.41-2.57h0l.22.09.43.17,1.64.64c1.37-2.64,2.68-5.16,4-7.62,1-1.79,1.88-3.54,2.82-5.29,1.89-3.49,3.84-7,6-10.81l3.53-6.05c.28-.47.36-.71.51-1l.43-.86.88-1.75c.59-1.19,1.21-2.42,1.84-3.7,1.28-2.55,2.65-5.29,4.21-8.17.78-1.44,1.6-2.91,2.52-4.35a16.22,16.22,0,0,1,3-3.75,2.38,2.38,0,0,1,2.12-.61,2.27,2.27,0,0,1,.71.36l-.69.9c-.78,1-1.52,2-2.24,3-2.85,3.93-5.22,7.48-7.28,10.77s-3.84,6.29-5.47,9.17c-.82,1.44-1.6,2.84-2.35,4.24-.44.83-.89,1.65-1.33,2.47-.59,1.16-1.27,2.33-1.79,3.47l1.92,1.23a6.29,6.29,0,0,1,.91.67l0,.05.08.07,0,0L95,191l.12.14a1.69,1.69,0,0,1,.42,1.07l.14,9.5,4.26-8.45c.18-.34.36-.69.53-1.05l.06,0s0-.07,0-.11C102.59,188,105,183.45,108,178l2.64-4.66c.24-.41.47-.82.72-1.24l.36-.63.23-.39a2,2,0,0,0,.27-.6c.16-.5.33-1,.49-1.51s.35-.9.52-1.36a87,87,0,0,1,6.32-12.11c3.15-5.18,6.13-9.6,8.49-13.08l5-7.29,2.27-3.31-1.12.56.66-.61,3-2.82-.15,0c4.52-4.74,7.87-9.36,12.79-14.12l1.25-1.22-.4-.7,4.59-4.1c1.07-.94,2.15-2,3.36-3s2.49-2,3.83-3.14l4.26-3.49,4.92-3.71c3.42-2.68,7.44-5.37,11.93-8.47,2.49-1.69,4.93-3.13,7.17-4.56,1.13-.7,2.21-1.4,3.28-2l3.17-1.79,5.8-3.28,5.3-2.7c1.69-.84,3.26-1.7,4.83-2.41l4.52-2,4.27-1.92,4.22-1.69c2.79-1.12,5.57-2.28,8.61-3.3S241.59,59,245.2,58l5.68-1.76c2-.58,4.16-1.11,6.42-1.73l3.51-.93c1.22-.3,2.48-.56,3.77-.86l4-.9,2.1-.47,2.18-.4a243.81,243.81,0,0,1,28.3-3.8c3.76-.19,7.14-.45,10.33-.53s6.21-.13,9.22-.13l9.21.21,10.32.64c7.49.71,16.49,1.6,28.32,3.83l8.32,1.73c1.3.25,2.55.55,3.76.86l3.53.88c4.59,1.06,8.54,2.31,12.16,3.31s6.82,2.17,9.87,3.13,5.85,2.09,8.68,3.1c5.63,2.14,11.22,4.39,18.09,7.5,1.73.73,3.49,1.63,5.38,2.54s3.89,1.85,6,2.93L451,80.62c2.36,1.23,4.77,2.7,7.4,4.18,9.71,5.7,16.93,10.47,22.79,14.71l4.21,3c1.33,1,2.58,2,3.8,2.89,2.43,1.87,4.73,3.59,6.89,5.42l2.06,1.69a304.56,304.56,0,0,1,38,37.05c5.7,6.77,11.25,13.7,16.28,21,2.6,3.6,5,7.36,7.38,11.1,1.23,1.86,2.3,3.82,3.45,5.73s2.32,3.81,3.34,5.8A256.05,256.05,0,0,1,586.21,239c.92,3,1.77,5.72,2.57,8.29s1.36,5,2,7.27l.87,3.3c.27,1.08.48,2.13.71,3.16.45,2.05.88,4,1.3,5.89s.7,3.75,1.05,5.58.64,3.65,1,5.49c.56,3.7,1.06,7.52,1.62,11.78l.25,2.31c.24,2.17.5,4.46.76,6.84s.36,4.87.55,7.39c.09,1.27.19,2.54.28,3.83s.09,2.58.14,3.88c.08,2.59.17,5.21.25,7.8,0,5.18.1,10.29-.12,15,0,2.37-.09,4.64-.14,6.78s-.19,4.15-.24,6a37.78,37.78,0,0,0,0,4.76l-.06,0a42,42,0,0,0-1,4.22l-1.43,6.8c-1.19,7.09-2.69,14.15-4.1,21.26l-.51,2.66c-.09.44-.16.88-.26,1.32l-.34,1.3-1.37,5.2c-.85,3.48-2,6.91-3,10.35a274.88,274.88,0,0,1-16.45,40,292,292,0,0,1-22.3,37,260.54,260.54,0,0,1-27.66,33c-2.22,2.24-4.67,4.61-7.46,7.34L508.43,529l-3.55,3.17,2.1,2.73-2.48,1.34c-4.59,2.57-8.61,5-12.22,7.21a1.08,1.08,0,0,1,.11-.21.06.06,0,0,1-.06,0l.06-.07c.06-.09.1-.17,0-.17v0s-.06,0-.07,0a.27.27,0,0,1,0-.12s0,0,0-.06.23-.27.22-.35-.09,0-.15-.06,0,0,0-.05,0-.18.09-.26.09-.13.08-.18-.07-.09-.1-.17l-2.94-.76h0c-.09,0,0,.09-.13.05a1.74,1.74,0,0,1-.19-.1h0l-1.32-3.19.11,7.51c0,.12-.12.23-.05.3s.46-.25.58-.21.09.07.2.12l.24.07v0c-3.36,2.12-6.35,4.06-9.12,5.82-6.36,4.09-11.47,7.3-16.66,10.36-2.59,1.53-5.21,3-8,4.52s-5.81,3.1-9.2,4.75a277.38,277.38,0,0,1-26.29,11.23,282.48,282.48,0,0,1-27.27,8.55c-1.83.44-3.55.91-5.23,1.26l-4.84,1c-3.13.63-6.05,1.33-9,1.74l-9.08,1.45L354,597.34c-1.86.25-3.83.35-5.91.51l-6.62.47c-1.17.11-2.38.14-3.63.17l-3.85.11c-2.65,0-5.47.24-8.47.14l-8.47-.12c-2.65-.07-5.13-.27-7.47-.39s-4.55-.21-6.63-.43l-5.91-.6c-1.86-.2-3.65-.33-5.34-.56l-4.91-.7c-3.15-.48-6.14-.82-9.09-1.43l-9-1.71-10.07-2.35c-3.64-.9-7.6-2.1-12.13-3.34-2.24-.69-4.6-1.5-7.12-2.32l-3.9-1.28c-1.34-.44-2.69-1-4.1-1.51l-7.92-3-6.89-3-3.14-1.34c-1-.44-2-.94-2.91-1.38l-5.35-2.58c-1.69-.81-3.3-1.58-4.79-2.42L196,566l-4.11-2.21L188,561.44l-3.88-2.32c-1.32-.77-2.65-1.56-4-2.46-2.66-1.76-5.51-3.58-8.62-5.67l-4.81-3.45-2.62-1.88c-.9-.64-1.83-1.29-2.74-2-3.67-2.92-7.91-6-12.4-10-4.63-3.81-8.39-7.48-11.82-10.67-1.75-1.56-3.22-3.2-4.7-4.68L128.32,514c-5.06-5.53-9.08-10-12.79-14.7-1-1.16-1.9-2.32-2.86-3.51s-1.83-2.45-2.79-3.73l-2.94-4L105.39,486c-.52-.73-1-1.5-1.53-2.28l-3.29-4.93-1.78-2.67c-.59-.94-1.16-1.92-1.76-2.93l-3.84-6.4c-.7-1.12-1.3-2.35-2-3.59l-2-3.84c-.84-1.6-1.69-3.12-2.43-4.61s-1.4-2.95-2-4.33l-1.85-3.93c-.59-1.24-1.16-2.41-1.6-3.55Zm522.13-79.16h0Zm-.05.07v0h0a.28.28,0,0,0,0,.09v0c0-.05,0-.09,0-.13h0ZM77.6,205.61Zm.92,1.43ZM57.77,269.59h0c.36.85.72,1.68,1.07,2.49l.52,1.21.12.3h0c-.06.21-.1.39-.15.59Zm-.94,45.55.24-.06-.24.06Zm2.87-40.39h-.05c0-.39-.11-.78-.15-1.17.12.59.2,1,.24,1.15Zm-2.4,10.61h0ZM489.16,544.81h.12s0,0,0,0Zm.5.13a.31.31,0,0,1,.21-.05h0l.19-.1-.29.18Zm1.64-.9-.08.05-.06-.08.16,0ZM138.58,568.25c1.54.74,3.09,1.45,4.7,2.06.79.33,1.63.58,2.46.85l.47.15a1.29,1.29,0,0,1,.16.09l.25.15,1.09.63c2.92,1.68,5.84,3.33,8.79,5s5.91,3.2,8.89,4.76l3.44,1.77,1.34.68a6,6,0,0,0-.69.11,2.57,2.57,0,0,0-.68.3,3.72,3.72,0,0,0-.83.7c-.07.08-.31.36-.49.6-6.84-3.61-13.57-7.43-20.07-11.59q-5.07-3.24-9.95-6.77Z" />
    </g>
  </g>
</svg>