<svg xmlns="http://www.w3.org/2000/svg" height="1260" width="1242" viewBox="0 0 1261.79 1242.48">
  <defs>
    <style>
      .cls-1 {
        opacity: 1;
      }

      .cls-2 {
        fill: #ffefe1;
      }
    </style>
  </defs>
  <g id="Layer_2" data-name="Layer 2">
    <g id="BG">
      <g class="cls-1">
        <path class="cls-2" d="M141.11,427.74h0S141.11,427.73,141.11,427.74Z" />
        <path class="cls-2"
          d="M1261.08,602.05c-.21-5.36-.55-10.39-.84-15.15s-.66-9.26-1-13.53c-1.51-17.1-3.24-30.74-5.31-44.32s-4.57-27.12-8.45-43.89c-2-8.35-4.24-17.53-7.22-27.88s-6.56-21.79-10.86-34.75c-6.27-18.85-11.49-34.14-15.58-47.18s-7.14-23.8-9.55-33.36l-1.49-5.92-1.19.44-.55-1.05-4.56,2-2.79,1.24-.2.12c-.08.08-.12,0-.16-.06l0-.07,0,0v0h0l0-.1-6.29-11.91c-.52-1-1-2-1.57-3s-1.13-1.94-1.7-2.91l-3.47-5.91q-1.74-3-3.56-6.07l-1.83-3.12-.93-1.59-1-1.57c-5.45-8.36-11.14-17.72-18.63-28.11l-5.7-8.18c-2-2.8-4.22-5.62-6.45-8.6s-4.56-6.06-7-9.27c-1.18-1.63-2.48-3.22-3.81-4.83l-4-5-6.31-7.77c-1-1.25-2-2.51-3-3.69s-2-2.34-3-3.48l-11.3-12.9c-.87-1-1.78-2-2.68-2.93l-2.64-2.81-5.06-5.38-4.79-5.08c-1.55-1.66-3.06-3.26-4.61-4.75l-8.76-8.66-4.1-4.06c-1.35-1.32-2.64-2.65-4-3.86L1049.3,158.9c-5.16-4.56-10.44-9-16-13.74-1.4-1.18-2.79-2.41-4.26-3.6l-4.52-3.59-9.65-7.65c-1.7-1.32-3.39-2.73-5.22-4.08l-5.63-4.12-12.29-9c-4.41-3.07-9.18-6.21-14.21-9.62l-3.84-2.58c-1.31-.87-2.61-1.79-4-2.62l-8.54-5.24-9.23-5.68c-1.47-.94-3-1.73-4.49-2.57l-4.38-2.43-8.33-4.64-4-2.21c-1.3-.72-2.67-1.28-4-1.92L899.33,60.45c-8.25-3.94-15.78-7.45-23.17-10.69-6.71-2.92-13.3-5.64-20.28-8.14l-.12-.12,0,.07c-.67-.24-1.32-.49-2-.72L836,34.69l.29.29-3.35-1.21-2.43-.88L828,32.08l-10.77-3.41c-3.79-1.18-7.75-2.52-12-3.76L791.64,21.2c-9.52-2.81-20.36-5-32.49-7.88-13.52-2.57-25.32-5-36-6.37L715.4,5.8c-2.51-.34-4.93-.79-7.32-1L694.55,3.33C686,2.26,678.26,1.89,671,1.34L665.55,1C663.77.83,662,.69,660.26.67L649.87.34,639.48,0c-3.5,0-7.05,0-10.71.06L617.4.18c-1,0-2,0-3,.05l-3,.15-6.3.31-13.6.7L576.31,2.78,568,3.55l-8.77,1.16-9.33,1.23L545,6.59l-5,.86c-27.24,4.26-47.26,9.52-63.95,13.74L464.23,24.6l-5.55,1.6c-1.81.54-3.61,1-5.34,1.6l-20,6.57-19.8,7.28c-1.73.61-3.44,1.33-5.19,2L403,45.88l-11.4,4.68c-15.71,7-34.65,15.35-58.68,28.82-1.51.82-3,1.61-4.46,2.43l-4.25,2.49-8.11,4.76c-2.62,1.55-5.18,3-7.61,4.5l-7,4.45c-4.53,2.9-8.84,5.55-12.82,8.2l-11.23,7.68-5.19,3.55c-1.7,1.14-3.28,2.38-4.87,3.53l-9.13,6.72c-5.95,4.25-11.25,8.64-16.67,12.87l-4.06,3.21c-1.35,1.07-2.72,2.12-4,3.27L225.26,154c-2.78,2.37-5.69,4.76-8.63,7.35l-9.13,8.25c-6.47,5.67-13.17,12.34-20.92,19.79-2,1.84-3.87,3.84-5.85,5.9l-6.14,6.34c-2.11,2.19-4.31,4.41-6.52,6.77s-4.41,4.86-6.71,7.41c-8.76,9.41-15.88,18.26-22.51,26l-9,11.37c-2.83,3.59-5.54,7-7.93,10.32L115,273l-3.28,4.47c-1.05,1.48-2,3-3,4.4l-5.75,8.44-2.78,4.08-1.37,2-1.3,2.05-3.23,5.14c-2.68,4.3-5.41,8.56-8,12.89l-7.57,13.14c-1.24,2.2-2.56,4.35-3.74,6.59l-3.53,6.69c-2.34,4.48-4.75,8.91-7,13.42l-6.55,13.63c-1.07,2.28-2.23,4.51-3.21,6.83l-3,6.93-3,6.93L47,394.09l-.76,1.73-.69,1.76-5.51,14.05c-1.91,4.66-3.51,9.44-5.18,14.19l-2.5,7.12c-.81,2.38-1.71,4.73-2.41,7.16-2.93,9.63-6.12,19.19-8.58,29-5.47,19.41-9.5,39.23-13,59.17q-1.08,7-2.18,14l-.55,3.51-.27,1.75-.2,1.77-.83,7L2.69,570.44q-.56,7.06-1.12,14.12L1,591.62c-.18,2.35-.21,4.71-.32,7.06L.11,612.82C0,615.17,0,617.53,0,619.89V634c0,2.36,0,4.72.11,7.07.37,7.08.72,13.62,1,19.73.51,6.1,1.09,11.76,1.57,17.09.26,2.67.45,5.25.74,7.76s.67,4.93,1,7.3l1.81,13.64c.25,2.19.72,4.32,1.06,6.44s.74,4.22,1.11,6.31c.74,4.18,1.47,8.32,2.21,12.53l2.82,12.78c.48,2.19,1,4.42,1.48,6.7.26,1.14.51,2.3.77,3.47s.62,2.32.93,3.51q.7,2.55,1.42,5.1c1.34,4.8,2.77,9.87,4.24,15.14l5.26,16.06c.91,2.74,1.77,5.53,2.76,8.29l3.13,8.28c1.05,2.77,2.11,5.54,3.16,8.32s2,5.57,3.27,8.25c4.72,10.83,9.19,21.54,14.2,31.05,2.42,4.8,4.7,9.41,7,13.68s4.71,8.16,6.86,11.74c4.53,7.56,6.44,10.22,6.53,9.51l0,.07,1.4-.4a6.6,6.6,0,0,0-1.31.71l.25.4a5.62,5.62,0,0,0,.89-.06,74.3,74.3,0,0,0,4.14,8.28c2.17,3.87,5,8.31,7.71,12.6,5.24,7.47,10.46,14.86,14.76,22.72l2.33,4.26.23-.43.16-.08,1.73-.82,1.26,2.15-3.18-.79a10.82,10.82,0,0,0,2.53,2.72,6.23,6.23,0,0,0,2.26,1,7.46,7.46,0,0,0,.81.1c8.3,9.46,16.59,19,25.19,28.27q4.91,5.32,10,10.49l-1.75,1.63-1.42,1.47c-.48.5-.89,1.07-1.34,1.6a16.52,16.52,0,0,0-2,3.1,14.42,14.42,0,0,0-.68,1.66c-.2.57-.31,1.18-.46,1.77s-.16,1.23-.17,1.85a12.4,12.4,0,0,0,.11,1.83,17.94,17.94,0,0,0,2.31,6.42,37.49,37.49,0,0,0,3.62,5.17,109.08,109.08,0,0,0,8.29,8.84c2.86,2.77,5.78,5.46,8.72,8.11,5.87,5.3,11.79,10.5,17.69,15.71l4.42,3.91,1,.93,1,1,2.07,2.11,8.32,8.39c5.27,5.15,11,10.72,17.65,17,3.32,3.14,6.85,6.46,10.67,10l6,5.45,3,2.69.86.77.43.39.22.19s.09.07.09.1l-.08.12-.44.62-.26.42c0,.09-.07.14-.11.26l-.06.17a3.28,3.28,0,0,0-.11.45,5.19,5.19,0,0,0,0,2.22,7.07,7.07,0,0,0,.68,1.87,14.17,14.17,0,0,0,1.86,2.58,50.39,50.39,0,0,0,3.64,3.66q1.82,1.66,3.58,3.21c2.36,2.07,4.66,4,6.9,5.93l6.5,5.51c1,.89,2.06,1.72,3.05,2.61s2,1.79,3,2.64c8,6.83,15.31,12.45,22,17.54,13.45,10.11,24.58,17.87,35.85,25.27,5.64,3.69,11.31,7.28,17.41,10.91s12.6,7.33,20,11c3.71,1.85,7.64,3.71,11.9,5.48a99,99,0,0,0,14,4.76,46.62,46.62,0,0,0,8.2,1.36c.73,0,1.48.06,2.23.06s1.53,0,2.33-.12a17.5,17.5,0,0,0,2.41-.39,8.09,8.09,0,0,0,1.22-.31,15.66,15.66,0,0,0,1.53-.54,14.63,14.63,0,0,0,5.09-3.7,16.26,16.26,0,0,0,1.65-2.57c.23-.45.47-.9.68-1.39l.34-.71.16-.36.08-.18.05-.09-.07-.07-2.06-2.12-.52-.53-.26-.27a3.18,3.18,0,0,0-.35-.26l-1.43-1-3.9-2.85.05-1.86s0-.08,0-.19v-.51h0l-.17,0-.3-.07a21,21,0,0,1-2.07-.68c-3.56-1.39-7-3.1-10.13-4.68l.1-1.78,0-.34c23.58,8.14,40.42,14.29,55.16,21.11l3.18,1.47,1-2.16c3,.8,5.87,1.41,8.74,2-.09.29-.19.58-.28.87l-.48,1.42-.12.36c0,.18,0,.51,0,.76v1.61q0,4-.1,8.17v1.76s.16,0,.23,0l2,.16,4.09.33,6.06.5,5.09.51c3.46.32,7,.79,10.8,1.21,7.49.94,15.58,2,24.38,3.45,13.3,2.11,24.94,4.23,35.35,6.11s19.6,3.59,28,5c16.76,2.92,30.3,5,43.89,6.61,3.4.36,6.79.8,10.26,1.1l5.23.49,5.37.42c3.62.31,7.36.46,11.25.7s8,.34,12.22.34c8.54.13,18,0,28.58-.85,5.32-.41,10.95-1,16.92-1.78l2.26-.28,2.28-.37,4.68-.74c1.58-.23,3.18-.55,4.8-.87l4.33-.83a.73.73,0,0,1,.33,0l.08,0,.09,0h0l-.1,0,.19.06a11.76,11.76,0,0,0,1.42.35c.38,0,.78.13,1.13.15.73.08,1.38.11,2,.12,1.13,0,2.12,0,3-.07l.07.26,3.4-.42a587.58,587.58,0,0,0,59.2-10.17l5.77-1.32q2.84-.63,5.53-1.33l10.47-2.66c6.73-1.9,13.17-3.6,19.55-5.62s12.8-4.08,19.59-6.33l10.44-3.75c1.81-.64,3.63-1.34,5.49-2.07l5.72-2.22c3.92-1.47,8-3.21,12.23-5s8.73-3.79,13.47-5.88c2.38-1,4.78-2.17,7.26-3.36l7.65-3.63,8-4,4.2-2.11,4.27-2.28A577.93,577.93,0,0,0,990,1141.81c14.2-9.66,25.18-17.94,35.92-26.5s21.29-17.38,33.91-29c3.18-2.89,6.41-6,9.89-9.3s7-6.89,10.83-10.65c7.47-7.69,15.85-16.32,24.88-26.66s16.73-19.58,23.31-28.05l4.81-6.17,4.41-5.9c1.42-1.92,2.82-3.77,4.15-5.6l3.83-5.38c1.24-1.75,2.46-3.45,3.64-5.12l3.38-5c2.2-3.24,4.33-6.34,6.29-9.41s3.94-6,5.79-9,3.65-5.88,5.45-8.8c7.09-11.77,13.94-23.68,21.85-38.92A649.64,649.64,0,0,0,1219.29,853a629.88,629.88,0,0,0,20.6-61.87c4.54-16.56,7.58-30,10.33-43.42s4.94-27,7.07-44.08a605.71,605.71,0,0,0,4.47-65.11C1261.9,624.77,1261.56,612.77,1261.08,602.05Zm-125.69,218h0l0,0Zm-.06.17-.06.17,0,0,0-.23,0,0,0,0v0ZM836.05,1126.16a.35.35,0,0,1,.23.06.18.18,0,0,1,0,.09Zm.88.48a.64.64,0,0,1,.42,0l.06,0c.26-.08.47-.13.64-.17l-.86.27Zm3.52-.9-.15,0-.08-.18h.3Zm135.91-85a506,506,0,0,1-68,49c-5.25,3.14-11,6.44-17.57,10.25L880,1105.56l-3.78,2c-1.46.77-3,1.51-4.45,2.32.87,2,1.76,4.06,2.66,6.15l-5.31,1.34c-9.91,2.61-18.64,5.25-26.51,7.74a1.3,1.3,0,0,1,.32-.36.2.2,0,0,1-.14,0l.17-.12c.16-.16.27-.29.15-.32l0,0c-.07,0-.11,0-.11-.08a.33.33,0,0,1,.12-.21s0-.07,0-.12c.25-.19.57-.39.59-.54s-.16-.14-.25-.2a.25.25,0,0,1,0-.09c0-.17.22-.31.33-.47s.2-.19.21-.29-.09-.18-.1-.35l-5.19-2.85,0,0c-.15-.11-.12.14-.27,0s-.15-.17-.29-.28l0,0-1-7-3.37,14.57c0,.22-.33.37-.25.54s1-.24,1.21-.11.13.17.33.31l.41.26s0,0,0,0c-7.37,2.38-14,4.59-20,6.59-14,4.66-25.14,8.27-36.39,11.54-2.81.84-5.63,1.58-8.5,2.39s-5.79,1.53-8.81,2.28c-6,1.52-12.45,3.06-19.61,4.54s-15.08,3-24.12,4.47-19.19,2.86-30.85,4.09a545.29,545.29,0,0,1-55.53,3l-5.35,0c-1.74,0-3.44,0-5.1-.09l-9.63-.42-9.07-.41c-1.48-.08-3-.08-4.42-.24l-4.37-.41L575.93,1163,556,1160.33c-3.63-.41-7.39-1.17-11.39-1.88l-12.72-2.28c-1.12-.21-2.26-.37-3.41-.64l-3.5-.78-7.32-1.65-7.79-1.74c-1.33-.31-2.7-.57-4.07-.93l-4.17-1.13L485.76,1145l-1.85-.5-1.8-.57-3.53-1.12-6.73-2.13-6.33-2c-2.06-.64-4.06-1.25-5.95-2l-10.86-4c-3.42-1.28-6.71-2.39-9.81-3.63l-8.9-3.68c-5.73-2.41-11.2-4.49-16.46-7.06l-16.24-7.56-17.84-9.26c-.81-.42-1.64-.83-2.46-1.29l-2.47-1.42-5.14-3-11.2-6.46c-3.9-2.38-7.95-5-12.32-7.78l-6.74-4.29c-2.31-1.47-4.59-3.17-7-4.82-4.78-3.36-9.3-6.47-13.5-9.47l-11.56-8.86-5.27-4c-1.71-1.31-3.27-2.7-4.84-4l-8.84-7.43-4.09-3.44c-1.33-1.12-2.55-2.31-3.79-3.43l-7.09-6.51-6.67-6.15-6.22-6.24c-2.05-2.07-4.11-4.13-6.21-6.23l-3.16-3.18c-1.07-1.07-2.06-2.23-3.12-3.36-4.17-4.6-8.65-9.39-13.52-14.83l-7.42-8.82-4-4.79c-1.39-1.64-2.83-3.32-4.19-5.15-5.51-7.26-12-15.15-18.57-24.82l-4.89-6.93c-.78-1.12-1.59-2.2-2.31-3.32l-2.12-3.3L182.86,916,181,913.15c-.58-.94-1.1-1.89-1.65-2.82l-3.14-5.42-5.78-10c-6.89-12.85-12.33-23.19-17.06-33.85-1.23-2.65-2.46-5.3-3.7-8-.65-1.33-1.16-2.73-1.75-4.12s-1.14-2.82-1.73-4.25c-1.16-2.87-2.37-5.83-3.62-8.91q-.95-2.31-1.92-4.72c-.62-1.62-1.18-3.31-1.8-5-1.21-3.44-2.48-7.05-3.82-10.88q-1-2.87-2.08-5.9c-.65-2-1.26-4.17-1.92-6.35L126.92,789c-.79-2.45-1.34-5-2-7.7s-1.32-5.4-2-8.24c-.82-3.41-1.69-6.68-2.38-9.85s-1.21-6.24-1.77-9.15-1.11-5.67-1.62-8.3c-.26-1.31-.5-2.58-.75-3.82s-.37-2.46-.56-3.63c-1.26-8.74-2.22-15.37-2.84-19.63l0-.67c-.12-1.62-.23-3-.24-4.11,0-.56,0-1,0-1.39a4.09,4.09,0,0,1,.05-.45,1.3,1.3,0,0,1,0-.15v-.09s0-.05,0,0a.38.38,0,0,0,0-.28v-.31l0-.26c.06-.33.12-.63.17-.87.15-.69.24-1.5.32-2-.5-2.63-1-5.2-1.48-7.7q-.54-3.4-1.07-6.67t-.84-6.46c-.27-2.12-.44-4.23-.65-6.31-.75-8.36-1.09-16.53-1-25.33.14-17.62,1.78-37.79,6.76-67.27,2.8-16.51,5.42-30.08,7.54-41.94s3.84-22,5.23-31.59c.31-2.15.61-4.26.89-6.36l-.44,16.12,10.62-24.08a64.46,64.46,0,0,0,3.69-11.95c.59-2.62,1.14-5.54,1.74-8.68a94,94,0,0,1,2.27-9.82l1.37-4.41-1-.46c1.86-4.34,4-9.6,6.11-15.27,3-8,5.52-15.25,7.47-20.87s3.33-9.59,3.82-11l2.33-6.7-7.12-.38-2.4-.13-.92-.05-.27,0h-.1c.09-.77.17-1.53.28-2.31h0l.5-12.2,0,0,0,.06-.07.12-.12.24-.26.46-1,1.87c-2.68,4.94-5.21,9.48-7.5,13.88-.58,1.1-1.14,2.16-1.67,3.24-.35.69-.68,1.37-1,2-.53,1.09-1,2.14-1.48,3.16s-.88,2-1.26,3q-.28.72-.54,1.47l-.25.77-.12.4-.05.21-.11.45v.05h0s0,0,0,0h0a.1.1,0,0,1,0,0s0-.06-.06-.06l-.1.13c-.07.07-.12.18-.2.08l-.05-.05s0,0-.11-.19-.19-.42-.31-.63a7.71,7.71,0,0,1-.24-.84,14.7,14.7,0,0,1-.13-4.62,49.16,49.16,0,0,1,2.78-11c1.38-3.76,3-7.57,4.88-11.46a274.21,274.21,0,0,1,14-25.18c5.7-9.22,12.54-19.49,21.1-31.35,4.9-6.77,9.49-12.85,13.79-18.31q3.22-4.09,6.24-7.72c1-1.21,2-2.34,3-3.47s2.06-2.43,3-3.55c3.78-4.5,7.22-8.65,10.38-12.29.79-.91,1.57-1.77,2.31-2.57.54-.58,1.08-1.12,1.55-1.57l1.13.8,2.78,2L238,283.35c2.64-2.93,5.24-5.78,7.86-8.61,5.25-5.67,10.58-11.31,16.58-17.48,3-3.08,6.15-6.3,9.55-9.72l.19-.2a2.72,2.72,0,0,0,.29-.3l.37-.42.6-.7,1.22-1.41,2.49-2.89,5.25-6.08c3.64-4.19,7.53-8.69,11.84-13.38,2.16-2.33,4.43-4.72,6.84-7a48.38,48.38,0,0,1,3.73-3.21,19.29,19.29,0,0,1,3.79-2.4,4.59,4.59,0,0,1,4.29-.14s.07,0,.12.07l.17.11.32.26a6.21,6.21,0,0,1,.57.58l-1.73,1.37c-2,1.56-3.85,3.1-5.67,4.61-7.27,6-13.44,11.6-18.91,16.8s-10.26,10-14.71,14.67c-2.23,2.32-4.38,4.6-6.47,6.87l-3.69,4-2.57,2.84L259.05,263a11.67,11.67,0,0,0-1.2,1.43l3,3.24.75.83c.22.28.42.58.64.87l.07.11.12.18,0,.08.08.16a1.77,1.77,0,0,1,.15.31,3.19,3.19,0,0,1,.28,2.21l-4.28,18,12.08-13.88,1.5-1.72.1,0a1.55,1.55,0,0,0,0-.21c6-6.86,12.65-14.26,21-23.08q3.4-3.6,7.22-7.53l1.94-2,1-1,.62-.62.45-.46c.13-.17.23-.36.35-.54.55-.86,1.09-1.73,1.65-2.61s1.09-1.53,1.63-2.32c1.08-1.58,2.41-3.12,3.67-4.75s2.72-3.23,4.24-4.86c2.95-3.3,6.27-6.66,9.8-10.18,8.44-8.26,16.19-15.17,22.31-20.59l12.92-11.35,5.86-5.15-2.37.52,1.53-.84,7-3.86-.27-.15c10.8-6.76,19.33-13.85,30.89-20.48l2.94-1.69-.43-1.51L417,144.1l3.77-2c1.29-.68,2.6-1.37,4-2l8.72-4.08,9.71-4.55,11-4.62,6-2.52c1-.43,2.07-.89,3.14-1.3l3.29-1.21,14.11-5.22,2.05-.76,2-.66,4-1.29,7.63-2.44c2.47-.78,4.84-1.59,7.17-2.27l6.83-1.87,12.51-3.4,11.3-2.54,5.23-1.18c1.71-.37,3.37-.79,5-1l9.51-1.69,9-1.58,8.76-1.16,8.76-1.17,2.22-.29,2.25-.21,4.59-.41c6.2-.53,12.75-1.3,20.07-1.54l11.55-.59c4.07-.13,8.37-.11,12.94-.18l7.07-.08c2.43,0,4.93.13,7.51.2l8,.23,4.19.11c1.41.07,2.85.2,4.31.29,23.38,1.22,40.75,4.1,55.18,6.42l10.28,2,4.82.94,2.34.46,2.29.55c6,1.45,11.76,2.74,17.43,4.18l17.28,4.81c5.92,1.92,12.21,3.88,19.15,6.17L805,120.59l5.91,2.13,6.18,2.48,6.56,2.65,3.43,1.38c1.17.46,2.34,1,3.52,1.49l15.08,6.74c5.28,2.52,10.19,5,14.84,7.25,1.15.57,2.3,1.11,3.42,1.69l3.26,1.75,6.24,3.34,5.87,3.14c1.91,1,3.69,2.12,5.46,3.12l10,5.82,2.34,1.37,2.24,1.41,4.34,2.72,8.17,5.14c1.33.81,2.6,1.68,3.85,2.53l3.73,2.53,7.31,5c2.45,1.6,4.79,3.37,7.2,5.12l7.36,5.37c1.25.92,2.54,1.84,3.82,2.81l3.87,3,8.25,6.48c2.92,2.22,5.81,4.76,8.94,7.37,1.55,1.32,3.16,2.67,4.81,4.06s3.38,2.78,5.06,4.35l10.84,9.8c2,1.71,3.85,3.58,5.82,5.5l6.13,5.93c15.58,15.42,26.89,27.88,35.91,38.67l6.5,7.71c2,2.48,3.91,4.93,5.77,7.27,3.68,4.69,7.2,9,10.39,13.53l3.08,4.17a592.2,592.2,0,0,1,53.87,88.1c7.5,15.5,14.63,31.23,20.61,47.44l2.29,6.06c.38,1,.78,2,1.14,3l1,3.07q2.07,6.15,4.13,12.31l1,3.09.91,3.12,1.83,6.24,1.81,6.25.91,3.12.79,3.16a498.23,498.23,0,0,1,15,95.73c.31,6,.6,11.63.87,16.85,0,.65.07,1.3.1,1.94l0,1.91c0,1.26,0,2.5,0,3.72q0,3.66.07,7.09t.06,6.65c0,2.16-.12,4.25-.17,6.29-.14,4.08-.27,8-.39,11.74l-.09,2.8c-.07.93-.14,1.85-.2,2.76-.14,1.84-.28,3.65-.41,5.45-.27,3.61-.54,7.19-.81,10.82s-.81,7.29-1.21,11.1-.84,7.74-1.4,11.89l-.63,4.47c-.59,4.21-1.21,8.66-1.85,13.27q-.22,1.74-.57,3.48c-.21,1.17-.42,2.34-.64,3.53q-.64,3.54-1.3,7.19t-1.32,7.34c-.49,2.46-1.07,4.91-1.6,7.38-1.1,4.94-2.13,9.92-3.26,14.84s-2.48,9.74-3.68,14.48c-.3,1.18-.59,2.36-.88,3.54-.15.58-.29,1.17-.44,1.75s-.33,1.15-.5,1.72c-.65,2.29-1.3,4.55-1.93,6.76l-3.52,12.71c-1.23,4-2.36,7.73-3.34,11.19a77.87,77.87,0,0,0-2.23,9l-.09-.06a82.13,82.13,0,0,0-3.82,7.49c-1.74,3.57-3.85,7.91-6,12.14-5.65,12.79-11.87,25.39-17.93,38.12l-2.25,4.77c-.37.78-.72,1.58-1.12,2.36l-1.27,2.28L1097.1,896c-3.26,6.16-7.1,12.05-10.72,18.05a532.3,532.3,0,0,1-50.2,67.5A566,566,0,0,1,976.36,1040.72ZM112.64,712.15a1.27,1.27,0,0,1,.12-.23A2.17,2.17,0,0,0,112.64,712.15Zm42.15-312h0v0h0l.66-1.37.14-.3.07-.14v11l-.11.22C155.25,405.83,155,402.66,154.79,400.18Zm-8.46,29.53Zm-15.14,55.91Zm32.62,516.47c1.23,1.1,2.57,2.09,3.86,3.14s2.66,2,4,3,2.78,1.88,4.21,2.79l.81.51a1.94,1.94,0,0,1,.26.23l.42.41,1.75,1.71q7,6.86,14.19,13.55t14.48,13.24l5.63,5,2.2,1.92c.09.06,0,0-.08,0l-.18,0-.36-.06c-.24,0-.48,0-.72,0a5.71,5.71,0,0,0-1.43.24,7.41,7.41,0,0,0-1.92.93c-.17.11-.74.53-1.2.91-11.18-10.1-22-20.54-32.28-31.5q-8-8.56-15.52-17.54C162.57,1001,163.18,1001.56,163.81,1002.09Zm222,173.07-.3,0Z" />
      </g>
    </g>
  </g>
</svg>