<svg xmlns="http://www.w3.org/2000/svg" width="909" height="909" viewBox="0 0 909.63 909.2">
  <defs>
    <style>
      .cls-1 {
        fill: #ffefe1;
        opacity: 1;
      }
    </style>
  </defs>
  <g id="Layer_2" data-name="Layer 2">
    <g id="BG">
      <path class="cls-1"
        d="M909.42,442.44c0-5-.42-10-.69-15.27-.16-2.65-.32-5.38-.48-8.22s-.58-5.78-.88-8.89-.65-6.36-1-9.82-1-7.07-1.54-10.93l-.87-6c-.29-2-.58-4.17-1-6.32l-2.62-13.84c-.42-2.46-1-4.81-1.54-7.09s-1-4.5-1.55-6.64c-1-4.29-1.89-8.34-3-12.07s-2.05-7.29-3-10.63c-.48-1.67-.91-3.31-1.4-4.87s-1-3.08-1.49-4.57c-1-3-1.9-5.78-2.79-8.49s-1.7-5.31-2.68-7.78l-5.39-14.31c-1.85-4.63-3.89-9.2-6-14.09s-4.49-9.95-7.16-15.59c-.68-1.41-1.36-2.85-2.07-4.33s-1.4-3-2.24-4.55c-1.63-3.06-3.35-6.3-5.17-9.75l-2.83-5.33c-1-1.83-2.1-3.64-3.2-5.55l-7.12-12.15-7.62-11.83c-1.21-1.85-2.34-3.66-3.5-5.38l-3.49-4.92-6.39-9c-.5-.71-1-1.41-1.49-2.09l-1.54-2c-1-1.3-2-2.56-2.94-3.79-7.51-10-14.18-17.43-20.64-25L783.7,140.18l-2.76-3c-1-1-2-1.94-3-2.95L771.57,128l-3.43-3.36-1.79-1.75-1.91-1.72-8.25-7.35-4.51-4c-1.56-1.36-3.25-2.67-5-4.07l-11-8.88c-7.92-6.11-15-11.16-21.48-15.57s-12.19-8.14-17.48-11.45c-10.59-6.61-19.26-11.57-28.06-16.31S651,44.35,639.57,39.27c-5.73-2.49-12-5.21-19.35-8s-15.52-5.72-24.93-8.9c-13.68-4.6-24.84-8.26-34.2-11.59s-16.94-6.26-23.54-9L533.46,0l-.27.88-.85-.14-.82,3.54c-.16.72-.33,1.44-.5,2.16V6.6c0,.09,0,.08-.11.07h-.2L521,5.09l-2.41-.38-2.44-.28-4.94-.58c-3.34-.36-6.76-.84-10.38-1.15-7.24-.49-15.17-1.29-24.48-1.48L469.12,1c-2.5-.06-5.1,0-7.81,0h-8.45c-1.46,0-2.95,0-4.47.1l-4.65.17c-10,.23-18.74,1-26.54,1.59-3.89.34-7.54.8-11,1.16l-5.05.56c-1.63.17-3.23.35-4.77.6-6.18.93-11.77,1.67-17,2.54L364.3,10.41c-4.9,1-9.78,2.14-15,3.27-1.3.3-2.62.57-3.95.9l-4.07,1.06-8.66,2.25c-1.51.41-3.07.78-4.65,1.25l-4.86,1.46-10.6,3.2c-3.71,1.23-7.62,2.62-11.8,4.05-2.08.74-4.26,1.43-6.45,2.28l-6.78,2.66-7.34,2.88c-2.35.95-4.59,2-6.78,3l-6.33,2.81-3,1.33c-1,.44-1.91,1-2.85,1.47L241.52,54.42c-5.89,3.07-11.22,5.9-16.34,8.78-4.63,2.61-9.09,5.25-13.59,8.21h-.12l0,0c-.43.29-.86.55-1.29.84l-11.34,7.62.3-.05L197,81.3l-1.57,1-1.57,1.11-6.7,4.76c-2.35,1.69-4.86,3.4-7.44,5.33l-8.09,6.26c-5.8,4.3-11.83,9.62-18.79,15.42-7.41,6.72-14,12.52-19.45,18.11-2.77,2.77-5.45,5.29-7.85,7.81l-6.77,7.22c-4.36,4.49-8,8.83-11.48,12.83-1.72,2-3.49,3.92-5.07,5.91S99,171,97.47,173l-4.74,5.89c-1.56,2-3.06,4.12-4.65,6.25s-3.22,4.35-4.91,6.65c-.87,1.14-1.69,2.34-2.52,3.58l-2.57,3.8c-1.76,2.59-3.6,5.32-5.55,8.2l-5.84,9.42c-1,1.67-2.08,3.38-3.17,5.15l-3.17,5.6c-1.09,1.93-2.21,3.91-3.36,6-.58,1-1.17,2.06-1.76,3.12s-1.12,2.18-1.7,3.29a471.36,471.36,0,0,0-20,43.14c-2.21,5.85-4.29,11.09-6.1,16.09l-5,14.52L18,328.32c-1.45,5.12-2.81,10.58-4.42,16.63-2.8,12.19-6.25,26.84-8.94,46.69-.18,1.24-.38,2.45-.54,3.66s-.28,2.39-.41,3.55l-.79,6.8c-.24,2.19-.52,4.31-.71,6.38s-.33,4.08-.49,6c-.3,3.89-.65,7.55-.85,11S.57,435.84.43,439C.05,445.21.14,450.84,0,456.15s.1,10.31.18,15.31c.08,2.5.07,5,.22,7.54s.29,5.11.44,7.76.28,5.38.49,8.23.53,5.79.8,8.91c.46,6.23,1.4,13.05,2.34,20.8.21,1.95.54,3.93.87,6l1,6.34c.35,2.18.68,4.44,1.08,6.75s.9,4.69,1.37,7.14c1.63,9.21,3.65,17.21,5.25,24.45.94,3.59,1.83,7,2.68,10.19s1.62,6.26,2.53,9.12l2.47,8.23c.39,1.31.78,2.59,1.16,3.85s.83,2.48,1.24,3.69c1.65,4.81,3.1,9.35,4.72,13.75l1.57,4.13c1.33,3.43,2.61,6.89,4,10.3l4.32,10.15c.73,1.68,1.41,3.39,2.19,5.05l2.34,5c1.58,3.32,3.09,6.66,4.72,9.94L53,678.51c.86,1.61,1.65,3.27,2.56,4.86l2.71,4.78c1.82,3.18,3.56,6.4,5.44,9.53L69.49,707c1.87,3.14,3.94,6.16,6,9.21l3.05,4.57c1,1.51,2,3.06,3.09,4.53,4.32,5.92,8.47,11.95,13.08,17.66,8.88,11.67,18.62,22.68,28.65,33.46,4.85,4.91,9.51,10,14.57,14.64l7.45,7.12,7.71,6.83,3.85,3.42c1.28,1.13,2.64,2.18,4,3.28l8,6.51c1.31,1.11,2.69,2.13,4.06,3.16l4.11,3.09,4.11,3.09c1.37,1,2.72,2.08,4.15,3l11.91,8c3.76,2.38,7.31,4.52,10.61,6.57,1.66,1,3.25,2,4.83,3l4.67,2.63,8.72,4.91c5.67,3,11.07,5.69,16.59,8.52l8.65,4,4.55,2.08,2.35,1.06c.79.35,1.62.67,2.44,1l3.59,1.4,10.64,4.16,11.63,4c2,.66,4,1.38,6,2l6.18,1.8,6.21,1.81c2.08.58,4.13,1.25,6.23,1.71,8.35,2,16.52,4.09,24.24,5.35,3.84.68,7.52,1.38,11,1.91s6.79.83,9.82,1.15c6.37.68,8.75.73,8.38.37h.06l.38-1a4.91,4.91,0,0,0-.17,1.07l.34,0a3.28,3.28,0,0,0,.36-.54,55.22,55.22,0,0,0,6.62,1.22c3.19.43,7,.76,10.69,1a179.56,179.56,0,0,1,19.65,1.37l3.49.51-.15-.32,0-.12.28-1.37,1.8.21-1.86,1.5a7.9,7.9,0,0,0,2.7-.28,4.44,4.44,0,0,0,1.56-.87,3.08,3.08,0,0,0,.38-.43c9.14-.68,18.31-1.33,27.48-2.26,3.49-.35,7-.76,10.46-1.21.06.58.11,1.15.17,1.73a23.49,23.49,0,0,0,.58,2.94,12.11,12.11,0,0,0,.95,2.49,10.35,10.35,0,0,0,1.49,2.17,9.28,9.28,0,0,0,2.11,1.64,13,13,0,0,0,4.74,1.47,28.42,28.42,0,0,0,4.59.16,127.93,127.93,0,0,0,17.28-2.46c5.65-1.09,11.25-2.26,16.86-3.4l4.2-.85,1-.21,1-.12,2.13-.28,8.52-1.16c5.3-.81,11-1.71,17.61-2.81l10.48-1.83,5.77-1.07,2.87-.55.83-.16.41-.08c.12,0,.34-.15.34.06s.1.31.16.52a2.33,2.33,0,0,0,.14.33c.09.17,0,.07.38.58a4.31,4.31,0,0,0,1.27,1l.71.27a3.55,3.55,0,0,0,.65.13l.65.09h.56a8,8,0,0,0,1.11,0,62.36,62.36,0,0,0,7.15-1.18l6.46-1.41c4.2-.93,8-1.83,11.75-2.57,7.46-1.66,13.92-3.45,19.81-5.12,11.76-3.39,21.14-6.45,30.36-9.76,4.61-1.66,9.18-3.38,14-5.33s9.77-4.12,15.17-6.79c2.69-1.34,5.49-2.81,8.38-4.5a72.44,72.44,0,0,0,8.88-6,34,34,0,0,0,4.38-4.17c.34-.41.68-.83,1-1.27s.65-.89.94-1.4a12.27,12.27,0,0,0,.83-1.57,5.86,5.86,0,0,0,.36-.85c.1-.3.27-.77.36-1.12a10.73,10.73,0,0,0,.07-4.58,11.8,11.8,0,0,0-.77-2.08c-.16-.33-.32-.67-.51-1l-.27-.51-.13-.25-.07-.13,0-.06h-.07l-2.13.27-.54.07a2.86,2.86,0,0,0-.58.12l-1.23.38-3.36,1-1.06-.85-.29-.21-.07-.07,0,0h0s0,0,0,0l-.27.23c-.28.23-.77.57-1.29.91-2.37,1.46-4.88,2.72-7.16,3.83l-1-.84-.19-.15c15-10.14,26-17.22,36.4-22.8l2.25-1.21-.82-1.53c1.77-1.37,3.39-2.79,5-4.21l.38.54.62.9.15.23c.09.09.29.22.42.33l.9.7,4.73,3.64.57.44.29.23.15.11s.08-.08.12-.11l1-1.09,2-2.22,5.46-6c1.67-1.9,3.56-3.74,5.45-5.73,3.76-4,8-8.13,12.64-12.67,14.12-13.56,25.17-23.41,34.18-31.9,2.26-2.1,4.38-4.15,6.43-6.1s4-3.81,5.88-5.69l5.49-5.43c1.78-1.79,3.48-3.61,5.21-5.4a306.77,306.77,0,0,0,21.18-24.39c1.86-2.49,3.82-5.09,5.89-7.85l6.13-9.11.81-1.22.76-1.28,1.55-2.62,3.24-5.48.84-1.43.77-1.49,1.56-3.07,3.06-6a.75.75,0,0,1,.13-.2l.07,0a.81.81,0,0,0,.14-.09,9.42,9.42,0,0,0,.84-.68c.2-.2.42-.4.59-.59.36-.39.67-.76,1-1.12.52-.66.93-1.25,1.28-1.77l.22.08,1.2-2.17,6.2-11.23,2.84-5.15c1-1.64,1.69-3.34,2.51-5l4.5-9.17,2.08-4.24c.7-1.37,1.23-2.77,1.83-4.11l6.48-15c1.8-4.75,3.51-9.28,5.24-13.83s3.23-9.21,4.84-14.16l2.48-7.67c.2-.67.43-1.33.63-2s.38-1.38.57-2.08c.38-1.4.76-2.84,1.16-4.31,1.55-5.88,3.46-12.28,4.93-19.67l2.55-11.7c.7-4.17,1.45-8.58,2.25-13.28.4-2.46.86-4.84,1.17-7.17s.56-4.58.82-6.77c.52-4.38,1.06-8.48,1.47-12.36s.57-7.55.84-11c.13-1.73.25-3.42.38-5.06s.25-3.23.27-4.79c.18-6.24.35-11.86.51-17.16C909.56,452.43,909.49,447.44,909.42,442.44ZM785.9,249.69v0h0ZM279.69,799.07l-.42-.27c-1-.64-1.84-1.18-2.49-1.66a9.87,9.87,0,0,1-.79-.63l-.24-.23a.44.44,0,0,1-.07-.08l0,0,0,0h0l0,.06a.25.25,0,0,0-.13-.14,1.23,1.23,0,0,1-.33-.29l-.43-.48c-.34-.39-.77-.8-1-1.06l-9.47-4.81-8.06-4.74c-5.14-3.28-10.09-6.56-15.14-10.5-1.27-1-2.62-1.89-3.88-3l-4-3.28c-2.74-2.19-5.47-4.72-8.43-7.39l-2.26-2-2.28-2.2-4.81-4.63c-3.24-3.32-6.79-6.82-10.5-10.8-8.37-8.82-15.1-16.29-21.07-22.71-3-3.22-5.75-6.17-8.4-9s-5.19-5.37-7.66-7.89c-1.11-1.15-2.24-2.27-3.36-3.36l9.24,7.36-9.33-16.7a46.92,46.92,0,0,0-5.33-7.37c-1.26-1.49-2.72-3.09-4.28-4.81a70.24,70.24,0,0,1-4.71-5.62l-2-2.72-.7.37c-1.71-3-3.83-6.51-6.19-10.23-6.67-10.42-12.4-18.66-13.58-20.51l-2.78-4.37-3.42,4.06-1.13,1.34-.43.51-.09.11-1.3-1.07h0l-6.86-5.62v0l0,0,0,.09.08.18.16.35c.21.48.43.94.64,1.41,1.69,3.72,3.22,7.18,4.77,10.43.4.81.78,1.61,1.15,2.39.26.5.5,1,.74,1.47.4.78.8,1.53,1.19,2.24s.77,1.39,1.17,2c.2.33.4.64.62,1l.34.48.18.25.09.12.22.26c.07.06,0,0-.06,0l0,.12c0,.07,0,.15,0,.15h0s0,0-.16,0a3.31,3.31,0,0,1-.5-.09,4.56,4.56,0,0,1-.6-.23,10.55,10.55,0,0,1-2.74-1.94,35.5,35.5,0,0,1-5.18-6.45,87.13,87.13,0,0,1-4.52-7.84,198.55,198.55,0,0,1-8.49-19.17c-2.85-7.34-5.83-15.81-9-26-1.79-5.8-3.3-11.12-4.6-16-.64-2.44-1.23-4.78-1.75-7-.26-1.11-.49-2.18-.71-3.25s-.49-2.2-.73-3.27c-1-4.22-1.87-8-2.6-11.43-.3-1.47-.59-3-.71-4.07h0l.31-.1.63-.2,2.38-.75c-.82-4.13-1.6-8.07-2.37-11.92-.54-2.81-1.06-5.56-1.55-8.33-1-5.53-1.94-11.09-2.9-17.27-.46-3.1-1-6.34-1.47-9.81l0-.19a1.34,1.34,0,0,0-.05-.3l-.08-.4-.14-.66c-.1-.44-.19-.88-.29-1.32-.19-.89-.39-1.79-.59-2.71-.39-1.84-.8-3.74-1.23-5.72-.84-3.94-1.75-8.18-2.59-12.73-.41-2.28-.8-4.64-1.07-7-.12-1.2-.22-2.41-.23-3.57a14.38,14.38,0,0,1,.27-3.26,3.34,3.34,0,0,1,1.79-2.54,3.22,3.22,0,0,1,1.11-.24c0,.56,0,1.09,0,1.61,0,1.82.12,3.59.19,5.31.32,6.86.86,12.88,1.49,18.33s1.33,10.34,2.08,15c.37,2.31.76,4.55,1.16,6.76l.72,3.91.53,2.73.26,1.36a8.26,8.26,0,0,0,.3,1.32l3.21-.35.81-.07h1.1l.13,0,.25,0a2.34,2.34,0,0,1,1.4.81L94.79,527,92,513.94c-.11-.53-.23-1.08-.34-1.62l.07,0-.1-.11c-1.36-6.49-2.75-13.59-4.23-22.28-.38-2.37-.79-4.86-1.21-7.49-.11-.65-.21-1.32-.31-2l-.15-1-.1-.64-.07-.46c0-.15-.11-.29-.16-.44l-.79-2.1c-.24-.61-.42-1.3-.63-2-.45-1.32-.76-2.77-1.15-4.21s-.7-3-1-4.59c-.63-3.16-1.12-6.55-1.62-10.15-1.11-8.5-1.73-16-2.2-22s-.77-10.27-.94-12.46l-.42-5.66-.74,1.6.18-1.25.84-5.78-.2.1c.8-9.23.41-17.29,1.62-26.9l.31-2.45-1.07-.41c.46-2.71.93-5.55,1.44-8.59.36-2,.63-4.08,1.1-6.25s.93-4.44,1.44-6.85,1-4.94,1.61-7.62,1.39-5.47,2.15-8.44l1.17-4.6c.21-.79.39-1.59.62-2.39s.49-1.62.74-2.44L91.05,322c.57-2.05,1.34-4,2-5.87s1.29-3.72,1.91-5.5,1.2-3.5,1.83-5.16l1.9-4.78q1.86-4.63,3.5-8.75c1.22-2.7,2.37-5.25,3.46-7.68s2.1-4.75,3.2-6.92l3.18-6.26c1-2,2-4,3-5.91s2.12-3.74,3.16-5.59,2.1-3.71,3.16-5.6l.8-1.42.87-1.39,1.77-2.85c2.4-3.83,4.82-8,7.88-12.33l4.72-7c1.7-2.41,3.59-4.9,5.55-7.59l3.05-4.14c1.07-1.4,2.23-2.8,3.4-4.27l3.63-4.54,1.9-2.38c.66-.79,1.36-1.57,2.05-2.38a347,347,0,0,1,27.88-29.23l5.66-5.09c1.82-1.6,3.5-3.23,5.27-4.64,3.49-2.87,6.73-5.63,10.05-8.29s6.76-5.18,10.36-7.92,7.59-5.4,12-8.43l7-4.6L239,133l4.15-2.5c2.86-1.69,5.85-3.57,9.11-5.43l10.51-5.81c3.78-2,7.36-3.73,10.71-5.44l2.48-1.25,2.44-1.13,4.67-2.16,4.4-2c1.41-.68,2.84-1.22,4.19-1.81l7.76-3.26,1.82-.77,1.8-.68,3.48-1.33,6.56-2.49c4.25-1.55,8.31-2.87,12.33-4.27,8.11-2.62,16.27-5.08,26.59-7.72,2.57-.73,5.31-1.29,8.2-2s5.93-1.4,9.19-2l10.44-2c1.84-.38,3.76-.66,5.74-1l6.13-1c15.77-2.29,27.95-3.41,38.16-3.93l7.32-.4c2.34-.1,4.58-.11,6.75-.17,4.34-.08,8.4-.22,12.4-.11l3.77,0a431,431,0,0,1,74.73,7.27c12.29,2.43,24.54,5.17,36.57,8.79,6.06,1.67,12,3.74,18,5.73l2.24.75,2.21.84,4.42,1.67,4.43,1.68,2.21.84,2.18.93a362.56,362.56,0,0,1,62.15,33.17l10.17,6.87c3.12,2.16,5.92,4.32,8.61,6.27l3.89,2.88c1.25.95,2.41,1.93,3.58,2.85l6.64,5.36,1.59,1.28,1.52,1.33,3,2.62,5.93,5.2c2,1.76,3.88,3.66,5.91,5.56s4.14,3.88,6.3,6l2.32,2.32,6.89,6.88c2.37,2.42,4.7,5.05,7.15,7.67l3.69,4c1.21,1.36,2.38,2.77,3.58,4.16,2.38,2.8,4.83,5.57,7.19,8.38,4.53,5.77,9.21,11.27,13.15,16.68l5.85,7.6c1.77,2.46,3.45,4.76,5,6.84a54.38,54.38,0,0,0,4.25,5.23l-.08,0a59.55,59.55,0,0,0,2.68,5.5l4.44,8.78c5,8.87,9.55,18,14.29,27.08l1.79,3.4c.29.56.6,1.11.88,1.68l.77,1.73,3.09,7c2.15,4.59,3.89,9.4,5.79,14.13A386.3,386.3,0,0,1,836.3,378a410.18,410.18,0,0,1,8.16,60.61,366.57,366.57,0,0,1-1.31,60.93c-.47,4.43-1.07,9.22-1.73,14.7-.46,2.71-.95,5.6-1.48,8.7-.17,1-.34,2-.51,3s-.43,2.4-.6,3.6l4.73,1.14c-.43,1-1,2.34-1.55,3.67-2.82,6.9-5.1,13.13-7.1,18.78a.92.92,0,0,1-.07-.34.14.14,0,0,1-.06.08v-.16c0-.15,0-.28-.12-.22v0s-.06.05-.09,0a.3.3,0,0,1-.08-.16s0,0,0-.06c0-.23,0-.51-.06-.59s-.15,0-.22.06l0,0c-.1-.08-.1-.27-.14-.4a.36.36,0,0,0-.07-.25c-.11-.11-.14,0-.25-.1l-3.92,1.77h0c-.13,0,0,.13-.09.17s-.17,0-.29.06h0l-4.5-2.49,7,8.33c.1.12.07.35.21.38s.29-.7.46-.75.15,0,.32-.06l.33-.13h0c-1.84,5.32-3.44,10.1-4.92,14.49C824.79,583,822,591,819,599c-.75,2-1.55,4-2.34,6s-1.66,4-2.53,6.12c-1.76,4.17-3.67,8.56-6,13.37a390.53,390.53,0,0,1-19.07,35.67,399.34,399.34,0,0,1-22.55,33.56c-1.62,2.11-3.1,4.15-4.64,6s-3,3.66-4.46,5.41c-2.9,3.45-5.5,6.82-8.42,9.9l-8.75,9.63L730,735c-1.83,1.92-3.92,3.78-6.08,5.79l-6.88,6.38c-1.2,1.16-2.51,2.26-3.86,3.39L709,754.12l-4.42,3.76c-.77.64-1.52,1.32-2.33,2l-2.47,1.92-9.46,7.36c-.73.59-1.47,1.14-2.22,1.66L686,772.33l-4.18,3-3.94,2.8c-1.27.91-2.5,1.8-3.76,2.58L667,785.26c-2.23,1.44-4.32,2.86-6.39,4.11l-6,3.57c-3.9,2.27-7.5,4.54-11.3,6.46l-11.49,6.13-13.18,6.31c-1.19.59-2.44,1.13-3.74,1.67l-4,1.69-8.65,3.68c-3.08,1.22-6.4,2.42-9.91,3.74l-5.43,2c-1.87.7-3.85,1.28-5.87,2-4,1.31-7.82,2.57-11.4,3.69l-10.21,2.84-4.66,1.29c-1.5.42-3,.72-4.43,1.06l-8.18,1.89-3.79.87c-1.23.28-2.46.47-3.65.7l-6.88,1.26-6.49,1.19-6.34.88-6.34.88-3.23.44c-1.09.15-2.2.23-3.32.34-4.49.41-9.24.92-14.52,1.36l-8.37.46-4.55.24c-1.56.09-3.17.19-4.82.18-6.63,0-14.06.35-22.54-.07l-6.16-.19c-1,0-2,0-2.95-.11l-2.84-.22-10.54-.8-2.44-.18c-.8-.07-1.59-.19-2.36-.28l-4.52-.55-8.33-1c-10.47-1.62-18.85-3-27.12-4.91l-6.25-1.34c-2.1-.47-4.2-1.09-6.39-1.65l-6.75-1.79-3.59-1c-1.21-.35-2.43-.76-3.7-1.16l-8-2.53-4.34-1.38c-1.47-.51-3-1.09-4.52-1.66l-9.91-3.69c-1.77-.61-3.51-1.43-5.35-2.2l-5.67-2.42c-2.34-1-4.62-2-6.76-2.94l-6.09-3-5.53-2.69c-1.75-.85-3.41-1.64-4.9-2.5ZM786.06,250l-.12-.11h0v0l0,0,0,0a1,1,0,0,1,.08.11ZM80.59,548h0Zm45.89,105.23h0Zm-6.75-13.84,0,.06c-.4-.39-.81-.76-1.2-1.16l1.29,1.06Zm-.9-.32L113,635.41h0l3.38,1.8,1.64.88.41.21h0C118.59,638.57,118.71,638.81,118.83,639.08Zm-40.49-91.8h0Zm74,139.25.21-.28-.21.28ZM275.67,796.24l.07.15A1,1,0,0,1,275.67,796.24Zm558.66-241.6,0,.09,0,.11-.14,0Zm-1.51,2.72a.06.06,0,0,1,.06,0l-.2.09A.3.3,0,0,1,832.82,557.36Zm.53-.19c.06-.12.12-.22.18-.24l.05,0c.07-.19.13-.33.18-.45-.08.21-.15.42-.22.62ZM466.49,893.54c2.35-.54,4.69-1.13,7-1.89,1.17-.33,2.32-.8,3.47-1.23l.65-.25a2.21,2.21,0,0,1,.25,0l.41-.06,1.77-.27q7.05-1.08,14.07-2.31t14-2.61l5.36-1.09,2.08-.43c.08,0,0,0,0,0l-.1.09a1.07,1.07,0,0,0-.19.18,3.26,3.26,0,0,0-.34.4,3.83,3.83,0,0,0-.49.94,5.47,5.47,0,0,0-.3,1.51c0,.15,0,.67,0,1.1-10.75,2.07-21.55,3.8-32.41,5q-8.48.92-17,1.34C465.33,893.79,465.91,893.68,466.49,893.54Zm197.49-53,.15-.16Z" />
    </g>
  </g>
</svg>