<svg xmlns="http://www.w3.org/2000/svg" width="432" height="434" viewBox="0 0 431.76 434.86">
  <defs>
    <style>
      .cls-1 {
        opacity: 1;
      }

      .cls-2 {
        fill: #ffefe1;
      }
    </style>
  </defs>
  <g id="Layer_2" data-name="Layer 2">
    <g id="BG">
      <g class="cls-1">
        <path class="cls-2"
          d="M377.91,349.19l0,0c0-.11.08-.21.11-.32l0-.18s.05,0,.08,0l.11.07.06,0h0l0-.08-.12-.17-.06-.09-.4.53Z" />
        <path class="cls-2"
          d="M431.58,201.84c-.1-2.47-.17-5.1-.48-8s-.48-6.05-1-9.6q-.37-2.65-.79-5.64c-.37-2-.76-4.07-1.18-6.3-.23-1.17-.42-2.3-.66-3.39l-.75-3.16L425.3,160c-1-3.57-1.88-6.73-2.78-9.56s-1.8-5.35-2.6-7.75-1.77-4.57-2.62-6.79-1.84-4.38-2.83-6.7l-1.57-3.59c-.58-1.23-1.22-2.49-1.86-3.82L409,117.58c-.74-1.48-1.61-3-2.49-4.63s-1.78-3.38-2.87-5.17L400.15,102a217.67,217.67,0,0,0-12.91-18.5c-1.86-2.3-3.46-4.45-5.12-6.35s-3.22-3.7-4.77-5.5c-3.25-3.46-6.44-7-10.75-11.08-1.08-1-2.16-2.15-3.39-3.25l-3.92-3.5c-2.71-2.54-6-5.07-9.66-8.11l-5.36-4-2.45-1.82-2.37-1.62-4.33-3c-1.35-.95-2.71-1.72-4-2.52-5-3.22-9.21-5.45-13.34-7.78-4.26-2.13-8.46-4.37-13.92-6.7-1.37-.59-2.77-1.29-4.32-1.87l-4.89-1.93L292,13.45c-.93-.34-1.9-.65-2.89-1l-6.35-2.15c-9.1-2.81-16-4.43-21.85-5.65s-10.51-2-15.22-2.66S236.27.79,230.32.4c-3-.16-6.23-.34-10-.38s-7.87,0-12.59.14c-6.85.2-12.41.41-17.12.48s-8.55,0-11.93-.13L175.93.39,176,1l-.52.11.38,2.21.09.49c0,.12,0,.11,0,.12l-.06,0-4,.81c-1.53.27-3,.72-4.58,1.08s-3.16.75-4.82,1.21a228.9,228.9,0,0,0-25.73,8.79c-4.43,1.76-8.19,3.55-11.58,5.09s-6.27,3.09-8.9,4.47-5,2.69-7.17,3.94l-6.27,3.72c-2,1.26-4,2.57-6.14,3.93-1.07.67-2.14,1.41-3.25,2.19l-3.5,2.44c-1.23.84-2.48,1.78-3.79,2.78l-4.2,3.18c-1.46,1.16-3,2.42-4.6,3.75-.81.68-1.66,1.34-2.5,2.09l-2.59,2.3c-1,.86-1.89,1.7-2.8,2.5s-1.72,1.66-2.54,2.44-1.6,1.56-2.37,2.31-1.5,1.45-2.16,2.22L55.21,73c-4,4.39-7.23,8.07-10.4,12.33l-.08,0,0,0-.58.77-5.11,7,.2-.1c-.88,1.23-1.8,2.54-2.75,4-.76,1.14-1.6,2.32-2.43,3.6l-2.58,4.13c-1.88,2.88-3.69,6.25-5.84,10C23.48,119,21.5,122.64,20,126c-.78,1.68-1.56,3.25-2.21,4.77l-1.84,4.34c-1.21,2.72-2.1,5.25-3,7.61s-1.69,4.62-2.44,6.88c-.38,1.13-.77,2.26-1.15,3.41s-.7,2.34-1.06,3.56c-.71,2.43-1.48,5-2.16,7.9-.35,1.45-.73,3-1.12,4.58l-1.05,5.17q-.28,1.37-.57,2.82l-.49,3c-.17,1-.34,2.11-.52,3.22L2.09,185l-.21,1.75A222.45,222.45,0,0,0,.07,209.3c0,3-.08,5.66-.07,8.19l.18,7.3c.15,2.38.29,4.75.44,7.28s.49,5.19.77,8.15a226,226,0,0,0,3.72,22.31c.45,2.34,1.06,4.49,1.53,6.54.26,1,.49,2,.74,3s.53,1.87.78,2.77c.51,1.78,1,3.47,1.44,5.06s1,3.06,1.43,4.48c.87,2.84,1.84,5.34,2.67,7.73s1.75,4.58,2.62,6.8,1.8,4.4,2.82,6.71c.51,1.16,1,2.36,1.58,3.59L22.55,313a224.56,224.56,0,0,0,10.73,19.87c2.25,3.84,4.47,7.08,6.38,10s3.78,5.48,5.51,7.75c3.39,4.59,6.3,8.16,9.16,11.59l1.38,1.58a210.59,210.59,0,0,0,66,50.59,208.6,208.6,0,0,0,36.51,14l6.63,1.62,5.82,1.19c.91.18,1.78.37,2.64.53l2.52.4,4.69.77c3,.41,5.88.72,8.81,1.08,2.94.21,6,.51,9.36.67l1.83,0,5.43.09,5.85-.15c1,0,2,0,3-.1l3-.22c2-.17,4.1-.27,6.13-.51,4.05-.5,8-.94,11.68-1.69,1.82-.34,3.57-.66,5.21-1s3.16-.79,4.55-1.17c2.94-.81,4-1.23,3.77-1.38h0v-.51a2,2,0,0,0,.14.51l.21-.05a1.07,1.07,0,0,0,.06-.17,46.13,46.13,0,0,0,8.09-1.68,83.2,83.2,0,0,1,8.94-2.63l2.17-.46-.09-.1a3.55,3.55,0,0,0,.86-.47,2.41,2.41,0,0,0,.7-.91c3.95-1.82,7.93-3.62,11.86-5.55q2.07-1,4.12-2.09c.13.26.25.52.39.77a7.27,7.27,0,0,0,1.78,2.22,4.66,4.66,0,0,0,2.78,1,7.9,7.9,0,0,0,2.51-.41,24.57,24.57,0,0,0,4.13-1.82c1.29-.69,2.55-1.42,3.79-2.16,2.47-1.48,4.9-3,7.34-4.5l1.83-1.13c.29-.17.64-.41.84-.5l.95-.5,3.81-2c2.23-1.25,4.66-2.61,7.41-4.19l4.39-2.56,2.41-1.44,1-.6.34-.21.17-.1s.06-.06.09,0l.06.08.15.2a1.14,1.14,0,0,0,.33.25,2.17,2.17,0,0,0,.81.19h.4c.11,0,.21,0,.32-.06a3.29,3.29,0,0,0,.57-.16c.17-.07.35-.13.49-.2a28.27,28.27,0,0,0,2.9-1.65l2.55-1.62c1.65-1.05,3.12-2.06,4.62-3,3-1.9,5.49-3.69,7.79-5.36,4.59-3.35,8.22-6.21,11.72-9.1s6.86-5.85,10.66-9.69a58.93,58.93,0,0,0,5.86-6.8,20.48,20.48,0,0,0,2.65-4.79,9.72,9.72,0,0,0,.43-1.56,7.19,7.19,0,0,0,0-2.12,4.7,4.7,0,0,0-2.22-3.29h0l-1,.42a13.55,13.55,0,0,0-2.89,1.71l-.57-.62a3.65,3.65,0,0,1-.3.55c-.11.18-.28.39-.33.47-.37.47-.78,1-1.2,1.42l-.6.66-.33.34-.4.41,3-4.07-.14-.15a0,0,0,0,0,.05,0s.07-.14.18-.3l.12-.12.09,0h.05s0,0,.05.06c3.36-4.55,6.15-8.13,8.95-11.27l1.06-1.19-.66-.6c.4-.66.77-1.31,1.12-2l.25.16a4.31,4.31,0,0,0,.49.22c.16.07.34.12.42.15l.63.19,2.58.81a2.14,2.14,0,0,0,.64.16l.26-.65.53-1.31,1.6-4c.43-1.11,1-2.25,1.48-3.44,1-2.39,2.24-4.93,3.55-7.72,4.07-8.38,7.38-14.6,10-19.88s4.68-9.54,6.53-13.92A143.6,143.6,0,0,0,423,269.74a102,102,0,0,0,4.43-21.58,5.42,5.42,0,0,0,.68-1.38c.11-.33.19-.61.26-.88h.15l.24-1.54q.48-3.2.91-6c.29-1.9.59-3.68.73-5.39s.34-3.31.5-4.83.32-3,.37-4.38c.16-2.78.3-5.32.44-7.73s.05-4.73.07-7S431.67,204.31,431.58,201.84ZM330.07,70.63h0Zm71.64,114.88h0v0S401.71,185.52,401.71,185.51Zm-.4,13.48h0S401.32,199,401.31,199ZM330.11,70.72v0h0l0,0,.05,0-.07,0ZM64.3,319.63h-.16C64.7,319.69,63.45,319.51,64.3,319.63ZM46.85,282.5l0,0c1.35,3.35,2.66,6.23,3.91,8.79-.43-.7-.87-1.41-1.32-2.16-.56-.94-1.12-1.93-1.62-2.93a9.6,9.6,0,0,1-1.05-2.88A1.35,1.35,0,0,1,46.85,282.5Zm50.22,71.08-.18-.08.19.05Zm0,.07s0,0,0,0h-.3l-.73.05-2.12.12h0l1.57-.19.76-.09.38,0,.18,0h.12Zm5.87,5.18ZM214.13,400.1c-1.21-.07-2.37-.11-3.49-.19l-3.19-.32c-2-.23-3.86-.34-5.48-.6l-6.73-1-.21-.05c-.65-.14-1.18-.26-1.54-.37l-.35-.14s0-.05,0,0-.2.31-.28.43a2.6,2.6,0,0,1-.25.31l-.2.2-.59-1.6a84.09,84.09,0,0,1-17.63-3.47,138.21,138.21,0,0,1-21.62-8.91c-5.18-2.55-9.4-4.77-13.11-6.65l-4.57-2.29L126,367.9a23.15,23.15,0,0,0-3.68-2.48c-.81-.45-1.73-.93-2.71-1.44a32.54,32.54,0,0,1-3-1.69l-1.75-1.18-.21.24c-1.17-1-2.54-2.06-4-3.19-4.7-3.56-8.6-6.28-9.43-6.91l-2.59-2-1.14,3.15c-.11.31-.22.61-.3.86l-.11.28-.19-.05h0l-4.66-1.21h0l0,.06,3.23,3.26c1,1,1.93,1.92,2.77,2.72l.46.42.12.12,0,0s.12.07,0,.06,0,.06,0,.08-.12.06-.16,0l-.07,0-.62-.36-.85-.56a34.73,34.73,0,0,1-3.38-2.7c-4.5-4.06-9.26-9.33-15.68-17.65-1.74-2.27-3.28-4.37-4.65-6.32-.68-1-1.32-1.9-1.91-2.79l-.84-1.3c-.28-.48-.58-.91-.87-1.35-1.13-1.72-2.14-3.23-3-4.63-.29-.44-.56-.89-.78-1.28l.34-.26,1-.77-3.26-5.29-2.08-3.45c-.84-1.4-1.67-2.83-2.52-4.31l1-.5c.24-.11.48-.24.72-.34a2.49,2.49,0,0,1,.53-.16.56.56,0,0,1,.4.07l7.05,3.83-4.23-6.71-.56-.88,0,0-.08,0c-1.72-2.75-3.51-5.69-5.54-9.22-.56-1-1.14-2-1.76-3.11l-.45-.83-.29-.52a1.41,1.41,0,0,0-.24-.36l-.28-.32-.59-.68-.58-.75a60.18,60.18,0,0,1-4.63-7.6l-.27-.53-.59-1.56-.17.08c-1.41-2.78-2.59-5.31-3.55-7.38l-2.47-5.38-1.46-3.18v.17L41,257.41l-.12.13c-1.14-3.93-2.51-7.28-3.47-11.42l-.36-1.51h-.52c-.23-1.16-.46-2.38-.7-3.67-.4-1.87-.69-3.93-1-6.23l-.54-3.65c-.13-1.29-.28-2.65-.43-4.1-.36-2.89-.52-6.13-.76-9.77-.1-2-.09-3.91-.14-5.69,0-.89,0-1.75,0-2.59s0-1.65.06-2.43c.05-1.58.08-3.06.12-4.46s.2-2.72.29-4,.15-2.45.28-3.6.27-2.23.39-3.3.25-2.09.38-3.11.32-2,.49-3c.32-2,.62-4,1.09-6.08s.84-4.32,1.49-6.76c.3-1.22.62-2.5,1-3.86s.79-2.77,1.22-4.28l.68-2.34c.26-.79.53-1.61.8-2.45.59-1.68,1.1-3.5,1.84-5.37a163.61,163.61,0,0,1,7.57-17.55c1.19-2.22,2.2-4.25,3.26-6.11s2.07-3.6,3.1-5.33,2.16-3.4,3.3-5.21l3.93-5.7c3-4,6.6-8.91,11.95-14.94s9.76-10.18,13.46-13.61c1.85-1.7,3.59-3.16,5.19-4.58s3.22-2.64,4.77-3.93c3.17-2.5,6.39-4.93,10.53-7.81a188.39,188.39,0,0,1,16.32-10.06c6.62-3.61,11.85-6.11,16.3-8l3.18-1.38c1-.43,2-.8,3-1.19,1.91-.75,3.7-1.48,5.49-2.09l1.68-.6a205.94,205.94,0,0,1,34.37-9.16c5.85-1,11.74-1.78,17.69-2.17A160.9,160.9,0,0,1,259,38.72l5.65,1.38c1.74.45,3.34.95,4.85,1.38,3,.83,5.62,1.82,8.09,2.63s4.7,1.79,7,2.68,4.68,2,7.31,3.15l1.42.65c5.37,2.32,11.72,5.68,17.79,9.07,3,1.8,6,3.46,8.62,5.19l3.89,2.37c1.2.78,2.34,1.5,3.4,2.15a19,19,0,0,0,2.84,1.54l-.08.07c.55.77,3.05,3,5.38,5.32,3.67,3.13,7.21,6.43,10.83,9.7,1.85,1.57,3.47,3.31,5.16,5s3.28,3.54,4.9,5.32a188.6,188.6,0,0,1,40.28,76.17c.53,2,1.05,4.27,1.66,6.81.24,1.31.51,2.69.79,4.18.2,1.08.42,2.2.64,3.36l2.22-.27c0,.47,0,1-.07,1.54-.1,3.27-.11,6.19-.09,8.86,0,0,0,0,0,0a.18.18,0,0,1-.06-.08s0,0-.06-.1l0-.09,0,0,0,0s0,0,0,0h0a.22.22,0,0,1-.1,0c-.08,0-.11-.24-.19-.28s-.08-.07-.15-.06,0,.06,0,.13l-1.87,1.85h0c-.06,0,.06.05,0,.08l-.15,0h0l-1.22-.21,4,3.11c.06.05.09.14.13.16.06,2.2.13,4.2.17,6.06.15,5.08.23,9.12.19,13.16s-.21,8.07-.63,13.09a185.27,185.27,0,0,1-2.62,19,164.78,164.78,0,0,1-8.85,31c-.76,1.86-1.52,3.73-2.32,5.71l-2.88,6.28c-.49,1.16-1.12,2.32-1.75,3.57s-1.3,2.56-2,4-1.57,2.83-2.42,4.39-1.75,3.22-2.84,4.9-2.06,3.31-3,4.82-1.93,2.85-2.8,4.16-1.69,2.54-2.54,3.66-1.62,2.17-2.38,3.18-1.45,2-2.16,2.88l-2.09,2.57c-1.36,1.65-2.59,3.25-3.95,4.73l-4.1,4.61c-1.49,1.54-3.06,3.17-4.82,5s-3.82,3.65-6.1,5.82c-1.17,1.05-2.45,2.12-3.79,3.29s-2.76,2.4-4.36,3.63l-4.46,3.51L325,367.29c-2.52,1.88-4.89,3.31-7,4.71s-4.08,2.49-5.9,3.6l-2.69,1.58-2.68,1.43c-1.78.92-3.52,1.94-5.45,2.84l-6.23,3c-2.31,1-4.83,2.12-7.74,3.29s-6.18,2.46-10,3.66-7.19,2.23-10.2,3.1-5.73,1.4-8.16,2c-4.92,1-8.86,1.78-12.84,2.28l-3,.43c-1,.14-2,.21-3.1.32l-3.29.31L235,400c-.6,0-1.21.06-1.83.09l-4,.19-2.15.1h-7.28C218,400.34,216.13,400.18,214.13,400.1Zm84.41,6.56.37-.21.74-.41q3-1.67,5.94-3.39t5.86-3.51l1.82-1.13.43-.27.21-.13a1.51,1.51,0,0,0-.11.22,1.77,1.77,0,0,0-.12,1,2.58,2.58,0,0,0,.1.42c-4.13,2.5-8.34,4.88-12.64,7.05q-2.64,1.32-5.32,2.53c.41-.3.82-.6,1.22-.92a7.33,7.33,0,0,0,.68-.57l.62-.54A.53.53,0,0,1,298.54,406.66Zm74.35-49.72Zm.57-.83c0,.09,0,.19,0,.28l-.55.55h0c.21-.45.4-.89.59-1.34C373.47,355.77,373.46,355.94,373.46,356.11ZM268,422.85l0-.22,1.12-.27-.58,1Z" />
      </g>
    </g>
  </g>
</svg>