<svg xmlns="http://www.w3.org/2000/svg" width="2183" height="2182" viewBox="0 0 2183.06 2182.08">
  <defs>
    <style>
      .cls-1 {
        opacity: 1;
      }

      .cls-2 {
        fill: #ffefe1;
      }
    </style>
  </defs>
  <g id="Layer_2" data-name="Layer 2">
    <g id="BG">
      <g class="cls-1">
        <path class="cls-2" d="M176.65,1188.44h0v0h0Z" />
        <path class="cls-2"
          d="M2182.91,1064.23a1126.22,1126.22,0,0,0-7.69-113q-1.17-8.87-2.26-17.19c-.37-2.77-.69-5.51-1.11-8.19s-.82-5.33-1.22-7.93c-.81-5.2-1.56-10.25-2.35-15.13s-1.7-9.6-2.51-14.18c-3.27-18.35-6.68-34.39-10-48.93-6.69-29.05-13.08-52.05-19.94-74.89-7.1-22.78-14.71-45.41-25.47-73.22a1053.74,1053.74,0,0,0-46.76-103.23c-11.12-21.15-21.51-39.22-31.07-55.22-4.73-8-9.4-15.43-13.76-22.48l-6.51-10.2c-2.11-3.3-4.16-6.53-6.23-9.62-16.39-24.9-30.25-44.33-44.61-63.39s-29.3-37.71-49-60.15c-2.43-2.83-5-5.64-7.66-8.55l-8.16-8.95-8.73-9.38-9.43-9.81c-13-13.36-28-27.91-45.22-44.2-25.08-23.63-45.63-42.7-62.62-59.27s-30.49-30.51-42-43.14l-7.15-7.82-1.46,1.64-1.7-1.13-5.31,6.84L1711,186l-1,1.22-.23.3-.07.08h0l0,0-.21.35-.06.09s0,.07-.07,0l-.17-.09-.17-.09-.1-.05,0,0h0l-.09-.05c-3.26-2.23-6.44-4.51-9.7-6.63l-9.75-6.39-4.88-3.19-5-3.1-10.09-6.29c-3.41-2.12-6.94-4.15-10.5-6.28l-5.4-3.21-2.75-1.64-2.81-1.59a1083.4,1083.4,0,0,0-122.38-60.39c-44.15-18.38-78.16-29.88-106.69-38.7-14.27-4.42-27.2-8.1-39.45-11.46l-18-4.74-17.5-4.3c-23.26-5.48-46.65-10.46-76.12-15.43-3.69-.61-7.46-1.29-11.35-1.88l-12-1.78-6.26-.93c-2.11-.31-4.27-.56-6.45-.85l-13.49-1.74c-18.56-2.15-39.38-4.28-63.27-5.68l-18.8-.9c-6.06-.25-11.92-.33-17.59-.49S1107.44.06,1102.08,0l-7.92,0c-1.3,0-2.58.07-3.86.13l-3.79.21c-19.74,1-37,1.68-52.84,2.46s-30.24,1.6-44.2,2.74c-12.68,1-25,2.29-37.74,4.22l-.22-.07v.1l-3.63.56-32.22,5.19.45.14c-10.43,1.64-21.7,3.56-34.18,5.92C854.85,26.78,822.1,34,780.53,46.12c-22.91,6.82-42.76,13.44-60.35,19.73-4.4,1.56-8.63,3.19-12.76,4.71s-8.15,3-12,4.55l-11.28,4.45-5.42,2.15-5.24,2.18c-27.63,11.44-49.35,21.53-70.8,32.17l-16.08,8.21c-5.38,2.82-10.8,5.78-16.41,8.78-2.81,1.48-5.61,3.08-8.48,4.69L553,142.68c-3,1.65-6,3.42-9.05,5.24l-9.43,5.58c-3.24,1.88-6.47,3.95-9.82,6s-6.79,4.2-10.32,6.4l-10.78,7-5.63,3.65c-1.89,1.25-3.79,2.56-5.73,3.86l-12,8.11-12.54,8.87c-4.34,3-8.68,6.31-13.21,9.63l-6.89,5.08-7,5.38c-19,14.55-35.16,27.84-49.26,40.1-3.55,3-7,6-10.25,9l-9.57,8.55c-3.09,2.78-6,5.56-8.92,8.22s-5.72,5.26-8.42,7.85c-21.67,20.6-38.33,37.78-54.54,55.37s-31.85,35.73-50.5,59.09c-2.36,2.9-4.67,6-7.1,9.05s-4.91,6.28-7.42,9.6-5.06,6.74-7.7,10.27-5.31,7.18-8,11c-11,15.09-22.87,32.33-35.79,52.45q-2.42,3.78-4.77,7.43l-4.51,7.27c-3,4.77-5.84,9.38-8.51,13.93s-5.35,8.91-7.84,13.19l-7.18,12.53c-2.35,4-4.48,8-6.61,11.88s-4.22,7.57-6.14,11.26c-3.86,7.36-7.61,14.24-10.93,20.93-13.53,26.63-23.47,48.37-32.9,70.32S75.47,710.85,65.54,739,44.58,801.29,33,847.65c-5.33,21.67-9.43,41-12.86,58.33-3.27,17.41-6,32.89-8,47.07-4.23,28.34-6.71,51.31-8.62,73.64l-.8,10.51c-.37,4.39-.6,8.78-.85,13.17s-.53,8.77-.72,13.16c-.32,8.77-.75,17.54-.85,26.32-.44,17.54-.23,35.07.22,52.57A1046.93,1046.93,0,0,0,8.84,1247c4.44,34.68,10.79,69.1,18.65,103.21,4.05,17,8.29,34,13.19,50.88,2.31,8.45,5,16.82,7.5,25.23,1.3,4.19,2.69,8.36,4,12.55s2.69,8.37,4.15,12.52a1017.33,1017.33,0,0,0,80.3,179.35c3.16,5.28,6.14,10.4,9.13,15.26l8.73,14c2.85,4.49,5.68,8.76,8.37,12.92,1.36,2.08,2.67,4.14,4,6.13l4,5.86c2.62,3.84,5.12,7.58,7.62,11.18l7.41,10.44,3.56,5,3.57,4.84,7,9.41c18.44,24.51,35.46,45.4,58.43,70.6l6.3,6.7,4.53,4.78,4.73,4.81,9.8,9.94,10.37,10.1,5.31,5.15,5.47,5.1c14.58,13.78,30.37,27.43,46.19,40.46l11.92,9.59c4,3.16,8,6.16,11.92,9.19,7.83,6.1,15.78,11.68,23.33,17.15,3.78,2.72,7.6,5.23,11.27,7.75s7.28,5,10.82,7.24c7.13,4.51,13.79,8.77,20,12.46,13.25,7.7,18.41,10.15,18,9l.1.07,1.81-1.77a11.7,11.7,0,0,0-1.43,2.16l.72.4a8.91,8.91,0,0,0,1.31-.81,132.15,132.15,0,0,0,13.14,9.25c6.5,4.13,14.4,8.62,22.15,12.92,14.17,7.1,28.23,14.1,41.28,22.59l7,4.58v-.82l.19-.26,2-2.69,3.69,2.25-5.52,1.41a18.65,18.65,0,0,0,6.12,2.08,10.48,10.48,0,0,0,4.26-.33,10.94,10.94,0,0,0,1.32-.51c20.49,7.63,41,15.38,61.8,22.49q11.88,4.1,23.88,7.87c-.45,1.29-.88,2.59-1.32,3.89l-1,3.43c-.32,1.14-.48,2.36-.72,3.54a24.07,24.07,0,0,0-.4,3.33,27.53,27.53,0,0,0,0,3,10.09,10.09,0,0,0,.13,1.53l.2,1.55c.17,1,.5,2.07.76,3.1s.76,2,1.26,2.95l.8,1.39.4.69.47.63a31.13,31.13,0,0,0,8.82,7.92,67.09,67.09,0,0,0,9.8,4.93,188.17,188.17,0,0,0,19.94,6.68c6.67,1.89,13.34,3.59,20,5.24,13.35,3.27,26.68,6.33,40,9.45l10,2.35,2.38.56,2.24.69,4.9,1.52,19.63,6c12.3,3.53,25.66,7.32,41,11.46,7.66,2.08,15.8,4.24,24.54,6.5l13.58,3.43,6.75,1.67,1.95.47,1,.24.5.12c.07,0,.19,0,.22.08l0,.25c0,.33-.1.78-.16,1.31a7.48,7.48,0,0,0,0,.85c0,.17,0,.28,0,.5l0,.31.09.35.12.44a9.71,9.71,0,0,0,.71,1.78,11,11,0,0,0,1.11,1.62,12,12,0,0,0,2.59,2.29,24.73,24.73,0,0,0,5,2.41,84.75,84.75,0,0,0,8.58,2.6c2.76.71,5.46,1.35,8.11,2,5.31,1.22,10.44,2.32,15.42,3.39l14.48,3.08c2.31.51,4.58.93,6.81,1.48s4.55,1.08,6.76,1.57c17.86,3.85,33.65,6.43,48.1,8.69,28.9,4.39,52.3,7.09,75.61,9.13,11.66,1,23.3,1.82,35.61,2.35s25.3.83,39.67.43c7.19-.21,14.73-.61,22.7-1.4a171.78,171.78,0,0,0,25.29-4.24,80.25,80.25,0,0,0,13.65-4.67c1.16-.56,2.32-1.13,3.48-1.73l1.73-1a19.8,19.8,0,0,0,1.72-1.09l1.71-1.21c.57-.39,1.1-.91,1.66-1.36a18.67,18.67,0,0,0,1.62-1.49l.94-1a13.12,13.12,0,0,0,1-1.08,25.68,25.68,0,0,0,4.73-9.85l.33-2.65.08-.66c0-.22,0-.44,0-.66l0-1.32c0-.88,0-1.76-.09-2.68l-.08-1.37,0-.69,0-.34v-.17l-.15-.05-4.9-1.54-1.23-.39-.62-.2c-.23-.05-.5-.07-.75-.11l-3-.42-8.31-1.15-1.47-2.89-.15-.26-.36-.73,0-.08h0l-.28.09-.52.15a37.32,37.32,0,0,1-3.74.67c-3.94.5-8,.75-11.92.93q-3.83.18-7.4.25l-1.32-2.81-.24-.53c20.22-3.27,37.74-6.05,53.59-8.18,17.69-2.39,33.29-4,48.13-4.95l6.07-.38-.23-4.12c3.41-.81,6.7-1.71,10-2.66,1.7-.49,3.38-1,5.06-1.52l.27,1.58.45,2.56.11.65a1,1,0,0,0,.12.26l.16.31.32.61,1.3,2.48,6.59,12.56.8,1.54.41.78.2.39c.11,0,.26-.1.39-.14l3.22-1.41,6.53-2.87,9.67-4.22,8.21-3.41c5.55-2.37,11.43-4.61,17.51-7.05,12.23-4.72,25.52-9.68,40.13-14.79,22.07-7.72,41.61-14.05,59.08-19.74s32.91-10.66,46.93-15.33c28-9.34,50.44-17.31,72.55-26,5.5-2.25,11-4.38,16.59-6.77l8.42-3.55,8.54-3.78c5.79-2.5,11.63-5.35,17.77-8.19l9.31-4.59c1.58-.79,3.19-1.56,4.8-2.39l4.87-2.55c6.61-3.37,13.39-7.19,20.59-11.21l11-6.47c3.74-2.24,7.51-4.69,11.44-7.14,7.79-5,15.94-10.49,24.4-16.64l3.21-2.3c1.06-.8,2.12-1.62,3.2-2.43l6.53-5c2.23-1.66,4.41-3.46,6.63-5.27l5.94-4.84.13-.1.14-.12.09-.07h.3l.15,0h.08l-.19,0,.36-.08.83-.17.2,0,.13,0,.26-.08,1-.31c.62-.22,1.29-.44,1.85-.69,1.17-.47,2.2-1,3.16-1.47,1.76-.9,3.24-1.78,4.5-2.56l.33.33,4.85-3.43a1023,1023,0,0,0,82.17-64.29l7.74-6.77,3.74-3.28,3.61-3.31,13.82-12.68c8.74-8.44,17.18-16.35,25.28-24.69,8.27-8.18,16.21-16.77,24.74-25.8l12.87-14.33c1.11-1.24,2.22-2.5,3.36-3.76l3.34-3.92,6.92-8.1c4.78-5.48,9.51-11.46,14.6-17.69s10.23-13,15.76-20.08c1.36-1.79,2.78-3.57,4.16-5.43l4.17-5.67,8.71-11.86,9-12.78c1.54-2.2,3.09-4.43,4.68-6.69s3.08-4.63,4.65-7a1000.41,1000.41,0,0,0,57.72-97.45q2.53-5,5-9.72c1.59-3.18,3.24-6.24,4.68-9.32l8.56-17.7c5.27-11.53,10.31-22.34,14.91-33.35,9.37-21.94,18.25-44.1,28-72.29,1.28-3.5,2.42-7.15,3.67-10.87l3.79-11.49c.33-1,.65-2,1-3l.93-3c.63-2,1.26-4.11,1.91-6.21q1.92-6.28,4-13l3.93-13.86c.68-2.38,1.36-4.79,2.06-7.25s1.31-5,2-7.51q2-7.65,4.1-15.77,1.95-8.18,4-16.86c1.43-5.79,2.61-11.45,3.79-16.92l1.74-8.09c.57-2.65,1.13-5.26,1.61-7.85,2-10.34,3.94-20,5.41-29.22q1.17-6.88,2.28-13.38t1.87-12.66c.6-4.1,1.23-8.08,1.74-12s1-7.69,1.44-11.38l1.35-10.83q.55-5.29,1.08-10.37c.7-6.76,1.41-13.25,1.88-19.57s1.06-12.44,1.46-18.48.73-12,1.09-18C2182.71,1117.9,2183.37,1094,2182.91,1064.23ZM1165.46,2130.08l.49-.2ZM684.05,2048c2.79.66,5.66,1.08,8.5,1.61s5.72.89,8.6,1.28,5.81.58,8.74.78l1.66.11a4,4,0,0,1,.59.16l1,.27,4.09,1.19q16.38,4.68,32.85,9t33,8.33l12.73,3,4.93,1.12c.2,0,0,.05-.11.08l-.3.09a4.27,4.27,0,0,0-.6.21,7.92,7.92,0,0,0-1.14.54,9.23,9.23,0,0,0-2,1.54,12.53,12.53,0,0,0-2.16,3c-.17.31-.71,1.42-1.1,2.38-25.39-6.24-50.56-13.28-75.29-21.6q-19.18-6.47-38-14C681.4,2047.4,682.72,2047.68,684.05,2048Zm1131.73-363.55c.25-.2.49-.36.65-.34h.13c.33-.34.6-.6.82-.8l-1.09,1.14Zm4.65-4.28-.2.2-.27-.21.48-.22ZM174.77,1132.37l0-.58v-.28l6.12,11.36,3,5.48v.43L174.9,1135h0v0h0C174.85,1134.11,174.81,1133.23,174.77,1132.37Zm34.35,152.74h0l.81-.42Zm-22.85-98h0Zm-2.46-40.44Zm3.85-237.37s0,0,0,0ZM307.9,626.94ZM2019.73,970.22l0,.07h.11c0,.1,0,.2.05.29a.22.22,0,0,0,0,.08c-.05-.14-.1-.26-.15-.38h0Zm.07-.24v0ZM393.53,1684.21c-9.29-12-15.95-21.47-20.34-27.53l-.75-1.18c-1.5-2.38-2.8-4.38-3.74-6.08a21.5,21.5,0,0,1-1.08-2.15l-.18-.41-.11-.32a2.06,2.06,0,0,1-.09-.26l0-.1,0,0v0h0v.14c0-.08,0-.16,0-.24l-.14-.23-.27-.46-.14-.44-.45-1.47c-.16-.58-.39-1.21-.6-1.79l-.55-1.52-4.77-5.83c-1.29-1.6-2.6-3.14-3.82-4.72-2.44-3.17-4.81-6.27-7.14-9.32l-6.6-9.18c-2.16-3-4.14-6.11-6.19-9.12-8-12.15-15.26-24.36-22.44-37.86s-14.24-28.34-21.63-45.92l-2.8-6.71-2.8-7c-1.93-4.74-3.77-9.74-5.75-14.89-3.85-10.38-7.88-21.59-12.05-33.89-9.3-27.54-16.47-50.45-23-70.33s-12.23-36.8-18-52.61q-2-5.35-3.92-10.55l12.63,25-3.57-45.49a111.94,111.94,0,0,0-4.19-21.32c-1.26-4.48-2.82-9.4-4.49-14.7a164.17,164.17,0,0,1-4.6-16.88l-1.55-7.88-1.88.12c-.73-8.15-1.81-18-3.23-28.37-2-14.64-4.11-27.85-5.75-38.06s-2.81-17.41-3.22-20l-2-12.15-11.19,5.27-3.79,1.78-1.44.68-.43.2-.19.09c-.49-1.24-1-2.49-1.44-3.76.74,1.52,1.48,3,0,0h0c-1.21-2.48-3.9-8-9.27-19v1.8c0,1.24,0,2.47,0,3.69,0,9.77-.17,18.79,0,27.4,0,2.15,0,4.25.11,6.33.05,1.34.09,2.65.13,3.92.09,2.11.19,4.13.33,6.06s.3,3.78.52,5.58c.11.9.24,1.79.39,2.69.08.47.15.89.25,1.38l.16.72.08.35.08.34.13.45v0h0v0h0s0,0,0,0h0l0,0s-.1-.06-.14,0l-.05.28c0,.16,0,.38-.23.28l-.11,0-.05,0s-.09-.08-.28-.18a1.69,1.69,0,0,1-.49-.33c-.16-.13-.33-.23-.51-.37a6.26,6.26,0,0,0-.52-.51l-.27-.25-.26-.33a25.38,25.38,0,0,1-4-6.94,64.77,64.77,0,0,1-2.89-9.14c-.78-3.24-1.39-6.6-1.93-10-1-6.88-1.64-14-2-21.53a477.47,477.47,0,0,1,.73-50c1.14-18.79,3.13-40.12,6.47-65.31,1.92-14.38,3.93-27.45,6-39.34q1.56-8.92,3.19-16.94c.56-2.69,1.11-5.22,1.71-7.77.33-1.32.62-2.66.89-4s.54-2.61.8-3.9c2.07-10,3.91-19.17,5.76-27.34.46-2,.93-4,1.41-5.83.35-1.32.72-2.6,1.08-3.67l2.38.3,5.89.76c2.35-9.79,4.59-19.13,6.77-28.26,1.63-6.65,3.26-13.14,4.94-19.63,3.35-13,6.87-26,11-40.37,2-7.18,4.22-14.71,6.61-22.73l.13-.46a6.06,6.06,0,0,0,.19-.7l.21-.94c.12-.52.23-1,.35-1.56.23-1,.46-2.1.7-3.16.47-2.12,1-4.27,1.43-6.47q1.47-6.57,3-13.63c2.11-9.39,4.36-19.48,7.09-30.2,1.38-5.35,2.88-10.86,4.7-16.32.45-1.37,1-2.7,1.44-4.06s1-2.67,1.62-3.91a34.15,34.15,0,0,1,3.83-6.79,10.22,10.22,0,0,1,3.18-2.89,3.68,3.68,0,0,1,.76-.35,4.36,4.36,0,0,1,.82-.26,4.21,4.21,0,0,1,.91-.16c.16,0,.31-.06.48-.07h.53l.36,0c.24,0,.47.08.7.14a11,11,0,0,1,1.34.42c-.53,1.21-1,2.38-1.53,3.52-1.73,4-3.33,7.91-4.87,11.71-6.15,15.21-11,28.8-15.08,41.26s-7.44,23.77-10.42,34.53c-.77,2.69-1.48,5.35-2.18,8s-1.4,5.24-2.05,7.83c-.34,1.3-.67,2.59-1,3.88q-.67,2.67-1.33,5.32c-.53,2.16-1.07,4.31-1.6,6.45l-.79,3.23-.4,1.61c-.06.27-.15.54-.19.8l-.08.75c2.37.77,4.86,1.6,7.33,2.45l1.82.66c.58.25,1.13.53,1.69.8l.21.11.25.14.07,0,.13.09.26.17c.18.11.32.24.49.35a7.22,7.22,0,0,1,1.46,1.47,4.9,4.9,0,0,1,.78,1.68l8.13,31.61,7.18-31.74c.29-1.28.58-2.58.88-3.87h.19c0-.12-.08-.23-.11-.35,3.53-15.43,7.6-32.23,13.07-52.55,1.5-5.55,3.1-11.36,4.84-17.47.44-1.52.88-3.07,1.33-4.64.23-.78.46-1.57.68-2.36l.43-1.47.31-1.08c.06-.37.07-.75.1-1.12.12-1.75.24-3.53.37-5.33,0-.78.15-1.6.26-2.42s.22-1.64.33-2.47.21-1.66.32-2.5.3-1.7.44-2.56c.31-1.72.63-3.46.94-5.22l1.18-5.39c.2-.91.4-1.83.61-2.75l.69-2.78q.7-2.81,1.43-5.69t1.62-5.83q.79-3,1.73-6t1.84-6.14c6.09-19.56,12.26-36.51,17.16-49.84l10.4-28,4.73-12.71-3.2,2.74c.58-.91,1.14-1.77,1.64-2.54l7.58-11.68h-.51c4.37-7.69,8.14-15.19,11.9-22.63,5.63-11.17,11.13-22.37,18.46-34.13l3.12-5-2-2c8.38-12.61,17.85-26.49,30.18-43.14,14-18.84,31.73-41.25,56.51-68.56l2.54-2.81,2.55-2.72,5-5.3,4.84-5.14,4.8-4.89c3.16-3.19,6.18-6.32,9.18-9.29l8.82-8.57c2.83-2.8,5.67-5.41,8.41-8l8-7.43c5.3-4.69,10.25-9.18,15.08-13.32l7.1-6c2.32-1.95,4.55-3.89,6.83-5.7,4.52-3.64,8.81-7.19,13.07-10.52l12.52-9.68,12.34-9.12c16.5-11.91,33.34-23.36,55-36.69l4.1-2.54,4.27-2.52,8.87-5.25c3-1.8,6.23-3.55,9.48-5.4s6.58-3.78,10.1-5.63l10.8-5.83,11.6-6c4-2.09,8.14-4.09,12.42-6.19l6.53-3.19,6.8-3.17c18.42-8.59,34.82-15.49,49.64-21.19l5.46-2.13,5.34-2,10.24-3.76,9.75-3.37c3.17-1.07,6.23-2.18,9.26-3.13,24.15-7.89,43.78-13.29,63.52-18.14s39.66-9,64.74-13.18l9.66-1.52,5-.8,5.18-.72,10.81-1.49,11.48-1.39c15.78-1.81,33.5-3.57,53.81-4.7a943.87,943.87,0,0,1,96.57-.51c25.41,1.17,45.69,3,65.91,5.26s40.38,5.18,65.41,9.77c6.27,1.1,12.8,2.48,19.75,3.86,3.47.66,7,1.51,10.68,2.29s7.44,1.58,11.31,2.52c15.51,3.56,32.77,8,52.34,13.66,9.16,2.6,17.7,5.32,25.79,7.83,8,2.66,15.64,5.07,22.76,7.61,14.29,4.9,26.81,9.68,38.21,14.1,22.74,8.94,40.78,16.89,58.1,25,2.72,1.27,5.46,2.49,8.15,3.81,27.08,12.92,53.64,26.79,79.46,41.9,13,7.48,25.65,15.38,38.25,23.42,6.25,4.1,12.55,8.13,18.71,12.37,3.08,2.11,6.2,4.17,9.26,6.32l9.17,6.46c3.08,2.13,6.08,4.35,9.1,6.56s6.06,4.39,9,6.64c5.94,4.54,12,9,17.8,13.68,11.83,9.19,23.3,18.84,34.68,28.61l8.43,7.46,4.21,3.74,4.14,3.81,8.29,7.64,8.15,7.79,4.07,3.91,4,4,8,8,7.85,8.13,3.92,4.07,3.85,4.15a849.4,849.4,0,0,1,101.69,134c11.28,17.73,20.08,33.29,27.72,47.21l5.47,10.18c1.75,3.31,3.37,6.56,5,9.72,3.28,6.29,6.18,12.39,9,18.28,5.66,11.8,10.66,23,15.64,34.64,2.49,5.81,4.86,11.77,7.41,17.91s4.94,12.6,7.52,19.39c.93,2.45,1.85,4.89,2.78,7.33,2.7,6.87,5.28,14.23,8,21.84,1.4,3.8,2.63,7.73,4,11.68s2.73,8,4,12.06,2.59,8.2,3.9,12.35,2.48,8.37,3.73,12.57c.62,2.11,1.25,4.22,1.87,6.33l1.75,6.36c1.16,4.25,2.38,8.47,3.5,12.71,2.17,8.48,4.43,16.88,6.36,25.15.51,2.06,1,4.12,1.51,6.15.25,1,.5,2,.74,3.05l.69,3q1.39,6,2.73,11.89c.94,3.89,1.69,7.73,2.53,11.46s1.63,7.38,2.41,10.91c1.44,7.09,2.93,13.73,4.26,19.84,1.77,8.51,3,13.47,3.83,15.6l-.2,0a43.71,43.71,0,0,0,0,5.6c.09,2.49.18,5.57.37,9,.28,6.88.62,15.25.88,23.46,1.89,24.2,2.75,48.58,4,73l.48,9.13c.08,1.51.2,3,.24,4.53v4.53c0,6,.05,12.06-.16,18.15s-.25,12.17-.58,18.24L2023,1145c-.13,3-.38,6.08-.57,9.11a926.41,926.41,0,0,1-21.23,144.53,984.85,984.85,0,0,1-42.82,139.66,876.78,876.78,0,0,1-63.72,130.88c-2.67,4.6-5.55,9.33-8.55,14.36s-6.39,10.2-9.9,15.77c-1.83,2.74-3.7,5.57-5.65,8.49l-3,4.46c-1,1.5-2.09,3-3.16,4.54-1.4,2-2.81,4-4.25,6l-2.49,3.55c-.42.6-.84,1.19-1.26,1.8l-.64.9-.32.46-.16.22-.08.12s-.08.08,0,.1l9.17,7.24-7,6.42c-13,12.15-24.18,23.38-34.16,33.65a2.14,2.14,0,0,1,.19-.8.46.46,0,0,1-.22.1c0-.11.1-.23.16-.34.11-.37.17-.66,0-.61l0,0c-.1,0-.19,0-.23,0a.69.69,0,0,1,0-.43s-.06-.09,0-.2c.23-.49.56-1.07.46-1.31s-.36-.09-.55-.09l-.07-.14c-.13-.26.05-.64.1-1a1,1,0,0,0,.1-.63c-.14-.35-.29-.21-.45-.46l-10.28-.08h-.08c-.32,0-.06.31-.38.27s-.38-.13-.69-.18l-.05,0-7.28-9.91,6.84,25.06c.11.39-.19.84.08,1s1.33-1.2,1.75-1.16.33.16.75.2l.85.06a.06.06,0,0,1,.05,0c-9.3,9.7-17.54,18.49-25.15,26.54-17.52,18.61-31.63,33.32-46.14,47.59-3.61,3.59-7.32,7.06-11,10.65s-7.61,7.1-11.61,10.74l-6.1,5.54-3.13,2.84-3.24,2.83-6.69,5.85c-2.27,2-4.67,4-7.09,6-9.68,8.23-20.6,17-33.19,26.68s-27,20.17-43.81,31.65a951.45,951.45,0,0,1-82.42,50.33l-8.21,4.35c-2.67,1.41-5.26,2.83-7.87,4.09l-15,7.45c-4.86,2.33-9.61,4.52-14.28,6.71s-9.3,4.24-14,6.27l-7,3.06-3.51,1.54-3.56,1.46-14.58,6-15.59,6.05-4.08,1.58-4.22,1.53-8.72,3.16c-5.94,2.23-12.27,4.3-18.94,6.57s-13.79,4.48-21.34,6.89c-3.77,1.23-7.69,2.37-11.74,3.54l-12.5,3.65-13.39,3.6c-2.3.61-4.63,1.27-7,1.87l-7.27,1.79a917.4,917.4,0,0,1-94.61,18.33c-25.12,3.56-45.36,5.48-65.61,6.92-10.13.8-20.28,1.2-31.06,1.7l-16.73.44c-5.8.13-11.83.08-18.17.13a896,896,0,0,1-96.27-5.34l-7.45-.79-7.21-.92c-4.73-.61-9.32-1.17-13.76-1.78l-12.89-1.94-6.15-.94-5.95-1-11.38-2c-3.68-.64-7.23-1.4-10.69-2.06l-10.11-2-9.53-2.08-9.07-2c-3-.65-5.81-1.39-8.62-2.06l-8.27-2-4-1-3.93-1-15.23-4.07-14.68-4.26c-19.41-5.84-38.7-12.09-62.44-20.94a949.82,949.82,0,0,1-88.28-38.29l-13.12-6.7c-2.12-1.1-4.22-2.14-6.25-3.23l-6-3.24c-3.93-2.14-7.76-4.17-11.43-6.21l-10.64-6.06c-13.73-7.87-25.58-15.21-36.26-22-21.3-13.71-37.81-25.47-54-37.59l-12.12-9.3c-4.07-3.15-8.09-6.49-12.29-9.84-2.08-1.71-4.25-3.37-6.36-5.18l-6.48-5.49-6.76-5.72c-2.28-2-4.57-4-6.94-6.14l-7.29-6.47c-2.49-2.21-4.95-4.59-7.54-7l-8-7.41-8.24-8c-11.36-11-23.6-23.84-37.16-38.88C416.53,1713.48,403.62,1697.23,393.53,1684.21Zm1421.06.19H1814a.66.66,0,0,1,.4-.1A.16.16,0,0,1,1814.59,1684.4Z" />
      </g>
    </g>
  </g>
</svg>