<svg xmlns="http://www.w3.org/2000/svg" viewBox="0 0 296.32 154.65"><defs><style>.cls-1{fill:#36222e;stroke:#36222e;stroke-miterlimit:10;stroke-width:0.5px;}</style></defs><g id="Layer_2" data-name="Layer 2"><g id="BG"><path class="cls-1" d="M35,154.39l.85-.15-.28-.82c-7.4-21.73-13.72-49.17-17.72-68.37-2.69-12.93-4.69-23.8-5.76-29.88a.83.83,0,0,0,.24-.71h0A.7.7,0,0,0,12,54a.78.78,0,0,0,.17-.61h0a.75.75,0,0,0-.3-.44.78.78,0,0,0,.17-.63h0a.73.73,0,0,0-.28-.43c1.14-.44,4.72-.56,4.6-1.33,0,0-.19-1-.2-1-.21-1-4.36-.69-5.52-.68L5.84,18.56v0a.77.77,0,0,0-.12-.28,3,3,0,0,0-2.93-1A3,3,0,0,0,.28,19.1a.77.77,0,0,0,0,.34L5,49.77C3.93,50.2.34,51.23.51,52.29l.18.89c.18.84,3.33-.13,5-.16C7.39,63.52,9.31,73.92,11.41,84c7,33.45,14,55,17.12,62.51C31.84,154.51,34.49,154.48,35,154.39Z"/><path class="cls-1" d="M13.55,43.91S68.94,19,81.8,20.81s62.85,41.25,70.73,41.25,38.71-30.45,61.76-30.45,66,28.4,72.08,40.4l-5.52-16.85,14.49,3.75s-47.27-40.77-80.51-40.46S159,46.65,154,47.62,97.69-7.46,74.64,1.15,11.28,20.32,11.28,20.32Z"/><path class="cls-1" d="M6.31,21.25,12.77,20l.78,3.87s-6.92,2.21-7.24,2S6.31,21.25,6.31,21.25Z"/><path class="cls-1" d="M6.86,31.12l6-1.21.72,3.87S7.16,36,6.86,35.8,6.86,31.12,6.86,31.12Z"/><path class="cls-1" d="M9.12,41l4.48-1.22.53,3.88s-4.78,2.2-5,2A33.2,33.2,0,0,1,9.12,41Z"/></g></g></svg>