<svg xmlns="http://www.w3.org/2000/svg" viewBox="0 0 1965.08 78.77"><defs><style>.cls-1{fill:#261822;}</style></defs><g id="Layer_2" data-name="Layer 2"><g id="BG"><path class="cls-1" d="M1965.08,0c-1,.06-2,.15-3,.29-8.37,1.24-16.69,3-25.22,3.31-6,.3-12,.09-18,.3A129.93,129.93,0,0,0,1905,5.34c-5.58.83-11.22,1.56-16.65,2.92-6.07,1.48-11.93,3.58-18,5-7.95,1.87-16.13,3-24.17,4.51-9.8,1.94-19.57,4.19-29.56,5.34-17.22,2.17-34.68,2-52.06,2.22-9.81.16-19.63.52-29.44.45-9.28-.1-18.54-.65-27.79-1.14-5.57-.27-11.16-.41-16.73-.21s-10.91.91-16.32,1.54c-5.64.66-11.3,1.33-16.87,2.33-5.77,1.05-11.45,2.52-17.1,3.93A265.91,265.91,0,0,1,1595.26,40c-11.73,1-23.55,1.23-35.34,1.38-10.51.14-21.05.26-31.57.2A186.11,186.11,0,0,0,1496,43.93q-16.24,2.53-32.62,4.59c-13.16,1.65-26.31,3.46-39.54,4.63-10.64,1-21.37,1.17-32,2a158.81,158.81,0,0,0-21,3c-8,1.76-15.81,4.19-23.8,6-23.83,5.77-48.86,4.6-73.38,4-12.25-.35-24.49-1.58-36.76-1.19-13.78.43-27.5,2.11-41.29,2.37a290.53,290.53,0,0,1-40.12-2.16c-16.74-1.73-33.48-3.58-50.1-6.05-22.65-3.14-45.55-6.26-68.56-5.06-7,.24-14.07.43-21.09.21-7.3-.13-14.62-.71-21.92-.57-13.55.2-27,2.41-40.52,2.55-28,.91-55.51-4.57-82.69-9.58-13.21-2.52-26.24-5.74-39.21-9-9.67-2.43-19.47-4.61-29-7.53-8.16-2.42-16-5.74-24.46-7.38-8.84-1.55-17.93-1.61-26.85-2.69a150.23,150.23,0,0,1-30.74-6.83,180.76,180.76,0,0,0-37.92-8.64c-8.42-.56-16.89,0-25.32,0-6.79.09-13.62.17-20.36.86-7,.7-13.85,2-20.82,2.82a159,159,0,0,1-21.83,1.06c-5,0-10.13-.47-15.16-.14a53,53,0,0,0-13.9,3c-4.29,1.37-8.64,2.7-13,3.89-25.15,6.41-51.85,8-78,5.87-9-.63-18-2-27-1.5-5.19.22-10.32,1.12-15.44,1.73-5.73.76-11.54,1.26-17.33,1.51a251,251,0,0,1-26-.37c-7.77-.42-15.54-1.23-23.33-1.38a81.66,81.66,0,0,0-13.72.77c-5.59.95-11.06,2.4-16.51,3.81a188.16,188.16,0,0,1-27.42,5.08c-14.84,1.65-29.91.89-44.79-.12-15.94-1-31.89-2.73-47.36-6.26-10.87-2.43-21.68-5.25-32.87-6.43C167.48,19,152.47,19,137.55,18.32c-16-.49-31.8-3.12-47.72-4.3-9.19-.61-18.42-.82-27.6-1.43A245.27,245.27,0,0,0,27,12.5c-7.06.43-19.42.94-26.48,1.21-1.76.07,1.76.14,0,.19V78.77H1965.08Z"/></g></g></svg>