<svg xmlns="http://www.w3.org/2000/svg" viewBox="0 0 1964.64 65.63"><defs><style>.cls-1{fill:#36222e;}</style></defs><g id="Layer_2" data-name="Layer 2"><g id="BG"><path class="cls-1" d="M0,57.45l1964.57,8.18V8h0c-11.69,0-24.13.59-35.81-.09-10.61-.51-21.12-2.32-31.78-2.1-9.81.2-19.71,1.15-29.5.08-9.4-.9-18.41-3.39-27.71-4.75-5.5-.88-11.13-1.5-16.72-.79-7.26,1-14.47,2.45-21.88,2.68-5.2.24-10.42.07-15.63.24a119.82,119.82,0,0,0-12,1.16c-4.83.67-9.73,1.26-14.44,2.36-5.26,1.2-10.34,2.9-15.63,4-6.9,1.52-14,2.41-21,3.65-8.5,1.57-17,3.39-25.63,4.32-15,1.75-30.1,1.64-45.17,1.78-8.51.12-17,.41-25.54.35-8.05-.08-16.08-.53-24.11-.93-4.83-.23-9.68-.34-14.51-.18s-9.46.73-14.16,1.25c-4.89.52-9.8,1.07-14.63,1.88-5,.85-9.93,2-14.84,3.17a245.89,245.89,0,0,1-39.08,6.33c-10.18.82-20.43,1-30.66,1.1-9.12.11-18.26.21-27.38.15a173,173,0,0,0-28.08,1.87q-14.1,2-28.3,3.71C1379,40.57,1367.6,42,1356.12,43c-9.23.77-18.53.94-27.77,1.62A149.58,149.58,0,0,0,1310.1,47c-6.94,1.42-13.71,3.39-20.65,4.84-20.66,4.67-42.38,3.72-63.65,3.25-10.62-.29-21.25-1.29-31.88-1-12,.34-23.86,1.7-35.83,1.9a269.68,269.68,0,0,1-34.81-1.76c-14.52-1.41-29-2.92-43.46-4.92-19.65-2.56-39.52-5.09-59.48-4.13-6.08.19-12.2.35-18.29.16-6.33-.11-12.69-.58-19-.46-11.75.15-23.39,1.94-35.15,2.05-24.28.72-48.16-3.73-71.74-7.8-11.46-2-22.76-4.66-34-7.32-8.39-2-16.89-3.75-25.12-6.12-7.08-2-13.88-4.66-21.22-6-7.67-1.26-15.56-1.31-23.3-2.19A138.22,138.22,0,0,1,745.81,12a166.42,166.42,0,0,0-32.9-7c-7.3-.46-14.65,0-22,0-5.89.08-11.81.14-17.67.69-6,.57-12,1.66-18,2.28a147.81,147.81,0,0,1-19,.86c-4.37,0-8.78-.39-13.14-.13a49.24,49.24,0,0,0-12.07,2.41c-3.72,1.11-7.49,2.19-11.27,3.15-21.82,5.18-45,6.43-67.65,4.73-7.77-.52-15.56-1.62-23.38-1.22-4.49.17-8.94.9-13.39,1.39-5,.62-10,1-15,1.22-7.51.29-15.08.13-22.58-.31-6.74-.34-13.48-1-20.23-1.12a75.16,75.16,0,0,0-11.91.61c-4.85.77-9.59,1.95-14.32,3.09a174.51,174.51,0,0,1-23.78,4.1c-12.88,1.34-25.95.72-38.86-.11-13.83-.85-27.67-2.22-41.09-5.09-9.43-2-18.81-4.27-28.52-5.23-12.86-1.45-25.88-1.46-38.82-2-13.89-.4-27.58-2.54-41.4-3.5-8-.5-16-.68-23.94-1.18a229.46,229.46,0,0,0-30.58-.08c-6.12.35-12.25.76-18.38,1s-12.46.32-18.65.77c-12.86,1.07-25.62,3-38.6,3-11.25.17-22.42-1.46-33.67-1.52C23.35,13,11.68,13.83,0,13.91Z"/></g></g></svg>