<svg xmlns="http://www.w3.org/2000/svg" viewBox="0 0 1964.57 179.65">
  <defs>
    <style>
      .cls-1 {
        opacity: 0.3;
      }

      .cls-2 {
        fill: #ffefe1;
      }

      .cls-3 {
        fill: #36222e;
      }
    </style>
  </defs>
  <g id="Layer_2" data-name="Layer 2">
    <g id="BG">
      <g class="cls-1">
        <path class="cls-2" d="M1138.5,0Z" />
      </g>
      <path class="cls-3"
        d="M0,179.65H1964.57V151.16c-1.91.52-3.84,1-5.79,1.43a183.47,183.47,0,0,1-35.47,3.58c-16.25.29-32.85-1.43-47.69-7.11-5-1.79-9.78-3.88-14.67-5.8s-9.94-3.75-14.81-5.79c-5.58-2.18-11-5.53-17.39-5.57a64.77,64.77,0,0,0-10.32,1.12c-5.12.9-10.15,2.09-15.13,3.4-7.36,2-14.82,3.67-22.36,5.08a155.76,155.76,0,0,1-22.74,2.92c-7.24.3-14.48-.26-21.71-.41-15.88-.34-31.71,2-47.59,1.24-11.52-.45-22.8-2.71-33.81-5.42a144.1,144.1,0,0,1-22.34-7.06,130.45,130.45,0,0,1-16.13-8.69,111.46,111.46,0,0,0-19-9,149.43,149.43,0,0,0-15.75-5.65c-10.53-2.85-21.51-4.51-32-7.52-8.77-2.41-16.86-6.62-26.06-7.91-6.57-.88-13.29-.37-19.92-.8-8-.45-16-1.75-24-2.74-9.81-1.21-19.75-1.57-29.57-2.7a102.29,102.29,0,0,1-19-4.29c-13.9-4.57-25.33-12.68-37.71-19.39-4.7-2.54-9.46-5-14.34-7.32-4.31-2-8.78-3.89-12.94-6.14-5.53-2.91-9.91-7.14-15.68-9.73-5.6-2.26-11.84-3.07-17.83-4.33-3.31-.6-6.61-1.48-10-1.46a15.9,15.9,0,0,0-5.65,1.63c-5,2.41-9.94,5-15.53,6.46-5.28,1.31-10.85,1.71-16,3.31-4.65,1.5-9.19,3.27-14,4.51-5.67,1.51-11.56,2.5-17.12,4.27s-10.62,4.21-16,6.23c-8.36,3-16.32,6.7-24.66,9.73-7.86,2.82-16.07,5-23.85,7.92-8.55,3.21-16.67,7.16-25.16,10.47-9,3.75-18.74,6.09-28.56,7.9-8.69,1.55-16.61,5-24.45,8.28-8.75,3.6-17.58,7.13-26.65,10.14a213.16,213.16,0,0,1-26.57,7.21,172.88,172.88,0,0,1-21.36,2.34c-8.56.49-17.16.91-25.74.69-7.18-.12-14.36-1-21.55-.72-5.79.23-11.47,1.4-17.15,2.25A91,91,0,0,1,957.12,129a93,93,0,0,1-33-7.43c-3.82-1.54-7.54-3.31-11.28-5a34,34,0,0,0-9.95-3,33.42,33.42,0,0,0-8.47.89c-3.07.64-6.15,1.33-9.25,1.88a96.56,96.56,0,0,1-16.31,1c-9.88-.13-19.64,1.7-29,4.2-5.16,1.44-10.13,3.32-15.14,5.08a94,94,0,0,1-19,4.53c-5.43.78-11,1.14-16.43,1.73a55,55,0,0,0-12,2.26,36.89,36.89,0,0,0-8.24,4.18c-2.44,1.59-5,3.11-7.54,4.57a71.45,71.45,0,0,1-18.5,6.66c-7.12,1.61-14.51,2.27-21.73,3.54a214.68,214.68,0,0,0-26.31,6.53c-8.89,3-17.27,7-26.47,9.31a123.25,123.25,0,0,1-25.05,3.4c-6.7.36-13.45.55-20.17.5-16.68,0-33.16-2.64-49.21-6.22-8.9-2-17.95-3.7-26.62-6.31a93.58,93.58,0,0,1-20.93-9c-5.15-2.88-9.92-6.23-15.12-9a128.26,128.26,0,0,0-13.9-6.42c-8.1-3.25-15.92-7-23.65-10.77-7.28-3.49-14.62-7.11-22.77-9-5-1.23-10.09-2.06-15.06-3.29-5.66-1.34-11.22-3-17-4.07-7-1.37-14.15-2.2-21.08-3.77A178.85,178.85,0,0,1,377,99.71a357.75,357.75,0,0,1-35.26-14.18c-2.76-1.29-5.53-2.59-8.41-3.7a25.3,25.3,0,0,0-4.34-1.2l-.25,0-.24,0-.24,0c-.39-.06-1,0-1.37,0l-1.13,0c-.38,0-.89.16-1.28.24s-.76.15-1.06.22c-.53.22-1.12.5-1.65.73a26.8,26.8,0,0,0-4.73,3.26,71.67,71.67,0,0,1-8.92,6.45,49.82,49.82,0,0,1-14.59,5.74c-7.4,1.59-15,2.45-22.33,4.33-10.83,2.64-21.43,5.9-32.4,8.13-8.59,1.85-17,4.36-25.72,5.61a79.71,79.71,0,0,1-26.6-.37,114.89,114.89,0,0,1-33.27-11.86c-6.13-3.16-11.76-6.93-17.88-10.09a52.68,52.68,0,0,0-11.15-4.18,28.94,28.94,0,0,0-8-.57c-6.56.34-12.86,2.21-19,4a136.83,136.83,0,0,1-14.59,3.41c-5.36,1-10.8,1.58-16.18,2.44-6.9,1.14-13.79,2.29-20.6,3.75-3.7.81-7.34,1.8-11,2.69-2.36.57-32.4,1.09-34.79,1.6Z" />
    </g>
  </g>
</svg>