<svg xmlns="http://www.w3.org/2000/svg" viewBox="0 0 1964.57 85.94"><defs><style>.cls-1{fill:#191017;}</style></defs><g id="Layer_2" data-name="Layer 2"><g id="BG"><path class="cls-1" d="M1964.57,16.58c-7.44.38-14.88.92-22.28,1.81-14.28,1.51-28.07,5.11-42,8.21-19.74,4.51-40.1,6.66-60.45,8-19,1.29-38.23,2.26-57.17.15a241.68,241.68,0,0,1-35-6.48c-7-1.8-13.94-3.65-21.07-4.86a103.55,103.55,0,0,0-17.52-1c-9.94.18-19.85,1.22-29.77,1.76a320,320,0,0,1-33.21.47c-7.39-.33-14.81-.95-22.12-1.93-6.54-.78-13.09-1.93-19.7-2.2-11.5-.64-23,1.1-34.4,1.9-33.35,2.67-67.42.69-99.53-7.48-5.57-1.52-11.12-3.22-16.6-5-5.7-1.83-11.61-3.54-17.74-3.8-6.43-.41-12.92.15-19.35.19A204.13,204.13,0,0,1,1388.84,5c-8.89-1-17.67-2.7-26.57-3.6-8.61-.87-17.32-1-26-1.1-10.76,0-21.57-.7-32.31,0a231,231,0,0,0-48.41,11,191.33,191.33,0,0,1-39.23,8.71c-11.39,1.39-23,1.46-34.28,3.44-10.8,2.09-20.8,6.32-31.22,9.41-12.1,3.74-24.61,6.52-37,9.62-16.55,4.19-33.18,8.29-50,11.51-34.7,6.4-69.83,13.39-105.54,12.23-17.3-.17-34.43-3-51.72-3.25-9.32-.19-18.67.55-28,.72-9,.29-18,0-26.92-.26-29.37-1.54-58.6,2.45-87.51,6.46-21.21,3.14-42.58,5.5-63.94,7.71-17,1.88-34.09,3.24-51.21,2.76-17.61-.33-35.12-2.47-52.71-3-15.66-.5-31.28,1.07-46.92,1.52-31.29.72-63.24,2.22-93.65-5.15-10.2-2.29-20.16-5.39-30.38-7.63a204.17,204.17,0,0,0-26.85-3.81c-13.59-1.08-27.29-1.35-40.86-2.58C340.75,58.25,324,56,307.17,53.83Q286.29,51.24,265.53,48a237.6,237.6,0,0,0-41.31-3c-13.42.09-26.87-.06-40.29-.24-15-.2-30.13-.47-45.1-1.76A339.75,339.75,0,0,1,81.32,33c-7.23-1.8-14.47-3.67-21.84-5-7.1-1.29-14.33-2.14-21.52-3-6.92-.82-13.86-1.59-20.83-2C11.42,22.87,5.71,23,0,23.17V85.94H1964.57Z"/></g></g></svg>