<svg xmlns="http://www.w3.org/2000/svg" viewBox="0 0 1964.57 142.69">
  <defs>
    <style>
      .cls-1 {
        opacity: 0.3;
      }

      .cls-2 {
        fill: #ffefe1;
      }

      .cls-3 {
        fill: #323441;
      }
    </style>
  </defs>
  <g id="Layer_2" data-name="Layer 2">
    <g id="BG">
      <g class="cls-1">
        <path class="cls-2" d="M1138.5,0Z" />
      </g>
      <path class="cls-3"
        d="M0,142.69H1964.57V65.91a58.3,58.3,0,0,1-7.49,3.36,128.73,128.73,0,0,1-14.4,4,106.31,106.31,0,0,1-17.6,2.83c-7.68.48-15.36-.25-23-.22-4.71,0-9.41.37-14.12.62-4.07.21-8.15.26-12.22.53a82.08,82.08,0,0,0-13.93,2.73c-4.84,1.27-9.69,2.54-14.6,3.47a132.2,132.2,0,0,1-20.7,2.3c-6.94.24-13.91.15-20.83.84-5.81.54-11.5,1.92-17.25,2.93a86.47,86.47,0,0,1-17.22,1.25c-5.05,0-10.12-.5-15.16,0s-9.72,3-14.44,4.91a188.77,188.77,0,0,1-23.37,8.19,76.09,76.09,0,0,1-19.9,2.45c-8.47,0-16.72-2.17-25.13-2.81-7.7-.4-15.42.52-23.13.25-8.44-.19-16.92.13-25.32-.75-7.64-.7-15.17-2.65-22.86-2.63-7.08,0-14.25.72-21.28-.49-6.75-1-13.18-3.62-19.84-5.11-4-1-8-1.67-12-1.08-5.27.83-10.51,2.08-15.86,2.17-3.76.13-7.52-.14-11.28-.08a68.45,68.45,0,0,0-8.68.89,93.13,93.13,0,0,0-10.48,2c-3.83,1.06-7.55,2.6-11.39,3.6-5,1.33-10.16,2-15.23,3.12-6.18,1.35-12.34,3-18.62,3.68-10.82,1.4-21.75,1-32.62.85-6.14,0-12.3.08-18.44-.14-5.79-.23-11.58-.82-17.35-1.36a99,99,0,0,0-10.47-.45c-3.42.14-6.84.53-10.24.93s-7.1.85-10.61,1.54-7.22,1.77-10.79,2.78a136.25,136.25,0,0,1-28.38,5.35c-7.36.6-14.76.57-22.14.49-6.58-.07-13.17-.16-19.75-.39a94.59,94.59,0,0,0-20.3,1.27q-10.23,1.71-20.52,3c-8.27,1.07-16.54,2.27-24.85,3-6.68.57-13.39.56-20.07,1a81.2,81.2,0,0,0-13.24,2c-5.05,1.24-10,3-15,4.28-15,4.11-30.67,2.77-46,1.92-7.65-.49-15.29-1.65-23-1.56-8.63.11-17.25,1.19-25.89,1.16a146.33,146.33,0,0,1-25-2.37c-10.44-1.64-20.86-3.37-31.2-5.57-14.1-2.84-28.36-5.67-42.78-5.12-4.39.07-8.82.1-13.2-.19-4.56-.23-9.13-.81-13.7-.82-8.48-.08-16.93,1.43-25.42,1.31-17.52.23-34.62-4.51-51.51-8.89-8.2-2.2-16.28-4.93-24.32-7.72-6-2.06-12.07-3.93-17.94-6.38-5-2-9.87-4.76-15.13-6.18-5.5-1.36-11.18-1.56-16.74-2.56a77.93,77.93,0,0,1-19.07-5.86,94.37,94.37,0,0,0-23.53-7.4c-5.25-.59-10.56-.28-15.84-.44a118.12,118.12,0,0,0-12.76.33c-4.38.44-8.71,1.37-13.09,1.85a79.18,79.18,0,0,1-13.68.47c-3.16-.11-6.33-.54-9.48-.37a27.89,27.89,0,0,0-8.77,2.09c-2.72,1-5.47,2-8.23,2.83-15.88,4.58-32.62,5.34-48.92,3.26C611.55,86.2,606,85,600.31,85.22c-3.24.08-6.47.7-9.7,1.09a98.92,98.92,0,0,1-10.87.89,126.47,126.47,0,0,1-16.28-.72c-4.85-.47-9.69-1.23-14.56-1.48a41.26,41.26,0,0,0-8.6.37,104.86,104.86,0,0,0-10.42,2.7,97.42,97.42,0,0,1-17.27,3.51c-9.33,1-18.74.2-28-.85A152.22,152.22,0,0,1,455.1,85c-6.74-2.08-13.44-4.47-20.41-5.58-9.24-1.65-18.63-1.91-27.95-2.65-10-.66-19.82-3-29.75-4.17-5.73-.64-11.51-1-17.24-1.59a123,123,0,0,0-22-.67c-4.43.22-8.86.5-13.29.59s-9,.07-13.48.39c-9.3.78-18.56,2.41-27.92,2.12-8.12,0-16.13-1.83-24.24-2.11-11.34.07-22.71,1.1-34,0-7.84-.62-15.48-2.84-23.21-4.25-6.23-1-12.56-1.23-18.85-1.81a130.18,130.18,0,0,1-20.06-3.42c-5-1.21-9.9-2.76-15-3.56-5.58-.89-11.26-1.12-16.88-1.62s-11.44-1-17.17-.9a93.09,93.09,0,0,0-12.42,1.67c-10,1.92-20.08,2.74-30.09,4.37-7.27,1.24-14.53,2.7-21.88,3.25a151.3,151.3,0,0,1-29.33-.49A200.44,200.44,0,0,1,0,61.19Z" />
    </g>
  </g>
</svg>