<svg xmlns="http://www.w3.org/2000/svg" viewBox="0 0 1964.57 38.42"><defs><style>.cls-1{fill:#323441;}</style></defs><g id="Layer_2" data-name="Layer 2"><g id="BG"><path class="cls-1" d="M1964.57,38.42,0,28.41V.62C3.49.35,7,.12,10.55,0c7.07-.11,14.14.12,21.2.29s14,.25,20.9.64c6.27.36,12.4,1.09,18.59,1.65,8.2.77,16.53,1.28,24.88,1.52,7.77.23,15.59.27,23.32.73,9.59.63,19.09,1.67,28.79,1.9,14,.44,28-.19,42-.34,10,.06,19.95.88,30,.83,11.54,0,22.9-.86,34.34-1.35,5.52-.2,11.07-.22,16.6-.32s10.92-.28,16.37-.43c9.05-.29,18.15-.25,27.21.12,7.09.26,14.22.37,21.32.63,12.3.5,24.5,1.57,36.86,1.8C384.41,8,396,8,407.45,8.76c8.64.49,17,1.63,25.4,2.61C444.8,12.8,457.13,13.5,469.44,14c11.49.43,23.13.77,34.59.15,7.18-.34,14.24-1.07,21.16-1.93,4.2-.55,8.43-1.1,12.74-1.47,3.49-.23,7.06-.33,10.6-.26,6,.07,12,.41,18,.59,6.68.24,13.41.33,20.1.21,4.47-.09,9-.27,13.37-.55,4-.23,7.92-.58,11.92-.65,7-.17,13.9.38,20.82.65A359,359,0,0,0,693,8.57c3.37-.46,6.72-1,10-1.5a75.48,75.48,0,0,1,10.73-1.14c3.89-.12,7.82.07,11.71.09,5.63.08,11.29,0,16.86-.37,5.37-.29,10.68-.8,16.06-1.06,5.21-.25,10.48-.27,15.73-.29,6.51,0,13-.18,19.55.07a257.85,257.85,0,0,1,29.31,3.49,218.6,218.6,0,0,0,23.75,2.76c6.89.45,13.91.49,20.74,1.12,6.54.67,12.6,2,18.91,3,7.33,1.18,14.9,2.06,22.38,3,10,1.33,20.09,2.62,30.3,3.65,21,2,42.27,4.25,63.87,4,10.47,0,20.83-.86,31.29-.9,5.64,0,11.29.2,16.93.27,5.42.1,10.87.05,16.29,0,17.76-.42,35.45.86,52.95,2.15,12.84,1,25.77,1.78,38.7,2.5,10.27.61,20.63,1.06,31,.94,10.65-.07,21.24-.69,31.88-.83,9.47-.13,18.93.39,28.39.55,18.93.28,38.27.8,56.65-1.41,6.17-.69,12.19-1.63,18.37-2.3,5.32-.56,10.77-.93,16.24-1.12,8.22-.31,16.5-.37,24.71-.72,10.22-.43,20.37-1.11,30.53-1.73,8.41-.51,16.82-1.09,25.18-1.73s16.6-.94,25-.84c8.12.05,16.25,0,24.37,0,9.1,0,18.23-.09,27.29-.46,11.81-.44,23.44-1.53,34.77-3,4.37-.54,8.75-1.11,13.21-1.51,4.29-.38,8.66-.63,13-.87,4.18-.24,8.39-.47,12.6-.57s8.62,0,12.92.12c7.15.21,14.3.45,21.46.51,7.58,0,15.17-.07,22.74-.1,13.42,0,26.91.06,40.2-.76,7.71-.42,15.25-1.29,22.81-2,6.21-.58,12.52-1,18.65-1.72,4.71-.54,9.23-1.35,13.91-1.92,4.19-.52,8.55-.79,12.85-1.11,3.53-.25,7.08-.48,10.67-.53,4.63-.07,9.28,0,13.91-.08,6.59-.09,13-.77,19.47-1.24a94.77,94.77,0,0,1,14.89.42c8.28.68,16.3,1.92,24.68,2.37,8.71.55,17.52.11,26.26,0,9.48-.08,18.85.83,28.28,1.1,10.41.36,20.85.12,31.27.13,9.51.06,19-.48,28.51-.35s19.2,1.09,28.87,1.15Z"/></g></g></svg>