<svg xmlns="http://www.w3.org/2000/svg" viewBox="0 0 1964.57 38.42"><defs><style>.cls-1{fill:#191017;}</style></defs><g id="Layer_2" data-name="Layer 2"><g id="BG"><path class="cls-1" d="M0,38.42l1964.57-10V.62c-3.49-.27-7-.5-10.55-.59-7.06-.11-14.14.12-21.2.29s-14,.25-20.89.64c-6.28.36-12.41,1.09-18.6,1.65-8.19.77-16.52,1.28-24.88,1.52-7.77.23-15.58.27-23.31.73-9.59.63-19.09,1.67-28.8,1.9-14,.44-28-.19-42-.34-10,.06-20,.88-30,.83-11.55,0-22.91-.86-34.35-1.35-5.51-.2-11.07-.22-16.6-.32s-10.92-.28-16.36-.43c-9-.29-18.16-.25-27.22.12-7.09.26-14.22.37-21.31.63-12.31.5-24.5,1.57-36.86,1.8-11.53.29-23.12.32-34.57,1.06-8.64.49-17,1.63-25.39,2.61-12,1.43-24.28,2.13-36.59,2.58-11.5.43-23.14.77-34.59.15-7.19-.34-14.25-1.07-21.16-1.93-4.21-.55-8.43-1.1-12.75-1.47-3.49-.23-7.06-.33-10.59-.26-6,.07-12,.41-18,.59-6.68.24-13.41.33-20.09.21-4.47-.09-9-.27-13.38-.55-4-.23-7.92-.58-11.92-.65-7-.17-13.89.38-20.81.65a359.1,359.1,0,0,1-60.21-2.12c-3.37-.46-6.72-1-10-1.5a75.33,75.33,0,0,0-10.73-1.14c-3.88-.12-7.81.07-11.7.09-5.63.08-11.29,0-16.86-.37-5.38-.29-10.69-.8-16.07-1.06-5.21-.25-10.48-.27-15.72-.29-6.52,0-13-.18-19.55.07a257.85,257.85,0,0,0-29.31,3.49,219.18,219.18,0,0,1-23.75,2.76c-6.89.45-13.91.49-20.75,1.12-6.54.67-12.59,2-18.9,3-7.33,1.18-14.91,2.06-22.38,3-10,1.33-20.09,2.62-30.3,3.65-21,2-42.27,4.25-63.88,4-10.47,0-20.82-.86-31.28-.9-5.64,0-11.3.2-16.93.27-5.42.1-10.88.05-16.29,0-17.76-.42-35.46.86-53,2.15-12.83,1-25.77,1.78-38.7,2.5-10.27.61-20.63,1.06-31,.94-10.66-.07-21.24-.69-31.89-.83-9.47-.13-18.93.39-28.39.55-18.93.28-38.27.8-56.65-1.41-6.16-.69-12.19-1.63-18.36-2.3-5.33-.56-10.77-.93-16.25-1.12-8.21-.31-16.5-.37-24.71-.72-10.21-.43-20.37-1.11-30.52-1.73q-12.63-.77-25.19-1.73c-8.23-.65-16.6-.94-25-.84-8.13.05-16.26,0-24.38,0-9.1,0-18.23-.09-27.29-.46-11.81-.44-23.44-1.53-34.77-3-4.37-.54-8.75-1.11-13.2-1.51s-8.67-.63-13-.87c-4.18-.24-8.38-.47-12.6-.57s-8.62,0-12.92.12c-7.14.21-14.3.45-21.46.51-7.58,0-15.16-.07-22.73-.1-13.42,0-26.91.06-40.21-.76-7.71-.42-15.25-1.29-22.8-2-6.21-.58-12.52-1-18.66-1.72-4.7-.54-9.23-1.35-13.9-1.92-4.2-.52-8.55-.79-12.85-1.11-3.53-.25-7.09-.48-10.67-.53-4.64-.07-9.29,0-13.92-.08-6.59-.09-13-.77-19.47-1.24a94.77,94.77,0,0,0-14.89.42c-8.28.68-16.3,1.92-24.67,2.37-8.72.55-17.53.11-26.26,0-9.48-.08-18.85.83-28.29,1.1C78.25,9.19,67.8,9,57.39,9c-9.52.06-19-.48-28.51-.35S9.68,9.7,0,9.76Z"/></g></g></svg>