<svg xmlns="http://www.w3.org/2000/svg" viewBox="0 0 706.97 625.32"><defs><style>.cls-1{fill:#191017;stroke:#191017;stroke-miterlimit:10;stroke-width:4.48px;}</style></defs><g id="Layer_2" data-name="Layer 2"><g id="BG"><path class="cls-1" d="M2.42,2.57S5.06,41.1,30.74,51c0,0,3.3,29.31,21.74,29.31H178.61V95.12a17.54,17.54,0,0,0-15.81,17.45H44.25l7.9,25.69H178.61V623.08H209c0-7,.08-405.93.12-412.69.15-23.73.57-45.87.79-64.85s.71-34.8.91-45.87.48-17.4.48-17.4.17,6.33.48,17.4.69,26.89.91,45.87.64,41.12.78,64.85c0,6.76.08,405.71.12,412.69h5.49V138.26H487.66V623.08H518c0-6.75.08-405.47.12-412,.15-23.85.56-46.11.78-65.19s.71-35,.91-46.11.48-17.49.48-17.49.17,6.36.48,17.49.68,27,.9,46.11.63,41.34.79,65.19c0,6.55.07,405.27.11,412h5.64V138.26H654.82l7.9-25.69H544.16a17.52,17.52,0,0,0-16-17.46V80.29H654.49c18.44,0,21.73-29.31,21.73-29.31,25.69-9.88,28.33-48.41,28.33-48.41C582.7,18.38,353.48,15.75,353.48,15.75S124.27,18.38,2.42,2.57ZM528.17,119.48H650l-2.46,8.62-119.35-2.53Zm0-22s.34,0,.92.14a12,12,0,0,1,2.39.59,16.22,16.22,0,0,1,1.56.59c.52.27,1.08.56,1.65.88s1.09.75,1.64,1.17,1,.94,1.51,1.44a18.36,18.36,0,0,1,1.28,1.66,10.72,10.72,0,0,1,1,1.77,11.24,11.24,0,0,1,.68,1.75,11.47,11.47,0,0,1,.37,1.64,8.85,8.85,0,0,1,0,3.42,20.14,20.14,0,0,0-1-3.11,20.5,20.5,0,0,0-1.49-2.89,15.62,15.62,0,0,0-1-1.48,17.67,17.67,0,0,0-1.18-1.44c-.42-.45-.86-.89-1.31-1.32s-.92-.81-1.38-1.18-.94-.69-1.38-1-.91-.58-1.31-.85c-.8-.57-1.55-.92-2-1.24ZM365.07,23.35c116.08-1,262.12-4,331.09-12.55a46,46,0,0,1-10.78,19.58ZM281.4,53H668.14a10.93,10.93,0,0,1-2.8,5.6c-2.67,2.79-7,4.2-12.74,4.2ZM487.66,80.29V95.14A17.54,17.54,0,0,0,472,112.57H377.36V80.29ZM240.09,119.48H487.66v5.24Zm-21-22s.33,0,.92.14a12.16,12.16,0,0,1,2.39.59,16.08,16.08,0,0,1,1.55.59c.53.27,1.09.56,1.65.88s1.1.75,1.64,1.17,1,.94,1.52,1.44a18.36,18.36,0,0,1,1.28,1.66,11.51,11.51,0,0,1,1,1.77,12.34,12.34,0,0,1,.68,1.75,11.37,11.37,0,0,1,.36,1.64,8.75,8.75,0,0,1,0,3.42,21,21,0,0,0-1.06-3.11,19.37,19.37,0,0,0-1.48-2.89,15.62,15.62,0,0,0-1-1.48,17.67,17.67,0,0,0-1.18-1.44c-.43-.45-.87-.89-1.31-1.32s-.92-.81-1.38-1.18-.95-.69-1.39-1l-1.31-.85c-.8-.57-1.54-.92-2-1.24Zm0-17.23H329.61v32.28H234.93a17.54,17.54,0,0,0-15.81-17.45Z"/></g></g></svg>