<svg xmlns="http://www.w3.org/2000/svg" viewBox="0 0 54.34 48.16"><defs><style>.cls-1{fill:#323441;stroke:#323441;stroke-miterlimit:10;stroke-width:1.15px;}</style></defs><g id="Layer_2" data-name="Layer 2"><g id="BG"><path class="cls-1" d="M27.17,1.66S9.84,1.86.62.66c0,0,.2,2.92,2.14,3.66,0,0,.25,2.22,1.65,2.22H14V7.66A1.33,1.33,0,0,0,12.75,9h-9l.59,1.94H14V47.59h.43c0-.51,0-30.67,0-31.16,0-1.8,0-3.49.06-4.93s0-2.65.06-3.49l0-1.32L14.6,8c0,.84.05,2.05.07,3.49s0,3.13.05,4.93c0,.49,0,30.65,0,31.16H17V10.92H37.33V47.59h.42c0-.53,0-30.7,0-31.21,0-1.8,0-3.47.06-4.91s0-2.63.07-3.47l0-1.31L38,8c0,.84,0,2,.07,3.47s0,3.11.06,4.91c0,.51,0,30.68,0,31.21h2.3V10.92H50L50.56,9h-9A1.32,1.32,0,0,0,40.4,7.66V6.54h9.54c1.39,0,1.64-2.22,1.64-2.22C53.52,3.58,53.72.66,53.72.66,44.51,1.86,27.17,1.66,27.17,1.66ZM14,10l-9,.19L4.75,9.5H14ZM13.9,7.88,13.75,8l-.1.07-.11.08-.1.09a.94.94,0,0,0-.1.1l-.09.1-.08.12-.11.21A1.35,1.35,0,0,0,13,9a.6.6,0,0,1,0-.26.53.53,0,0,1,0-.12.48.48,0,0,1,.05-.14.83.83,0,0,1,.07-.13l.1-.12.11-.11L13.47,8l.12-.07.12,0a1,1,0,0,1,.18-.05H14ZM2.07,2.76a3.37,3.37,0,0,1-.81-1.48c5.21.65,16.26.88,25,1ZM4.55,5.21a1.27,1.27,0,0,1-1-.31.81.81,0,0,1-.21-.43H32.62ZM25.37,6.54V9H18.21A1.33,1.33,0,0,0,17,7.66V6.54ZM17,9.9V9.5H35.75Zm20.25-2a1.46,1.46,0,0,1-.15.09L37,8l-.1.08a.87.87,0,0,0-.11.09l-.1.1-.09.1-.07.12a1.57,1.57,0,0,0-.12.21L36.35,9a.89.89,0,0,1,0-.26l0-.12a1.21,1.21,0,0,1,0-.14l.08-.13a.94.94,0,0,1,.09-.12l.12-.11L36.84,8,37,7.94l.11,0a1,1,0,0,1,.18-.05h.07Zm.06-.22A1.32,1.32,0,0,0,36.14,9H29V6.54h8.35Z"/></g></g></svg>