<svg xmlns="http://www.w3.org/2000/svg" viewBox="0 0 485.3 514.98"><defs><style>.cls-1{isolation:isolate;}.cls-2{opacity:0.5;}.cls-3{mix-blend-mode:color-dodge;}.cls-4{fill:#fff;}</style></defs><g class="cls-1"><g id="Layer_2" data-name="Layer 2"><g id="BG"><g class="cls-2"><g class="cls-3"><path class="cls-4" d="M169.41,78.76c4-.55-18.64-4.3-35.84,12.9s-14.33,31.06-14.33,31.06S99.88,131.08,93,138s-5,15.53,0,10.51,18.64-13.85,18.64-13.85-13.38,15.76-10,19.11,21.69-32,27.37-37.72C128.93,116.06,141.22,82.58,169.41,78.76Z"/><path class="cls-4" d="M158.42,195.83s-22,19.59-22,33.93V268c0,18.16,25.8,10,22-3.35s-20.07-10.51-15.77-20.54,10.51,8.62,10.51-6.92S142.17,233.58,158.42,195.83Z"/><path class="cls-4" d="M383,161.9c.85,1.85,14.82,20.07,28.2,23.42s3.34,6.69,17.68,14.33,16.25,6.69,12.42,26.76,9.56,51,9.56,51-3.82-23.33,0-45.79,6.21-39.18,0-39.18-.24-23.66-7.17-30.59-15.75-6.06-21.81,0S411.45,156.41,404,149,374.89,144.22,383,161.9Z"/><path class="cls-4" d="M440.36,303.35a98.71,98.71,0,0,1-9.08,33.45c-8.13,16.72-29.83,25.79-21.51,28.77,2.47.89-2.86-7.27,13.38-12.05s17.21-9.07,17.21-16.24,7.16,0,9.55-13.86S451.35,298.09,440.36,303.35Z"/><path class="cls-4" d="M72.07,185.54a206.21,206.21,0,0,1,12.6-16.63C80.71,168.91,76.28,175.93,72.07,185.54Z"/><path class="cls-4" d="M395,209.05c-5.42,5.42,3.19,18.48,3.19,18.48S385.72,210.65,379,204c0,0,10.2-6.37,7-9.55,0,0,21,5.73,15.29,0s-29.94-32.5-52.24-30c0,0,14.65-21.66-15.93-29.31,0,0,27.39-17.2,37.59,0,0,0-6.37-24.85-61.8-17.84-50.56,6.39-55,23.38-55.4,26.32.06-1.79-1-8.48-19.16-8.48-21,0-15.92,19.75-15.92,19.75s-13.06-.95-22.94,8.92S193,195.67,193,195.67s-10.52-.95-25.49,14,7.65,57.34,24.85,62.44c14.08,4.17,23.47,1.09,26.41-.17h.54c-1.67,1.9-7,9.33,2.36,18.65,10.83,10.83,40.77,10.19,40.77,10.19s-10.19,19.75-36.31,6.37c0,0,.63,9.56,15.29,15.29s50.33-7.64,50.33-7.64,7,17.2,26.76,8.28,23.58-38.23.64-38.23c0,0,10.51-11.15-3.82-25.48s-26.13-9.56-26.13-9.56,1.28-5.1-10.19-8.28-16.57-3.19-16.57-3.19-7-13.38,7-17.84,20.39,9.56,20.39,9.56,8.92-14-2.55-19.75c-8.83-4.42-18.39-5.43-22.33-5.66,3.25-.15,9.59-1.76,9.59-12.18,0,0,48.74,12.42,59.25,1.91s37.6,10.19,51,35.68,11.15,34.09,1.91,43.32,0,23.58,3.18,26.76-8.28,26.76-8.28,26.76v14s-7.17,23.57-13.86,26c0,0,4.78-17.21-1.91-17.21,0,0,5.73-19.11,5.73-23.89s1.92-11,4.78-20.55.48-26.28-2.39-33-7.64-35.36-21.5-35.36-11,9.08-6.69,18.63S351,267.51,351,267.51s1.43-6.21,9.08,1.43,2.39,33-1.92,41.1,8.61-1,8.61,3.82-1,28.2-14.82,34.89-12.9-.48-20.55-.48-.47,11-14.81,18.16S286,364,286,373.12s25.32.95,20.55,11.94-44.68,25.57-55.43,14.82c0,0-27.24,1.43-33.46-4.78s-6.69-11-6.69-11-18.39,5.49-25.32-1.44-3.83-10-3.83-10-22,3.82-37.27-16.73-10-24.37-10-24.37-16.25,12.91-20.55-2.39,4.78-2.86,4.78-19.59-34.89-47.31-30.11-82.19,27.24-62.12,27.24-62.12S89.61,190.1,82.44,216.86s5.74,54.95,14.34,67.85,18.63,21.51,13.85,26.28-25.32-11.46-29.14-23.41-7.65-44-7.65-44L71.93,274.2s-10-1.43-10-18.64-7.17-15.77-7.17-15.77,8.16-33.3,17.35-54.25c-12.95,18.86-30.35,50.23-23.72,75.12,10.2,38.23,27.4,42.69,27.4,42.69S85.94,332,104.42,350.5a345.49,345.49,0,0,0,37,31.86A59.42,59.42,0,0,1,121,377.9c-10.83-4.46-19.75-17.84-19.75-17.84s-3.19,18.47,10.83,25.48,33.77,13.38,33.77,13.38-5.74,6.37,8.28,20.39,35-2.55,35-2.55,11.47,8.18,37.59,8.18h41.42s-5.1,11.57-29.31,11.57c0,0,36.32,7,56.71-3.18a204.93,204.93,0,0,0,33.13-20.39s1.91,3.18,13.38,7S395,400.83,402.61,384.9s-11.47-15.29-19.76.64S358,404,358,404s17.52-11.79,13.38-15.93-24.85,7.65-24.85,7.65,24.21-15.93,28.67-25.49c.9-1.92,1.57-3.58,2.14-5.1,1.12,1.31,3.8,1.87,9.33.64,17.2-3.82,17.69-52.88,17.69-52.88s1.42,8.28,8.43,1.27-6.37-63.71-6.37-63.71,8.92,24.21,14.65,18.47S400.38,203.64,395,209.05Zm-91.75,55.59c9.56,9.56-4.78,25.81-4.78,25.81s8.07,3.13,8.07,11.6-16.19,8.25-18.58,0c0,0,10,4.43,10,0s-6.73-6.35-6.73-6.35,10.55-9.25,7.68-18.24c0,0-7.68,6.3-7.68-1.83s-11-18.15-15.26-18.15C276,257.48,293.65,255.09,303.21,264.64Zm6.69-98.44c-8.6-8.6,1.91-12.2,1.91-12.2s-37.27,11.25-27.23-3.57,32-10.51,32-10.51c-16.56,4.78,1,9.56,1,9.56s-5.74,4.52-2.39,12.9,21.5,3.82,21.5,3.82S318.5,174.81,309.9,166.2ZM166.07,394.14a52.08,52.08,0,0,1-22.94-22.94c4.78,11.95,32,17.69,35.84,17.69,14.82,0,26.76,17.68,26.76,17.68S182.79,402.74,166.07,394.14Z"/><path class="cls-4" d="M270.14,449.65s13.38.47,23.9-2.39S296.9,466.85,270.14,449.65Z"/><path class="cls-4" d="M458.42,278.52s-7.65,12,0,15.34S469.89,275.6,458.42,278.52Z"/><path class="cls-4" d="M153.07,292s-4.3,10.1,9.56,10.1S162.63,287.17,153.07,292Z"/><path class="cls-4" d="M147.62,108s26-4.78,38.42-27.24,48.35-20.07,48.35-20.07S203.24,58.61,193.69,78s-51.61,44.19-51.61,38A8.65,8.65,0,0,1,147.62,108Z"/><path class="cls-4" d="M265.13,294.1s-16.25,4.54-29.39-3.09-3.11-22-3.11-22A31.08,31.08,0,0,1,219.3,272c-1.65,1.88-7,9.31,2.36,18.65,10.83,10.83,40.77,10.19,40.77,10.19C268.42,298.34,265.13,294.1,265.13,294.1Z"/><path class="cls-4" d="M187.24,258.26c-6.46-10,1-23.89,1-23.89s-.05,9.8,10.94,23.18,26.16,1.07,22.94-2.15-13.86-7.65-18.64-15.29-.48-17.93-.48-17.93-13.85,4.07-7.64-8.36,29.39-14.09,29.39-14.09-16.49-5-10.52-22.5,17.92-13.58,17.92-13.58-4.54-14.58,2.24-18.53,19.16-1.5,19.16-1.5c.06-1.79-1-8.48-19.16-8.48-21,0-15.92,19.75-15.92,19.75s-13.06-.95-22.94,8.92S193,195.67,193,195.67s-10.52-.95-25.49,14,7.65,57.34,24.85,62.44c14.1,4.18,23.48,1.08,26.41-.17C205.65,272,191.94,265.58,187.24,258.26Z"/><path class="cls-4" d="M365,312.4a2.34,2.34,0,0,1,1.11.23c-.15-.37-.27-.72-.42-1.08Z"/><path class="cls-4" d="M260.11,409c10.51,0,55.43-6.21,61.64-18.16s-5.49-7.88,0-13.38,14.58,3.11,21.51-3.82S363.8,355,353.77,355c-9.75,0,23.8-10.38,13-40.79,0,5.45-1.25,28-14.81,34.51-13.86,6.69-12.9-.48-20.55-.48s-.47,11-14.81,18.16S286,364,286,373.12s25.32.95,20.55,11.94-44.68,25.57-55.43,14.82C251.13,399.88,254.85,409,260.11,409Z"/></g><g class="cls-3"><path class="cls-4" d="M463,150.67c.67,4.94,5.28-22.92-15.83-44.08S409.09,89,409.09,89s-10.26-23.8-18.76-32.32-19.05-6.17-12.89,0,17,22.92,17,22.92S375.09,63.11,371,67.22s39.3,26.68,46.27,33.66C417.26,100.88,458.33,116,463,150.67Z"/><path class="cls-4" d="M319.4,137.15s-24-27-41.62-27h-46.9c-22.27,0-12.31,31.73,4.11,27s12.89-24.68,25.2-19.39-10.57,12.93,8.49,12.93S273.09,117.17,319.4,137.15Z"/><path class="cls-4" d="M361,413.35c-2.26,1-24.62,18.21-28.72,34.67s-8.21,4.11-17.59,21.74-8.21,20-32.83,15.28-62.62,11.75-62.62,11.75,28.62-4.7,56.18,0,48.06,7.64,48.06,0,29-.29,37.52-8.81,7.43-19.37,0-26.82,6.74-12.85,15.83-22S382.71,403.36,361,413.35Z"/><path class="cls-4" d="M187.5,483.86a120.6,120.6,0,0,1-41-11.16c-20.52-10-31.64-36.68-35.3-26.44-1.08,3,8.92-3.53,14.78,16.45s11.14,21.15,19.93,21.15,0,8.82,17,11.76S194,497.38,187.5,483.86Z"/><path class="cls-4" d="M332,31a249.47,249.47,0,0,1,20.39,15.5C352.42,41.59,343.82,36.14,332,31Z"/><path class="cls-4" d="M303.18,428c-6.64-6.66-22.66,3.92-22.66,3.92s20.71-15.28,28.91-23.51c0,0,7.82,12.54,11.73,8.62,0,0-7,25.85,0,18.8S361,399.05,357.9,371.62c0,0,26.57,18,36-19.59,0,0,21.1,33.7,0,46.23,0,0,30.48-7.83,21.89-76-7.85-62.17-28.68-67.64-32.29-68.12,2.2.07,10.4-1.17,10.4-23.56,0-25.85-24.23-19.58-24.23-19.58s1.17-16.06-10.94-28.21-39.08-3.13-39.08-3.13,1.17-12.93-17.2-31.34-70.34,9.4-76.6,30.56c-5.12,17.31-1.33,28.85.21,32.47V212c-2.33-2.05-11.44-8.56-22.86,2.9-13.29,13.32-12.51,50.14-12.51,50.14s-24.23-12.53-7.82-44.66c0,0-11.72.79-18.75,18.81s9.37,61.9,9.37,61.9-21.1,8.61-10.16,32.9,46.9,29,46.9.79c0,0,13.68,12.93,31.26-4.7S253.16,298,253.16,298s6.25,1.57,10.16-12.54,3.91-20.37,3.91-20.37,16.41-8.62,21.88,8.62-11.72,25.08-11.72,25.08,17.19,11,24.23-3.14c5.41-10.86,6.66-22.61,6.94-27.46.18,4,2.15,11.79,14.94,11.79,0,0-15.24,59.94-2.34,72.87s-12.51,46.23-43.77,62.68-41.82,13.71-53.15,2.35-28.92,0-32.83,3.92-32.83-10.19-32.83-10.19H141.39s-28.92-8.81-31.85-17c0,0,21.1,5.88,21.1-2.35,0,0,23.45,7.05,29.31,7.05s13.48,2.36,25.21,5.88,32.24.59,40.45-2.94S269,392.78,269,375.74s-11.14-13.52-22.87-8.23S231.47,374,231.47,374s7.62,1.77-1.76,11.17-40.45,2.94-50.41-2.35,1.17,10.58-4.69,10.58-34.59-1.18-42.8-18.22.59-15.87.59-25.27-13.48-.59-22.28-18.22,2.93-37.6-8.2-37.6-1.18,31.14-14.66,25.26S55.9,264.38,69.09,251.16c0,0-1.76-33.5,5.86-41.14s13.48-8.23,13.48-8.23-6.74-22.62,1.76-31.14S102.5,166,102.5,166s-4.69-27,20.52-45.84,29.9-12.34,29.9-12.34-15.83-20,2.93-25.27,3.51,5.88,24,5.88,58-42.9,100.83-37,76.21,33.5,76.21,33.5-30.49-32.32-63.31-41.14-67.42,7.06-83.24,17.64-26.38,22.91-32.25,17,14.07-31.15,28.73-35.85,53.93-9.4,53.93-9.4l-37.52-2.35S225,18.45,246.12,18.45s19.35-8.82,19.35-8.82S306.32,19.67,332,31C308.89,15,270.41-6.37,239.87,1.8,193,14.33,187.5,35.49,187.5,35.49S152.33,48,129.66,70.75a425.61,425.61,0,0,0-39.08,45.44,73.23,73.23,0,0,1,5.47-25.07c5.48-13.32,21.89-24.29,21.89-24.29S95.27,62.91,86.67,80.15s-16.41,41.53-16.41,41.53-7.82-7.05-25,10.18S48.38,175,48.38,175s-10,14.1-10,46.23v50.93s-14.19-6.27-14.19-36.05c0,0-8.6,44.66,3.9,69.74s25,40.74,25,40.74-3.91,2.35-8.6,16.46,23.45,65,43,74.43,18.76-14.1-.79-24.29S64,382.59,64,382.59s14.46,21.55,19.54,16.46-9.38-30.56-9.38-30.56,19.54,29.77,31.26,35.26c2.36,1.1,4.4,1.93,6.26,2.64-1.61,1.37-2.29,4.67-.78,11.46,4.68,21.16,64.87,21.76,64.87,21.76s-10.16,1.75-1.56,10.37,78.16-7.84,78.16-7.84-29.7,11-22.67,18S309.83,434.7,303.18,428ZM235,315.21c-11.73,11.75-31.66-5.88-31.66-5.88s-3.84,9.92-14.23,9.92-10.13-19.91,0-22.84c0,0-5.44,12.34,0,12.34s7.78-8.27,7.78-8.27,11.35,13,22.38,9.44c0,0-7.72-9.44,2.24-9.44s22.28-13.48,22.28-18.77C243.78,281.71,246.71,303.46,235,315.21Zm120.76,8.23c10.55-10.58,15,2.35,15,2.35s-13.79-45.84,4.38-33.5S388,331.66,388,331.66c-5.87-20.37-11.73,1.18-11.73,1.18s-5.55-7-15.82-2.94-4.69,26.45-4.69,26.45S345.19,334,355.75,323.44ZM76.12,146.55c10.55-20.56,28.14-28.2,28.14-28.2-14.65,5.87-21.69,39.37-21.69,44.07,0,18.23-21.69,32.91-21.69,32.91S65.57,167.12,76.12,146.55Z"/><path class="cls-4" d="M8,274.54S7.45,291,11,303.93-13.07,307.45,8,274.54Z"/><path class="cls-4" d="M218,506.08s-14.72-9.4-18.82,0S221.55,520.18,218,506.08Z"/><path class="cls-4" d="M201.48,130.57s-12.38-5.29-12.38,11.75S207.35,142.32,201.48,130.57Z"/><path class="cls-4" d="M427.17,123.87s5.87,32,33.42,47.25,24.62,59.46,24.62,59.46,2.53-38.31-21.3-50.06-54.21-63.47-46.65-63.47A10.61,10.61,0,0,1,427.17,123.87Z"/><path class="cls-4" d="M198.85,268.37s-5.57-20,3.8-36.14,27-3.82,27-3.82A38.44,38.44,0,0,1,226,212c-2.3-2-11.41-8.58-22.86,2.9-13.29,13.32-12.51,50.14-12.51,50.14C193.65,272.43,198.85,268.37,198.85,268.37Z"/><path class="cls-4" d="M242.81,172.59c12.31-7.94,29.31,1.23,29.31,1.23s-12-.06-28.43,13.46-1.32,32.17,2.64,28.21,9.38-17.05,18.76-22.92,22-.59,22-.59-5-17,10.26-9.4,17.29,36.14,17.29,36.14,6.16-20.28,27.6-12.93,16.66,22,16.66,22,17.88-5.59,22.73,2.75,1.84,23.56,1.84,23.56c2.2.07,10.4-1.17,10.4-23.56,0-25.85-24.23-19.58-24.23-19.58s1.17-16.06-10.94-28.21-39.08-3.13-39.08-3.13,1.17-12.93-17.2-31.34-70.34,9.4-76.6,30.56c-5.12,17.33-1.33,28.87.21,32.47C226,195.23,233.84,178.37,242.81,172.59Z"/><path class="cls-4" d="M176.4,391.23a2.82,2.82,0,0,1-.28,1.36c.45-.18.88-.32,1.33-.52C177.45,392.07,177.06,391.77,176.4,391.23Z"/><path class="cls-4" d="M57.86,262.2c0,12.93,7.62,68.17,22.28,75.81s9.67-6.76,16.41,0-3.81,17.92,4.69,26.45,22.86,25.26,22.86,12.92c0-12,12.74,29.28,50,16-6.68-.05-34.3-1.54-42.33-18.21-8.2-17,.59-15.87.59-25.27s-13.48-.59-22.28-18.22,2.93-37.6-8.2-37.6-1.18,31.14-14.66,25.26S55.9,264.38,69.09,251.16C69.09,251.16,57.86,255.74,57.86,262.2Z"/></g><g class="cls-3"><path class="cls-4" d="M23.24,181.37S51.53,102,66,96.49,82.93,92,66,108.91,23.24,181.37,23.24,181.37Z"/><path class="cls-4" d="M82.24,118.92S65.16,146,69.47,141.69s17.6-21,24.84-22.77S95,109.26,82.24,118.92Z"/><path class="cls-4" d="M54.05,154.1s-11,6.21-5.65,7.9S57.72,154.1,54.05,154.1Z"/><path class="cls-4" d="M88.79,95.8S63.5,110.66,67.06,114.21,102.13,92.87,88.79,95.8Z"/><path class="cls-4" d="M146.07,38.18c-2.83,5.42-52.79,26.57-58.31,39.33s14.49-6.9,17.25-4.14-8.87,4.8-5.17,8.49S128.13,60,134.68,60c0,0,0-9.76,11.39-12.87s16.91-2.76,23.46-2.76,43.65-20.53,42.1-22.08c0,0,5.52-9,26.22-9S270.28,7.82,265.45,3s-54.17,9.31-54.17,9.31S157.46,16.34,146.07,38.18Z"/><path class="cls-4" d="M181.26,54.05c2.64.83,1.73,10.35-13.11,12.77s-31.74,10-44.16,22.43-18.63,18.63-18.63,12.42S160.56,47.5,181.26,54.05Z"/><path class="cls-4" d="M207.49,49.22S191.61,47,189.55,53.44s20.7,8.2,20.7,3.72A14.06,14.06,0,0,0,207.49,49.22Z"/><path class="cls-4" d="M278.22,4.37s-10.7,13.45-25.53,13.45S241,17.13,232,22s-40.37,14.49-38.3,16.57,26.92-10.36,34.51-8.29-20.12,9.69-17.94,11.86S232,36.45,232,39.9s-22.61,5.3-19,8.94,37.24-4.85,42.09,0S290.29,50.6,292,46.12,308.24,62,313.76,56.47s2.07-16.57-14.84-16.57c0,0,9.66-1,7.59-7.59s-13.8-6.9-13.8-6.9S299.27,24,299.27,22c0,0,5.2,7.25,16.92,7.25H327.9s-3.38,8.13,1.39,12.89S341,48.84,341,48.84s-20.36-5.21-20.36,0,24.5,26.36,41.75,29.93c0,0,11,35,40,32.9,0,0,5.87,19,22.09,19S440.73,98.56,413.13,71s-50.38-33.82-50.38-33.82-6.9-23.11-30-17.94c0,0-16.9-22.08-40.36-13.11C292.37,6.09,292.16-6.38,278.22,4.37Z"/><path class="cls-4" d="M35.37,227.91s.57-46.22,11.56-57.21,13.39-2.67,5.7,5S35.37,227.91,35.37,227.91Z"/><path class="cls-4" d="M357.43,18.19S366,24,366,28.5s12.36,11.33,12.36,8.24S372.54,16.13,357.43,18.19Z"/><path class="cls-4" d="M422.35,74.87S434,95.48,437.81,91.7s1.71-1.42,0-9.47-5.16-13.54-10.65-13.54S422.35,74.87,422.35,74.87Z"/><path class="cls-4" d="M435.54,98.23s1.85,12.5,4.39,10S437.1,91.71,435.54,98.23Z"/><path class="cls-4" d="M361.72,93.5S376.92,129.22,396,122c0,0,4.38,9.79,11.07,11.85,0,0-10.3,1-12.36-3.21s.77-.9-8.76-.9S361.72,105.69,361.72,93.5Z"/><path class="cls-4" d="M417.37,137.73s10.75,8.24,20.7,1.54S446,116.6,446,116.6a23.17,23.17,0,0,1,.18,21.9C440,150.35,427.42,147.77,417.37,137.73Z"/></g></g></g></g></g></svg>