<svg xmlns="http://www.w3.org/2000/svg" viewBox="0 0 61.09 65.96"><defs><style>.cls-1{fill:#323441;stroke:#323441;stroke-miterlimit:10;stroke-width:0.5px;}</style></defs><g id="Layer_2" data-name="Layer 2"><g id="BG"><path class="cls-1" d="M57.71,45.67c.86-.32,3.34-.42,3.12-1s-2.69-.43-5-1.18a13.57,13.57,0,0,1-4.47-2.35c-.64-.54-2.24-2.46-3.63-2.57L46.3,38.5a25.06,25.06,0,0,0-5-2.35l-1.59-.32V34.76l-6-2.47.26-.27h0l1.29.5.32-.53-.69-.35c.62-.16,1-.55,3.44.78,2,1.1,3.67.44,3.61,0l-.5-2.91A29.57,29.57,0,0,1,41,22L52,14.23l-.33-.46L41,21.29c.31-8.18,1.72-18.55,1.12-18.53-.14,0-.46,0-.89,0l.06-.85.84.06,0-.39-.84-.07V1.28l-.56-.05v.2l-.65,0v-.2l-.56,0v.19l-.84-.06v-.2l-.56,0v.2l-.65-.05V1l-.56,0v.2l-1.31-.09,0-.3L34.9.7l0,.3L33.39.89l0-.59-.37,0L33,.87,31.8.78l0,.39L33,1.26l-.1,1.4-.47,0,0,.8.46,0-.1,1.39-.47,0,0,.79.46,0-.09,1.19-.46,0-.06.8.47,0-.1,1.3L32,8.9l-.05.8.46,0-.08,1.1-.47,0,0,.8.46,0-.07,1-.24.17-.24,0,0,.19a16,16,0,0,1-2.83,1.55l-.65.24-.1-.06a1.29,1.29,0,0,0-1.6.57,11.87,11.87,0,0,1-4.58.11,8.85,8.85,0,0,0,3.94,1v1.18l-.74.11-.75.53.43.54s-.64,1.71-.32,2.14A5.45,5.45,0,0,0,27,22c.32-.1.42.43.42.43l-.32.64-.08,0,.4-.66-2.87.74.66,1.39-.13.12a12.28,12.28,0,0,0-1,2.67c-.21,1.18-1.07,1-1.07,1l-.1.53.62.13-1.46,1.51a61.39,61.39,0,0,0-4.28-4.63l-.11-.09.55-.26A6.26,6.26,0,0,0,16.44,25c-.26-.14-.54-.27-.81-.4l.42-.2a10.8,10.8,0,0,0-2-.39l-.49-.16.54-.62a7.42,7.42,0,0,0-3.14.07c-.19-.34-1.39-2.47-1.68-3.16,0,0-.85,2.14.21,3.42l-.74.11L6.69,21.49a2.18,2.18,0,0,0,.81,2.89,8.23,8.23,0,0,0,0,4.17s-.43,3-.54,3.85-.74,1.93.75,2.36c0,0,1,.92,1.83.54-.16,1.07-.3,2.29,0,1.72a4.43,4.43,0,0,0,.3-2.09l.2-.39.42,2.89,1.39-.1-.11-1h2.77A8.46,8.46,0,0,1,15,38.82a5.46,5.46,0,0,1-.48,1.1L7.53,44.81l-.1-.15L3.87,47l.13.19-1.25.37-2,2.27L3.53,49l.88-1.15,0,.07L8,45.55l-.17-.27,6.22-4.37a4,4,0,0,0,.47,3.91S12.61,46.53,12,47.28a17.84,17.84,0,0,1-2.56,2s-.75.21.32,2.46,2.13,2.68,2.45,4.5a3,3,0,0,0,1.7,2.35s1.71,1.71,2.88,1.61.11-3,.11-3-1-.54-1.28-.43a6.09,6.09,0,0,0-.85.43,4,4,0,0,1-.11-.86c0-.42-.75-1.07-.75-1.07l-2-4.28s-.21-.53.64-.85,4.37-1.29,4.37-1.29.53,1.39,1.49,1.5a33.69,33.69,0,0,0,3.41,0L23,53.16A9.71,9.71,0,0,0,24,56.05a18.68,18.68,0,0,1,1,3.32c0,.75-.1,1.28-.53,1.6s-1.71,1.18-1.6,2h3.2s-.64-1.07-.32-1.39,1.28.1,1.28-.43a49.17,49.17,0,0,0-1.39-6.1,2.26,2.26,0,0,0,.21-.86c0-.42-1.17-5-1.17-5l1.81.54a15.43,15.43,0,0,0,3.2.11,9.88,9.88,0,0,1,2.56,0l1.6,3.31,1.07-.53-1.39-2.89a8.26,8.26,0,0,0,2-.54s2.34,3,2.34,3.64a16.84,16.84,0,0,0,.32,1.71,9.54,9.54,0,0,0,.32,2.14c.22.65-.64,3-1.06,4.07s-1,2.25-1,2.25l-1.18,1.17,2.67.33.11-.75.53.42s.75-.53.75-1.17a11.77,11.77,0,0,1,.42-3.64c.43-1,1.49-3.32,1.81-3.85s.22-.64-.1-1.18a4.36,4.36,0,0,1-.32-3.21,8.46,8.46,0,0,1,1-1.93l.42.11.54-.43a9.92,9.92,0,0,0,1.28,1.61,21.13,21.13,0,0,1,3.09,1.92,24.7,24.7,0,0,1,2.13,2.68A31.73,31.73,0,0,1,51,60.33a19.36,19.36,0,0,1-.22,2A6.63,6.63,0,0,0,50,64.83l.1.75,2.78-1.4L53,63l-.74-.43V61.4L53,62a3.6,3.6,0,0,0,.22-1.28c-.11-.32-2-6.53-2-6.53v-1A1.87,1.87,0,0,0,51.1,52a11.33,11.33,0,0,1-3-3.86,16.64,16.64,0,0,1-1.24-5.7c.6,1.49,2.09,4.52,4.52,5.26,0,0-1.51-2.42-2-3.37a3.55,3.55,0,0,0,.31.23,8.83,8.83,0,0,0,2.9,2.57,20.37,20.37,0,0,0,5.24.64L55,45.89A7.91,7.91,0,0,0,57.71,45.67ZM12.4,30.58c.85.54,1.71,3.32,1.71,3.32s-.22.54-.54-.11-1.28-2.14-1.28-2.14Zm1.92,5.14c-.43-.11-2.56.64-2.77-.11a14.56,14.56,0,0,0-1.07-2.24L11.23,32l1.7,3.31,1.6-.1S14.75,35.83,14.32,35.72ZM31.91,20.91l1,.08,0,.85-1-.14Zm1.35-6-.9-.07.09-1.19.87.06Zm0,.8-.05,1-.93-.06.07-1Zm.16-2.8-.86-.06v0c.32-.26.62-.52.91-.79Zm-1.2,4.52.95.07,0,.9-1-.07ZM33,19.2l-.05,1-1-.07.08-1Zm-1.48,1.69-.05.76-.54,0-.32-.54a2.13,2.13,0,0,0,.43-.25v0ZM40.07,1.78l.65.05-.06.84L40,2.61Zm-1.4-.1.84.06-.06.81-.84-.09Zm-1.21-.09.65,0-.06.76-.65-.07Zm-1.87-.13,1.31.09-.06.72-1.3-.15Zm-2.23-.17,1.49.11L34.8,2,34,1.94l0,.8-.67-.05ZM33.2,3.48l.68,0-.08,1.4-.71,0ZM33,5.68l.73.05-.07,1.2L33,6.87Zm-.14,2,.76,0L33.58,9,32.79,9Zm-.16,2.09.81.06-.06,1.1-.83-.06Zm-.13,1.89.83.07h0c-.26.2-.56.42-.89.65Zm-2.71,6,.42-.43-.53-.43-1-1.39s1.36-.83,2.8-1.9v.09l.47,0L32,14.81l-.47,0-.06.8.47,0-.07,1-.47,0-.06.8.47,0-.07.89-.46,0,0,.17A7.87,7.87,0,0,0,29.89,17.64Z"/></g></g></svg>