<svg xmlns="http://www.w3.org/2000/svg" viewBox="0 0 453.38 491.22"><defs><style>.cls-1{fill:#261822;stroke:#261822;stroke-miterlimit:10;stroke-width:1.79px;}</style></defs><g id="Layer_2" data-name="Layer 2"><g id="BG"><path class="cls-1" d="M44.54,342.49l-21.25,14s26.54,0,39.28-4.77c8.11-3,17.07-13.6,21.7-19.24.77-.56,1.54-1.13,2.31-1.72-3.71,7.07-15,25.2-15,25.2,18.2-5.54,29.32-28.17,33.8-39.35-1.06,6.06-.47,24.37-9.23,42.69-9.58,20-20,25.63-22.35,28.84s-.79,9.61-.79,9.61V405s-14.37,46.46-15.17,48.86,1.6,9.62,1.6,9.62L65,458.62v8.81l-5.58,3.21.8,8.81L81,489.86l.8-5.61c.79-5.6-5.59-18.42-5.59-18.42s-1.6-10.41-1.6-15.22,8-34.45,10.38-39.25,12-15.22,16-20,20-12,23.15-14.42,9.57-12,9.57-12l4,3.2,3.2-.8a65.87,65.87,0,0,1,7.18,14.42c3.19,8.81,0,20-2.4,24s-3.19,4.81-.79,8.81,10.37,21.63,13.56,28.84,3.2,22.43,3.2,27.24,5.58,8.81,5.58,8.81l4-3.21.79,5.61,20-2.4-8.78-8.81s-4-8.82-7.19-16.83-9.57-25.63-8-30.44,2.4-13.61,2.4-16,2.39-8,2.39-12.82,17.56-27.23,17.56-27.23c4,2.4,15.17,4,15.17,4l-10.38,21.63,8,4,12-24.83s16.76-1.61,19.16,0,23.94-.81,23.94-.81l13.57-4S263,401.75,263,405a16.63,16.63,0,0,0,1.6,6.41C262.18,417,254.2,453,254.2,457s7.18.8,9.58,3.2-2.4,10.42-2.4,10.42h23.95c.8-6.41-8.78-12.82-12-15.22s-4-6.41-4-12,7.18-24.83,7.18-24.83c5.59-8.81,8-21.63,8-21.63l8.78-20.83s18.36.8,25.54,0S330,364.9,330,364.9s26.34,7.21,32.73,9.61,4.79,6.41,4.79,6.41l-15.17,32s-5.58,4.81-5.58,8a30.43,30.43,0,0,1-.8,6.41,45,45,0,0,0-6.39-3.21c-2.39-.8-9.58,3.21-9.58,3.21s-8,21.63.8,22.43,21.55-12,21.55-12,10.38-4,12.77-17.62,10.38-16.82,18.36-33.65,2.39-18.42,2.39-18.42-14.36-9.61-19.15-15.22-19.16-18.43-19.16-18.43c7.7-10.3,6.46-20.83,3.53-29.26l46.58,32.74-1.3,2L423,357.41l.37-.57,6.55,8.67,20.71,6.37-14.87-17-9.31-2.74.92-1.4-26.62-17.49-.74,1.12-52-36.56c-1.78-3.72-3.38-6.59-3.61-8.22-.8-5.61,3.19-18.43,3.19-18.43h20.75l-.79,7.21,10.37.8,3.2-21.63,1.45,2.93c-.2,5.12.07,11.66,2.25,15.58,2.38,4.29,1.34-4.84.12-12.85,6.19,2.82,13.73-4.06,13.73-4.06,11.18-3.2,6.39-11.21,5.59-17.62s-4-28.84-4-28.84c4.79-13.62,0-31.24,0-31.24,13.06-10.2,6.05-21.65,6.05-21.65l-15.63,16-5.58-.8c8-9.61,1.59-25.63,1.59-25.63-2.2,5.15-11.12,21.1-12.56,23.67-6.51-1.19-17.61-2.71-23.56-.54l4.08,4.67c-1.21.36-2.45.76-3.7,1.17a81.39,81.39,0,0,0-14.72,2.92s1.34.66,3.18,1.53c-2.09.92-4.14,1.91-6.12,3a49.27,49.27,0,0,0-13.78,4.27s1.7.85,4.17,1.93c-.28.22-.57.45-.84.68-9.55,8.07-23.22,25.05-32,34.7l-11-11.33,4.69-.94-.8-4s-6.38,1.6-8-7.21-7.18-20-7.18-20l-1-.87,5-10.44L251,167l3,4.95-.63-.14L251,167s.8-4,3.19-3.2S271,158.22,273.36,155s-2.4-16-2.4-16l3.2-4-5.59-4-5.59-.8v-8.81a66,66,0,0,0,29.53-7.21c-13.68,2-24.14,1.48-34.25-.83-1.7-2.27-6.21-7.13-12-4.23a8.15,8.15,0,0,0-.76.44c-1.6-.56-3.21-1.16-4.86-1.79-6.51-2.49-14.22-7-21.22-11.66l-.1-1.41-1.81.14-1.78-1.21L215.17,86l3.48-.26-.44-6-3.48.25-.61-8.2,3.49-.26-.44-6-3.48.26-.72-9.7,3.49-.25-.44-6-3.48.26-.66-8.95,3.49-.26-.44-6-3.49.26-.77-10.44,3.49-.26-.44-6-3.49.26-.76-10.44,9.07-.67-.22-3-9.07.66L208.92,1l-2.79.2.33,4.48-11.17.82-.16-2.24-5.58.41.16,2.24L180,7.58l-.11-1.49-4.19.31.11,1.49-4.88.36-.11-1.49-4.19.31.11,1.49L160.41,9l-.11-1.49-4.18.3.11,1.5-4.89.36-.11-1.5-4.18.31.11,1.49-6.28.46.22,3,6.28-.46.46,6.31c-3.25.26-5.65.41-6.7.36-4.45-.2,6,77.43,8.39,138.68L69.39,102,67,105.48l82.77,58.17c.73,23.63.11,44.32-3.27,56.37,0,0-3.24,18.76-3.72,21.8s12,8,27.05-.26c18.28-10,21.06-7.05,25.71-5.81l-5.14,2.58,2.4,4,9.65-3.77a.2.2,0,0,0,.06.07c.67.78,1.33,1.46,2,2.07l-45.2,18.45v8l-12,2.4c-12,2.4-37.51,17.62-37.51,17.62l-10.38.8C89,288.79,77,303.21,72.23,307.22s-16,12-33.53,17.62S2.59,329.65,1,333.66s17,4.8,23.35,7.2C30,343,38.73,342.61,44.54,342.49Zm319.8-106.57s-7.18,11.22-9.57,16-4,.81-4,.81,6.38-20.83,12.77-24.84Zm-16.76,26.44,12,.8,12.77-24.83,5.59,10.41s-6.38,11.22-8,16.82-17.56,0-20.75.8S347.58,262.36,347.58,262.36Zm-129.68-101c-2.37.29-5.07.67-7.66,1.11l-.35-6.4,7.58-.56Zm-11-59.78,6.55-.48.66,9-6.72.5ZM214.57,116l.54,7.46-7,.51-.4-7.47Zm-8.34-27.14c2.11,2,4.4,3.93,6.77,5.86l0,.4-6.43.47ZM216,136.17l-7.2.53-.37-6.72,7.08-.52Zm.44,6,.55,7.41-7.46.55-.41-7.43Zm7.41,12.91,0-.33a14.73,14.73,0,0,0,3.2,1.9l-2.39,4s-1.6.15-4,.42l-.42-5.72Zm-67-136.59-4.88.46-.46-6.25,4.89-.36Zm10.44-1.08c-2.13.23-4.23.45-6.26.65l-.45-6,6.28-.46Zm9-1-4.87.53-.41-5.7,4.88-.35Zm13.92-1.57-9.74,1.1-.39-5.36,9.76-.72Zm17.14,4.23-5,.37-.33-6-6.26.73-.35-4.75,11.17-.82Zm1.21,16.41-5.31.39-.57-10.45,5.11-.38Zm1.09,14.92-5.59.41-.48-9,5.42-.4Zm1.15,15.67-5.88.43-.53-9.71,5.7-.42Zm1.05,14.17-6.16.45-.44-8.22,6-.44Zm.83,11.32c-2.47-1.74-4.72-3.39-6.66-4.84v-.06l6.26-.46ZM222.42,137l-.1-1.29-3.48.25-.5-6.71,3.49-.26-.44-6-3.49.25-.54-7.46,3.48-.25-.43-6-3.49.26-.66-9,3.49-.26-.05-.7c10.74,8,20.93,14.21,20.93,14.21l-7.18,10.41-4,3.21,3.19,3.2A60.85,60.85,0,0,0,222.42,137Z"/></g></g></svg>