<svg xmlns="http://www.w3.org/2000/svg" viewBox="0 0 279.57 28"><defs><style>.cls-1{fill:#f12827;}</style></defs><g id="Layer_2" data-name="Layer 2"><g id="Layer_1-2" data-name="Layer 1"><path class="cls-1" d="M12.47,22.5l-.19-8c2.13-.05,210.85-5,255.52-4.68a1.74,1.74,0,0,1,1.72,1.76l0,3.91a2.35,2.35,0,0,1-2.36,2.33C221.34,17.55,14.59,22.45,12.47,22.5Z"/><path class="cls-1" d="M51.39,16.41c-3.84.38-7.7.69-11.57,1-2.49.31-5,.6-7.54.83-5.45.51-11.6-.06-16.42,1.79-6,2.31-3.38,5.19,2.88,6,8.08,1,17.3-.32,25.55-.3,12.48,0,24.95.33,37.23,1.41a5.39,5.39,0,0,1,.64.1,473.49,473.49,0,0,0,60.15-.65,423.72,423.72,0,0,1,56.45-.36c1.14.06,11.3,1,18.24.9,11.26-.12,16.88.14,22.5.38,2.81.12,5.62.25,9.13.35s7.73.14,13.29.18h4.83c.22,0,0,0,1.09,0a12.17,12.17,0,0,0,2.32-.36,12.48,12.48,0,0,0,9.37-11.06l0-.51v-.64c0-.52,0-1,0-1.51l0-1.43,0-.69,0-.76a8.34,8.34,0,0,0-.11-1.11,11.2,11.2,0,0,0-.54-2.16,11.63,11.63,0,0,0-5.52-6.39,11.47,11.47,0,0,0-4-1.25,8.76,8.76,0,0,0-1-.08h-.51l-.31,0-2.35.16-4.37.34c-5.7.48-11.34,1-22.64,1.07-22.57.17-22.57.22-45.12.47S170.43.34,147.88.65s-22.53,2.75-45.07,3.1S80.25,1.53,57.71,1.91,35.17,3.13,12.63,3.54A5.25,5.25,0,0,0,12,3.6L0,5.6l1.37,9.16c.55,3.71,5.08,5.45,6.74,6.34,3.41,1.84,6.48,1.92,9.82-.18,1.65-1.05,5.59-2.91,5.88-6.69L12.55,26a5.8,5.8,0,0,0,.6,0c22.53-.65,22.51-1.17,45-1.82l45.06-1.3c22.53-.62,22.5-1.38,45-2l45.05-1c22.52-.53,22.58,1.08,45.07.65,5.47-.12,12-.51,18.84-1.08,3.41-.26,6.89-.55,10.38-.86h.1c0,6.31.08-8.6.07-7.06h0v0h0l-6.8-.07v.11l0,.33.05.65.11,1.32.11,1.3v.17l5.83.09h.05s0,0,0,0h0v0l0-5.5-9.93,1-8.72.89c-5.3.52-9.46.89-11.75.9-16.58,0-33.15-.33-49.71-.53-10.24-.12-21.28-.75-31.45.33-8.78.92-17,2.55-26,2.94-19.23.85-38.39-.76-57.63.18C65.14,15.94,58.27,16.19,51.39,16.41Z"/></g></g></svg>