<svg xmlns="http://www.w3.org/2000/svg" viewBox="0 0 271.55 31.61"><defs><style>.cls-1{fill:#f12827;}</style></defs><g id="Layer_2" data-name="Layer 2"><g id="Layer_1-2" data-name="Layer 1"><path class="cls-1" d="M267.11,18.19l-.28-11.5c-2.13,0-211,1.44-255.58,3.71-1,0-1.69,1.22-1.62,2.61l.27,5.6c.1,1.87,1.21,3.32,2.5,3.26C58.12,19.61,265,18.21,267.11,18.19Z"/><path class="cls-1" d="M256.38,14.32c-17-.24-34.08-1.75-51.12-1-14.36.63-28.57,2.94-42.69.64a1.88,1.88,0,0,1-.64.15c-6.21.37-12.35-.38-18.52-1.12a134.16,134.16,0,0,0-14.32-.3,2,2,0,0,1-.5,0c-2.1.13-4.61.21-7.93.21-4.09,0-7-.1-9.33-.22a83,83,0,0,1-13.93-.72l-4.2,0c-13.74,0-13.73.17-27.47.22S52,11.46,38.22,11.58l-13.8.16c-1.72,0-3.47.06-5.64.14L15.13,12,13,12.09l-.58,0h-.45c-.36-7.21.48,9.82.39,8.06h0a1.55,1.55,0,0,1,.35-.67,3.69,3.69,0,0,1,1.06-.82,3.4,3.4,0,0,1,.86-.3l.26,0h.06l4.69-.23h0V18l0-.27-.09-1c-.12-1.33-.26-2.5-.41-3.56l-.06-.4,0-.19-5.7.25a1.71,1.71,0,0,1-.39-.05,2.64,2.64,0,0,1-1.24-.64,1.28,1.28,0,0,1-.32-.44.25.25,0,0,1,0-.06h0c-.35-6.87.47,9.35.39,7.68h0l.08,0,.16,0L13.22,19A71.54,71.54,0,0,1,26.7,17.31c13.61-.6,13.68,1,27.32.48s13.63-1,27.3-1.43,13.67-.1,27.34-.5S122.31,14.8,136,14.43s13.69.39,27.36.06,13.64-1.67,27.32-2l4-.11c17.36-3.75,35.13-1.91,52.73-2.11,2.62,0,5.24-.13,7.85-.23l3.26-.12c.9,0,1.81-.05,2.7-.05.67,0,1.42.05,2.23.09.29-.1.15.3.18.5v.73c0,.48,0,1,.08,1.42a6.76,6.76,0,0,0,2.36,4.78,3.32,3.32,0,0,0,1.55.79l.77,0c1.3-.31,2.39-2.34,3.13-4.67-.89-5,2-13.61-6.45-11l-14.65.35c-8.19.13-16.37,0-24.52-.66a80.28,80.28,0,0,1-8,.29c-13.68-.08-13.68-.26-27.36-.33S176.85.57,163.17.51s-13.69.61-27.37.56S122.11,0,108.42,0,94.74.25,81,.26,67.35.72,53.65.77,40,.71,26.2.92C19.34,1,15.82,1,12.35.93H10.88a5,5,0,0,0-.59,0A11,11,0,0,0,3.45,4.23,12.1,12.1,0,0,0,.31,10.1,12.85,12.85,0,0,0,0,12.9l0,1.2c0,1.07.06,2.24.1,3.58,0,.33,0,.68,0,1V19l0,.59a14.67,14.67,0,0,0,.23,1.66,13.89,13.89,0,0,0,1.24,3.62A12.66,12.66,0,0,0,4.9,28.91a11.91,11.91,0,0,0,3,1.83,11.16,11.16,0,0,0,4,.86h1.44l.56,0L16,31.41c1.31-.1,2.47-.22,3.52-.34,2.11-.25,3.78-.54,5.49-.81a95,95,0,0,1,13.62-1.42C52.31,28.31,52.32,28.45,66,28l27.41-.9c13.71-.4,13.74,1,27.45.59s13.72.08,27.44-.29,13.7-.78,27.42-1.13l13-.36.75,0c10.1-.64,20.06-3.34,30.19-3.39a95.3,95.3,0,0,1,14.17,1.43c7.07,0,9.9.66,14.8,1l.66,0c5-.47,12.18-.71,16.33-4.23C271.35,15.82,258.5,14.34,256.38,14.32Z"/></g></g></svg>