<svg xmlns="http://www.w3.org/2000/svg" viewBox="0 0 161.18 29.45"><defs><style>.cls-1{fill:#f12827;}</style></defs><g id="Layer_2" data-name="Layer 2"><g id="Layer_1-2" data-name="Layer 1"><path class="cls-1" d="M147.18,25.15l3-11.51a2.29,2.29,0,0,0-2.28-2.84C131.15,11,50,12.19,8.56,12.47a1.76,1.76,0,0,0-1.77,1.76l0,3.91a2.39,2.39,0,0,0,2.43,2.33C56.27,20.2,145,25.1,147.18,25.15Z"/><path class="cls-1" d="M144.75,27c-5.17-.13-5.29,2.56-10.45,2.46s-5.09-1.83-10.25-1.93-5.2.65-10.36.55-5.15-.44-10.31-.52-5.19.79-10.35.73-5.17.08-10.33,0-5.17.35-10.32.3S67.3,26.06,62.14,26,57,25.6,51.83,25.59s-5.22,2.82-10.36,2.84-5.13-.69-10.28-.65S26.08,25.88,20.93,26s-5.13.85-10.25,1l-.9,0-.41,0H8.82c-.24,0-.46,0-.69,0A9,9,0,0,1,3.58,25,9.12,9.12,0,0,1,1,21.76a8.86,8.86,0,0,1-.62-1.84C.33,19.61.27,19.3.24,19l0-.47v-.35c0-.64-.07-1.29-.11-2.09,0-.41,0-.85-.06-1.35l0-.39v-.41l0-.51a9.71,9.71,0,0,1,.16-1,8.6,8.6,0,0,1,2-4A8.75,8.75,0,0,1,5.88,6a9.25,9.25,0,0,1,1.94-.42l.94-.06c.5,0,.94-.1,1.35-.17.8-.12,1.45-.27,2.09-.42a24.39,24.39,0,0,1,5.16-.69c5.16-.21,5.15-1.17,10.31-1.38s5.19,2.2,10.35,2,5.16-.34,10.33-.55S53.51,4,58.67,3.78,63.82,2.19,69,2,74.13,1.13,79.29.92s5.17,0,10.33-.24S94.8,2.14,100,1.93,105.11.72,110.28.51,115.46,2,120.62,1.74s5.17-.06,10.33-.27,5.15-1,10.31-1.19l5.17-.22,1,0h.51l.74,0a12.7,12.7,0,0,1,3.15.54,13.12,13.12,0,0,1,9.33,13.51,11.83,11.83,0,0,1-.17,1.38l-.13.66-.09.36-.09.43c-.06.28-.12.54-.17.79-.09.5-.17.93-.24,1.33-.14.8-.22,1.45-.31,2.09a42.23,42.23,0,0,1-.92,5.1c-.22.93-4.57.25-6.37,0A36.61,36.61,0,0,1,143,23.71c-1.64-.66-6.32-2.36-6.08-3.27a27.07,27.07,0,0,0,1-5.08c.08-.65.15-1.3.3-2.09.07-.4.16-.84.28-1.33l.2-.78.11-.42,0-.06L148,13.06H148c.09,0-.06,0-.06,0l0,0s0,0,0,.11v0h0l.1,8.45h0l-.07,0-.26-.12c-.35-.15-.67-.32-1-.49a10,10,0,0,0-5.17-1.37c-5.17-.07-5.15,2.38-10.32,2.32s-5.18-2.1-10.35-2.17l-10.34-.09c-5.16-.06-5.15,2-10.32,1.91S95,20.47,89.82,20.41s-5.17-1-10.34-1.05S74.32,21,69.16,20.91,64,19.33,58.82,19.27s-5.17.85-10.33.78-5.17-.84-10.34-.91S33,20.42,27.82,20.36,22.65,20.1,17.49,20c-2.59,0-3.88-.08-5.17-.12l-2.1-.06-1.35,0H8.61c0,1.19-.07-10.36,0-5.47h0v0a.09.09,0,0,0,0-.05v0l-.06,0h0l5.56-.06v.39c0,.51,0,1,0,1.36,0,.8.1,1.45.17,2.09l-5.14.12h0a.28.28,0,0,0,.08-.06s0,0,0-.06v0c0-1.68,0-3.39,0-5.12h1.34c5.22.14,5.22.56,10.42.74s5.2.23,10.38.46,5.19.4,10.36.65,5.14,1.65,10.31,1.92,5.19-.36,10.36-.07,5.2-.56,10.36-.26,5.13,1.25,10.29,1.57,5.14,1,10.3,1.38,5.23-1.34,10.4-1,5.1,1.47,10.26,1.83,5.23-1,10.38-.62,5.08,1.93,10.24,2.32,5.15.55,10.3.93c.59,0,1.14.63,1.53,1.22a8.63,8.63,0,0,1,.68,1.18C147.14,27.76,145.91,27.05,144.75,27Z"/></g></g></svg>