<svg xmlns="http://www.w3.org/2000/svg" viewBox="0 0 22.95 23.15"><defs><style>.cls-1{fill:#f12827;}.cls-2{fill:#fbcca3;}</style></defs><g id="Layer_2" data-name="Layer 2"><g id="Layer_1-2" data-name="Layer 1"><path class="cls-1" d="M22.74,12.14c-.16-.5-.39-.61-.63-.53V11.5a.93.93,0,0,0,.29-.28A4.37,4.37,0,0,0,22.8,8c-.22-.61-.38-1.07-.56-1.44a10.71,10.71,0,0,0-.48-1,7.3,7.3,0,0,0-.58-.94l-.42-.57-.6-.67A11.4,11.4,0,0,0,18,1.69,11.52,11.52,0,0,0,15.57.49,9.75,9.75,0,0,0,14,.09C13.57,0,13.23,0,12.89,0A23.15,23.15,0,0,0,10.2.16L9.31.29,8.62.43A9.78,9.78,0,0,0,7.55.7,7.83,7.83,0,0,0,5.06,1.84a14,14,0,0,0-1.28,1,8.58,8.58,0,0,0-.8.77,7.26,7.26,0,0,0-.73.85,10.41,10.41,0,0,0-.91,1.37,9.24,9.24,0,0,0-1,2.57A15.26,15.26,0,0,0,0,11.12a13.38,13.38,0,0,0,0,1.62c.05.42.09.76.14,1.1A10.11,10.11,0,0,0,1,16.45a12.41,12.41,0,0,0,1.39,2.36,10.74,10.74,0,0,0,1.9,2,7.7,7.7,0,0,0,1.37.89,6,6,0,0,0,1,.43,9,9,0,0,0,1.06.32c.4.14.89.24,1.55.41a17.29,17.29,0,0,0,2.67.31,8.94,8.94,0,0,0,2.68-.31,9,9,0,0,0,2.5-1.05,16.48,16.48,0,0,0,2.15-1.6,10.18,10.18,0,0,0,1.77-2,13.36,13.36,0,0,0,1.25-2.36c.33-.84.47-1.42.62-1.89A5.19,5.19,0,0,0,22.74,12.14Z"/><path class="cls-2" d="M18.07,5.67a1.72,1.72,0,0,0-1.4,0c-.49.55-.58.49-1.08,1.07l-1,1.18c-.52.59-.33.75-.84,1.34s-.73.4-1.24,1-.56.55-1.07,1.13-.4.7-.91,1.28-.57.54-1.08,1.13l-.31.34L9,14.27s-.07.07-.07.05h0s0,.49-.18.35l0-.08c0-.05-.08-.33-.45-.78-.49-.61-.62-.5-1.11-1.11s-.54-.56-1-1.17A2.6,2.6,0,0,1,5.77,11a1.82,1.82,0,0,0-.69-.11c-.76.05-1.22,1.13-1.25,1.53a2.26,2.26,0,0,0,0,.37l.25.34c.49.6.56.54,1.06,1.15l1,1.2c.4.48.44.44,1.05,1.14a3.39,3.39,0,0,0,.44.4,1.45,1.45,0,0,0,1.16.31,2.5,2.5,0,0,0,1.11-.43A7.38,7.38,0,0,1,11,16.25a1.51,1.51,0,0,0,.75-.44c.52-.59.39-.7.9-1.29s.52-.58,1-1.17.29-.78.81-1.36.37-.71.88-1.3a1.07,1.07,0,0,1,.42-.3s0,0,0,0a9.94,9.94,0,0,1,2.45-2.68h0a1.76,1.76,0,0,1,.3-.42,2,2,0,0,1,.34-.33,2.43,2.43,0,0,0,0-.6A1.57,1.57,0,0,0,18.07,5.67Z"/></g></g></svg>