<svg xmlns="http://www.w3.org/2000/svg" viewBox="0 0 22.95 23.15"><defs><style>.cls-1{fill:#fee9d6;opacity:0.2;}</style></defs><g id="Layer_2" data-name="Layer 2"><g id="Layer_1-2" data-name="Layer 1"><path class="cls-1" d="M22.74,12.14c-.16-.5-.39-.61-.63-.53V11.5a.93.93,0,0,0,.29-.28A4.37,4.37,0,0,0,22.8,8c-.22-.61-.38-1.07-.56-1.44a10.71,10.71,0,0,0-.48-1,7.3,7.3,0,0,0-.58-.94l-.42-.57-.6-.67A11.4,11.4,0,0,0,18,1.69,11.52,11.52,0,0,0,15.57.49,9.75,9.75,0,0,0,14,.09C13.57,0,13.23,0,12.89,0A23.15,23.15,0,0,0,10.2.16L9.31.29,8.62.43A9.78,9.78,0,0,0,7.55.7,7.83,7.83,0,0,0,5.06,1.84a14,14,0,0,0-1.28,1,8.58,8.58,0,0,0-.8.77,7.26,7.26,0,0,0-.73.85,10.41,10.41,0,0,0-.91,1.37,9.24,9.24,0,0,0-1,2.57A15.26,15.26,0,0,0,0,11.12a13.38,13.38,0,0,0,0,1.62l.14,1.1A10.11,10.11,0,0,0,1,16.45a12.41,12.41,0,0,0,1.39,2.36,10.74,10.74,0,0,0,1.9,2,7.7,7.7,0,0,0,1.37.89,6,6,0,0,0,1,.43,9,9,0,0,0,1.06.32c.4.14.9.24,1.55.41a17.29,17.29,0,0,0,2.67.31,8.94,8.94,0,0,0,2.68-.31,9,9,0,0,0,2.5-1.05,16.48,16.48,0,0,0,2.15-1.6,10.18,10.18,0,0,0,1.77-2,13.36,13.36,0,0,0,1.25-2.36c.33-.84.47-1.42.62-1.89A5.19,5.19,0,0,0,22.74,12.14ZM19.08,9.83l0,1.82v4a9.77,9.77,0,0,1-.52.88l-.07.1A7,7,0,0,1,17.31,18a13.93,13.93,0,0,1-1.59,1.19l-.13.09-.08,0a5.36,5.36,0,0,1-1.62.67,5.27,5.27,0,0,1-1.54.21H12a13,13,0,0,1-2.12-.25l-.42-.1c-.31-.08-.57-.14-.79-.21l-.19-.06a6.93,6.93,0,0,1-.75-.22l-.1,0a3.38,3.38,0,0,1-.55-.21L7,19a4.39,4.39,0,0,1-.77-.51A7.55,7.55,0,0,1,4.79,17l-.07-.1a9,9,0,0,1-1-1.71,7.72,7.72,0,0,1-.57-1.82L3,12.52c0-.14,0-.29,0-.44a4.38,4.38,0,0,1,0-.72v-.12a11.32,11.32,0,0,1,.25-2l0-.21A6.06,6.06,0,0,1,4,7.29a7.28,7.28,0,0,1,.59-.9l.12-.15a4.56,4.56,0,0,1,.45-.53l.08-.08a4.85,4.85,0,0,1,.51-.49l.07-.06L5.86,5c.16-.15.5-.4.9-.69a5,5,0,0,1,1.57-.73l.31-.08a4.58,4.58,0,0,1,.47-.12l.73-.15.79-.12A14.8,14.8,0,0,1,12.55,3h.27l.72.06.15,0a4.91,4.91,0,0,1,.82.21,8.41,8.41,0,0,1,1.81.85l.13.08A8.25,8.25,0,0,1,18,5.49l.45.49.36.5a3.4,3.4,0,0,1,.27.43l.09.16a6.36,6.36,0,0,1,.34.69l.07.15c.07.16.19.48.32.83a3.25,3.25,0,0,1,0,.59Z"/></g></g></svg>