<svg xmlns="http://www.w3.org/2000/svg" viewBox="0 0 249.85 250.02"><defs><style>.cls-1{fill:#f12827;}.cls-2{fill:#f3e9dc;}</style></defs><g id="Layer_2" data-name="Layer 2"><g id="Layer_1-2" data-name="Layer 1"><path class="cls-1" d="M197.78,25.48l-.29.27c-3-1.89-6.23-3.11-9.1-5h0l-.79-.51,0,0c-.43-.22-.76-.28-1.05,0-5.2-1.95-13.48-5.19-18-5.33-3.62-1.06-7.35-2-11.14-2.88a2.3,2.3,0,0,0,1.51-1.71,93.07,93.07,0,0,1,17.22,5.78c1.58-4.13-1.23-4.44-12.5-7-5.21-1.59-9.67-2.82-13.81-3.81.18-1.31.33-1.21-6.68-2.69-6-1.5-33.23-5.49-32.4,1.17l1.86.26a.65.65,0,0,1-.3.49c.26-.13,1.28-.36,5.4-.33-.57.21-1.12.44-1.64.69h0l.39.82c-4.18.69-8.59,1.45-12.6,1.73l0,.38c-2,.38-4.61,1.58-6.93,1.77,1.24-.61,2.49-1.23,3.72-1.89h0L99.77,6c-16.44,7.45-34,9.15-48.62,21.45a4.25,4.25,0,0,0-1.9.88h0c-48.34,34-63,101.89-35.45,154.42a129,129,0,0,0,19,26.93c6.12,6.69,13.39,12.51,19.47,19.31h0l.13.11,1-1.32C72.3,241.39,99.93,250.19,124.64,250c4.94-.29,11.8-.38,16.6-1.17l-.2-.06C249.74,235.22,291.86,86.87,197.78,25.48ZM46.25,222.35l.47-.65.12.18-.41.54A.75.75,0,0,1,46.25,222.35Z"/><path class="cls-2" d="M129.82,52.27l0,0-.48-.56c.31.31.62.63.92,1l.1.1c-.44-.47-.85-.9-1.22-1.27-.16-.17-.32-.35-.48-.5l0,0,.45.46-.53-.51-.09-.07.8.78Z"/><path class="cls-2" d="M54.41,169c-1,.3-1.93.59-2.91.85A12,12,0,0,0,54.41,169Z"/><path class="cls-2" d="M127.9,50.51l0,0a6.32,6.32,0,0,1,1.5,1.39l0,0A6.93,6.93,0,0,0,127.9,50.51Z"/><path class="cls-2" d="M156.71,82.52c.49.56,1,1.13,1.45,1.69l.09.1c-1-1.2-1.8-2.14-2.17-2.55Z"/><path class="cls-2" d="M136,59l0,0,0,0Z"/><path class="cls-2" d="M38,155c-.13.2-.27.4-.4.61.42-.59.86-1.14,1.24-1.6l.45-.62c-.24.26-.48.53-.7.82l.18-.19C38.44,154.41,38.19,154.74,38,155Z"/><path class="cls-2" d="M154.28,79.7q-2-2.34-4-4.65l1.42,1.69Z"/><path class="cls-2" d="M61.29,162.36c-.77.94-1.88,2.44-3,3.74,1.22-1.29,2.34-2.83,3.71-4.53Z"/><path class="cls-2" d="M126.75,50.15h0Z"/><path class="cls-2" d="M132.88,55.21c-.5-.58-1-1.15-1.49-1.68.35.4.71.81,1.06,1.24Z"/><path class="cls-2" d="M107.37,68c-.52.6-1,1.21-1.55,1.82C106.27,69.34,106.79,68.72,107.37,68Z"/><path class="cls-2" d="M109.93,65.16l.15-.18,1.55-1.81Z"/><path class="cls-2" d="M175.58,105.59q4.13,5.2,8.14,10.44C181,112.49,178.25,109,175.58,105.59Z"/><path class="cls-2" d="M150.19,115.62l-.41-.45Z"/><path class="cls-2" d="M44,147.56l1.32-1.73,0-.07Z"/><path class="cls-2" d="M44.24,170.62c.65.07,1.31.13,2,.15a10.23,10.23,0,0,1-1.24,0,18.92,18.92,0,0,0,5.48-.52A18.88,18.88,0,0,1,44.24,170.62Z"/><path class="cls-2" d="M107.87,67.05l-.78.91Z"/><path class="cls-2" d="M107.87,67.05l.78-.92Z"/><path class="cls-2" d="M224.12,168.57a2.26,2.26,0,0,0,0-.26c-4-4.88-8-9.85-11.93-14.86l.13.15c-1.39-1.75-2.81-3.57-4.16-5.29-3.18-4.07,2,2.48,2.21,2.74l-2.29-2.93,2.52,3.16c-1.85-2.36-3.54-4.53-5.39-6.92,1.73,2.19,5.65,7.16,7.3,9.21l-3.66-4.66c4.59,5.79,9.42,11.83,14.09,17.37-4.07-4.87-8.68-10.53-12.54-15.49.39.49,1.17,1.5,1.52,1.91l2,2.49c-.29-.42-2.75-3.45-3.33-4.26l1.59,2s-5.21-6.66-1.3-1.68c3.36,4.26-.85-1.11-1.89-2.44l5.56,7c-1.95-2.47-4.14-5.24-6-7.68,1.3,1.64,2.52,3.2,3.82,4.85l-1.12-1.43,2.44,3.07-3.15-4c.16.18,5.35,6.78,6.19,7.75l-1.45-1.82.48.6L212.46,153c.12.14.43.53.14.14,1.35,1.7,2.52,3.2,3.76,4.71l-2.19-2.79c1.43,1.79,2.49,3.09,3.87,4.79s-3.22-4-3.69-4.64c-1.55-2-9.34-11.91-12.56-16.09.4.53,1.74,2.26,1,1.28-1.68-2.19-3.23-4.19-4.9-6.33-2-2.58,1.54,2.06,2.54,3.34,2,2.64,5.37,6.91,6.93,9-5.09-6.52-10.48-13.52-15.4-20,1.61,2.09,3.27,4.23,4.82,6.22-3.15-4.11-8.62-11.19-11.73-15.18,1.3,1.67,2.86,3.7,4.15,5.39-3.54-4.53-10.76-14-14.88-19.06,3.62,4.63,9.22,11.83,12.51,16.12-3.53-4.55-7.72-10-11.22-14.36,9,11.57,19.15,24.73,28.18,36.41-6.29-8.09-13.21-17.11-20-25.91,1.54,2,3.08,4,4.59,6-5.4-7-10.87-14.06-16.34-20.91,5.87,7.43,12.69,16.22,18.33,23.55-9.23-11.9-18.68-24.12-28.34-35.85.65.78,1.31,1.56,2,2.35l1.28,1.56q5.25,6.39,10.38,12.86c-3.32-4.23-6.55-8.29-9.6-12l-4.06-4.94q5.42,6.49,10.66,13.13c-7.89-10.12-16.36-20.09-25-29.89-1.86-2.21-3.81-4.51-5.75-6.75L145,68.71l-2.26-2.6c.17.2,2.66,3,3.11,3.52-2.84-3.24-5.48-6.23-8.26-9.37-2.89-3.5-6-7-8.37-8.87l-.1-.11a3.09,3.09,0,0,0-.4-.43,4.43,4.43,0,0,1,.37.39,9.44,9.44,0,0,0-.82-.75,5.46,5.46,0,0,1,.45.36,4.3,4.3,0,0,0-.94-.69,2.3,2.3,0,0,0-.32-.15h0l-.22-.07a1.43,1.43,0,0,0-1,.06,1.21,1.21,0,0,1,.6-.1,1.26,1.26,0,0,0-.49.12.92.92,0,0,0-.25.08h0l.15-.1-.17.1-.1,0-.11,0a.38.38,0,0,1,.1,0h0l-.14,0a0,0,0,0,0,0,0h0a1.77,1.77,0,0,1,.37-.27,1.27,1.27,0,0,0-.37.27,4,4,0,0,0-2.94.88,4.39,4.39,0,0,1,2.94-.88l0,0a3.07,3.07,0,0,0-1.78.46,5,5,0,0,1,.93-.15l-.11,0,.15,0h0l-.25.07h0l.13,0-.54.12a7,7,0,0,0-.87.31l.59-.31a6.6,6.6,0,0,0-1.47.62l.33-.22c-.15.1-.31.19-.46.3a11.46,11.46,0,0,0-1.63,1.17l-.33.2c-.19.16-.74.61-.87.76l.85-.66c-.34.3-.67.61-1,.94a17.93,17.93,0,0,1,2.06-1.65,20.77,20.77,0,0,0-2.19,1.9c.58-.53,1.16-1,1.72-1.46a29.59,29.59,0,0,0-2.88,2.7l.44-.44c.07,0,.38-.33,1-.9l-.92.81a25.41,25.41,0,0,1,3.52-3,8.54,8.54,0,0,1,2-1,11.09,11.09,0,0,0-3.12,1.9c-.17.13-.35.25-.51.38-.38.36-.7.64-1,.88l.26-.21c-1.15,1-2.35,2.27-3.55,3.6.6-.7,1.22-1.39,1.84-2l-.88.91c.67-.74,1.35-1.47,2-2.15-.36.33-.72.68-1.08,1,.39-.44.79-.87,1.21-1.29A28.32,28.32,0,0,0,117.29,56c-.48.51-1,1-1.45,1.57l.18-.21c-.85,1-.22.24.47-.59-.72.83-.88,1-.25.26l-6.08,7.15L112,62c-.47.55-2.83,3.32-1.68,2l2.39-2.8c-.88,1.07-1.75,2.15-2.58,3.2l-.82,1,.82-1-1.5,1.88,2.08-2.43-1.2,1.49.44-.51.06-.06-1.47,1.82q4.62-5.4,9.19-10.8-4.82,5.73-9.69,11.42l-.64.78,8.83-10.37-.31.36,0,0-3.52,4.14h0c-1.14,1.37-1.68,2,.08-.05l-.74.87c.29-.33,1.18-1.37,2.18-2.55-1.29,1.6-2.54,3.17-3.79,4.51-1.77,2.09-4.5,5.29-5,5.91l.85-1L103.22,73l2.41-2.86c.64-.77.81-1-.18.2-3.19,3.71-6.64,7.77-9.78,11.48l.12-.17c-3.41,4-6.77,7.92-10.2,11.94l20.23-23.75c-.19.21-.36.4-.52.56C93.69,84,82,97.47,71.1,111.56l2-2.54-.33.44c.46-.61,2.46-3.16,2.92-3.75,4.94-6.21,10-12.35,15.2-18.45-6.1,7.19-12.14,14.45-17.9,21.83.75-1,1.49-1.93,2.25-2.89-.25.31-.93,1.2-1.2,1.55,3.88-5,7.75-9.83,11.86-14.64l-.78.94,2.09-2.46-.64.73c4.62-5.43,11.25-13.22,17.06-20l.27-.28L98.1,78.75l6.11-7.12c.32-.35.66-.73,1-1.16l.06-.07L108,67.24l.5-.62-2.43,2.84.52-.64c.75-.82,1.74-2,2.88-3.45l-1.93,2.27,1-1.33-5.48,6.43.35-.34c-8.41,9.87-18.21,21.12-25.19,29.85-3.58,4.46-7.07,9-10.52,13.55,2.89-3.86,6.3-8.23,9.22-12C71.22,111.1,65.26,119,59.71,126.57l6.75-9c-4.73,6.34-9.68,13.06-14.62,19.65,1.24-1.66,2.48-3.32,3.7-5L47.4,143.08,49,141l-3.67,4.84c-1.07,1.58-2.68,3.39-4.29,5.33.36-.44,1.1-1.4,1.48-1.88,3.84-4.93,8.27-10.86,11.9-15.77-2.54,3.38-9.74,13-13.55,17.86h0c-.54.66-1.08,1.34-1.6,2l.51-.54c-.17.21-.53.63-1,1.16a17.09,17.09,0,0,0-3,5.94,13,13,0,0,1,1.76-4.34c-.13.19-.27.38-.4.58l.3-.54L38,155c.19-.27.39-.53.59-.79-.2.19-.38.38-.56.58.77-1,1.61-2,2.41-3-.46.59-.91,1.18-1.38,1.77,2.15-2.66,3.47-4.41,3.3-4.23l-.42.54.29-.42A35.23,35.23,0,0,0,38,154.84a9.51,9.51,0,0,0-1.42,2.2c.06-.12.13-.24.2-.36l-.25.47a.37.37,0,0,1,0-.11l-.12.23a8.19,8.19,0,0,0-1,4.26c0,.06,0,.12,0,.18,0-.22,0-.45.05-.67a11.12,11.12,0,0,0,.06,1.16c0-.11,0-.23,0-.35,0-.36,0-.75,0-1.15,0-.09,0-.19.05-.29a8.53,8.53,0,0,0,0,1c0,.14,0,.29,0,.43s0,.37,0,.53a1.1,1.1,0,0,0,0-.18,6.76,6.76,0,0,0,.68,2.65A8.66,8.66,0,0,0,37.5,167a8.59,8.59,0,0,1-2-5.31c-.11,2.87,1.21,5.62,4.93,7.82a11.79,11.79,0,0,0,4.43,1.21,11.14,11.14,0,0,1-3.64-1c3.36,1.41,6.87.94,10.3,0-.31.06-.64.11-1,.15,1.26-.41,2.65-.63,3.95-1l-.06,0,.65-.2c-.85.35-1.71.67-2.6.94,1.29-.37,2.57-.81,3.82-1.23.16-.14.32-.3.49-.47l-.58.26a1.63,1.63,0,0,0,.6-.44,5.85,5.85,0,0,1-.86.53l-.13.08.18-.07-.28.13,0-.06.18-.08a11.15,11.15,0,0,0,2.36-2.25,13.07,13.07,0,0,1-2.1,1.85l5.1-5.59a7.83,7.83,0,0,1,.73-.82l0,0,4-4.45c-1.25,1.44-2.51,2.91-1.58,1.86l.73-.84-.53.63c.89-1,1.64-1.9,1.89-2.17-.15.16-.32.34-.5.55l.66-.77c5-5.55,9.87-11,14.76-16.55L99.31,120c8.74-9.72,17.44-19.73,25.65-30l-.39-.33,0,0a1.51,1.51,0,0,1,.18.09l.17.12A.24.24,0,0,1,125,90c.24-.34.72-.85,1-1.19.92.93,1.83,1.88,2.75,2.85,8.17,9.17,16.44,18.37,24.58,27.51l-3.13-3.51c1.56,1.75,6.57,7.41,5.71,6.4l1.82,2-2.29-2.62c5.27,5.9,10.86,12.19,16.06,18.23L168.28,136c3.2,3.66,7,8,10.23,11.69-1.79-2,.49.58,1,1.17,4.29,4.86,8.49,10.52,13.9,14.2,2.21,1.72,5.47,1.6,7.7,3,5.14,4.45,13.56,6.19,20,5.37,1-.16,3.28-.76,3.12-2.76C224.2,168.2,224.17,168.28,224.12,168.57Zm-30.75-40.14-3.92-5.1,6.52,8.44-.57-.73C196.79,132.87,193.9,129.12,193.37,128.43Zm-134-1.14c4.47-6,9.14-12.36,13.7-18.22-1.67,2.23-2.42,3.26-4.08,5.42l.79-1.09c-.74,1-3.83,5-3.07,4.09C64.26,120.73,61.82,124,59.38,127.29Zm7.83-9.82,2.14-2.86C68.79,115.41,67.76,116.73,67.21,117.47Zm.27-.92,2.88-3.8C69.45,114,68.34,115.45,67.48,116.55ZM72,150.09c.8-1,3.72-4.21,5.1-5.73Zm4.53-45.31L81.18,99C81.46,98.69,76.31,105,76.52,104.78Zm24.76-29.51c-.27.34.2-.19,1-1.12l-7.59,8.9c-2.36,2.77-4.48,5.26-6.91,8.08C88.24,90.59,99.82,77,101.28,75.27Zm-2.62,3.28-1.28,1.53-2,2.39C96.1,81.55,97.35,80.08,98.66,78.55ZM86.31,134.36c7-7.93,14.18-16,21.78-24.37l6.62-7.63C105.52,113.17,95.88,123.76,86.31,134.36Zm38-83.69h0c-.84.38-1.71,1.09-2.41,1.37C122.67,51.75,123.52,51.05,124.35,50.67Zm-.58.3A18.1,18.1,0,0,0,122,52,6.51,6.51,0,0,1,123.77,51Zm-5.18,4a20.88,20.88,0,0,1,2.65-2.37c1.37-1,2.57-1.52,1.5-1a24.33,24.33,0,0,0-4.93,4.18C118.06,55.57,118.33,55.29,118.59,55Zm6.33,35c-2,2.5-4.46,5.54-6.37,7.78,2.12-2.56,4.27-5.23,6.35-7.8l-.33-.28h0Zm-.33-.32h0l.17.08Zm1.24-39.42a.86.86,0,0,0-.1.16h0A1.09,1.09,0,0,1,125.83,50.27Zm0,.46h0l0,0h0Zm0,0h0Zm0,0h0l0,0h0l0,0Zm0,0,0,0h0l0,0Zm0,0h0l0,0h0Zm-.11-.26h0l0,0h0Zm0,.25h0l0,0h0Zm.25,38.05c-.25.33-.74.83-1,1.17h0c.24-.35.72-.85,1-1.19h0Zm0-38.2h0ZM169.63,98.3l5.28,6.65c-1-1.22-3.11-3.91-3.74-4.69,2.38,3,8.72,11.07,11.19,14.29-5.05-6.48-10.18-13-15.29-19.39l3.7,4.6Zm-26-30.84c-.15-.13-.33-.31-.51-.5a28.22,28.22,0,0,0,2.09,2.28c1.7,1.92,3.39,3.87,5.07,5.81l-1.87-2.23q5.15,5.88,10.19,11.85-.17-.15-.36-.36l.6.71-.69-.81L158,84c-.41-.49-.82-1-1.24-1.47-.8-.94-1.62-1.88-2.43-2.82q1.77,2.07,3.53,4.15c-1.32-1.44-3.49-4-6.1-7.11-3-3.42-6-6.81-8.93-10.15.12.14.24.26.35.37l-1.08-1.29Zm8.29,9.6c-3.8-4.27-9.3-10.58-12.94-14.73C143.22,67.12,147.64,72.19,151.93,77.06ZM138.72,62l.12.1c.51.56,1,1.15,1.54,1.72s.85,1,1.24,1.48Zm3.19,3.15-1.61-1.82c-.82-.93-1.63-1.85-2.42-2.73l-.15-.18Zm-4.74-4.87,0,0L136,59c.28.35.55.67.81,1a29.14,29.14,0,0,1-2.46-2.82l.81.89-.83-.91-.69-.87,1.27,1.41L136,59C136.12,59.08,136.63,59.65,137.17,60.26ZM134.73,57q-1.59-1.77-3.21-3.52C132.55,54.56,133.64,55.77,134.73,57Zm-5.14-5.34c.57.48,1.18,1.06,1.81,1.7l3.45,3.78c.36.41.72.83,1.07,1.25-1.06-1.16-2.08-2.24-3-3.21.61.7,1.21,1.43,1.78,2.13l-1.27-1.41c-.31-.39-.62-.78-.94-1.16l-.91-.9-.72-.8a17.56,17.56,0,0,1-1.25-1.34c.58.51,1.19,1.13,1.82,1.8A21.1,21.1,0,0,0,129.59,51.69Zm-2.49-1.76a3.28,3.28,0,0,1,.64.23,5.86,5.86,0,0,1,1.32,1.08c-.21-.16-.42-.32-.62-.45h0l-.16-.13-.1-.09.07.07a2.26,2.26,0,0,0-1.1-.52,2.19,2.19,0,0,0-.67-.13A1.32,1.32,0,0,1,127.1,49.93Zm.09.2a2.37,2.37,0,0,1,1.08.53l.08.07A5.38,5.38,0,0,0,127.19,50.13Zm.19.14-.16-.05h0Zm.93.41.09.09h0Zm-2.15-.4,0,0,.09.05h0Zm.11,0h0Zm.66-.12a1.63,1.63,0,0,0-.58.08l0,0h0l-.09-.05a1.05,1.05,0,0,1,.43-.11h0l.06,0-.13,0,.2,0h-.05l.08,0a2.32,2.32,0,0,1,.42.1h0a1.86,1.86,0,0,0-.45-.06l.07,0h-.18a1.42,1.42,0,0,0-.34.15h0a1.13,1.13,0,0,1,.33-.13h.15l.1,0a2.32,2.32,0,0,1,.6.13l.23.1-.1,0-.08,0h0l.08,0h0l.09,0h0l.09.05,0,0a5.5,5.5,0,0,1,.59.36l-.08-.08.06.05a.52.52,0,0,1,.11.1l.08.05-.16-.14h0l.16.15.63.49c.45.49.87,1,1.21,1.29l.69.76c-.29-.27-.56-.53-.83-.77,1.27,1.35,2.72,3,3.72,4.07L132.45,55c-.72-.78-1.44-1.57-2.17-2.35l-.44-.39a10.84,10.84,0,0,0,1.34,1.44,10,10,0,0,1-1.36-1.46l-.4-.35a11.35,11.35,0,0,0,1.27,1.37c2.62,2.84,7,7.67,9.4,10.44l-4.74-5.33,5.72,6.46c-3.24-3.61-7-7.82-10.34-11.5a12.37,12.37,0,0,1-1.36-1.48A10.48,10.48,0,0,0,126.93,50.21Zm10.79,11.06-5.09-5.66,2.65,2.92ZM130.07,93c5.16,5.5,10.34,11.49,15.51,17.37Q137.81,101.7,130.07,93ZM142.26,66.2l4.11,4.69,3.18,3.64C148.66,73.55,142.6,66.63,142.26,66.2ZM156,82c3.68,4.33,8.6,10.25,12,14.53-.27-.27-4.42-5.48-5.62-6.86.12.12-.7-.86-1.63-2,2,2.5-2-2.37-2.38-2.85A31,31,0,0,0,156,82Zm13.54,16.79C166,94.4,162,89.59,158.43,85.25,162.07,89.62,166.07,94.45,169.49,98.79Zm-7.08-8.53-2.31-2.84,2.55,3.09c.27.36.86,1.06,1.21,1.51Zm4.85,5.95c1.2,1.47,3.43,4.26,4.1,5.13C170.94,100.82,167.47,96.46,167.26,96.21Zm4.59,5.22,4.6,5.77C176,106.7,173.2,103.12,171.85,101.43Zm-21.59-26.1c3.68,4.07,7.37,8.31,10.79,12.54,4.24,5.07,8.34,10.21,12.43,15.39-.58-.68,3.26,4.16,3.78,4.84C168.9,97.51,159.47,85.61,150.26,75.33Zm24.46,29.5c4.56,5.81,9.63,12.27,14.11,18.12C185.1,118.18,178.11,109.19,174.72,104.83Zm15.8,20.32,10,13c-.74-.86-3-3.87-4-5.13Zm9.78,12.76.76,1Z"/><path class="cls-2" d="M136,59.28l0,0Z"/><path class="cls-2" d="M57.49,167.25c2.13-2.27,5.06-6,7.15-8.48-1.5,1.75-3.39,4-3.8,4.47C60,164.23,58.43,166.14,57.49,167.25Z"/><path class="cls-2" d="M56.86,168l-.06.08c.12-.12.37-.41.69-.79l-.72.75Z"/><path class="cls-2" d="M187.67,120.74l10.67,13.83c3.07,4,6.29,8.12,9.35,12.09-5-6.65-11-14.26-16.34-21.17l1.68,2.17-5.23-6.79C188.22,121.42,188.11,121.3,187.67,120.74Z"/><path class="cls-2" d="M60.54,125.13c.77-1,1.41-1.89,2.2-2.93,2.6-3.5,4.56-6.17,7.3-9.78l-2.12,2.83c.63-.79,3.51-4.63,4-5.34-2.78,3.54-7,9.16-9.68,12.82-.32.44.1-.11.42-.51Z"/><path class="cls-2" d="M80.43,99.21c1.51-1.86,3.14-3.86,4.62-5.6-2.35,2.73-4.11,4.94-6.4,7.77.27-.33.57-.72,1-1.22-1.65,2.06-3.38,4.2-4.73,6l1.79-2.25c-1.13,1.43-1.49,1.94-2.68,3.47C74.24,107,79.57,100.22,80.43,99.21Z"/><path class="cls-2" d="M166.36,93.79,165,92.11l.85,1c-3.28-4.05-8-9.82-11.26-13.47,2.19,2.56,4.29,5,6.54,7.75C163,89.66,164.54,91.54,166.36,93.79Z"/><path class="cls-2" d="M81.5,98.13c1.39-1.72,2.83-3.41,4.26-5.12-1,1-7.49,8.92-8.7,10.59Z"/><path class="cls-2" d="M58.68,127.58c-2.42,3.27-8.21,11-9.47,12.77l4.69-6.29Z"/><path class="cls-2" d="M58.68,127.58c.24-.31.45-.6.61-.83C59.09,127,58.89,127.31,58.68,127.58Z"/><path class="cls-2" d="M157.92,124.31l6,6.79-.75-.85,1.12,1.25c-1.13-1.34-4.89-5.56-6.27-7.07C161.61,128.47,157.46,123.77,157.92,124.31Z"/><path class="cls-2" d="M102.91,73c-1.44,1.59-6.45,7.54-8.67,10.14Z"/><path class="cls-2" d="M181.87,113.22,180,110.88l.86,1.08c-2-2.57-3.44-4.44-4.76-6L175,104.51l3.14,4Z"/><path class="cls-2" d="M93.1,84.2c1.12-1.29,3.75-4.37,3.89-4.6-.81,1-1,1.21-.93,1.08-.44.52-3.77,4.36-4.54,5.35l3.09-3.62Z"/><path class="cls-2" d="M166.89,94.31l6,7.43-.49-.65c-.63-.8-4.2-5.29-3.35-4.18C168,95.6,163.4,90,166.89,94.31Z"/><path class="cls-2" d="M45.25,145.62c1.53-2,2.09-2.75,2.78-3.7-.64.83-1,1.34-1.47,1.93l.88-1.18L45,145.88l.47-.6-.93,1.22C44.8,146.21,46.09,144.49,45.25,145.62Z"/><path class="cls-2" d="M83.09,96.3l4-4.71c-1.84,2.17-6,7.07-7.38,8.85Z"/><path class="cls-2" d="M86.57,91.83c.78-.9,3.34-3.88,4-4.74C91.56,85.93,87.13,91.16,86.57,91.83Z"/><path class="cls-2" d="M54.09,133.86,57.67,129C56.34,130.76,55,132.63,54.09,133.86Z"/><path class="cls-2" d="M182.35,113.82c.1.17,3.29,4.29,3.73,4.84C186.76,119.48,182.82,114.43,182.35,113.82Z"/><path class="cls-2" d="M210.47,150.19c-1.12-1.43-1.51-2-2.24-2.84l4.93,6.3C212.87,153.27,211,150.9,210.47,150.19Z"/><path class="cls-2" d="M120.38,52.72l.08,0C120.55,52.59,120.57,52.58,120.38,52.72Z"/><path class="cls-2" d="M102.4,73.29c-.12.16,3-3.49,3.38-4-.45.52-3.37,3.9-3.5,4.09l2-2.31Z"/><path class="cls-2" d="M171.64,100.44l4.06,5.15C174.89,104.54,172.66,101.67,171.64,100.44Z"/><path class="cls-2" d="M158.65,84.47c-1.59-1.87-3-3.56-4.42-5.15C155.84,81.13,157.89,83.62,158.65,84.47Z"/><path class="cls-2" d="M154,78.89c1.3,1.42,2.5,2.9,3.61,4.16C156.44,81.62,155.21,80.12,154,78.89Z"/><path class="cls-2" d="M164.84,91.74l3.22,4C167.16,94.57,165.84,92.94,164.84,91.74Z"/><path class="cls-2" d="M148.9,73.13c1.28,1.47,2.82,3.21,3.32,3.74Z"/><path class="cls-2" d="M61.77,123.45c-.31.38-1.87,2.5-2.17,2.9C59.14,127,61.53,123.76,61.77,123.45Z"/><path class="cls-2" d="M45.23,145.8c1.21-1.58,1.87-2.45,2.81-3.72Z"/><path class="cls-2" d="M159.29,85.05l-2.49-3C156.92,82.27,158.81,84.49,159.29,85.05Z"/><path class="cls-2" d="M56.26,131.19c-1.12,1.5-2,2.75-3.1,4.18C53.83,134.49,55.41,132.37,56.26,131.19Z"/><path class="cls-2" d="M88.51,89.59l1.54-1.81Z"/><path class="cls-2" d="M91.2,86.42l-.64.77Z"/><path class="cls-2" d="M182.94,114.66c.27.31-2.2-2.85-2.41-3.11Z"/><path class="cls-2" d="M60.71,125.09l1.94-2.61C62.4,122.8,61.29,124.31,60.71,125.09Z"/><path class="cls-2" d="M60.71,125.09l-.35.47Z"/><path class="cls-2" d="M106.3,68.68l2.7-3.17C108.09,66.57,106.3,68.65,106.3,68.68Z"/><path class="cls-2" d="M109,65.51l.52-.61Z"/><path class="cls-2" d="M108,67.35l2.72-3.2-1.19,1.39c.14-.17,1.5-1.75,1.81-2.13l-5.46,6.37,2.95-3.41Z"/><path class="cls-2" d="M99.72,77.11c-.11.12-2.19,2.56-2,2.41C98,79.2,99.5,77.38,99.72,77.11Z"/><path class="cls-2" d="M106.63,123.8l.12-.18c.21-.32.43-.64.63-1C107,123.25,106.85,123.42,106.63,123.8Z"/><path class="cls-2" d="M101.59,130.57l.13-.15,0,0Z"/><path class="cls-2" d="M152.74,131.2c.44-1.08-.18-2-.93-2.77A2.71,2.71,0,0,1,152.74,131.2Z"/><path class="cls-2" d="M103.7,134.73l-1,0s.37.08.59.11c.67,0,1.44.06,2.24.08,1.09.06,2.26.06,3.38.06h.23a44,44,0,0,1,5.14.09c-1.44,0-2.89,0-4.35-.07.51,0,1,0,1.31.06a46.14,46.14,0,0,0,5.26,0h.09c3.93-.19,7.87-.67,11.78-.59a63,63,0,0,0-10.09.47,62.7,62.7,0,0,1,12.92-.37q-1.22-.06-2.46-.09c.76,0,1.52.06,2.27.14l-1.25,0c.22,0,2.51.11,2.18.06h.64l-.83-.06c2,0,3.84.1,5.8.11l-1.16,0c1.17,0,2.51-.06,3.7-.08,1.28-.34,10.37.48,11.77-1.55.25-.22.69-1.59.33-1.35,0,0,0-.07,0-.11.68-1.5-.61-3.27-2.31-5.05l-.09-.1.66.7-1.36-1.57c.6.64,1.31,1.43,1.89,2l-.37-.42c.27.28.56.56.85.85a9.58,9.58,0,0,1-1-1.1c.1.1.3.34.4.43l.5.56s-.83-.95-.82-1l.41.45s-1.32-1.51-.32-.39c.85,1-.22-.28-.47-.56l1.42,1.57-1.51-1.76,1,1.1-.28-.33.62.7c-.17-.2-.67-.77-.79-.92.06,0,1.34,1.55,1.57,1.76l-.36-.42.13.13-.82-1s.12.12.06,0c.33.39.62.74.94,1.07l-.53-.65c.38.41.72.8,1.11,1.23-.32-.39-.67-.78-1-1.22s-2.34-2.72-3.2-3.64c.1.11.44.5.24.29-.61-.72-2.25-2.49-.63-.64.52.61,1.39,1.51,1.78,2-1.35-1.5-2.66-3-3.93-4.51l1.24,1.39c-.75-.9-2.23-2.57-3-3.42.37.44.72.82,1.05,1.23-.93-1-2.72-3.16-3.79-4.3.86,1,2.32,2.73,3.14,3.68-1-1.12-1.82-2.08-2.86-3.24,2.31,2.73,4.76,5.5,7.17,8.21-2.94-3.23-6.31-7.19-9.1-10.38l.07.06c.42.48,1.7,1.94.59.6-1.57-1.81-3.16-3.57-4.76-5.32l.27.33-2.42-2.65.3.27,1.85,2c-.68-.84-1.39-1.72-2.11-2.57.56.6,1,1,.2.18l.77.8c-.66-.7-1.29-1.4-1.91-2.09-.2-.23-.4-.46-.61-.68l-.94-1.08a5.31,5.31,0,0,0,.46.55c-.16-.17-.31-.34-.47-.5a13.56,13.56,0,0,0-2.32-2.39,2.62,2.62,0,0,0-1.48-.78,4.15,4.15,0,0,0-.61-.14l.41.11a3.13,3.13,0,0,0-.53,0h0l-.12,0-.16,0h0l-.12,0,.14,0a3,3,0,0,1,.42,0,3.43,3.43,0,0,0-2.08,1c.1-.08.2-.14.29-.2l-.07.06q-.22.17-.45.36l.23-.22c-.16.12-.32.26-.49.4l-.38.45-.22.23.34-.39a1.53,1.53,0,0,0,.11-.16.52.52,0,0,1-.11.1l.32-.38-.21.28.15-.13a5.3,5.3,0,0,1,1.42-1.22h0a2,2,0,0,1,.34-.14l.24-.08h0l.09,0a1.64,1.64,0,0,0-.71.22,3.31,3.31,0,0,0-1,.69,6.55,6.55,0,0,0-1.16,1.25,30.25,30.25,0,0,0-2.33,2.78h0l-.11.15c.54-.63,1-1.19,1.49-1.7.27-.3.53-.61.79-.91-.16.19-.32.37-.47.57l.31-.34-.69.8-1,1.33c.76-.86,1.5-1.73,2.21-2.6l.23-.31c.18-.17.35-.34.52-.49l-.39.46.49-.55.09-.08-.06.07.1-.11.39-.31.31-.27a2,2,0,0,0-.26.18,2,2,0,0,1,.23-.17l-.13.07.06,0,.1-.06,0,0,.09-.06-.06,0a2,2,0,0,1,.25-.14,2.78,2.78,0,0,1,.44-.19,4.34,4.34,0,0,0-1,.6c-.38.36-.82.84-1,1.1l.06-.08-.64.74.56-.69c-.12.09-1.82,2.09-2.37,2.77v0l-.46.53.3-.4c-.55.64-1.11,1.27-1.68,1.91.15-.21.31-.42.47-.62l2.21-2.62.38-.46-.32.34L120.54,107c.15-.2.3-.41.46-.61-1.17,1.33-2.55,2.94-4.25,4.82-.77.8-1.56,1.6-2.3,2.44.82-1,1.54-1.67,2.46-2.63a57.74,57.74,0,0,0-4.55,5.06c.21-.26,1.57-1.83,1.75-2-1.93,2.18-3.76,4.69-5.47,7.06l.3-.44c-.9,1.19-2.32,3.32-3.18,4.47l.33-.48c.25-.36,1.55-2.18,1.56-2.27-.13.14-.61.83-.9,1.23-.13.2-.28.39-.41.59.13-.2.29-.44.32-.5l-.53.78.08-.11c-.56.79-1.14,1.56-1.74,2.33l1.78-2.53c-1.42,1.91-3,3.72-4.3,5.69a10.09,10.09,0,0,1,.78-.9c-.34.46-.67.94-1,1.41.66-.84,1.25-1.49,2-2.48-.15.22-1.18,1.47-.78,1,0,.05-.89,1.07-1.26,1.51a17.74,17.74,0,0,0-1.18,2C99.89,133.83,101.42,134.46,103.7,134.73Zm46.5-8.39-.76-.87C149.75,125.8,150,126.1,150.2,126.34Zm-3.43-3.93c.15.21-1.26-1.42-1.51-1.73l1.66,1.89ZM129.22,103c-.06-.09-.13-.17-.2-.26C129.23,102.92,129.37,103.07,129.22,103Zm.34,0c.06.07.13.14.19.22l0,0,.21.25-.43-.44.22.19C129.67,103.06,129.61,103,129.56,102.93Zm0,.16-.42-.49,0,0A3.33,3.33,0,0,1,129.52,103.09Zm1.33,1.61c-.6-.69-1.16-1.31-1.68-1.94Zm.21.56.66.74c-.16-.16.45.53.53.61C132.07,106.43,131.18,105.44,131.06,105.26Zm2.36,2.43,1,1.08c.28.3.57.6.77.85C135,109.4,133.48,107.81,133.42,107.69Zm2,2.42a7.65,7.65,0,0,1,.6.66Zm1.76,2c.27.25-.23-.31-.56-.68.89,1,2.13,2.37,3,3.36-.1,0-1.09-1.25-1.41-1.56a2.76,2.76,0,0,0-.39-.47C138.39,113.46,137.2,112.09,137.22,112.12Zm1.36,1.82-1.42-1.64c.8.93,1.73,1.94,2.51,2.86Zm1.93,1.9,1.24,1.38C141.61,117.12,140.81,116.19,140.51,115.84Zm-5.14-6c.63.68,2,2.24,2.62,2.93,1,1.15,2.08,2.37,3.08,3.53-.17-.13.8,1,.93,1.12C139.88,115,137.55,112.26,135.37,109.8Zm4.78,5.29,1.32,1.52-.94-1.06,2.52,2.94c.21.28-2.66-3.08-3.56-4.1l.94,1Zm1.23,1.53c1.15,1.33,2.46,2.78,3.58,4.11C144,119.67,142.3,117.7,141.38,116.62ZM146.9,123l1.29,1.45C148,124.29,146.9,123,146.9,123Zm0,0-1.53-1.78c.31.37,2.16,2.48,2.55,2.93C147.73,124,147.18,123.28,146.92,123Zm-7.76-9.1c.14.14.27.29.41.44-.08-.08-.18-.2-.3-.34.13.13.25.25.37.35,1.78,2,3.55,4.06,5.27,6.09l-4.14-4.73c1.51,1.76,3.11,3.6,4.62,5.34l-6.47-7.4Zm-5.58-6.69-.29-.32-.15-.17Zm1.46,2.08-1-1.17,2.55,2.8c.13.17.27.33.4.49l-.15-.16.4.47c.37.45.73.86,1.06,1.24-1.16-1.26-2.17-2.41-3.09-3.47s-1.83-2-2.52-2.75Zm-2.14-2.17-1.13-1.26c.38.46.93,1.06,1.36,1.52-1.1-1.09-2.16-2.44-3.21-3.65C130.7,104.63,132.15,106.26,132.9,107.12ZM132,106l.24.26c.06.08.14.16.2.23a7.07,7.07,0,0,1-.48-.52Zm-.4-.47c0,.07.1.12.15.18-.12-.12-.52-.6-.6-.69l-.95-1.1h0Zm-1.57-2,0,0c.19.24.39.48.58.73l-.35-.39C130.22,103.73,130.14,103.62,130.05,103.5Zm.66.56c-.29-.29-.58-.57-.86-.82a7.45,7.45,0,0,0-.64-.71c-.07-.08-.13-.14-.19-.22l-.15-.15A10.72,10.72,0,0,1,130.71,104.06Zm-5.78-1.86,0,0,0,0Zm1.93-.74a4,4,0,0,1,.5.09l-.29-.08h0a3.58,3.58,0,0,1,.35.09h-.06l.23.08-.07,0,0,0,.06,0h0l.09,0,.2.11a2.92,2.92,0,0,0-1.44-.27Zm-.39,0-.14,0h-.09Zm-1.45.85c-.47.47-.85,1-1.28,1.43A16.23,16.23,0,0,1,125,102.34Zm-1.55,1.79-1.87,2.17C121.94,105.85,123.15,104.46,123.47,104.13Zm-2.83,3.08,2.28-2.69c0,.09.06,0,.25-.25-.09.15-1.53,1.79-1.8,2.11l-1.19,1.39Zm-.85,1,.08-.08-.14.16Zm-2.44,2.69c.25-.24.5-.5.76-.79a13.19,13.19,0,0,1-1.21,1.25Zm-2.74,3.43c.14-.18.36-.42.55-.64A8.39,8.39,0,0,1,114.61,114.33Zm-.11-.39c.14-.16.66-.75.76-.84A9.11,9.11,0,0,1,114.5,113.94Zm1.51-1.89-1.62,1.75C115,113.08,115.54,112.54,116,112.05ZM113.44,115c.7-.83,1.71-2,2.47-2.77l-.08.1.7-.72,0,0-1.09,1.19.47-.5c-.43.5-.66.79-1.07,1.22a2.75,2.75,0,0,1,.19-.25,7.41,7.41,0,0,0-.8.91c-.66.74-1.29,1.44-1.9,2.21.69-.84,1.41-1.7,2.15-2.53C114.16,114.2,113.79,114.59,113.44,115Zm-1.2,1.39c-.14.16-.65.85-.69.88C111.75,117,112,116.66,112.24,116.37Zm-1.44,1.88c-.11.16-.31.42-.5.68C110.49,118.63,110.69,118.4,110.8,118.25Zm-6.31,8.4-.12.18-.34.44C104.17,127.07,104.32,126.87,104.49,126.65Zm-1.1,8a6.71,6.71,0,0,1-1.9-.52A8.6,8.6,0,0,0,103.39,134.63Z"/><path class="cls-2" d="M135.84,110.15l-.8-.86.17.2Z"/><path class="cls-2" d="M103.39,134.82l-.14,0h-.09Z"/><path class="cls-2" d="M106.25,124.18c.64-.87,1.26-1.76,1.83-2.69C107.51,122.37,106.88,123.27,106.25,124.18Z"/><path class="cls-2" d="M100.6,132a1.74,1.74,0,0,1,.11-.18c-.11.26-.22.52-.3.74,0-.06.23-.53.39-.9.36-.63.75-1.23,1.15-1.82l-.17.18A8.11,8.11,0,0,0,100.6,132Z"/><path class="cls-2" d="M147.63,123.11c.79.9,1.62,1.8,2.4,2.71-1.21-1.52-2.83-3.19-4.19-4.75l.44.48c-.4-.49-.86-1-1.33-1.53.1.13.07.11,0,0C145.79,121.06,146.73,122.08,147.63,123.11Z"/><path class="cls-2" d="M115.44,112.22A30.9,30.9,0,0,0,113,115c-.21.25-.42.5-.55.68.23-.25.36-.43.58-.67.65-.77,1.18-1.43,1.89-2.22,0,.06-.5.58-.55.64C114.56,113.25,115.3,112.41,115.44,112.22Z"/><path class="cls-2" d="M108.23,121.48c.9-1.27,1.82-2.53,2.75-3.81-.62.75-2.33,3.13-3.13,4.32A5.62,5.62,0,0,0,108.23,121.48Z"/><path class="cls-2" d="M117.69,109.9c.35-.39.82-.9,1.11-1.27-.49.53-1,1.15-1.57,1.74a2.33,2.33,0,0,1,.24-.27c-.43.44-.88.9-1.24,1.3.22-.2.46-.47.69-.69l-.91,1C116.1,111.62,117.49,110.14,117.69,109.9Z"/><path class="cls-2" d="M138.21,112.44c.46.52.83,1,1.29,1.48l-.34-.39c.57.57-2.12-2.47-2.54-2.9Z"/><path class="cls-2" d="M118,109.74c2.65-3-.61.59-1.14,1.19C117.32,110.5,117.62,110.2,118,109.74Z"/><path class="cls-2" d="M125,101.59a4,4,0,0,1,1.28-.54,3.26,3.26,0,0,0-.45.14,2.62,2.62,0,0,1,1.81,0c-.36-.11-.08-.06.21.05-.29-.12-.36-.13-.09-.06a2.79,2.79,0,0,0-2.75.35,5.52,5.52,0,0,1,.54-.28C125.28,101.41,124.65,101.84,125,101.59Zm.67-.37-.1,0Z"/><path class="cls-2" d="M109.7,119.27l1.11-1.51,1.32-1.73C111.7,116.52,110,118.81,109.7,119.27Z"/><path class="cls-2" d="M132.62,134.65c.1,0,2.08,0,2.17,0h.13c-.42,0-1.77,0-2.25,0C133.94,134.69,132.45,134.64,132.62,134.65Z"/><path class="cls-2" d="M143.2,118a15.59,15.59,0,0,0-1.22-1.35l-.29-.32s.67.76.79.9l1,1.07-.46-.54S143.13,117.93,143.2,118Z"/><path class="cls-2" d="M121.64,105.33c-.19.22-.24.29-.23.25-.09.11-1.06,1.21-1.06,1.28l.73-.86-.35.43A12.25,12.25,0,0,0,121.64,105.33Z"/><path class="cls-2" d="M102.06,134.53l-.36-.15.29.1c-.82-.39-2.18-.63-1.66-1.76C99.67,133.81,101.3,134.24,102.06,134.53Z"/><path class="cls-2" d="M139.67,114c.37.4,1.5,1.75,1.41,1.57s-1.06-1.25-.87-1C140,114.31,138.81,113,139.67,114Z"/><path class="cls-2" d="M109.41,120c.67-.91,1.28-1.73,1.93-2.59C110.87,118,109.7,119.61,109.41,120Z"/><path class="cls-2" d="M108.81,120.56a10,10,0,0,0,.62-.91c-.15.2-.25.34-.35.46l.2-.29c-.1.12-.41.58-.55.79l.11-.14-.21.3C108.7,120.7,109,120.27,108.81,120.56Z"/><path class="cls-2" d="M120.13,107.11c.21-.29-.82,1-1,1.11C119.37,108,120,107.32,120.13,107.11Z"/><path class="cls-2" d="M110.88,117.73c.3-.4.64-.85.86-1.16A11.33,11.33,0,0,0,110.88,117.73Z"/><path class="cls-2" d="M124.13,102.63a4.07,4.07,0,0,1,1.6-1.28A3.82,3.82,0,0,0,124.13,102.63Z"/><path class="cls-2" d="M108.13,121.47c-.28.39-.51.72-.72,1.06A8,8,0,0,0,108.13,121.47Z"/><path class="cls-2" d="M143.57,118.42s.82,1,.94,1.1S143.69,118.56,143.57,118.42Z"/><path class="cls-2" d="M150.17,126c.27.32,2.23,2.6.57.65A5.38,5.38,0,0,0,150.17,126Z"/><path class="cls-2" d="M129,102c.51.53.84,1,1.26,1.4-.24-.29-.74-.85-1-1.21C129.29,102.34,129.05,102.06,129,102Z"/><path class="cls-2" d="M123.75,102.89c-.12.12-.83.91-.85,1l.48-.54-.44.53S123.66,103,123.75,102.89Z"/><path class="cls-2" d="M141.79,116.64c-.19-.24-.74-.9-1-1.18Z"/><path class="cls-2" d="M137.58,111.78c-.44-.52-.85-1-1.26-1.4Z"/><path class="cls-2" d="M137.43,111.37c-.3-.34-.6-.69-.89-1C136.84,110.75,137.15,111.08,137.43,111.37Z"/><path class="cls-2" d="M140,114.3c-.22-.27-.54-.64-.8-.91C139.37,113.63,139.74,114,140,114.3Z"/><path class="cls-2" d="M136.09,109.93c-.28-.31-.54-.58-.82-.87C135.58,109.41,136,109.82,136.09,109.93Z"/><path class="cls-2" d="M112.77,115.27a7.35,7.35,0,0,0-.56.67C112.1,116.1,112.7,115.34,112.77,115.27Z"/><path class="cls-2" d="M109.5,119.73l-.64.91C109.14,120.26,109.29,120.05,109.5,119.73Z"/><path class="cls-2" d="M137.81,111.85c-.2-.25-.39-.45-.61-.69C137.22,111.21,137.69,111.72,137.81,111.85Z"/><path class="cls-2" d="M110.74,118.16c.17-.21.55-.71.75-1Z"/><path class="cls-2" d="M120.28,107c-.23.26-.42.49-.63.75A9.66,9.66,0,0,0,120.28,107Z"/><path class="cls-2" d="M143.69,118.63c.08.07-.55-.64-.61-.7S143.65,118.6,143.69,118.63Z"/><path class="cls-2" d="M113.07,115.12h0l-.58.7Z"/><path class="cls-2" d="M123.86,102.72h0a10.53,10.53,0,0,1,.88-1A8.9,8.9,0,0,0,123.86,102.72Z"/><path class="cls-2" d="M122.07,105.54a7.18,7.18,0,0,0,.48-.57S122,105.57,122.07,105.54Z"/><path class="cls-2" d="M158.93,142.29c-.06-.09-.14-.22-.22-.37a1.72,1.72,0,0,1,.07.21l.07.11Z"/><path class="cls-2" d="M143.74,139.84h.17l.8,0Z"/><path class="cls-2" d="M157.84,140.87a4.82,4.82,0,0,1,.53.51A1.59,1.59,0,0,0,157.84,140.87Z"/><path class="cls-2" d="M94.25,140.33h0Z"/><path class="cls-2" d="M159,142.32l0,0h0c.21.11.41.26.61.39l-.19-.15Z"/><path class="cls-2" d="M157.62,140.78l-.26-.21Z"/><path class="cls-2" d="M158.66,142h0Z"/><path class="cls-2" d="M157.07,140.4a5.43,5.43,0,0,1,1,.84A4.14,4.14,0,0,0,157.07,140.4Z"/><path class="cls-2" d="M167.76,150.54l-.07-.07.33.36.27.28Z"/><path class="cls-2" d="M158.74,142.07l-.09-.15a.06.06,0,0,0,0,0A1,1,0,0,1,158.74,142.07Z"/><path class="cls-2" d="M158.8,142.19l0,0-.05-.06Z"/><path class="cls-2" d="M160.39,143.45l-.67-.49.1.08.54.41C160.42,143.49,160.43,143.48,160.39,143.45Z"/><path class="cls-2" d="M158.78,142.13l0-.06a.59.59,0,0,1,0,.08Z"/><polygon class="cls-2" points="94.59 140.42 94.59 140.42 94.59 140.42 94.59 140.42 94.59 140.42"/><path class="cls-2" d="M71.27,172.35l.8,0H72Z"/><path class="cls-2" d="M71.27,172.35h0Z"/><path class="cls-2" d="M183.58,168.46a18.27,18.27,0,0,0-3.13-3.92A21.9,21.9,0,0,1,183.58,168.46Z"/><polygon class="cls-2" points="94.43 140.31 94.42 140.3 94.42 140.31 94.43 140.31"/><path class="cls-2" d="M158.65,141.92l0,0h0Z"/><path class="cls-2" d="M94.13,140.2h0Z"/><path class="cls-2" d="M159,142.32l0,0h0Z"/><path class="cls-2" d="M89.16,145.3l-.39.43.32-.34Z"/><path class="cls-2" d="M93.76,140.6h0Z"/><path class="cls-2" d="M160.24,143.14l-.29-.26q-.37-.24-.75-.45l.21.16C159.69,142.76,160,142.94,160.24,143.14Z"/><path class="cls-2" d="M159.06,142.55h0l.19.12h0A2.12,2.12,0,0,1,159.06,142.55Z"/><path class="cls-2" d="M146.39,139.56l.37,0,2.58,0,.45,0-2.19,0C147.25,139.54,145.61,139.56,146.39,139.56Z"/><path class="cls-2" d="M92.66,141.27l.15-.14.3-.32C93,141,92.81,141.12,92.66,141.27Z"/><path class="cls-2" d="M99.27,140h0Z"/><path class="cls-2" d="M93.24,140.92c-.18.13-.35.27-.51.4l-.22.2C92.75,141.3,93,141.1,93.24,140.92Z"/><path class="cls-2" d="M91,143.17l.89-1A.86.86,0,0,1,92,142l.11-.12L92,142c.06-.06.11-.13.17-.2l-.87,1,.16-.17Z"/><path class="cls-2" d="M93.7,140.64h0Z"/><path class="cls-2" d="M157.9,141a.27.27,0,0,1-.08-.07l0,0Z"/><path class="cls-2" d="M183.69,169.89h0a1.19,1.19,0,0,1-.29.06.53.53,0,0,0,.21-.35c-.85-2.82-4.09-5.25-5.9-7.52-.57-.56-1.14-1.15-1.71-1.75l-.23-.25c.84.88.3.3-.27-.33l.37.4-1.3-1.45,1.43,1.54c-.5-.56-2.22-2.43-2.56-2.83l1,1.11c-.45-.53,1.58,1.72.65.68l1.85,2-1.47-1.62c.86.89,2.28,2.48,3,3.17-.66-.72-1.4-1.55-2.07-2.29-1.59-1.75,1,1.07,1.12,1.16l-1.15-1.26,1.28,1.35-2.7-3,3.68,3.94-.42-.46.85.88a21.61,21.61,0,0,1-1.46-1.65c.19.2.58.65.77.81s.59.65,1,1.07c-.14-.19-1.37-1.48-1.65-1.85l.79.86s-2.6-2.87-.63-.73c1.66,1.83-.44-.5-.94-1.06l2.78,3c-1-1.12-2-2.2-3-3.32l1.91,2.09-.55-.63,1.21,1.33-1.56-1.73c.09.06,2.66,2.93,3.08,3.34l-.71-.79.24.25-1.61-1.78c.06.05.22.22.08.05.66.74,1.25,1.39,1.87,2l-1.08-1.21c.71.75,1.22,1.32,1.92,2.08s-1.54-1.72-1.82-2c-.75-.93-4.62-5.13-6.29-6.93.2.22.88,1,.48.55-.85-.93-1.62-1.82-2.49-2.69-1.07-1.07.8.87,1.29,1.43,1,1.14,2.72,2.94,3.49,3.86-2.58-2.84-5.28-5.75-7.88-8.5l2.52,2.6c-1.52-1.69-4.61-4.71-6.11-6.3.68.76,1.39,1.46,2.14,2.23l-.33-.3c-.53-.56-1.06-1.13-1.6-1.68-1.78-2-3.9-4.44-5.92-5.38a1.19,1.19,0,0,1,.15.09l-.11-.05s-.05,0-.05,0c-.1-.74-.77-1.2-1.29-1.64.49.45,1.18.93,1.27,1.65a1.24,1.24,0,0,1,.28.11,20.46,20.46,0,0,1,4.73,4.3l-.09-.08a21.91,21.91,0,0,0-4.43-4.05l.51.44a19.05,19.05,0,0,1,2.89,2.61l-.25-.22a16.88,16.88,0,0,0-2.35-2.13l.63.54a14.35,14.35,0,0,0-1.27-.94l.23.19a11.64,11.64,0,0,1,1.26,1c.31.26.61.54.9.83l.29.27.15.13-.05,0,.15.13-.1-.09c1.68,1.72,3.2,3.67,4.93,5.22-1.79-1.57-3.34-3.6-5.08-5.35-.27-.25-.57-.47-.85-.72a9.93,9.93,0,0,1,1.33,1.36l-.56-.57c1.49,1.51,2.84,3.23,4.35,4.63-2.06-1.79-3.84-4.4-6.19-6.24l-.54-.41-.59-.38a2.46,2.46,0,0,1-.43-.21l.24.09-.16-.1.18.11.43.24-.23-.12.46.29h0l-.14-.11a6.35,6.35,0,0,1,.83.61c.46.36.91.75,1.34,1.16l-.9-.84.21.17c-.4-.33-.79-.69-1.21-1l-.17-.11a3.81,3.81,0,0,0-.34-.22l0,0-.12-.08a1.56,1.56,0,0,0-.38-.15.05.05,0,0,0,0,0l-.1,0a.89.89,0,0,0,0-.22,4,4,0,0,0-.41-.6,4.86,4.86,0,0,1,.27.41c0,.08.06.27.1.39a.26.26,0,0,1,0-.19c-.07-.1-.16-.18-.23-.27a.26.26,0,0,1,0,.08.83.83,0,0,0-.07-.13l0,.05a3.81,3.81,0,0,0-.83-.86,3.65,3.65,0,0,1,.34.3,6.57,6.57,0,0,0-3.55-1.67c.25,0,.5.05.74.09a10.63,10.63,0,0,1,2,.67h0l.32.17.44.38a4.59,4.59,0,0,0-.41-.36c.2.1.41.21.61.33a4.14,4.14,0,0,1,.93,1.36l.25.16c-.08-.06-.15-.13-.23-.18a3.07,3.07,0,0,0-1.05-1.47c-1.31-1.35-3.11-1.48-4.88-1.44l.47.06h-.28l.44,0,.32,0h0a22.84,22.84,0,0,0-2.35,0c-.6,0-1.22,0-1.84.07h.45l-.6,0h-.3l-.5,0a20.6,20.6,0,0,1-2.08,0l-5.18,0,.85-.05,6.9-.09c.63,0,1.32,0,2,0l-4.21,0,1.14,0-5.27.08.74-.05c-10.77.1-21.54.13-32.31.2l5.92,0c3.77,0,14.66-.05,18.61-.08h.12c-3.89,0-7.86,0-11.73.06l-8.27,0-2.71,0-2,0h-.82c-4,0-7.92,0-11.87.1-.94,0-1.9,0-2.82,0,.43,0,.87,0,1.42,0l1.36,0c-.49,0-1,0-1.48.07.69,0,1.37,0,2,0-.19,0-.57,0-.56,0l1.48,0h-.45l3,0c-2.42.05-4.82.14-7.2.29h-.27l-.18,0,.4,0h.25c3.16-.2,6.49-.28,9.86-.3l2.21-.05-2.12,0,3.41-.05-1.29,0c4.65,0,9.3,0,13.89,0-5.05.13-10.62.05-16.1.09q-3.14.06-6.27.17c7.08-.13,14.19-.21,21.29-.21l-2.73,0h0c-.8,0-1.18,0,0,0h4.48c-1.55,0,3.71,0,2.24,0-2.71,0-5.9,0-8.51,0h1.2l-4.65,0H111.4l1.71,0c.46,0,.57,0-.12,0-2.31,0-4.6,0-6.92.07l.1,0c-2.31,0-4.6,0-6.9.08l-3.55.13h-.25l-.64.09v0l.25,0-.26,0v0l.34,0H94.8l-.08-.08c.81-.07,1.63-.12,2.45-.16a14.39,14.39,0,0,0-2.46.16.74.74,0,0,0-.17-.12,6.77,6.77,0,0,1,1.64-.14l3-.07a38,38,0,0,0-4.77.17l-.12-.06.35-.07-.4.06h0l.53-.11-.57.1-.09,0a1.13,1.13,0,0,0-.27.13.85.85,0,0,1,.23,0h0a1,1,0,0,1,.25,0l-.13,0-.12-.05h0l.11.06a.61.61,0,0,0-.18,0h.2l.13,0,.11.05h-.14l-.16-.08h-.05l.15.07a.64.64,0,0,0-.24,0l0,0h0l-.22.1a.76.76,0,0,1,.21-.18.64.64,0,0,0-.29.22l-.12,0a1,1,0,0,1,.26-.33.8.8,0,0,0-.34.37,4.5,4.5,0,0,0-.41.25l0,0a1.51,1.51,0,0,0-.26.18l0,0-.3.26.19-.16a3.87,3.87,0,0,0-.41.4l0,0c-.14.15-.27.32-.4.49a6.26,6.26,0,0,1,1.52-1.34.32.32,0,0,0,0,.14l-.23.13.23-.11a.43.43,0,0,0,0,.11,4.27,4.27,0,0,0-.6.45l-.73.78a7.35,7.35,0,0,1,.65-.59,4.71,4.71,0,0,1,.7-.55s0,0,0,0h0l0,.07-.14.1.14-.08h0l-.26.15.11-.08a1.52,1.52,0,0,0-.48.38l.07-.07-.11.11,0,0c-.23.18-.46.39-.68.6.26-.29.34-.39-.07.06a4.63,4.63,0,0,1,.41-.49,21.74,21.74,0,0,0-1.88,2l-.09.1.41-.49-1.35,1.5c.57-.65,1.14-1.31,1.72-2-2.41,2.61-4.72,5.29-7.09,7.91l3.46-3.83C84,150.94,80,155.41,76.21,159.56l.69-.77c-2,2.17-5.19,5.71-7.18,7.8l.77-.84c.57-.62,3.52-3.79,3.58-3.93-.31.3-1.75,1.88-2.3,2.46.6-.71.77-.88,1.62-1.83a16.24,16.24,0,0,0,1.3-1.4c.18-.2.55-.59.73-.8,2-2.16,4.14-4.59,6-6.74-1.32,1.4-4.63,5.13-6.64,7.37l.23-.32.25-.3-.17.18.09-.14-.14.19c-.51.57-1,1.07-1.39,1.57-1.09,1.11-2.44,2.38-3.57,3.66.64-.71,1.36-1.41,2.06-2.09-2.82,2.87-4,4.83-4.08,6.16a4.73,4.73,0,0,1,1.15-3c-1.16,1.56-1.74,3.08-.79,4.3.11.13.24.24.37.38a2.47,2.47,0,0,1-.21-.27A5.89,5.89,0,0,0,72,172.37c1,0,2.29,0,1.49,0,.28,0,3.85,0,4.17,0-1.47,0-3.84,0-5.58,0,2.9.32,7,.06,10.72.08,10.55-.09,20.29-1,31.13-1.19-9,.24-18,.87-27,1.19l1.25,0-.41,0c4.63-.12,12.41-.57,15.47-.69,12.31-.75,24.91-.18,37.17-.08,1.4,0,3.26.07,2.83,0h1.25l-1.6-.06c3.65,0,7.47.07,11.17-.1l-2.23.12c2.22-.07,4.87-.28,7.12-.4,4-.28,13.67-.19,19.53-.1,2.1.09,3.56,0,4.92-.87.23-.15.62-.22.43-.53S183.62,169.49,183.69,169.89Zm-19.52-23.08.52.57-.59-.64Zm-1.55-1.51.31.29c1.16,1.25,2.27,2.58,3.39,3.66C165,148,163.86,146.62,162.62,145.3ZM74.89,160.74c-.31.39-.73.83-1.18,1.3C74.21,161.5,74.62,161.05,74.89,160.74Zm-3,3.39c-.14.17-1.06,1.21-1.22,1.35Zm7.93-8.46c.43-.51.83-.93,1.08-1.2Zm4.83,16.67c.57,0,2.57-.08,3.51-.1C87.69,172.26,84.77,172.36,84.63,172.34Zm3.66-25.88,1.46-1.62C89.29,145.37,88.74,146,88.29,146.46Zm.76-.89c0-.06.25-.31.39-.48-.24.27-1,1.08-1.37,1.52l.24-.29-1.58,1.76c.38-.38.76-.81,1.15-1.26-.06.07-.08.1,0,0-1.28,1.38-2.52,2.76-3.77,4.15l2.61-2.91-.42.41,2.46-2.76c-.19.2-.38.4-.56.56.43-.43.8-.83,1.14-1.22l-.19.23.28-.32c-.12.14-.23.28-.35.41l-.78.93,2.78-3.1C90.27,144.19,89.87,144.67,89.05,145.57Zm5.7-5.37h0Zm-.39-.2.12,0a.64.64,0,0,1,.2.11h0a.47.47,0,0,1,.06.09h-.11l0,0s0,0,0,0h0A.54.54,0,0,0,94.36,140Zm.11.22,0,0h0Zm0,.07h0Zm.13,0h0Zm-.19-.13.11.05h-.15l0,0,0,0Zm0,.09h0Zm-.16-.06h0l.06,0h0l-.09,0Zm-.08.06h0Zm0,0h-.05l0,0h.05Zm.09,0h0l0,0h0Zm-.14-.05Zm0,0,0,0h-.07l-.09,0v0a.29.29,0,0,1,.1,0h0Zm-.24.51h0v0Zm0-.16h0A0,0,0,0,1,93.9,140.52Zm0-.2.12-.09h0l-.09.06Zm.15-.13h0Zm0,0h0l-.07,0Zm-.18.15,0,0a.47.47,0,0,1,.15-.13Zm-.21.64h0l0,0h0Zm-.09-.1h0l.08,0h0Zm.23-.47.05,0a.59.59,0,0,0-.06.14h0A.56.56,0,0,1,93.74,140.42Zm-.06.14-.09,0a.49.49,0,0,1,0-.12l.12,0A.28.28,0,0,0,93.68,140.56Zm0-.27.21-.09a.56.56,0,0,0-.16.19l-.12.06A1.11,1.11,0,0,1,93.68,140.29Zm-.17.08.12-.06a.61.61,0,0,0-.09.18l-.07,0A.53.53,0,0,1,93.51,140.37Zm-.05.18.08,0a.41.41,0,0,0,0,.11l-.1,0S93.46,140.59,93.46,140.55Zm0,.2.08-.05v0l-.07.05A0,0,0,0,0,93.46,140.75Zm0,0,.07,0s0,0,0,.06l-.07,0S93.48,140.8,93.47,140.78Zm-.22.55a2,2,0,0,1,.29-.28h0a1.46,1.46,0,0,0-.22.23l.39-.08h0Zm.38-.36h0v0h0Zm0-.15.08,0h0l-.08,0Zm.12.39Zm0-.45Zm0,.06h0Zm0-.06v0h0Zm0,.44Zm0-.4Zm0-.2v.06h0v-.06l0,0v.06h0s0,0,0-.06l0,0a.13.13,0,0,0,0,.06l-.09.05s0,0,0-.06l.09-.05h0l-.09,0v0l.09-.05v0h0l0,0h0l0,0h0l.08,0Zm0-.1h0a.35.35,0,0,1,.06-.14l0,0A.53.53,0,0,0,93.79,140.5Zm.08.1a.14.14,0,0,1,0-.06h0s0,0,0,.06Zm0,.37h0Zm.06-.54h0A.05.05,0,0,0,94,140.43Zm.11-.06h0l-.1,0a.21.21,0,0,1,.1-.06h0Zm0,0v0h0l0,0Zm.07.5Zm0-.25Zm0,0Zm0,0h0Zm0,0h0Zm0,0Zm.07-.25-.09,0h0l.07,0-.11,0v0a.33.33,0,0,1,.17,0h0l0,0A.18.18,0,0,0,94.24,140.35Zm.08,0h0Zm.09,0h0v0h0l.05.06h0s0-.05,0-.06h0Zm0,.19a.18.18,0,0,0,0-.07s0,0,.06.07Zm0,0Zm0,0h0Zm0,0h0Zm0,0h0Zm0,0h0Zm0,0h0Zm0,0h0Zm0,0h-.1l0,0,0,0h0l0,0,0,0,0,0h0l0-.06,0,0,0,0h0Zm0,0Zm0,0h0Zm0,0Zm0,0h0l.06,0Zm.05-.14h0Zm.09,0h0v0Zm5.71-.19c2-.07,8.26-.11,9.55-.13-.2,0,.12,0,.68,0-.33,0-4.55.05-5.36.06Zm5.27.06c1.09,0,4.65-.06,5.55-.05Zm35.41-.49,2.36,0-2.82.05Zm-4.54,0h0Zm.68,0h.35l-3.1,0Zm-3.46,0h-1.36C132.55,139.69,133.33,139.69,133.84,139.7Zm-1.91,0h-4.67C127.7,139.7,131.59,139.71,131.93,139.7Zm3.43.1-3.27,0c1.16,0,2.73,0,3.95,0-3,.1-6.36,0-9.4,0C129,139.84,133.15,139.79,135.36,139.8Zm-1.56.15c-.49,0-3.07,0-3.49,0l1.93,0C131.79,140,133.54,140,133.8,140Zm-10.29-.21c-3.3,0,1.2,0,1.69,0Zm-11.35.3c1,0,2.66,0,3.68,0Zm4.49,31.26c8.39.11,16.79.17,25.18.34C133.51,171.5,125,171.46,116.65,171.3Zm20.22-31.52,2.85,0h2.21C141.33,139.76,137.12,139.81,136.87,139.78Zm7,.07H143l.76,0a11,11,0,0,1-1.32-.12l5.68-.08A38.64,38.64,0,0,1,143.91,139.85Zm6.49-.09c1.66,0,3.32,0,4.69,0-.72,0-2.49,0-3.64,0C151.11,139.78,150.76,139.76,150.4,139.76Zm2.75.16-.19,0a9.49,9.49,0,0,1,3.3.45A10,10,0,0,0,153.15,139.92Zm2.84.57-.46-.19a5.06,5.06,0,0,1,.59.23Zm1,.43-.12-.07a.26.26,0,0,1-.09,0,8.43,8.43,0,0,0-1.6-.67,4.87,4.87,0,0,1,1.83.81Zm1.57,1.59a.67.67,0,0,0,0-.2.38.38,0,0,1,0,.15,4.88,4.88,0,0,1,1.42.78A4.49,4.49,0,0,0,158.55,142.51Zm18.32,17.86-1.48-1.65C176,159.36,176.49,159.93,176.87,160.37Zm-2.54-2.8c-.33-.32-.65-.66-1-1l2.42,2.66-2.9-3.15.48.49-.77-.84Q173.46,156.67,174.33,157.57Zm-7.58-7.89c.92.9,2,2,3.06,3.11l-1.79-2-1.07-1.1.74.74-.22-.24.29.31c1,1,2.55,2.62,2.61,2.69l-.31-.3c.22.24-.82-.84-1.77-1.82l3.61,3.9c-.7-.75-1.4-1.5-2.09-2.22.21.24.43.48.65.71C169.15,152.12,167.86,150.78,166.75,149.68Zm.69.92c1.12,1.11,4.52,4.66,5.18,5.44-.39-.35-1.5-1.64-2-2.17C169.54,152.77,168.54,151.71,167.44,150.6Zm3.13,3.31c.27.25,2.31,2.45,2.56,2.75C172.89,156.39,170.85,154.19,170.57,153.91Z"/><path class="cls-2" d="M158,141.1a8.86,8.86,0,0,1,.69.85s0,0,0,0l-.12-.18a1,1,0,0,1,.11.17,2.24,2.24,0,0,0-.54-.7,2.29,2.29,0,0,0-.23-.21l-.24-.2C157.72,140.87,157.85,141,158,141.1Z"/><path class="cls-2" d="M92.35,141.24h0c.08-.07.14-.16.21-.23S92.42,141.16,92.35,141.24Z"/><path class="cls-2" d="M91.84,141.8a5.07,5.07,0,0,1,.49-.54h0C92.18,141.43,92,141.62,91.84,141.8Z"/><path class="cls-2" d="M93.94,140.05h0Z"/><path class="cls-2" d="M183.83,169.78h0l0,.05Z"/><path class="cls-2" d="M158.91,142.32l-.06-.08,0,0a.33.33,0,0,0,.06.1c-.06,0-.11,0-.09-.11h0l-.09-.07h0c0,.08.1.16.13.24l.12,0,0,0a3,3,0,0,1,.3.18l.08,0-.33-.25A.11.11,0,0,0,158.91,142.32Z"/><polygon class="cls-2" points="94.52 140.45 94.52 140.45 94.52 140.45 94.53 140.45 94.53 140.45 94.52 140.45"/><path class="cls-2" d="M132.58,140h0Z"/><path class="cls-2" d="M153,139.34l-.67-.07h.28l.59,0H152a37.2,37.2,0,0,0-3.82,0l-1.5,0h1.19l-1.77.09-.93,0H146l-.72.05-.78,0,.67,0-1.37.1,7.93-.09Z"/><path class="cls-2" d="M80.77,172.59c-.08,0-3.55,0-4.06,0s-2.76,0-2.84,0a11.76,11.76,0,0,1-4-.34c.19.1.4.18.62.27C72.6,172.73,78.05,172.58,80.77,172.59Z"/><path class="cls-2" d="M69.9,172.19a4,4,0,0,1-1.44-1.1c-.06-.06-.11-.13-.16-.19A3.06,3.06,0,0,0,69.9,172.19Z"/><path class="cls-2" d="M119.23,139.58c6.18-.05,12.46,0,18.66-.08h-.69c.29,0,1.38,0,1.87-.05C132.54,139.52,125,139.47,119.23,139.58Z"/><path class="cls-2" d="M171.66,154.33c1.53,1.68,3.21,3.48,4.73,5.18-2.52-2.94-5.54-6.09-8.38-9l.88.89c-.83-.91-1.79-1.84-2.75-2.8.22.23.16.19-.08,0C167.93,150.49,169.83,152.41,171.66,154.33Z"/><path class="cls-2" d="M85.73,148.69c1.3-1.46,2.41-2.71,3.7-4.18l-1.07,1.21c.34-.33,1.76-1.95,2-2.29l-4.91,5.46c-.16.19.06,0,.22-.2-.41.46-.83.92-1.1,1.24C85,149.49,85.31,149.13,85.73,148.69Z"/><path class="cls-2" d="M93.82,140l0,0s0,0,.07,0Z"/><path class="cls-2" d="M95.49,139.69a3.93,3.93,0,0,0-.81.11c.28,0,.56-.09.83-.11Z"/><path class="cls-2" d="M95.51,139.69c1,0,2.37,0,3.29-.08C97.69,139.66,96.61,139.61,95.51,139.69Z"/><path class="cls-2" d="M120.66,139.44c-.59,0-.15,0,.35,0-.5,0-.61,0-.17,0-1.28,0-3.27,0-4.3,0h1.28c-.34,0-2,0-1.2,0h1.46C118.26,139.48,120.31,139.46,120.66,139.44Z"/><path class="cls-2" d="M78.77,156.39l2.41-2.68,2.76-3.11C83.1,151.52,79.4,155.61,78.77,156.39Z"/><path class="cls-2" d="M144.73,171.72a7.23,7.23,0,1,1,.83,0c-2.8,0,2.46.05,3.26,0h.25C148.26,171.7,145.66,171.72,144.73,171.72Z"/><path class="cls-2" d="M132.34,139.36h4l-2.94,0c1.23,0,7.42-.06,3.53,0l2.15,0Z"/><path class="cls-2" d="M105.19,139.73l6.12-.06C110.33,139.62,106.76,139.7,105.19,139.73Z"/><path class="cls-2" d="M159.83,142.46c-2.17-1.27,1.14.69,1.25,1,.71.6,1.47,1.38,2,2l-1-1,.31.3A13.6,13.6,0,0,0,159.83,142.46Z"/><path class="cls-2" d="M107.24,139.51c-.58,0-.73,0-.66,0-.39,0-2.59,0-3.21.06l2.18,0-1.08,0C105.26,139.56,107.12,139.55,107.24,139.51Z"/><path class="cls-2" d="M85.73,172.47c-1.19,0-2.66,0-3.92.1.27,0,4.12-.07,4.39-.09l-1,0Z"/><path class="cls-2" d="M156.31,139.48a2.54,2.54,0,0,0-.74-.2,4.39,4.39,0,0,0-.66-.09,6.07,6.07,0,0,1,3.06,1.35A5.22,5.22,0,0,0,156.31,139.48Z"/><path class="cls-2" d="M158.08,140.63l.11.11h0Z"/><path class="cls-2" d="M158.19,140.74l.22.22C158.34,140.88,158.26,140.81,158.19,140.74Z"/><path class="cls-2" d="M77.92,157.63,82.09,153C81.15,154,78.56,156.93,77.92,157.63Z"/><path class="cls-2" d="M76.78,158.66c.77-.85,1-1.18,1.39-1.6-.33.36-.54.61-.75.82l.45-.51c-.21.22-.9,1-1.23,1.38l.25-.25-.47.53C76.55,158.91,77.19,158.16,76.78,158.66Z"/><path class="cls-2" d="M95.87,139.89a5.45,5.45,0,0,0-1.11.1A9.74,9.74,0,0,1,95.87,139.89Z"/><path class="cls-2" d="M102.73,139.56c.68,0-2.46,0-2.86,0C100.42,139.6,102.22,139.59,102.73,139.56Z"/><path class="cls-2" d="M81.28,153.64c.65-.71,1.37-1.52,1.84-2.07C82.43,152.31,81.73,153.1,81.28,153.64Z"/><path class="cls-2" d="M114.3,139.58l3.47,0C116.88,139.55,115.07,139.56,114.3,139.58Z"/><path class="cls-2" d="M163.37,145.66c.06.08,1.66,1.85,1.89,2.06C165.6,148.08,163.63,145.93,163.37,145.66Z"/><path class="cls-2" d="M81.65,172.53c-.43,0-3.43,0-2.38,0C79.92,172.57,81.3,172.56,81.65,172.53Z"/><path class="cls-2" d="M176.65,159.8l2.46,2.73c.1.09-1.05-1.19-1.33-1.5C177.22,160.4,177,160.17,176.65,159.8Z"/><path class="cls-2" d="M126.56,139.4c-.68,0-2.23,0-3,0,.3,0-.34,0-.47,0Z"/><path class="cls-2" d="M113.44,139.46c-.31,0-2.36,0-2.46,0h1.39l-1.32,0Z"/><path class="cls-2" d="M129.1,139.37c-.34,0,2.4,0,2.8,0Z"/><path class="cls-2" d="M144.79,139.23c.88,0,1.74,0,2.51,0C146.45,139.19,145.56,139.2,144.79,139.23Z"/><path class="cls-2" d="M154.66,139.17h-.21c-.66,0-1.3,0-2,0h1.1c-.65,0-.89,0,.4,0h.32l.62,0-.22,0h0Z"/><path class="cls-2" d="M141.25,139.31c.89,0,2,0,2.29,0Z"/><path class="cls-2" d="M85.22,149.21c-.13.12-1,1-1.12,1.23S85.1,149.34,85.22,149.21Z"/><path class="cls-2" d="M78.22,157.17l-1.42,1.6Z"/><path class="cls-2" d="M127.84,139.57h-2C126,139.59,127.51,139.58,127.84,139.57Z"/><path class="cls-2" d="M80.85,154.34c.35-.37,1.16-1.27,1.6-1.77C81.87,153.2,81.4,153.73,80.85,154.34Z"/><path class="cls-2" d="M103.13,139.58l-1.9,0Z"/><path class="cls-2" d="M162.41,144.71l1.25,1.33C163.81,146.17,162.53,144.81,162.41,144.71Z"/><path class="cls-2" d="M89.25,172.34c.06,0,1.31,0,1.67-.06C90.86,172.27,89.54,172.33,89.25,172.34Z"/><path class="cls-2" d="M85.71,148.85c-.17.17-1,1.17-1.17,1.31C84.63,150.07,85.62,149,85.71,148.85Z"/><path class="cls-2" d="M113.82,139.44h0Z"/><path class="cls-2" d="M115.71,139.43h0Z"/><path class="cls-2" d="M114.79,139.89h-1.48l2.07,0Z"/><path class="cls-2" d="M107.47,140c.09,0,1.31,0,1.45,0C108.85,139.94,107.38,140,107.47,140Z"/></g></g></svg>